<?xml version="1.0" encoding="UTF-8" standalone="no"?>
<!DOCTYPE svg PUBLIC "-//W3C//DTD SVG 1.1//EN" "http://www.w3.org/Graphics/SVG/1.1/DTD/svg11.dtd">
<svg width="100%" height="100%" viewBox="0 0 1920 1080" version="1.1" xmlns="http://www.w3.org/2000/svg" xmlns:xlink="http://www.w3.org/1999/xlink" xml:space="preserve" xmlns:serif="http://www.serif.com/" style="fill-rule:evenodd;clip-rule:evenodd;stroke-linejoin:round;stroke-miterlimit:2;">
    <g transform="matrix(1,0,0,1,-9.38155,57.6206)">
        <g transform="matrix(112,0,0,112,21.5612,58.4566)">
            <path d="M0.191,-0L0.191,-0.085L0.267,-0.1L0.267,-0.601L0.138,-0.601L0.13,-0.516L0.022,-0.516L0.022,-0.711L0.656,-0.711L0.656,-0.516L0.548,-0.516L0.54,-0.601L0.41,-0.601L0.41,-0.1L0.486,-0.085L0.486,-0L0.191,-0Z" style="fill-rule:nonzero;"/>
        </g>
        <g transform="matrix(112,0,0,112,92.655,58.4566)">
            <path d="M0.026,-0L0.026,-0.085L0.095,-0.1L0.095,-0.428L0.019,-0.442L0.019,-0.528L0.238,-0.528L0.238,-0.1L0.306,-0.085L0.306,-0L0.026,-0ZM0.09,-0.64L0.09,-0.762L0.238,-0.762L0.238,-0.64L0.09,-0.64Z" style="fill-rule:nonzero;"/>
        </g>
        <g transform="matrix(112,0,0,112,128.803,58.4566)">
            <path d="M0.238,0.01C0.189,0.01 0.151,-0.003 0.125,-0.03C0.098,-0.057 0.085,-0.1 0.085,-0.159L0.085,-0.428L0.012,-0.428L0.012,-0.528L0.085,-0.528L0.085,-0.658L0.227,-0.658L0.227,-0.528L0.324,-0.528L0.324,-0.428L0.227,-0.428L0.227,-0.159C0.227,-0.139 0.231,-0.124 0.24,-0.115C0.249,-0.106 0.26,-0.102 0.275,-0.102C0.283,-0.102 0.292,-0.103 0.301,-0.104C0.31,-0.105 0.318,-0.106 0.324,-0.107L0.336,-0.004C0.322,-0 0.306,0.003 0.289,0.006C0.272,0.009 0.255,0.01 0.238,0.01Z" style="fill-rule:nonzero;"/>
        </g>
        <g transform="matrix(112,0,0,112,168.999,58.4566)">
            <path d="M0.023,-0L0.023,-0.085L0.092,-0.1L0.092,-0.661L0.016,-0.676L0.016,-0.762L0.234,-0.762L0.234,-0.1L0.303,-0.085L0.303,-0L0.023,-0Z" style="fill-rule:nonzero;"/>
        </g>
        <g transform="matrix(112,0,0,112,203.616,58.4566)">
            <path d="M0.284,0.01C0.233,0.01 0.189,-0.001 0.151,-0.023C0.114,-0.045 0.084,-0.076 0.064,-0.115C0.043,-0.154 0.033,-0.199 0.033,-0.249L0.033,-0.269C0.033,-0.321 0.042,-0.367 0.062,-0.408C0.082,-0.448 0.109,-0.48 0.145,-0.504C0.18,-0.527 0.222,-0.538 0.271,-0.538C0.319,-0.538 0.359,-0.529 0.392,-0.51C0.424,-0.491 0.449,-0.464 0.466,-0.428C0.483,-0.393 0.491,-0.35 0.491,-0.299L0.491,-0.222L0.181,-0.222L0.18,-0.219C0.182,-0.196 0.187,-0.175 0.197,-0.157C0.207,-0.139 0.22,-0.125 0.238,-0.115C0.255,-0.104 0.277,-0.099 0.302,-0.099C0.328,-0.099 0.352,-0.102 0.375,-0.109C0.397,-0.116 0.419,-0.126 0.441,-0.139L0.479,-0.051C0.458,-0.033 0.43,-0.019 0.397,-0.007C0.364,0.004 0.326,0.01 0.284,0.01ZM0.182,-0.316L0.358,-0.316L0.358,-0.329C0.358,-0.35 0.355,-0.369 0.349,-0.384C0.344,-0.399 0.335,-0.411 0.322,-0.42C0.309,-0.428 0.293,-0.433 0.273,-0.433C0.255,-0.433 0.239,-0.428 0.226,-0.418C0.213,-0.408 0.202,-0.394 0.195,-0.377C0.188,-0.36 0.183,-0.34 0.18,-0.318L0.182,-0.316Z" style="fill-rule:nonzero;"/>
        </g>
        <g transform="matrix(112,0,0,112,290.022,58.4566)">
            <path d="M0.286,0.22C0.254,0.206 0.224,0.185 0.195,0.156C0.166,0.126 0.14,0.09 0.118,0.047C0.095,0.004 0.077,-0.045 0.063,-0.1C0.05,-0.155 0.043,-0.215 0.043,-0.278L0.043,-0.289C0.043,-0.353 0.05,-0.412 0.063,-0.467C0.077,-0.522 0.095,-0.571 0.118,-0.614C0.14,-0.658 0.166,-0.694 0.195,-0.723C0.224,-0.752 0.254,-0.774 0.286,-0.787L0.289,-0.787L0.314,-0.716C0.293,-0.7 0.274,-0.679 0.255,-0.653C0.237,-0.628 0.221,-0.597 0.207,-0.562C0.193,-0.526 0.183,-0.486 0.175,-0.44C0.167,-0.395 0.164,-0.345 0.164,-0.29L0.164,-0.277C0.164,-0.222 0.167,-0.172 0.175,-0.127C0.183,-0.082 0.193,-0.041 0.207,-0.006C0.221,0.03 0.237,0.061 0.255,0.086C0.274,0.112 0.293,0.133 0.314,0.15L0.289,0.22L0.286,0.22Z" style="fill-rule:nonzero;"/>
        </g>
        <g transform="matrix(112,0,0,112,327.483,58.4566)">
            <path d="M0.257,0.01C0.218,0.01 0.181,0.007 0.147,-0.001C0.113,-0.008 0.081,-0.019 0.049,-0.033L0.048,-0.183L0.147,-0.183L0.166,-0.106C0.177,-0.101 0.189,-0.097 0.202,-0.093C0.216,-0.09 0.231,-0.088 0.248,-0.088C0.279,-0.088 0.302,-0.094 0.315,-0.104C0.328,-0.114 0.334,-0.127 0.334,-0.143C0.334,-0.158 0.328,-0.171 0.314,-0.182C0.3,-0.193 0.272,-0.203 0.231,-0.211C0.168,-0.224 0.122,-0.245 0.093,-0.272C0.063,-0.299 0.048,-0.334 0.048,-0.377C0.048,-0.406 0.056,-0.433 0.071,-0.457C0.085,-0.481 0.108,-0.5 0.138,-0.515C0.169,-0.53 0.208,-0.537 0.255,-0.537C0.295,-0.537 0.331,-0.533 0.365,-0.526C0.398,-0.518 0.425,-0.508 0.448,-0.496L0.449,-0.351L0.351,-0.351L0.335,-0.42C0.327,-0.427 0.316,-0.432 0.304,-0.435C0.293,-0.438 0.279,-0.44 0.264,-0.44C0.239,-0.44 0.22,-0.435 0.207,-0.425C0.193,-0.415 0.187,-0.402 0.187,-0.386C0.187,-0.377 0.189,-0.368 0.194,-0.36C0.198,-0.353 0.208,-0.345 0.222,-0.338C0.236,-0.332 0.256,-0.325 0.283,-0.319C0.348,-0.304 0.396,-0.284 0.426,-0.259C0.456,-0.234 0.471,-0.199 0.471,-0.154C0.471,-0.105 0.453,-0.065 0.417,-0.035C0.382,-0.005 0.328,0.01 0.257,0.01Z" style="fill-rule:nonzero;"/>
        </g>
        <g transform="matrix(112,0,0,112,384.03,58.4566)">
            <path d="M0.023,-0L0.023,-0.085L0.092,-0.1L0.092,-0.661L0.016,-0.676L0.016,-0.762L0.234,-0.762L0.234,-0.461C0.25,-0.485 0.271,-0.504 0.296,-0.518C0.32,-0.531 0.348,-0.538 0.379,-0.538C0.432,-0.538 0.475,-0.52 0.506,-0.485C0.537,-0.45 0.552,-0.395 0.552,-0.321L0.552,-0.1L0.621,-0.085L0.621,-0L0.348,-0L0.348,-0.085L0.41,-0.1L0.41,-0.322C0.41,-0.36 0.403,-0.387 0.388,-0.403C0.374,-0.419 0.353,-0.427 0.325,-0.427C0.306,-0.427 0.288,-0.423 0.273,-0.415C0.257,-0.407 0.244,-0.396 0.234,-0.38L0.234,-0.1L0.295,-0.085L0.295,-0L0.023,-0Z" style="fill-rule:nonzero;"/>
        </g>
        <g transform="matrix(112,0,0,112,454.686,58.4566)">
            <path d="M0.283,0.01C0.231,0.01 0.186,-0.001 0.148,-0.024C0.111,-0.047 0.082,-0.078 0.063,-0.119C0.043,-0.159 0.033,-0.206 0.033,-0.259L0.033,-0.269C0.033,-0.321 0.043,-0.368 0.063,-0.408C0.082,-0.449 0.111,-0.481 0.148,-0.504C0.185,-0.527 0.23,-0.538 0.282,-0.538C0.334,-0.538 0.379,-0.527 0.416,-0.504C0.453,-0.481 0.482,-0.449 0.501,-0.409C0.521,-0.368 0.531,-0.322 0.531,-0.269L0.531,-0.259C0.531,-0.206 0.521,-0.159 0.501,-0.119C0.482,-0.078 0.453,-0.047 0.416,-0.024C0.379,-0.001 0.334,0.01 0.283,0.01ZM0.283,-0.099C0.307,-0.099 0.328,-0.106 0.343,-0.119C0.359,-0.132 0.37,-0.151 0.378,-0.175C0.385,-0.199 0.389,-0.227 0.389,-0.259L0.389,-0.269C0.389,-0.3 0.385,-0.328 0.378,-0.352C0.37,-0.376 0.359,-0.394 0.343,-0.408C0.327,-0.421 0.307,-0.428 0.282,-0.428C0.257,-0.428 0.237,-0.421 0.221,-0.408C0.205,-0.394 0.194,-0.376 0.186,-0.352C0.179,-0.328 0.175,-0.3 0.175,-0.269L0.175,-0.259C0.175,-0.227 0.179,-0.199 0.186,-0.175C0.194,-0.151 0.205,-0.132 0.221,-0.119C0.237,-0.106 0.258,-0.099 0.283,-0.099Z" style="fill-rule:nonzero;"/>
        </g>
        <g transform="matrix(112,0,0,112,517.85,58.4566)">
            <path d="M0.042,-0L0.042,-0.085L0.11,-0.1L0.11,-0.428L0.034,-0.442L0.034,-0.528L0.243,-0.528L0.249,-0.451C0.262,-0.48 0.278,-0.501 0.297,-0.516C0.317,-0.531 0.34,-0.538 0.366,-0.538C0.375,-0.538 0.384,-0.537 0.394,-0.536C0.404,-0.534 0.413,-0.533 0.421,-0.53L0.406,-0.399L0.335,-0.403C0.315,-0.404 0.298,-0.4 0.286,-0.393C0.273,-0.385 0.262,-0.374 0.252,-0.359L0.252,-0.1L0.321,-0.085L0.321,-0L0.042,-0Z" style="fill-rule:nonzero;"/>
        </g>
        <g transform="matrix(112,0,0,112,567.616,58.4566)">
            <path d="M0.238,0.01C0.189,0.01 0.151,-0.003 0.125,-0.03C0.098,-0.057 0.085,-0.1 0.085,-0.159L0.085,-0.428L0.012,-0.428L0.012,-0.528L0.085,-0.528L0.085,-0.658L0.227,-0.658L0.227,-0.528L0.324,-0.528L0.324,-0.428L0.227,-0.428L0.227,-0.159C0.227,-0.139 0.231,-0.124 0.24,-0.115C0.249,-0.106 0.26,-0.102 0.275,-0.102C0.283,-0.102 0.292,-0.103 0.301,-0.104C0.31,-0.105 0.318,-0.106 0.324,-0.107L0.336,-0.004C0.322,-0 0.306,0.003 0.289,0.006C0.272,0.009 0.255,0.01 0.238,0.01Z" style="fill-rule:nonzero;"/>
        </g>
        <g transform="matrix(112,0,0,112,607.811,58.4566)">
            <path d="M0.099,0.178L0.028,0.14C0.041,0.117 0.051,0.093 0.058,0.069C0.064,0.045 0.068,0.018 0.068,-0.012L0.068,-0.119L0.196,-0.119L0.195,-0.019C0.195,0.019 0.186,0.055 0.167,0.09C0.149,0.125 0.126,0.154 0.099,0.178Z" style="fill-rule:nonzero;"/>
        </g>
        <g transform="matrix(112,0,0,112,662.772,58.4566)">
            <path d="M0.027,0.203L0.027,0.117L0.096,0.103L0.096,-0.428L0.02,-0.442L0.02,-0.528L0.227,-0.528L0.234,-0.467C0.25,-0.49 0.268,-0.507 0.291,-0.52C0.313,-0.532 0.339,-0.538 0.37,-0.538C0.412,-0.538 0.449,-0.526 0.479,-0.503C0.509,-0.48 0.532,-0.447 0.549,-0.406C0.565,-0.364 0.573,-0.315 0.573,-0.26L0.573,-0.25C0.573,-0.197 0.565,-0.152 0.549,-0.113C0.532,-0.074 0.509,-0.044 0.479,-0.022C0.448,-0.001 0.412,0.01 0.369,0.01C0.34,0.01 0.315,0.005 0.294,-0.005C0.272,-0.015 0.254,-0.03 0.238,-0.05L0.238,0.103L0.307,0.117L0.307,0.203L0.027,0.203ZM0.326,-0.099C0.363,-0.099 0.389,-0.113 0.406,-0.14C0.422,-0.167 0.43,-0.203 0.43,-0.25L0.43,-0.26C0.43,-0.293 0.426,-0.323 0.419,-0.347C0.411,-0.372 0.4,-0.392 0.385,-0.406C0.369,-0.42 0.349,-0.427 0.325,-0.427C0.306,-0.427 0.288,-0.423 0.274,-0.414C0.259,-0.405 0.247,-0.393 0.238,-0.376L0.238,-0.145C0.247,-0.13 0.259,-0.119 0.274,-0.111C0.288,-0.103 0.306,-0.099 0.326,-0.099Z" style="fill-rule:nonzero;"/>
        </g>
        <g transform="matrix(112,0,0,112,730.585,58.4566)">
            <path d="M0.042,-0L0.042,-0.085L0.11,-0.1L0.11,-0.428L0.034,-0.442L0.034,-0.528L0.243,-0.528L0.249,-0.451C0.262,-0.48 0.278,-0.501 0.297,-0.516C0.317,-0.531 0.34,-0.538 0.366,-0.538C0.375,-0.538 0.384,-0.537 0.394,-0.536C0.404,-0.534 0.413,-0.533 0.421,-0.53L0.406,-0.399L0.335,-0.403C0.315,-0.404 0.298,-0.4 0.286,-0.393C0.273,-0.385 0.262,-0.374 0.252,-0.359L0.252,-0.1L0.321,-0.085L0.321,-0L0.042,-0Z" style="fill-rule:nonzero;"/>
        </g>
        <g transform="matrix(112,0,0,112,777.944,58.4566)">
            <path d="M0.284,0.01C0.233,0.01 0.189,-0.001 0.151,-0.023C0.114,-0.045 0.084,-0.076 0.064,-0.115C0.043,-0.154 0.033,-0.199 0.033,-0.249L0.033,-0.269C0.033,-0.321 0.042,-0.367 0.062,-0.408C0.082,-0.448 0.109,-0.48 0.145,-0.504C0.18,-0.527 0.222,-0.538 0.271,-0.538C0.319,-0.538 0.359,-0.529 0.392,-0.51C0.424,-0.491 0.449,-0.464 0.466,-0.428C0.483,-0.393 0.491,-0.35 0.491,-0.299L0.491,-0.222L0.181,-0.222L0.18,-0.219C0.182,-0.196 0.187,-0.175 0.197,-0.157C0.207,-0.139 0.22,-0.125 0.238,-0.115C0.255,-0.104 0.277,-0.099 0.302,-0.099C0.328,-0.099 0.352,-0.102 0.375,-0.109C0.397,-0.116 0.419,-0.126 0.441,-0.139L0.479,-0.051C0.458,-0.033 0.43,-0.019 0.397,-0.007C0.364,0.004 0.326,0.01 0.284,0.01ZM0.182,-0.316L0.358,-0.316L0.358,-0.329C0.358,-0.35 0.355,-0.369 0.349,-0.384C0.344,-0.399 0.335,-0.411 0.322,-0.42C0.309,-0.428 0.293,-0.433 0.273,-0.433C0.255,-0.433 0.239,-0.428 0.226,-0.418C0.213,-0.408 0.202,-0.394 0.195,-0.377C0.188,-0.36 0.183,-0.34 0.18,-0.318L0.182,-0.316Z" style="fill-rule:nonzero;"/>
        </g>
        <g transform="matrix(112,0,0,112,836.897,58.4566)">
            <path d="M0.039,-0L0.039,-0.085L0.107,-0.1L0.107,-0.428L0.029,-0.428L0.029,-0.528L0.107,-0.528L0.107,-0.587C0.107,-0.646 0.124,-0.692 0.158,-0.724C0.192,-0.756 0.24,-0.772 0.301,-0.772C0.317,-0.772 0.333,-0.771 0.35,-0.768C0.367,-0.766 0.381,-0.763 0.393,-0.76L0.381,-0.654C0.373,-0.656 0.364,-0.658 0.354,-0.659C0.344,-0.66 0.334,-0.661 0.323,-0.661C0.299,-0.661 0.28,-0.654 0.268,-0.642C0.256,-0.629 0.25,-0.611 0.25,-0.587L0.25,-0.528L0.37,-0.528L0.37,-0.428L0.25,-0.428L0.25,-0.1L0.343,-0.085L0.343,-0L0.039,-0Z" style="fill-rule:nonzero;"/>
        </g>
        <g transform="matrix(112,0,0,112,880.592,58.4566)">
            <path d="M0.284,0.01C0.233,0.01 0.189,-0.001 0.151,-0.023C0.114,-0.045 0.084,-0.076 0.064,-0.115C0.043,-0.154 0.033,-0.199 0.033,-0.249L0.033,-0.269C0.033,-0.321 0.042,-0.367 0.062,-0.408C0.082,-0.448 0.109,-0.48 0.145,-0.504C0.18,-0.527 0.222,-0.538 0.271,-0.538C0.319,-0.538 0.359,-0.529 0.392,-0.51C0.424,-0.491 0.449,-0.464 0.466,-0.428C0.483,-0.393 0.491,-0.35 0.491,-0.299L0.491,-0.222L0.181,-0.222L0.18,-0.219C0.182,-0.196 0.187,-0.175 0.197,-0.157C0.207,-0.139 0.22,-0.125 0.238,-0.115C0.255,-0.104 0.277,-0.099 0.302,-0.099C0.328,-0.099 0.352,-0.102 0.375,-0.109C0.397,-0.116 0.419,-0.126 0.441,-0.139L0.479,-0.051C0.458,-0.033 0.43,-0.019 0.397,-0.007C0.364,0.004 0.326,0.01 0.284,0.01ZM0.182,-0.316L0.358,-0.316L0.358,-0.329C0.358,-0.35 0.355,-0.369 0.349,-0.384C0.344,-0.399 0.335,-0.411 0.322,-0.42C0.309,-0.428 0.293,-0.433 0.273,-0.433C0.255,-0.433 0.239,-0.428 0.226,-0.418C0.213,-0.408 0.202,-0.394 0.195,-0.377C0.188,-0.36 0.183,-0.34 0.18,-0.318L0.182,-0.316Z" style="fill-rule:nonzero;"/>
        </g>
        <g transform="matrix(112,0,0,112,939.546,58.4566)">
            <path d="M0.042,-0L0.042,-0.085L0.11,-0.1L0.11,-0.428L0.034,-0.442L0.034,-0.528L0.243,-0.528L0.249,-0.451C0.262,-0.48 0.278,-0.501 0.297,-0.516C0.317,-0.531 0.34,-0.538 0.366,-0.538C0.375,-0.538 0.384,-0.537 0.394,-0.536C0.404,-0.534 0.413,-0.533 0.421,-0.53L0.406,-0.399L0.335,-0.403C0.315,-0.404 0.298,-0.4 0.286,-0.393C0.273,-0.385 0.262,-0.374 0.252,-0.359L0.252,-0.1L0.321,-0.085L0.321,-0L0.042,-0Z" style="fill-rule:nonzero;"/>
        </g>
        <g transform="matrix(112,0,0,112,986.905,58.4566)">
            <path d="M0.208,0.01C0.155,0.01 0.113,-0.004 0.083,-0.032C0.052,-0.06 0.036,-0.098 0.036,-0.147C0.036,-0.18 0.045,-0.209 0.063,-0.234C0.081,-0.259 0.108,-0.279 0.143,-0.293C0.179,-0.308 0.222,-0.315 0.274,-0.315L0.344,-0.315L0.344,-0.354C0.344,-0.379 0.336,-0.4 0.322,-0.416C0.307,-0.432 0.285,-0.439 0.255,-0.439C0.24,-0.439 0.226,-0.438 0.214,-0.434C0.201,-0.43 0.19,-0.425 0.181,-0.418L0.169,-0.348L0.067,-0.348L0.065,-0.485C0.093,-0.501 0.123,-0.514 0.155,-0.523C0.187,-0.533 0.223,-0.538 0.263,-0.538C0.332,-0.538 0.386,-0.522 0.426,-0.49C0.466,-0.458 0.486,-0.412 0.486,-0.353L0.486,-0.135C0.486,-0.128 0.486,-0.121 0.487,-0.114C0.487,-0.107 0.487,-0.1 0.488,-0.093L0.543,-0.085L0.543,-0L0.367,-0C0.363,-0.009 0.36,-0.019 0.356,-0.029C0.352,-0.04 0.35,-0.05 0.348,-0.061C0.331,-0.039 0.311,-0.022 0.288,-0.009C0.265,0.004 0.238,0.01 0.208,0.01ZM0.246,-0.095C0.265,-0.095 0.284,-0.1 0.302,-0.109C0.32,-0.118 0.334,-0.129 0.344,-0.144L0.344,-0.228L0.273,-0.228C0.242,-0.228 0.219,-0.22 0.202,-0.206C0.186,-0.192 0.178,-0.174 0.178,-0.154C0.178,-0.135 0.184,-0.121 0.196,-0.111C0.208,-0.1 0.224,-0.095 0.246,-0.095Z" style="fill-rule:nonzero;"/>
        </g>
        <g transform="matrix(112,0,0,112,1049.96,58.4566)">
            <path d="M0.34,0.01C0.307,0.01 0.279,0.004 0.256,-0.009C0.233,-0.022 0.214,-0.041 0.198,-0.065L0.188,-0L0.065,-0L0.065,-0.661L-0.011,-0.676L-0.011,-0.762L0.207,-0.762L0.207,-0.472C0.222,-0.493 0.241,-0.51 0.263,-0.521C0.286,-0.532 0.312,-0.538 0.341,-0.538C0.384,-0.538 0.42,-0.527 0.45,-0.504C0.48,-0.481 0.502,-0.448 0.518,-0.407C0.534,-0.365 0.542,-0.316 0.542,-0.26L0.542,-0.25C0.542,-0.197 0.534,-0.151 0.518,-0.113C0.502,-0.074 0.48,-0.043 0.45,-0.022C0.42,-0 0.383,0.01 0.34,0.01ZM0.297,-0.101C0.333,-0.101 0.36,-0.114 0.375,-0.139C0.391,-0.165 0.399,-0.202 0.399,-0.25L0.399,-0.26C0.399,-0.294 0.396,-0.324 0.389,-0.349C0.382,-0.374 0.371,-0.393 0.356,-0.407C0.341,-0.42 0.322,-0.427 0.298,-0.427C0.277,-0.427 0.258,-0.422 0.243,-0.412C0.228,-0.402 0.216,-0.388 0.207,-0.371L0.207,-0.15C0.217,-0.134 0.229,-0.122 0.244,-0.113C0.26,-0.105 0.277,-0.101 0.297,-0.101Z" style="fill-rule:nonzero;"/>
        </g>
        <g transform="matrix(112,0,0,112,1113.45,58.4566)">
            <path d="M0.023,-0L0.023,-0.085L0.092,-0.1L0.092,-0.661L0.016,-0.676L0.016,-0.762L0.234,-0.762L0.234,-0.1L0.303,-0.085L0.303,-0L0.023,-0Z" style="fill-rule:nonzero;"/>
        </g>
        <g transform="matrix(112,0,0,112,1149.16,58.4566)">
            <path d="M0.177,0.213C0.165,0.213 0.152,0.212 0.138,0.21C0.124,0.208 0.111,0.205 0.099,0.202L0.115,0.097C0.121,0.098 0.128,0.099 0.135,0.1C0.143,0.101 0.149,0.101 0.155,0.101C0.175,0.101 0.193,0.096 0.208,0.085C0.223,0.074 0.234,0.059 0.241,0.039L0.252,0.006L0.076,-0.433L0.011,-0.442L0.011,-0.528L0.291,-0.528L0.291,-0.442L0.227,-0.433L0.31,-0.2L0.32,-0.171L0.323,-0.171L0.421,-0.434L0.358,-0.442L0.358,-0.528L0.619,-0.528L0.619,-0.442L0.56,-0.434L0.358,0.079C0.348,0.103 0.336,0.125 0.321,0.146C0.305,0.166 0.286,0.182 0.263,0.195C0.24,0.207 0.211,0.213 0.177,0.213Z" style="fill-rule:nonzero;"/>
        </g>
        <g transform="matrix(112,0,0,112,1246.89,58.4566)">
            <path d="M0.026,-0L0.026,-0.085L0.095,-0.1L0.095,-0.428L0.019,-0.442L0.019,-0.528L0.238,-0.528L0.238,-0.1L0.306,-0.085L0.306,-0L0.026,-0ZM0.09,-0.64L0.09,-0.762L0.238,-0.762L0.238,-0.64L0.09,-0.64Z" style="fill-rule:nonzero;"/>
        </g>
        <g transform="matrix(112,0,0,112,1283.04,58.4566)">
            <path d="M0.025,-0L0.025,-0.085L0.094,-0.1L0.094,-0.428L0.018,-0.442L0.018,-0.528L0.227,-0.528L0.233,-0.453C0.25,-0.48 0.272,-0.501 0.298,-0.516C0.324,-0.531 0.354,-0.538 0.387,-0.538C0.439,-0.538 0.48,-0.521 0.51,-0.488C0.539,-0.454 0.554,-0.402 0.554,-0.33L0.554,-0.1L0.623,-0.085L0.623,-0L0.35,-0L0.35,-0.085L0.411,-0.1L0.411,-0.33C0.411,-0.365 0.404,-0.39 0.39,-0.405C0.376,-0.42 0.355,-0.427 0.328,-0.427C0.307,-0.427 0.289,-0.423 0.274,-0.414C0.259,-0.406 0.246,-0.393 0.236,-0.377L0.236,-0.1L0.294,-0.085L0.294,-0L0.025,-0Z" style="fill-rule:nonzero;"/>
        </g>
        <g transform="matrix(112,0,0,112,1354.51,58.4566)">
            <path d="M0.039,-0L0.039,-0.085L0.107,-0.1L0.107,-0.428L0.029,-0.428L0.029,-0.528L0.107,-0.528L0.107,-0.587C0.107,-0.646 0.124,-0.692 0.158,-0.724C0.192,-0.756 0.24,-0.772 0.301,-0.772C0.317,-0.772 0.333,-0.771 0.35,-0.768C0.367,-0.766 0.381,-0.763 0.393,-0.76L0.381,-0.654C0.373,-0.656 0.364,-0.658 0.354,-0.659C0.344,-0.66 0.334,-0.661 0.323,-0.661C0.299,-0.661 0.28,-0.654 0.268,-0.642C0.256,-0.629 0.25,-0.611 0.25,-0.587L0.25,-0.528L0.37,-0.528L0.37,-0.428L0.25,-0.428L0.25,-0.1L0.343,-0.085L0.343,-0L0.039,-0Z" style="fill-rule:nonzero;"/>
        </g>
        <g transform="matrix(112,0,0,112,1398.21,58.4566)">
            <path d="M0.283,0.01C0.231,0.01 0.186,-0.001 0.148,-0.024C0.111,-0.047 0.082,-0.078 0.063,-0.119C0.043,-0.159 0.033,-0.206 0.033,-0.259L0.033,-0.269C0.033,-0.321 0.043,-0.368 0.063,-0.408C0.082,-0.449 0.111,-0.481 0.148,-0.504C0.185,-0.527 0.23,-0.538 0.282,-0.538C0.334,-0.538 0.379,-0.527 0.416,-0.504C0.453,-0.481 0.482,-0.449 0.501,-0.409C0.521,-0.368 0.531,-0.322 0.531,-0.269L0.531,-0.259C0.531,-0.206 0.521,-0.159 0.501,-0.119C0.482,-0.078 0.453,-0.047 0.416,-0.024C0.379,-0.001 0.334,0.01 0.283,0.01ZM0.283,-0.099C0.307,-0.099 0.328,-0.106 0.343,-0.119C0.359,-0.132 0.37,-0.151 0.378,-0.175C0.385,-0.199 0.389,-0.227 0.389,-0.259L0.389,-0.269C0.389,-0.3 0.385,-0.328 0.378,-0.352C0.37,-0.376 0.359,-0.394 0.343,-0.408C0.327,-0.421 0.307,-0.428 0.282,-0.428C0.257,-0.428 0.237,-0.421 0.221,-0.408C0.205,-0.394 0.194,-0.376 0.186,-0.352C0.179,-0.328 0.175,-0.3 0.175,-0.269L0.175,-0.259C0.175,-0.227 0.179,-0.199 0.186,-0.175C0.194,-0.151 0.205,-0.132 0.221,-0.119C0.237,-0.106 0.258,-0.099 0.283,-0.099Z" style="fill-rule:nonzero;"/>
        </g>
        <g transform="matrix(112,0,0,112,1461.37,58.4566)">
            <path d="M0.042,-0L0.042,-0.085L0.11,-0.1L0.11,-0.428L0.034,-0.442L0.034,-0.528L0.243,-0.528L0.249,-0.451C0.262,-0.48 0.278,-0.501 0.297,-0.516C0.317,-0.531 0.34,-0.538 0.366,-0.538C0.375,-0.538 0.384,-0.537 0.394,-0.536C0.404,-0.534 0.413,-0.533 0.421,-0.53L0.406,-0.399L0.335,-0.403C0.315,-0.404 0.298,-0.4 0.286,-0.393C0.273,-0.385 0.262,-0.374 0.252,-0.359L0.252,-0.1L0.321,-0.085L0.321,-0L0.042,-0Z" style="fill-rule:nonzero;"/>
        </g>
        <g transform="matrix(112,0,0,112,1510.21,58.4566)">
            <path d="M0.025,-0L0.025,-0.085L0.094,-0.1L0.094,-0.428L0.018,-0.442L0.018,-0.528L0.227,-0.528L0.232,-0.458C0.249,-0.484 0.271,-0.503 0.296,-0.517C0.322,-0.531 0.351,-0.538 0.385,-0.538C0.419,-0.538 0.448,-0.531 0.472,-0.516C0.496,-0.501 0.514,-0.478 0.526,-0.448C0.543,-0.476 0.564,-0.498 0.59,-0.514C0.616,-0.53 0.646,-0.538 0.682,-0.538C0.734,-0.538 0.775,-0.52 0.805,-0.485C0.835,-0.449 0.85,-0.395 0.85,-0.323L0.85,-0.1L0.919,-0.085L0.919,-0L0.646,-0L0.646,-0.085L0.708,-0.1L0.708,-0.323C0.708,-0.362 0.701,-0.389 0.688,-0.405C0.675,-0.42 0.657,-0.427 0.632,-0.427C0.61,-0.427 0.591,-0.421 0.576,-0.408C0.561,-0.396 0.55,-0.379 0.543,-0.359L0.543,-0.1L0.601,-0.085L0.601,-0L0.343,-0L0.343,-0.085L0.401,-0.1L0.401,-0.323C0.401,-0.361 0.394,-0.388 0.382,-0.404C0.369,-0.419 0.35,-0.427 0.325,-0.427C0.305,-0.427 0.287,-0.423 0.272,-0.415C0.258,-0.407 0.246,-0.395 0.236,-0.38L0.236,-0.1L0.298,-0.085L0.298,-0L0.025,-0Z" style="fill-rule:nonzero;"/>
        </g>
        <g transform="matrix(112,0,0,112,1615.05,58.4566)">
            <path d="M0.208,0.01C0.155,0.01 0.113,-0.004 0.083,-0.032C0.052,-0.06 0.036,-0.098 0.036,-0.147C0.036,-0.18 0.045,-0.209 0.063,-0.234C0.081,-0.259 0.108,-0.279 0.143,-0.293C0.179,-0.308 0.222,-0.315 0.274,-0.315L0.344,-0.315L0.344,-0.354C0.344,-0.379 0.336,-0.4 0.322,-0.416C0.307,-0.432 0.285,-0.439 0.255,-0.439C0.24,-0.439 0.226,-0.438 0.214,-0.434C0.201,-0.43 0.19,-0.425 0.181,-0.418L0.169,-0.348L0.067,-0.348L0.065,-0.485C0.093,-0.501 0.123,-0.514 0.155,-0.523C0.187,-0.533 0.223,-0.538 0.263,-0.538C0.332,-0.538 0.386,-0.522 0.426,-0.49C0.466,-0.458 0.486,-0.412 0.486,-0.353L0.486,-0.135C0.486,-0.128 0.486,-0.121 0.487,-0.114C0.487,-0.107 0.487,-0.1 0.488,-0.093L0.543,-0.085L0.543,-0L0.367,-0C0.363,-0.009 0.36,-0.019 0.356,-0.029C0.352,-0.04 0.35,-0.05 0.348,-0.061C0.331,-0.039 0.311,-0.022 0.288,-0.009C0.265,0.004 0.238,0.01 0.208,0.01ZM0.246,-0.095C0.265,-0.095 0.284,-0.1 0.302,-0.109C0.32,-0.118 0.334,-0.129 0.344,-0.144L0.344,-0.228L0.273,-0.228C0.242,-0.228 0.219,-0.22 0.202,-0.206C0.186,-0.192 0.178,-0.174 0.178,-0.154C0.178,-0.135 0.184,-0.121 0.196,-0.111C0.208,-0.1 0.224,-0.095 0.246,-0.095Z" style="fill-rule:nonzero;"/>
        </g>
        <g transform="matrix(112,0,0,112,1676.19,58.4566)">
            <path d="M0.238,0.01C0.189,0.01 0.151,-0.003 0.125,-0.03C0.098,-0.057 0.085,-0.1 0.085,-0.159L0.085,-0.428L0.012,-0.428L0.012,-0.528L0.085,-0.528L0.085,-0.658L0.227,-0.658L0.227,-0.528L0.324,-0.528L0.324,-0.428L0.227,-0.428L0.227,-0.159C0.227,-0.139 0.231,-0.124 0.24,-0.115C0.249,-0.106 0.26,-0.102 0.275,-0.102C0.283,-0.102 0.292,-0.103 0.301,-0.104C0.31,-0.105 0.318,-0.106 0.324,-0.107L0.336,-0.004C0.322,-0 0.306,0.003 0.289,0.006C0.272,0.009 0.255,0.01 0.238,0.01Z" style="fill-rule:nonzero;"/>
        </g>
        <g transform="matrix(112,0,0,112,1717.75,58.4566)">
            <path d="M0.026,-0L0.026,-0.085L0.095,-0.1L0.095,-0.428L0.019,-0.442L0.019,-0.528L0.238,-0.528L0.238,-0.1L0.306,-0.085L0.306,-0L0.026,-0ZM0.09,-0.64L0.09,-0.762L0.238,-0.762L0.238,-0.64L0.09,-0.64Z" style="fill-rule:nonzero;"/>
        </g>
        <g transform="matrix(112,0,0,112,1753.9,58.4566)">
            <path d="M0.228,-0L0.068,-0.434L0.011,-0.442L0.011,-0.528L0.267,-0.528L0.267,-0.443L0.211,-0.433L0.291,-0.193L0.303,-0.152L0.306,-0.152L0.32,-0.193L0.407,-0.433L0.342,-0.443L0.342,-0.528L0.598,-0.528L0.598,-0.442L0.54,-0.433L0.373,-0L0.228,-0Z" style="fill-rule:nonzero;"/>
        </g>
        <g transform="matrix(112,0,0,112,1821,58.4566)">
            <path d="M0.284,0.01C0.233,0.01 0.189,-0.001 0.151,-0.023C0.114,-0.045 0.084,-0.076 0.064,-0.115C0.043,-0.154 0.033,-0.199 0.033,-0.249L0.033,-0.269C0.033,-0.321 0.042,-0.367 0.062,-0.408C0.082,-0.448 0.109,-0.48 0.145,-0.504C0.18,-0.527 0.222,-0.538 0.271,-0.538C0.319,-0.538 0.359,-0.529 0.392,-0.51C0.424,-0.491 0.449,-0.464 0.466,-0.428C0.483,-0.393 0.491,-0.35 0.491,-0.299L0.491,-0.222L0.181,-0.222L0.18,-0.219C0.182,-0.196 0.187,-0.175 0.197,-0.157C0.207,-0.139 0.22,-0.125 0.238,-0.115C0.255,-0.104 0.277,-0.099 0.302,-0.099C0.328,-0.099 0.352,-0.102 0.375,-0.109C0.397,-0.116 0.419,-0.126 0.441,-0.139L0.479,-0.051C0.458,-0.033 0.43,-0.019 0.397,-0.007C0.364,0.004 0.326,0.01 0.284,0.01ZM0.182,-0.316L0.358,-0.316L0.358,-0.329C0.358,-0.35 0.355,-0.369 0.349,-0.384C0.344,-0.399 0.335,-0.411 0.322,-0.42C0.309,-0.428 0.293,-0.433 0.273,-0.433C0.255,-0.433 0.239,-0.428 0.226,-0.418C0.213,-0.408 0.202,-0.394 0.195,-0.377C0.188,-0.36 0.183,-0.34 0.18,-0.318L0.182,-0.316Z" style="fill-rule:nonzero;"/>
        </g>
        <g transform="matrix(112,0,0,112,1879.95,58.4566)">
            <path d="M0.056,0.22L0.03,0.15C0.051,0.134 0.071,0.113 0.089,0.087C0.107,0.061 0.123,0.031 0.136,-0.005C0.15,-0.04 0.161,-0.081 0.169,-0.126C0.177,-0.172 0.181,-0.222 0.181,-0.277L0.181,-0.29C0.181,-0.345 0.177,-0.395 0.169,-0.44C0.161,-0.486 0.15,-0.526 0.136,-0.562C0.122,-0.597 0.106,-0.628 0.088,-0.655C0.07,-0.681 0.051,-0.702 0.03,-0.718L0.056,-0.787L0.059,-0.787C0.091,-0.774 0.121,-0.753 0.151,-0.723C0.181,-0.693 0.207,-0.656 0.231,-0.612C0.255,-0.568 0.274,-0.519 0.287,-0.464C0.301,-0.41 0.308,-0.351 0.308,-0.289L0.308,-0.278C0.308,-0.216 0.301,-0.157 0.287,-0.103C0.274,-0.048 0.255,0.001 0.231,0.045C0.207,0.088 0.181,0.125 0.151,0.155C0.121,0.185 0.091,0.207 0.059,0.22L0.056,0.22Z" style="fill-rule:nonzero;"/>
        </g>
    </g>
</svg>
