<?xml version="1.0" encoding="UTF-8" standalone="no"?>
<!DOCTYPE svg PUBLIC "-//W3C//DTD SVG 1.1//EN" "http://www.w3.org/Graphics/SVG/1.1/DTD/svg11.dtd">
<svg width="100%" height="100%" viewBox="0 0 1920 1080" version="1.1" xmlns="http://www.w3.org/2000/svg" xmlns:xlink="http://www.w3.org/1999/xlink" xml:space="preserve" xmlns:serif="http://www.serif.com/" style="fill-rule:evenodd;clip-rule:evenodd;stroke-linejoin:round;stroke-miterlimit:2;">
    <g transform="matrix(1,0,0,1,-9.38155,57.6206)">
        <g transform="matrix(36,0,0,36,419.881,58.4566)">
            <path d="M0.652,-0.287C0.63,-0.19 0.585,-0.112 0.518,-0.054C0.45,0.004 0.37,0.034 0.279,0.034C0.192,0.034 0.127,0.011 0.084,-0.035C0.041,-0.081 0.019,-0.149 0.019,-0.241C0.019,-0.324 0.04,-0.41 0.081,-0.497C0.122,-0.585 0.174,-0.656 0.239,-0.71C0.284,-0.748 0.333,-0.767 0.384,-0.767C0.416,-0.767 0.459,-0.756 0.513,-0.733C0.578,-0.706 0.61,-0.677 0.61,-0.646C0.61,-0.629 0.603,-0.613 0.59,-0.599C0.576,-0.586 0.56,-0.579 0.541,-0.579C0.531,-0.579 0.509,-0.588 0.476,-0.606C0.442,-0.625 0.412,-0.634 0.384,-0.634C0.355,-0.634 0.315,-0.602 0.266,-0.539C0.193,-0.447 0.157,-0.348 0.157,-0.241C0.157,-0.186 0.165,-0.149 0.181,-0.13C0.198,-0.109 0.23,-0.099 0.279,-0.099C0.329,-0.099 0.372,-0.113 0.41,-0.142C0.45,-0.172 0.48,-0.215 0.499,-0.272C0.424,-0.267 0.358,-0.251 0.302,-0.226C0.292,-0.222 0.282,-0.219 0.271,-0.219C0.251,-0.219 0.235,-0.227 0.221,-0.242C0.209,-0.255 0.203,-0.27 0.203,-0.287C0.203,-0.337 0.262,-0.372 0.38,-0.392C0.446,-0.403 0.524,-0.408 0.612,-0.408C0.632,-0.408 0.648,-0.402 0.661,-0.389C0.675,-0.376 0.681,-0.361 0.681,-0.342C0.681,-0.319 0.671,-0.3 0.652,-0.287Z" style="fill:rgb(197,195,255);fill-rule:nonzero;"/>
        </g>
        <g transform="matrix(36,0,0,36,444.349,58.4566)">
            <path d="M0.296,0.022C0.218,0.022 0.154,0.004 0.105,-0.033C0.05,-0.074 0.023,-0.132 0.023,-0.207C0.023,-0.289 0.045,-0.359 0.088,-0.416C0.136,-0.479 0.201,-0.51 0.283,-0.51C0.339,-0.51 0.386,-0.501 0.424,-0.483C0.473,-0.459 0.498,-0.421 0.498,-0.371C0.498,-0.335 0.478,-0.303 0.438,-0.275C0.419,-0.263 0.383,-0.244 0.328,-0.22L0.163,-0.147C0.179,-0.13 0.198,-0.117 0.22,-0.109C0.242,-0.1 0.267,-0.096 0.296,-0.096C0.34,-0.096 0.376,-0.105 0.407,-0.123C0.434,-0.139 0.455,-0.147 0.472,-0.147C0.506,-0.147 0.522,-0.131 0.522,-0.098C0.522,-0.061 0.495,-0.03 0.441,-0.007C0.395,0.013 0.347,0.022 0.296,0.022ZM0.283,-0.392C0.252,-0.392 0.227,-0.382 0.205,-0.362C0.184,-0.342 0.166,-0.311 0.153,-0.271C0.19,-0.287 0.227,-0.303 0.263,-0.318C0.307,-0.338 0.342,-0.357 0.368,-0.374C0.346,-0.386 0.318,-0.392 0.283,-0.392Z" style="fill:rgb(197,195,255);fill-rule:nonzero;"/>
        </g>
        <g transform="matrix(36,0,0,36,464.476,58.4566)">
            <path d="M0.435,0.035C0.395,0.035 0.372,0.015 0.368,-0.024C0.363,-0.058 0.359,-0.092 0.354,-0.125C0.349,-0.161 0.347,-0.195 0.347,-0.227C0.347,-0.235 0.347,-0.25 0.348,-0.27C0.35,-0.291 0.35,-0.305 0.35,-0.313C0.35,-0.316 0.35,-0.322 0.351,-0.331C0.352,-0.34 0.352,-0.348 0.352,-0.354C0.352,-0.381 0.346,-0.394 0.333,-0.394C0.305,-0.394 0.277,-0.376 0.25,-0.34C0.224,-0.304 0.203,-0.259 0.187,-0.204C0.187,-0.193 0.186,-0.178 0.183,-0.16C0.182,-0.145 0.181,-0.13 0.181,-0.116C0.181,-0.107 0.18,-0.092 0.177,-0.074C0.175,-0.055 0.174,-0.041 0.174,-0.031C0.174,-0.012 0.168,0.003 0.155,0.016C0.142,0.028 0.126,0.035 0.106,0.035C0.087,0.035 0.071,0.028 0.058,0.016C0.045,0.004 0.039,-0.012 0.039,-0.031C0.039,-0.04 0.038,-0.054 0.036,-0.073C0.034,-0.092 0.033,-0.106 0.033,-0.115C0.033,-0.147 0.035,-0.191 0.04,-0.248C0.045,-0.304 0.047,-0.349 0.047,-0.381C0.047,-0.39 0.046,-0.405 0.045,-0.425C0.044,-0.445 0.043,-0.459 0.043,-0.469C0.043,-0.488 0.05,-0.503 0.063,-0.515C0.076,-0.527 0.093,-0.533 0.112,-0.533C0.154,-0.533 0.177,-0.508 0.18,-0.457L0.181,-0.451C0.228,-0.499 0.278,-0.523 0.331,-0.523C0.393,-0.523 0.435,-0.497 0.458,-0.446C0.474,-0.411 0.482,-0.36 0.482,-0.291L0.482,-0.256C0.482,-0.241 0.481,-0.231 0.481,-0.225C0.481,-0.199 0.485,-0.167 0.492,-0.126C0.499,-0.086 0.502,-0.054 0.502,-0.029C0.502,-0.011 0.496,0.005 0.483,0.017C0.47,0.029 0.454,0.035 0.435,0.035Z" style="fill:rgb(197,195,255);fill-rule:nonzero;"/>
        </g>
        <g transform="matrix(36,0,0,36,483.32,58.4566)">
            <path d="M0.296,0.022C0.218,0.022 0.154,0.004 0.105,-0.033C0.05,-0.074 0.023,-0.132 0.023,-0.207C0.023,-0.289 0.045,-0.359 0.088,-0.416C0.136,-0.479 0.201,-0.51 0.283,-0.51C0.339,-0.51 0.386,-0.501 0.424,-0.483C0.473,-0.459 0.498,-0.421 0.498,-0.371C0.498,-0.335 0.478,-0.303 0.438,-0.275C0.419,-0.263 0.383,-0.244 0.328,-0.22L0.163,-0.147C0.179,-0.13 0.198,-0.117 0.22,-0.109C0.242,-0.1 0.267,-0.096 0.296,-0.096C0.34,-0.096 0.376,-0.105 0.407,-0.123C0.434,-0.139 0.455,-0.147 0.472,-0.147C0.506,-0.147 0.522,-0.131 0.522,-0.098C0.522,-0.061 0.495,-0.03 0.441,-0.007C0.395,0.013 0.347,0.022 0.296,0.022ZM0.283,-0.392C0.252,-0.392 0.227,-0.382 0.205,-0.362C0.184,-0.342 0.166,-0.311 0.153,-0.271C0.19,-0.287 0.227,-0.303 0.263,-0.318C0.307,-0.338 0.342,-0.357 0.368,-0.374C0.346,-0.386 0.318,-0.392 0.283,-0.392Z" style="fill:rgb(197,195,255);fill-rule:nonzero;"/>
        </g>
        <g transform="matrix(36,0,0,36,503.447,58.4566)">
            <path d="M0.459,-0.352C0.456,-0.302 0.433,-0.277 0.391,-0.277C0.35,-0.277 0.33,-0.299 0.33,-0.341L0.327,-0.39C0.254,-0.378 0.201,-0.341 0.17,-0.277L0.17,-0.032C0.17,-0.013 0.164,0.002 0.151,0.014C0.139,0.027 0.123,0.033 0.103,0.033C0.083,0.033 0.067,0.026 0.056,0.013C0.046,0.001 0.041,-0.014 0.041,-0.032L0.041,-0.352C0.041,-0.362 0.041,-0.377 0.042,-0.397C0.042,-0.417 0.042,-0.432 0.042,-0.442C0.042,-0.46 0.048,-0.475 0.059,-0.488C0.07,-0.5 0.085,-0.506 0.105,-0.506C0.142,-0.506 0.163,-0.487 0.17,-0.45C0.228,-0.493 0.292,-0.515 0.362,-0.515C0.427,-0.515 0.459,-0.471 0.459,-0.385C0.459,-0.368 0.459,-0.357 0.459,-0.352Z" style="fill:rgb(197,195,255);fill-rule:nonzero;"/>
        </g>
        <g transform="matrix(36,0,0,36,520.744,58.4566)">
            <path d="M0.161,-0.587C0.14,-0.587 0.122,-0.594 0.107,-0.608C0.092,-0.622 0.084,-0.639 0.084,-0.659C0.084,-0.679 0.092,-0.696 0.107,-0.71C0.122,-0.724 0.14,-0.731 0.161,-0.731C0.182,-0.731 0.2,-0.724 0.215,-0.71C0.23,-0.696 0.238,-0.679 0.238,-0.659C0.238,-0.639 0.23,-0.622 0.215,-0.608C0.2,-0.594 0.182,-0.587 0.161,-0.587ZM0.203,-0.229C0.203,-0.21 0.203,-0.181 0.204,-0.14C0.205,-0.099 0.206,-0.069 0.206,-0.05C0.206,-0.031 0.2,-0.016 0.187,-0.004C0.174,0.009 0.158,0.015 0.139,0.015C0.119,0.015 0.103,0.009 0.09,-0.004C0.078,-0.016 0.071,-0.031 0.071,-0.05C0.071,-0.069 0.071,-0.099 0.07,-0.14C0.068,-0.181 0.068,-0.21 0.068,-0.229C0.068,-0.258 0.069,-0.294 0.073,-0.338C0.076,-0.382 0.078,-0.418 0.078,-0.447C0.078,-0.466 0.084,-0.481 0.097,-0.493C0.109,-0.506 0.125,-0.512 0.145,-0.512C0.165,-0.512 0.181,-0.506 0.193,-0.493C0.206,-0.481 0.212,-0.466 0.212,-0.447C0.212,-0.418 0.211,-0.382 0.208,-0.338C0.204,-0.294 0.203,-0.258 0.203,-0.229Z" style="fill:rgb(197,195,255);fill-rule:nonzero;"/>
        </g>
        <g transform="matrix(36,0,0,36,530.834,58.4566)">
            <path d="M0.274,0.031C0.203,0.031 0.143,0.01 0.094,-0.03C0.043,-0.073 0.018,-0.13 0.018,-0.2C0.018,-0.265 0.041,-0.332 0.086,-0.401C0.139,-0.48 0.199,-0.519 0.268,-0.519C0.302,-0.519 0.341,-0.51 0.387,-0.492C0.442,-0.469 0.469,-0.443 0.469,-0.414C0.469,-0.398 0.464,-0.384 0.453,-0.372C0.441,-0.358 0.426,-0.352 0.407,-0.352C0.393,-0.352 0.376,-0.359 0.357,-0.374C0.337,-0.389 0.307,-0.397 0.268,-0.397C0.243,-0.397 0.216,-0.372 0.187,-0.323C0.159,-0.276 0.145,-0.235 0.145,-0.2C0.145,-0.166 0.157,-0.139 0.182,-0.12C0.205,-0.101 0.236,-0.092 0.274,-0.092C0.296,-0.092 0.323,-0.1 0.354,-0.117C0.386,-0.133 0.406,-0.142 0.415,-0.142C0.432,-0.142 0.447,-0.135 0.46,-0.123C0.472,-0.11 0.479,-0.095 0.479,-0.079C0.479,-0.054 0.451,-0.028 0.396,-0.003C0.346,0.02 0.306,0.031 0.274,0.031Z" style="fill:rgb(197,195,255);fill-rule:nonzero;"/>
        </g>
        <g transform="matrix(36,0,0,36,564.935,58.4566)">
            <path d="M0.395,-0.393L0.346,-0.395C0.333,-0.395 0.317,-0.393 0.3,-0.391C0.306,-0.259 0.309,-0.173 0.309,-0.133C0.309,-0.129 0.309,-0.121 0.309,-0.109C0.309,-0.098 0.31,-0.088 0.31,-0.081C0.31,-0.006 0.286,0.031 0.239,0.031C0.221,0.031 0.205,0.026 0.192,0.015C0.178,0.003 0.171,-0.012 0.171,-0.029C0.171,-0.041 0.171,-0.059 0.172,-0.082C0.173,-0.105 0.174,-0.123 0.174,-0.135C0.174,-0.174 0.171,-0.258 0.165,-0.388C0.145,-0.389 0.114,-0.391 0.073,-0.396C0.033,-0.4 0.012,-0.421 0.012,-0.459C0.012,-0.477 0.018,-0.493 0.031,-0.505C0.043,-0.518 0.059,-0.524 0.079,-0.524C0.091,-0.524 0.118,-0.522 0.162,-0.519C0.161,-0.529 0.16,-0.546 0.159,-0.57C0.158,-0.591 0.157,-0.607 0.157,-0.619C0.157,-0.637 0.164,-0.652 0.177,-0.664C0.191,-0.676 0.207,-0.682 0.226,-0.682C0.274,-0.682 0.298,-0.642 0.298,-0.561L0.297,-0.521C0.317,-0.523 0.333,-0.525 0.346,-0.525C0.384,-0.525 0.409,-0.522 0.423,-0.518C0.449,-0.508 0.462,-0.489 0.462,-0.458C0.462,-0.439 0.456,-0.424 0.443,-0.412C0.43,-0.399 0.414,-0.393 0.395,-0.393Z" style="fill:rgb(197,195,255);fill-rule:nonzero;"/>
        </g>
        <g transform="matrix(36,0,0,36,581.898,58.4566)">
            <path d="M0.161,-0.587C0.14,-0.587 0.122,-0.594 0.107,-0.608C0.092,-0.622 0.084,-0.639 0.084,-0.659C0.084,-0.679 0.092,-0.696 0.107,-0.71C0.122,-0.724 0.14,-0.731 0.161,-0.731C0.182,-0.731 0.2,-0.724 0.215,-0.71C0.23,-0.696 0.238,-0.679 0.238,-0.659C0.238,-0.639 0.23,-0.622 0.215,-0.608C0.2,-0.594 0.182,-0.587 0.161,-0.587ZM0.203,-0.229C0.203,-0.21 0.203,-0.181 0.204,-0.14C0.205,-0.099 0.206,-0.069 0.206,-0.05C0.206,-0.031 0.2,-0.016 0.187,-0.004C0.174,0.009 0.158,0.015 0.139,0.015C0.119,0.015 0.103,0.009 0.09,-0.004C0.078,-0.016 0.071,-0.031 0.071,-0.05C0.071,-0.069 0.071,-0.099 0.07,-0.14C0.068,-0.181 0.068,-0.21 0.068,-0.229C0.068,-0.258 0.069,-0.294 0.073,-0.338C0.076,-0.382 0.078,-0.418 0.078,-0.447C0.078,-0.466 0.084,-0.481 0.097,-0.493C0.109,-0.506 0.125,-0.512 0.145,-0.512C0.165,-0.512 0.181,-0.506 0.193,-0.493C0.206,-0.481 0.212,-0.466 0.212,-0.447C0.212,-0.418 0.211,-0.382 0.208,-0.338C0.204,-0.294 0.203,-0.258 0.203,-0.229Z" style="fill:rgb(197,195,255);fill-rule:nonzero;"/>
        </g>
        <g transform="matrix(36,0,0,36,591.988,58.4566)">
            <path d="M0.395,-0.393L0.346,-0.395C0.333,-0.395 0.317,-0.393 0.3,-0.391C0.306,-0.259 0.309,-0.173 0.309,-0.133C0.309,-0.129 0.309,-0.121 0.309,-0.109C0.309,-0.098 0.31,-0.088 0.31,-0.081C0.31,-0.006 0.286,0.031 0.239,0.031C0.221,0.031 0.205,0.026 0.192,0.015C0.178,0.003 0.171,-0.012 0.171,-0.029C0.171,-0.041 0.171,-0.059 0.172,-0.082C0.173,-0.105 0.174,-0.123 0.174,-0.135C0.174,-0.174 0.171,-0.258 0.165,-0.388C0.145,-0.389 0.114,-0.391 0.073,-0.396C0.033,-0.4 0.012,-0.421 0.012,-0.459C0.012,-0.477 0.018,-0.493 0.031,-0.505C0.043,-0.518 0.059,-0.524 0.079,-0.524C0.091,-0.524 0.118,-0.522 0.162,-0.519C0.161,-0.529 0.16,-0.546 0.159,-0.57C0.158,-0.591 0.157,-0.607 0.157,-0.619C0.157,-0.637 0.164,-0.652 0.177,-0.664C0.191,-0.676 0.207,-0.682 0.226,-0.682C0.274,-0.682 0.298,-0.642 0.298,-0.561L0.297,-0.521C0.317,-0.523 0.333,-0.525 0.346,-0.525C0.384,-0.525 0.409,-0.522 0.423,-0.518C0.449,-0.508 0.462,-0.489 0.462,-0.458C0.462,-0.439 0.456,-0.424 0.443,-0.412C0.43,-0.399 0.414,-0.393 0.395,-0.393Z" style="fill:rgb(197,195,255);fill-rule:nonzero;"/>
        </g>
        <g transform="matrix(36,0,0,36,608.951,58.4566)">
            <path d="M0.2,-0.072C0.2,-0.01 0.178,0.021 0.133,0.021C0.113,0.021 0.097,0.015 0.084,0.002C0.072,-0.01 0.065,-0.026 0.065,-0.045L0.065,-0.721C0.065,-0.74 0.072,-0.755 0.086,-0.767C0.099,-0.778 0.115,-0.784 0.134,-0.784C0.153,-0.784 0.169,-0.778 0.182,-0.766C0.194,-0.755 0.2,-0.74 0.2,-0.721L0.2,-0.072Z" style="fill:rgb(197,195,255);fill-rule:nonzero;"/>
        </g>
        <g transform="matrix(36,0,0,36,618.812,58.4566)">
            <path d="M0.296,0.022C0.218,0.022 0.154,0.004 0.105,-0.033C0.05,-0.074 0.023,-0.132 0.023,-0.207C0.023,-0.289 0.045,-0.359 0.088,-0.416C0.136,-0.479 0.201,-0.51 0.283,-0.51C0.339,-0.51 0.386,-0.501 0.424,-0.483C0.473,-0.459 0.498,-0.421 0.498,-0.371C0.498,-0.335 0.478,-0.303 0.438,-0.275C0.419,-0.263 0.383,-0.244 0.328,-0.22L0.163,-0.147C0.179,-0.13 0.198,-0.117 0.22,-0.109C0.242,-0.1 0.267,-0.096 0.296,-0.096C0.34,-0.096 0.376,-0.105 0.407,-0.123C0.434,-0.139 0.455,-0.147 0.472,-0.147C0.506,-0.147 0.522,-0.131 0.522,-0.098C0.522,-0.061 0.495,-0.03 0.441,-0.007C0.395,0.013 0.347,0.022 0.296,0.022ZM0.283,-0.392C0.252,-0.392 0.227,-0.382 0.205,-0.362C0.184,-0.342 0.166,-0.311 0.153,-0.271C0.19,-0.287 0.227,-0.303 0.263,-0.318C0.307,-0.338 0.342,-0.357 0.368,-0.374C0.346,-0.386 0.318,-0.392 0.283,-0.392Z" style="fill:rgb(197,195,255);fill-rule:nonzero;"/>
        </g>
        <g transform="matrix(36,0,0,36,654.549,58.4566)">
            <path d="M0.395,-0.393L0.346,-0.395C0.333,-0.395 0.317,-0.393 0.3,-0.391C0.306,-0.259 0.309,-0.173 0.309,-0.133C0.309,-0.129 0.309,-0.121 0.309,-0.109C0.309,-0.098 0.31,-0.088 0.31,-0.081C0.31,-0.006 0.286,0.031 0.239,0.031C0.221,0.031 0.205,0.026 0.192,0.015C0.178,0.003 0.171,-0.012 0.171,-0.029C0.171,-0.041 0.171,-0.059 0.172,-0.082C0.173,-0.105 0.174,-0.123 0.174,-0.135C0.174,-0.174 0.171,-0.258 0.165,-0.388C0.145,-0.389 0.114,-0.391 0.073,-0.396C0.033,-0.4 0.012,-0.421 0.012,-0.459C0.012,-0.477 0.018,-0.493 0.031,-0.505C0.043,-0.518 0.059,-0.524 0.079,-0.524C0.091,-0.524 0.118,-0.522 0.162,-0.519C0.161,-0.529 0.16,-0.546 0.159,-0.57C0.158,-0.591 0.157,-0.607 0.157,-0.619C0.157,-0.637 0.164,-0.652 0.177,-0.664C0.191,-0.676 0.207,-0.682 0.226,-0.682C0.274,-0.682 0.298,-0.642 0.298,-0.561L0.297,-0.521C0.317,-0.523 0.333,-0.525 0.346,-0.525C0.384,-0.525 0.409,-0.522 0.423,-0.518C0.449,-0.508 0.462,-0.489 0.462,-0.458C0.462,-0.439 0.456,-0.424 0.443,-0.412C0.43,-0.399 0.414,-0.393 0.395,-0.393Z" style="fill:rgb(197,195,255);fill-rule:nonzero;"/>
        </g>
        <g transform="matrix(36,0,0,36,671.511,58.4566)">
            <path d="M0.195,-0.447C0.219,-0.47 0.244,-0.488 0.271,-0.499C0.298,-0.511 0.327,-0.517 0.358,-0.517C0.414,-0.517 0.454,-0.501 0.479,-0.47C0.497,-0.446 0.508,-0.41 0.512,-0.362C0.513,-0.322 0.515,-0.282 0.517,-0.241C0.522,-0.189 0.526,-0.157 0.527,-0.146C0.531,-0.109 0.537,-0.078 0.543,-0.051C0.545,-0.044 0.546,-0.038 0.546,-0.033C0.546,-0.014 0.539,0.001 0.525,0.012C0.511,0.024 0.495,0.03 0.477,0.03C0.444,0.03 0.422,0.014 0.413,-0.019C0.405,-0.045 0.398,-0.082 0.391,-0.13C0.385,-0.176 0.382,-0.214 0.382,-0.243C0.382,-0.251 0.383,-0.264 0.384,-0.28C0.384,-0.296 0.385,-0.309 0.385,-0.317C0.385,-0.341 0.384,-0.355 0.384,-0.359C0.381,-0.377 0.372,-0.386 0.358,-0.386C0.322,-0.386 0.29,-0.369 0.26,-0.336C0.245,-0.319 0.225,-0.288 0.199,-0.241C0.199,-0.123 0.193,-0.052 0.182,-0.028C0.169,-0.002 0.149,0.012 0.121,0.012C0.103,0.012 0.087,0.006 0.073,-0.007C0.058,-0.019 0.051,-0.034 0.051,-0.052C0.051,-0.058 0.053,-0.067 0.057,-0.078C0.059,-0.085 0.061,-0.129 0.063,-0.209C0.061,-0.275 0.061,-0.384 0.063,-0.536L0.064,-0.552C0.066,-0.591 0.067,-0.616 0.067,-0.629C0.067,-0.639 0.066,-0.654 0.063,-0.674C0.06,-0.694 0.058,-0.709 0.058,-0.719C0.058,-0.737 0.065,-0.753 0.078,-0.764C0.091,-0.776 0.108,-0.782 0.126,-0.782C0.159,-0.782 0.18,-0.765 0.191,-0.73C0.198,-0.711 0.201,-0.681 0.201,-0.641C0.201,-0.608 0.2,-0.575 0.198,-0.542C0.196,-0.51 0.195,-0.478 0.195,-0.447Z" style="fill:rgb(197,195,255);fill-rule:nonzero;"/>
        </g>
        <g transform="matrix(36,0,0,36,692.306,58.4566)">
            <path d="M0.471,0.027C0.456,0.027 0.432,0.012 0.4,-0.017C0.37,-0.002 0.344,0.009 0.321,0.016C0.298,0.023 0.279,0.027 0.263,0.027C0.184,0.027 0.125,0.006 0.086,-0.036C0.047,-0.078 0.027,-0.141 0.027,-0.225C0.027,-0.303 0.056,-0.37 0.114,-0.426C0.172,-0.482 0.242,-0.51 0.322,-0.51C0.353,-0.51 0.389,-0.501 0.43,-0.484C0.479,-0.463 0.503,-0.438 0.503,-0.411C0.503,-0.399 0.5,-0.389 0.492,-0.38C0.489,-0.367 0.486,-0.351 0.485,-0.332C0.483,-0.312 0.482,-0.289 0.482,-0.263C0.482,-0.202 0.486,-0.157 0.495,-0.13C0.496,-0.127 0.504,-0.111 0.518,-0.08C0.53,-0.052 0.537,-0.036 0.537,-0.033C0.537,-0.016 0.53,-0.001 0.517,0.01C0.504,0.021 0.488,0.027 0.471,0.027ZM0.35,-0.303C0.35,-0.313 0.351,-0.325 0.352,-0.339C0.354,-0.352 0.356,-0.367 0.359,-0.384C0.352,-0.387 0.347,-0.389 0.342,-0.391C0.337,-0.392 0.332,-0.393 0.329,-0.393C0.284,-0.393 0.246,-0.376 0.212,-0.341C0.179,-0.306 0.163,-0.266 0.163,-0.221C0.163,-0.177 0.17,-0.144 0.186,-0.122C0.202,-0.1 0.225,-0.089 0.256,-0.089C0.277,-0.089 0.296,-0.093 0.314,-0.099C0.332,-0.106 0.349,-0.116 0.365,-0.129C0.355,-0.206 0.35,-0.264 0.35,-0.303Z" style="fill:rgb(197,195,255);fill-rule:nonzero;"/>
        </g>
        <g transform="matrix(36,0,0,36,712.31,58.4566)">
            <path d="M0.395,-0.393L0.346,-0.395C0.333,-0.395 0.317,-0.393 0.3,-0.391C0.306,-0.259 0.309,-0.173 0.309,-0.133C0.309,-0.129 0.309,-0.121 0.309,-0.109C0.309,-0.098 0.31,-0.088 0.31,-0.081C0.31,-0.006 0.286,0.031 0.239,0.031C0.221,0.031 0.205,0.026 0.192,0.015C0.178,0.003 0.171,-0.012 0.171,-0.029C0.171,-0.041 0.171,-0.059 0.172,-0.082C0.173,-0.105 0.174,-0.123 0.174,-0.135C0.174,-0.174 0.171,-0.258 0.165,-0.388C0.145,-0.389 0.114,-0.391 0.073,-0.396C0.033,-0.4 0.012,-0.421 0.012,-0.459C0.012,-0.477 0.018,-0.493 0.031,-0.505C0.043,-0.518 0.059,-0.524 0.079,-0.524C0.091,-0.524 0.118,-0.522 0.162,-0.519C0.161,-0.529 0.16,-0.546 0.159,-0.57C0.158,-0.591 0.157,-0.607 0.157,-0.619C0.157,-0.637 0.164,-0.652 0.177,-0.664C0.191,-0.676 0.207,-0.682 0.226,-0.682C0.274,-0.682 0.298,-0.642 0.298,-0.561L0.297,-0.521C0.317,-0.523 0.333,-0.525 0.346,-0.525C0.384,-0.525 0.409,-0.522 0.423,-0.518C0.449,-0.508 0.462,-0.489 0.462,-0.458C0.462,-0.439 0.456,-0.424 0.443,-0.412C0.43,-0.399 0.414,-0.393 0.395,-0.393Z" style="fill:rgb(197,195,255);fill-rule:nonzero;"/>
        </g>
        <g transform="matrix(36,0,0,36,729.273,58.4566)">
            <path d="M0.278,-0.679L0.273,-0.509C0.273,-0.493 0.267,-0.48 0.255,-0.469C0.244,-0.458 0.229,-0.453 0.21,-0.453C0.193,-0.453 0.178,-0.458 0.166,-0.469C0.153,-0.48 0.147,-0.493 0.147,-0.509C0.147,-0.555 0.149,-0.621 0.153,-0.708C0.155,-0.73 0.162,-0.746 0.172,-0.757C0.183,-0.768 0.198,-0.773 0.218,-0.773C0.236,-0.773 0.251,-0.768 0.263,-0.757C0.275,-0.747 0.281,-0.733 0.281,-0.717C0.281,-0.713 0.28,-0.706 0.279,-0.698C0.278,-0.689 0.278,-0.683 0.278,-0.679Z" style="fill:rgb(197,195,255);fill-rule:nonzero;"/>
        </g>
        <g transform="matrix(36,0,0,36,744.883,58.4566)">
            <path d="M0.394,-0.357C0.361,-0.357 0.342,-0.371 0.335,-0.398C0.322,-0.4 0.309,-0.401 0.295,-0.401C0.217,-0.401 0.178,-0.391 0.178,-0.369C0.178,-0.356 0.201,-0.339 0.249,-0.318C0.313,-0.288 0.357,-0.265 0.379,-0.249C0.427,-0.214 0.45,-0.176 0.45,-0.133C0.45,-0.077 0.424,-0.034 0.372,-0.005C0.33,0.018 0.278,0.029 0.217,0.029C0.174,0.029 0.134,0.023 0.099,0.009C0.05,-0.009 0.025,-0.036 0.025,-0.071C0.025,-0.104 0.045,-0.12 0.083,-0.12C0.098,-0.12 0.12,-0.115 0.148,-0.106C0.177,-0.097 0.199,-0.092 0.214,-0.092C0.28,-0.092 0.313,-0.105 0.313,-0.132C0.313,-0.148 0.291,-0.167 0.245,-0.187C0.178,-0.217 0.135,-0.238 0.116,-0.251C0.07,-0.283 0.047,-0.322 0.047,-0.369C0.047,-0.434 0.082,-0.478 0.151,-0.501C0.192,-0.514 0.253,-0.521 0.336,-0.521C0.369,-0.521 0.393,-0.517 0.409,-0.508C0.43,-0.497 0.441,-0.476 0.441,-0.445C0.441,-0.387 0.425,-0.357 0.394,-0.357Z" style="fill:rgb(197,195,255);fill-rule:nonzero;"/>
        </g>
        <g transform="matrix(36,0,0,36,778.017,58.4566)">
            <path d="M0.275,0.029C0.247,0.029 0.218,0.026 0.187,0.019L0.187,0.218C0.187,0.237 0.18,0.253 0.167,0.265C0.155,0.278 0.139,0.284 0.119,0.284C0.1,0.284 0.083,0.278 0.071,0.265C0.058,0.253 0.052,0.237 0.052,0.218C0.052,0.203 0.052,0.142 0.053,0.036C0.053,-0.043 0.053,-0.107 0.053,-0.157C0.052,-0.227 0.049,-0.288 0.046,-0.338C0.041,-0.408 0.039,-0.44 0.039,-0.435C0.039,-0.462 0.045,-0.485 0.057,-0.504C0.071,-0.526 0.09,-0.537 0.113,-0.537C0.132,-0.537 0.147,-0.53 0.159,-0.518C0.172,-0.506 0.178,-0.491 0.178,-0.474L0.177,-0.469C0.199,-0.481 0.221,-0.49 0.243,-0.496C0.265,-0.502 0.287,-0.505 0.309,-0.505C0.384,-0.505 0.439,-0.474 0.473,-0.41C0.499,-0.362 0.512,-0.3 0.512,-0.224C0.512,-0.153 0.491,-0.094 0.451,-0.047C0.407,0.004 0.349,0.029 0.275,0.029ZM0.309,-0.375C0.289,-0.375 0.268,-0.37 0.247,-0.361C0.225,-0.351 0.204,-0.337 0.183,-0.317C0.187,-0.25 0.188,-0.183 0.188,-0.116C0.217,-0.106 0.246,-0.102 0.275,-0.102C0.309,-0.102 0.335,-0.113 0.353,-0.137C0.369,-0.159 0.377,-0.188 0.377,-0.224C0.377,-0.268 0.375,-0.299 0.371,-0.315C0.362,-0.355 0.341,-0.375 0.309,-0.375Z" style="fill:rgb(197,195,255);fill-rule:nonzero;"/>
        </g>
        <g transform="matrix(36,0,0,36,797.265,58.4566)">
            <path d="M0.459,-0.352C0.456,-0.302 0.433,-0.277 0.391,-0.277C0.35,-0.277 0.33,-0.299 0.33,-0.341L0.327,-0.39C0.254,-0.378 0.201,-0.341 0.17,-0.277L0.17,-0.032C0.17,-0.013 0.164,0.002 0.151,0.014C0.139,0.027 0.123,0.033 0.103,0.033C0.083,0.033 0.067,0.026 0.056,0.013C0.046,0.001 0.041,-0.014 0.041,-0.032L0.041,-0.352C0.041,-0.362 0.041,-0.377 0.042,-0.397C0.042,-0.417 0.042,-0.432 0.042,-0.442C0.042,-0.46 0.048,-0.475 0.059,-0.488C0.07,-0.5 0.085,-0.506 0.105,-0.506C0.142,-0.506 0.163,-0.487 0.17,-0.45C0.228,-0.493 0.292,-0.515 0.362,-0.515C0.427,-0.515 0.459,-0.471 0.459,-0.385C0.459,-0.368 0.459,-0.357 0.459,-0.352Z" style="fill:rgb(197,195,255);fill-rule:nonzero;"/>
        </g>
        <g transform="matrix(36,0,0,36,814.562,58.4566)">
            <path d="M0.296,0.022C0.218,0.022 0.154,0.004 0.105,-0.033C0.05,-0.074 0.023,-0.132 0.023,-0.207C0.023,-0.289 0.045,-0.359 0.088,-0.416C0.136,-0.479 0.201,-0.51 0.283,-0.51C0.339,-0.51 0.386,-0.501 0.424,-0.483C0.473,-0.459 0.498,-0.421 0.498,-0.371C0.498,-0.335 0.478,-0.303 0.438,-0.275C0.419,-0.263 0.383,-0.244 0.328,-0.22L0.163,-0.147C0.179,-0.13 0.198,-0.117 0.22,-0.109C0.242,-0.1 0.267,-0.096 0.296,-0.096C0.34,-0.096 0.376,-0.105 0.407,-0.123C0.434,-0.139 0.455,-0.147 0.472,-0.147C0.506,-0.147 0.522,-0.131 0.522,-0.098C0.522,-0.061 0.495,-0.03 0.441,-0.007C0.395,0.013 0.347,0.022 0.296,0.022ZM0.283,-0.392C0.252,-0.392 0.227,-0.382 0.205,-0.362C0.184,-0.342 0.166,-0.311 0.153,-0.271C0.19,-0.287 0.227,-0.303 0.263,-0.318C0.307,-0.338 0.342,-0.357 0.368,-0.374C0.346,-0.386 0.318,-0.392 0.283,-0.392Z" style="fill:rgb(197,195,255);fill-rule:nonzero;"/>
        </g>
        <g transform="matrix(36,0,0,36,834.689,58.4566)">
            <path d="M0.395,-0.393L0.346,-0.395C0.333,-0.395 0.317,-0.393 0.3,-0.391C0.306,-0.259 0.309,-0.173 0.309,-0.133C0.309,-0.129 0.309,-0.121 0.309,-0.109C0.309,-0.098 0.31,-0.088 0.31,-0.081C0.31,-0.006 0.286,0.031 0.239,0.031C0.221,0.031 0.205,0.026 0.192,0.015C0.178,0.003 0.171,-0.012 0.171,-0.029C0.171,-0.041 0.171,-0.059 0.172,-0.082C0.173,-0.105 0.174,-0.123 0.174,-0.135C0.174,-0.174 0.171,-0.258 0.165,-0.388C0.145,-0.389 0.114,-0.391 0.073,-0.396C0.033,-0.4 0.012,-0.421 0.012,-0.459C0.012,-0.477 0.018,-0.493 0.031,-0.505C0.043,-0.518 0.059,-0.524 0.079,-0.524C0.091,-0.524 0.118,-0.522 0.162,-0.519C0.161,-0.529 0.16,-0.546 0.159,-0.57C0.158,-0.591 0.157,-0.607 0.157,-0.619C0.157,-0.637 0.164,-0.652 0.177,-0.664C0.191,-0.676 0.207,-0.682 0.226,-0.682C0.274,-0.682 0.298,-0.642 0.298,-0.561L0.297,-0.521C0.317,-0.523 0.333,-0.525 0.346,-0.525C0.384,-0.525 0.409,-0.522 0.423,-0.518C0.449,-0.508 0.462,-0.489 0.462,-0.458C0.462,-0.439 0.456,-0.424 0.443,-0.412C0.43,-0.399 0.414,-0.393 0.395,-0.393Z" style="fill:rgb(197,195,255);fill-rule:nonzero;"/>
        </g>
        <g transform="matrix(36,0,0,36,851.652,58.4566)">
            <path d="M0.395,-0.393L0.346,-0.395C0.333,-0.395 0.317,-0.393 0.3,-0.391C0.306,-0.259 0.309,-0.173 0.309,-0.133C0.309,-0.129 0.309,-0.121 0.309,-0.109C0.309,-0.098 0.31,-0.088 0.31,-0.081C0.31,-0.006 0.286,0.031 0.239,0.031C0.221,0.031 0.205,0.026 0.192,0.015C0.178,0.003 0.171,-0.012 0.171,-0.029C0.171,-0.041 0.171,-0.059 0.172,-0.082C0.173,-0.105 0.174,-0.123 0.174,-0.135C0.174,-0.174 0.171,-0.258 0.165,-0.388C0.145,-0.389 0.114,-0.391 0.073,-0.396C0.033,-0.4 0.012,-0.421 0.012,-0.459C0.012,-0.477 0.018,-0.493 0.031,-0.505C0.043,-0.518 0.059,-0.524 0.079,-0.524C0.091,-0.524 0.118,-0.522 0.162,-0.519C0.161,-0.529 0.16,-0.546 0.159,-0.57C0.158,-0.591 0.157,-0.607 0.157,-0.619C0.157,-0.637 0.164,-0.652 0.177,-0.664C0.191,-0.676 0.207,-0.682 0.226,-0.682C0.274,-0.682 0.298,-0.642 0.298,-0.561L0.297,-0.521C0.317,-0.523 0.333,-0.525 0.346,-0.525C0.384,-0.525 0.409,-0.522 0.423,-0.518C0.449,-0.508 0.462,-0.489 0.462,-0.458C0.462,-0.439 0.456,-0.424 0.443,-0.412C0.43,-0.399 0.414,-0.393 0.395,-0.393Z" style="fill:rgb(197,195,255);fill-rule:nonzero;"/>
        </g>
        <g transform="matrix(36,0,0,36,868.615,58.4566)">
            <path d="M0.535,-0.413C0.5,-0.339 0.444,-0.223 0.367,-0.064C0.325,0.021 0.293,0.091 0.271,0.147C0.265,0.167 0.254,0.197 0.239,0.237C0.228,0.267 0.207,0.283 0.177,0.283C0.158,0.283 0.142,0.277 0.128,0.265C0.114,0.253 0.107,0.237 0.107,0.219C0.107,0.189 0.141,0.099 0.21,-0.05C0.175,-0.12 0.118,-0.224 0.04,-0.362C0.032,-0.374 0.024,-0.387 0.016,-0.399C0.007,-0.414 0.003,-0.428 0.003,-0.44C0.003,-0.458 0.01,-0.473 0.024,-0.487C0.038,-0.5 0.054,-0.507 0.072,-0.507C0.094,-0.507 0.111,-0.499 0.123,-0.483C0.169,-0.421 0.223,-0.329 0.284,-0.205C0.319,-0.282 0.34,-0.329 0.348,-0.345C0.371,-0.393 0.393,-0.436 0.416,-0.473C0.43,-0.496 0.449,-0.508 0.473,-0.508C0.491,-0.508 0.508,-0.502 0.522,-0.489C0.536,-0.477 0.543,-0.462 0.543,-0.444C0.543,-0.434 0.541,-0.424 0.535,-0.413Z" style="fill:rgb(197,195,255);fill-rule:nonzero;"/>
        </g>
        <g transform="matrix(36,0,0,36,904.123,58.4566)">
            <path d="M0.2,-0.072C0.2,-0.01 0.178,0.021 0.133,0.021C0.113,0.021 0.097,0.015 0.084,0.002C0.072,-0.01 0.065,-0.026 0.065,-0.045L0.065,-0.721C0.065,-0.74 0.072,-0.755 0.086,-0.767C0.099,-0.778 0.115,-0.784 0.134,-0.784C0.153,-0.784 0.169,-0.778 0.182,-0.766C0.194,-0.755 0.2,-0.74 0.2,-0.721L0.2,-0.072Z" style="fill:rgb(197,195,255);fill-rule:nonzero;"/>
        </g>
        <g transform="matrix(36,0,0,36,913.984,58.4566)">
            <path d="M0.251,0.029C0.191,0.029 0.139,0.008 0.096,-0.033C0.048,-0.078 0.023,-0.139 0.021,-0.214C0.019,-0.286 0.038,-0.35 0.08,-0.407C0.13,-0.473 0.198,-0.506 0.287,-0.506C0.352,-0.506 0.403,-0.48 0.442,-0.428C0.476,-0.381 0.494,-0.323 0.494,-0.254C0.494,-0.178 0.473,-0.114 0.433,-0.061C0.388,-0.001 0.327,0.029 0.251,0.029ZM0.28,-0.377C0.24,-0.378 0.209,-0.36 0.186,-0.323C0.166,-0.292 0.156,-0.256 0.156,-0.214C0.156,-0.175 0.167,-0.145 0.189,-0.125C0.207,-0.108 0.228,-0.1 0.251,-0.1C0.279,-0.1 0.304,-0.109 0.325,-0.128C0.348,-0.151 0.361,-0.181 0.363,-0.22C0.367,-0.325 0.34,-0.377 0.28,-0.377Z" style="fill:rgb(197,195,255);fill-rule:nonzero;"/>
        </g>
        <g transform="matrix(36,0,0,36,932.916,58.4566)">
            <path d="M0.435,0.035C0.395,0.035 0.372,0.015 0.368,-0.024C0.363,-0.058 0.359,-0.092 0.354,-0.125C0.349,-0.161 0.347,-0.195 0.347,-0.227C0.347,-0.235 0.347,-0.25 0.348,-0.27C0.35,-0.291 0.35,-0.305 0.35,-0.313C0.35,-0.316 0.35,-0.322 0.351,-0.331C0.352,-0.34 0.352,-0.348 0.352,-0.354C0.352,-0.381 0.346,-0.394 0.333,-0.394C0.305,-0.394 0.277,-0.376 0.25,-0.34C0.224,-0.304 0.203,-0.259 0.187,-0.204C0.187,-0.193 0.186,-0.178 0.183,-0.16C0.182,-0.145 0.181,-0.13 0.181,-0.116C0.181,-0.107 0.18,-0.092 0.177,-0.074C0.175,-0.055 0.174,-0.041 0.174,-0.031C0.174,-0.012 0.168,0.003 0.155,0.016C0.142,0.028 0.126,0.035 0.106,0.035C0.087,0.035 0.071,0.028 0.058,0.016C0.045,0.004 0.039,-0.012 0.039,-0.031C0.039,-0.04 0.038,-0.054 0.036,-0.073C0.034,-0.092 0.033,-0.106 0.033,-0.115C0.033,-0.147 0.035,-0.191 0.04,-0.248C0.045,-0.304 0.047,-0.349 0.047,-0.381C0.047,-0.39 0.046,-0.405 0.045,-0.425C0.044,-0.445 0.043,-0.459 0.043,-0.469C0.043,-0.488 0.05,-0.503 0.063,-0.515C0.076,-0.527 0.093,-0.533 0.112,-0.533C0.154,-0.533 0.177,-0.508 0.18,-0.457L0.181,-0.451C0.228,-0.499 0.278,-0.523 0.331,-0.523C0.393,-0.523 0.435,-0.497 0.458,-0.446C0.474,-0.411 0.482,-0.36 0.482,-0.291L0.482,-0.256C0.482,-0.241 0.481,-0.231 0.481,-0.225C0.481,-0.199 0.485,-0.167 0.492,-0.126C0.499,-0.086 0.502,-0.054 0.502,-0.029C0.502,-0.011 0.496,0.005 0.483,0.017C0.47,0.029 0.454,0.035 0.435,0.035Z" style="fill:rgb(197,195,255);fill-rule:nonzero;"/>
        </g>
        <g transform="matrix(36,0,0,36,951.759,58.4566)">
            <path d="M0.502,-0.291C0.489,-0.215 0.481,-0.134 0.478,-0.049C0.475,0.056 0.457,0.133 0.425,0.18C0.383,0.244 0.307,0.275 0.199,0.275C0.072,0.275 0.009,0.25 0.009,0.2C0.009,0.182 0.014,0.168 0.026,0.157C0.037,0.146 0.052,0.14 0.071,0.14C0.085,0.14 0.106,0.143 0.134,0.148C0.161,0.154 0.185,0.157 0.207,0.157C0.255,0.157 0.291,0.142 0.314,0.112C0.336,0.083 0.349,0.037 0.353,-0.026C0.336,-0.009 0.318,0.004 0.297,0.012C0.276,0.021 0.253,0.025 0.229,0.025C0.164,0.025 0.111,0.004 0.071,-0.038C0.03,-0.08 0.01,-0.134 0.01,-0.2C0.01,-0.289 0.037,-0.36 0.091,-0.415C0.147,-0.472 0.222,-0.5 0.318,-0.5C0.348,-0.5 0.375,-0.496 0.397,-0.489C0.419,-0.481 0.437,-0.47 0.451,-0.455C0.492,-0.45 0.513,-0.425 0.513,-0.381C0.513,-0.36 0.509,-0.329 0.502,-0.291ZM0.313,-0.389C0.258,-0.389 0.215,-0.371 0.185,-0.334C0.157,-0.302 0.144,-0.259 0.144,-0.207C0.144,-0.168 0.151,-0.139 0.166,-0.119C0.18,-0.1 0.202,-0.09 0.231,-0.09C0.258,-0.09 0.285,-0.105 0.312,-0.136C0.337,-0.166 0.352,-0.194 0.355,-0.223C0.362,-0.254 0.369,-0.303 0.377,-0.369C0.366,-0.376 0.355,-0.381 0.344,-0.384C0.333,-0.387 0.323,-0.389 0.313,-0.389Z" style="fill:rgb(197,195,255);fill-rule:nonzero;"/>
        </g>
        <g transform="matrix(36,0,0,36,970.867,58.4566)">
            <path d="M0.215,0.051C0.194,0.051 0.175,0.044 0.159,0.031C0.143,0.017 0.135,0.002 0.135,-0.015C0.135,-0.032 0.143,-0.048 0.159,-0.062C0.175,-0.076 0.194,-0.083 0.215,-0.083C0.238,-0.083 0.257,-0.076 0.272,-0.063C0.287,-0.05 0.295,-0.034 0.295,-0.015C0.295,0.002 0.287,0.017 0.271,0.031C0.256,0.044 0.237,0.051 0.215,0.051Z" style="fill:rgb(197,195,255);fill-rule:nonzero;"/>
        </g>
        <g transform="matrix(36,0,0,36,1002.09,58.4566)">
            <path d="M0.457,-0.577C0.441,-0.577 0.398,-0.582 0.328,-0.591C0.324,-0.531 0.321,-0.451 0.321,-0.352L0.321,-0.133C0.364,-0.134 0.408,-0.134 0.453,-0.134C0.473,-0.134 0.489,-0.128 0.502,-0.115C0.515,-0.102 0.521,-0.086 0.521,-0.068C0.521,-0.05 0.514,-0.034 0.501,-0.021C0.488,-0.008 0.472,-0.002 0.452,-0.002C0.433,-0.002 0.405,-0.002 0.368,-0.001C0.331,0 0.303,0 0.284,0C0.262,0 0.229,0.003 0.185,0.009C0.141,0.015 0.108,0.018 0.086,0.018C0.066,0.018 0.05,0.011 0.037,-0.002C0.024,-0.015 0.017,-0.03 0.017,-0.048C0.017,-0.067 0.024,-0.082 0.038,-0.095C0.051,-0.108 0.069,-0.115 0.09,-0.115C0.113,-0.115 0.144,-0.117 0.183,-0.122C0.182,-0.16 0.182,-0.234 0.182,-0.343C0.182,-0.431 0.185,-0.516 0.192,-0.596L0.086,-0.593C0.066,-0.593 0.05,-0.6 0.037,-0.612C0.024,-0.625 0.017,-0.641 0.017,-0.66C0.017,-0.679 0.023,-0.694 0.036,-0.707C0.048,-0.718 0.062,-0.724 0.079,-0.726C0.107,-0.728 0.155,-0.729 0.224,-0.729C0.286,-0.729 0.365,-0.723 0.463,-0.709C0.502,-0.703 0.521,-0.681 0.521,-0.642C0.521,-0.621 0.513,-0.604 0.498,-0.592C0.486,-0.582 0.472,-0.577 0.457,-0.577Z" style="fill:rgb(197,195,255);fill-rule:nonzero;"/>
        </g>
        <g transform="matrix(36,0,0,36,1037.36,58.4566)">
            <path d="M0.176,-0.432C0.225,-0.489 0.272,-0.518 0.316,-0.518C0.366,-0.518 0.403,-0.499 0.426,-0.46C0.446,-0.478 0.468,-0.491 0.492,-0.5C0.516,-0.509 0.542,-0.513 0.57,-0.513C0.634,-0.513 0.677,-0.481 0.7,-0.418C0.705,-0.405 0.712,-0.361 0.721,-0.286C0.73,-0.233 0.742,-0.145 0.756,-0.022C0.758,-0.003 0.751,0.012 0.737,0.024C0.723,0.036 0.707,0.042 0.688,0.042C0.651,0.042 0.629,0.023 0.622,-0.014C0.616,-0.047 0.61,-0.095 0.604,-0.156C0.597,-0.223 0.592,-0.27 0.588,-0.298C0.579,-0.357 0.568,-0.386 0.554,-0.386C0.547,-0.386 0.53,-0.378 0.503,-0.363C0.476,-0.348 0.457,-0.335 0.444,-0.325C0.444,-0.288 0.449,-0.234 0.458,-0.165C0.467,-0.093 0.471,-0.04 0.471,-0.004C0.471,0.014 0.465,0.03 0.452,0.042C0.439,0.054 0.423,0.061 0.404,0.061C0.384,0.061 0.368,0.054 0.355,0.042C0.343,0.03 0.336,0.014 0.336,-0.004C0.336,-0.042 0.332,-0.096 0.324,-0.168C0.316,-0.24 0.313,-0.295 0.313,-0.332C0.313,-0.353 0.311,-0.369 0.307,-0.382C0.269,-0.36 0.231,-0.324 0.193,-0.273C0.192,-0.271 0.189,-0.267 0.185,-0.263C0.184,-0.197 0.183,-0.145 0.183,-0.108C0.183,-0.099 0.183,-0.087 0.182,-0.071C0.181,-0.056 0.181,-0.044 0.181,-0.037C0.181,-0.019 0.174,-0.005 0.16,0.005C0.147,0.014 0.131,0.019 0.111,0.019C0.084,0.019 0.065,0.007 0.055,-0.017C0.048,-0.033 0.045,-0.059 0.045,-0.095L0.045,-0.276C0.045,-0.293 0.044,-0.316 0.043,-0.348C0.042,-0.379 0.041,-0.403 0.041,-0.419C0.041,-0.448 0.046,-0.475 0.057,-0.498C0.069,-0.527 0.087,-0.542 0.11,-0.542C0.129,-0.542 0.145,-0.535 0.159,-0.521C0.174,-0.507 0.181,-0.491 0.181,-0.474C0.181,-0.481 0.179,-0.467 0.176,-0.432Z" style="fill:rgb(197,195,255);fill-rule:nonzero;"/>
        </g>
        <g transform="matrix(36,0,0,36,1065.33,58.4566)">
            <path d="M0.296,0.022C0.218,0.022 0.154,0.004 0.105,-0.033C0.05,-0.074 0.023,-0.132 0.023,-0.207C0.023,-0.289 0.045,-0.359 0.088,-0.416C0.136,-0.479 0.201,-0.51 0.283,-0.51C0.339,-0.51 0.386,-0.501 0.424,-0.483C0.473,-0.459 0.498,-0.421 0.498,-0.371C0.498,-0.335 0.478,-0.303 0.438,-0.275C0.419,-0.263 0.383,-0.244 0.328,-0.22L0.163,-0.147C0.179,-0.13 0.198,-0.117 0.22,-0.109C0.242,-0.1 0.267,-0.096 0.296,-0.096C0.34,-0.096 0.376,-0.105 0.407,-0.123C0.434,-0.139 0.455,-0.147 0.472,-0.147C0.506,-0.147 0.522,-0.131 0.522,-0.098C0.522,-0.061 0.495,-0.03 0.441,-0.007C0.395,0.013 0.347,0.022 0.296,0.022ZM0.283,-0.392C0.252,-0.392 0.227,-0.382 0.205,-0.362C0.184,-0.342 0.166,-0.311 0.153,-0.271C0.19,-0.287 0.227,-0.303 0.263,-0.318C0.307,-0.338 0.342,-0.357 0.368,-0.374C0.346,-0.386 0.318,-0.392 0.283,-0.392Z" style="fill:rgb(197,195,255);fill-rule:nonzero;"/>
        </g>
        <g transform="matrix(36,0,0,36,1085.46,58.4566)">
            <path d="M0.471,0.027C0.456,0.027 0.432,0.012 0.4,-0.017C0.37,-0.002 0.344,0.009 0.321,0.016C0.298,0.023 0.279,0.027 0.263,0.027C0.184,0.027 0.125,0.006 0.086,-0.036C0.047,-0.078 0.027,-0.141 0.027,-0.225C0.027,-0.303 0.056,-0.37 0.114,-0.426C0.172,-0.482 0.242,-0.51 0.322,-0.51C0.353,-0.51 0.389,-0.501 0.43,-0.484C0.479,-0.463 0.503,-0.438 0.503,-0.411C0.503,-0.399 0.5,-0.389 0.492,-0.38C0.489,-0.367 0.486,-0.351 0.485,-0.332C0.483,-0.312 0.482,-0.289 0.482,-0.263C0.482,-0.202 0.486,-0.157 0.495,-0.13C0.496,-0.127 0.504,-0.111 0.518,-0.08C0.53,-0.052 0.537,-0.036 0.537,-0.033C0.537,-0.016 0.53,-0.001 0.517,0.01C0.504,0.021 0.488,0.027 0.471,0.027ZM0.35,-0.303C0.35,-0.313 0.351,-0.325 0.352,-0.339C0.354,-0.352 0.356,-0.367 0.359,-0.384C0.352,-0.387 0.347,-0.389 0.342,-0.391C0.337,-0.392 0.332,-0.393 0.329,-0.393C0.284,-0.393 0.246,-0.376 0.212,-0.341C0.179,-0.306 0.163,-0.266 0.163,-0.221C0.163,-0.177 0.17,-0.144 0.186,-0.122C0.202,-0.1 0.225,-0.089 0.256,-0.089C0.277,-0.089 0.296,-0.093 0.314,-0.099C0.332,-0.106 0.349,-0.116 0.365,-0.129C0.355,-0.206 0.35,-0.264 0.35,-0.303Z" style="fill:rgb(197,195,255);fill-rule:nonzero;"/>
        </g>
        <g transform="matrix(36,0,0,36,1105.46,58.4566)">
            <path d="M0.435,0.035C0.395,0.035 0.372,0.015 0.368,-0.024C0.363,-0.058 0.359,-0.092 0.354,-0.125C0.349,-0.161 0.347,-0.195 0.347,-0.227C0.347,-0.235 0.347,-0.25 0.348,-0.27C0.35,-0.291 0.35,-0.305 0.35,-0.313C0.35,-0.316 0.35,-0.322 0.351,-0.331C0.352,-0.34 0.352,-0.348 0.352,-0.354C0.352,-0.381 0.346,-0.394 0.333,-0.394C0.305,-0.394 0.277,-0.376 0.25,-0.34C0.224,-0.304 0.203,-0.259 0.187,-0.204C0.187,-0.193 0.186,-0.178 0.183,-0.16C0.182,-0.145 0.181,-0.13 0.181,-0.116C0.181,-0.107 0.18,-0.092 0.177,-0.074C0.175,-0.055 0.174,-0.041 0.174,-0.031C0.174,-0.012 0.168,0.003 0.155,0.016C0.142,0.028 0.126,0.035 0.106,0.035C0.087,0.035 0.071,0.028 0.058,0.016C0.045,0.004 0.039,-0.012 0.039,-0.031C0.039,-0.04 0.038,-0.054 0.036,-0.073C0.034,-0.092 0.033,-0.106 0.033,-0.115C0.033,-0.147 0.035,-0.191 0.04,-0.248C0.045,-0.304 0.047,-0.349 0.047,-0.381C0.047,-0.39 0.046,-0.405 0.045,-0.425C0.044,-0.445 0.043,-0.459 0.043,-0.469C0.043,-0.488 0.05,-0.503 0.063,-0.515C0.076,-0.527 0.093,-0.533 0.112,-0.533C0.154,-0.533 0.177,-0.508 0.18,-0.457L0.181,-0.451C0.228,-0.499 0.278,-0.523 0.331,-0.523C0.393,-0.523 0.435,-0.497 0.458,-0.446C0.474,-0.411 0.482,-0.36 0.482,-0.291L0.482,-0.256C0.482,-0.241 0.481,-0.231 0.481,-0.225C0.481,-0.199 0.485,-0.167 0.492,-0.126C0.499,-0.086 0.502,-0.054 0.502,-0.029C0.502,-0.011 0.496,0.005 0.483,0.017C0.47,0.029 0.454,0.035 0.435,0.035Z" style="fill:rgb(197,195,255);fill-rule:nonzero;"/>
        </g>
        <g transform="matrix(36,0,0,36,1139.92,58.4566)">
            <path d="M0.457,-0.577C0.441,-0.577 0.398,-0.582 0.328,-0.591C0.324,-0.531 0.321,-0.451 0.321,-0.352L0.321,-0.133C0.364,-0.134 0.408,-0.134 0.453,-0.134C0.473,-0.134 0.489,-0.128 0.502,-0.115C0.515,-0.102 0.521,-0.086 0.521,-0.068C0.521,-0.05 0.514,-0.034 0.501,-0.021C0.488,-0.008 0.472,-0.002 0.452,-0.002C0.433,-0.002 0.405,-0.002 0.368,-0.001C0.331,0 0.303,0 0.284,0C0.262,0 0.229,0.003 0.185,0.009C0.141,0.015 0.108,0.018 0.086,0.018C0.066,0.018 0.05,0.011 0.037,-0.002C0.024,-0.015 0.017,-0.03 0.017,-0.048C0.017,-0.067 0.024,-0.082 0.038,-0.095C0.051,-0.108 0.069,-0.115 0.09,-0.115C0.113,-0.115 0.144,-0.117 0.183,-0.122C0.182,-0.16 0.182,-0.234 0.182,-0.343C0.182,-0.431 0.185,-0.516 0.192,-0.596L0.086,-0.593C0.066,-0.593 0.05,-0.6 0.037,-0.612C0.024,-0.625 0.017,-0.641 0.017,-0.66C0.017,-0.679 0.023,-0.694 0.036,-0.707C0.048,-0.718 0.062,-0.724 0.079,-0.726C0.107,-0.728 0.155,-0.729 0.224,-0.729C0.286,-0.729 0.365,-0.723 0.463,-0.709C0.502,-0.703 0.521,-0.681 0.521,-0.642C0.521,-0.621 0.513,-0.604 0.498,-0.592C0.486,-0.582 0.472,-0.577 0.457,-0.577Z" style="fill:rgb(197,195,255);fill-rule:nonzero;"/>
        </g>
        <g transform="matrix(36,0,0,36,1159.59,58.4566)">
            <path d="M0.278,-0.679L0.273,-0.509C0.273,-0.493 0.267,-0.48 0.255,-0.469C0.244,-0.458 0.229,-0.453 0.21,-0.453C0.193,-0.453 0.178,-0.458 0.166,-0.469C0.153,-0.48 0.147,-0.493 0.147,-0.509C0.147,-0.555 0.149,-0.621 0.153,-0.708C0.155,-0.73 0.162,-0.746 0.172,-0.757C0.183,-0.768 0.198,-0.773 0.218,-0.773C0.236,-0.773 0.251,-0.768 0.263,-0.757C0.275,-0.747 0.281,-0.733 0.281,-0.717C0.281,-0.713 0.28,-0.706 0.279,-0.698C0.278,-0.689 0.278,-0.683 0.278,-0.679Z" style="fill:rgb(197,195,255);fill-rule:nonzero;"/>
        </g>
        <g transform="matrix(36,0,0,36,1175.2,58.4566)">
            <path d="M0.312,-0.036C0.31,-0.02 0.304,-0.007 0.292,0.004C0.28,0.014 0.266,0.02 0.249,0.02C0.216,0.02 0.192,0.003 0.179,-0.031C0.144,-0.119 0.09,-0.25 0.017,-0.425C0.013,-0.435 0.011,-0.444 0.011,-0.453C0.011,-0.47 0.018,-0.485 0.032,-0.497C0.046,-0.51 0.062,-0.516 0.081,-0.516C0.109,-0.516 0.129,-0.503 0.141,-0.477C0.159,-0.438 0.195,-0.346 0.249,-0.201C0.266,-0.237 0.29,-0.293 0.32,-0.369C0.329,-0.394 0.344,-0.429 0.363,-0.474C0.376,-0.5 0.396,-0.513 0.423,-0.513C0.442,-0.513 0.458,-0.507 0.472,-0.495C0.486,-0.483 0.493,-0.468 0.493,-0.45C0.493,-0.438 0.467,-0.374 0.414,-0.256C0.371,-0.161 0.337,-0.087 0.312,-0.036Z" style="fill:rgb(197,195,255);fill-rule:nonzero;"/>
        </g>
        <g transform="matrix(36,0,0,36,1192.7,58.4566)">
            <path d="M0.296,0.022C0.218,0.022 0.154,0.004 0.105,-0.033C0.05,-0.074 0.023,-0.132 0.023,-0.207C0.023,-0.289 0.045,-0.359 0.088,-0.416C0.136,-0.479 0.201,-0.51 0.283,-0.51C0.339,-0.51 0.386,-0.501 0.424,-0.483C0.473,-0.459 0.498,-0.421 0.498,-0.371C0.498,-0.335 0.478,-0.303 0.438,-0.275C0.419,-0.263 0.383,-0.244 0.328,-0.22L0.163,-0.147C0.179,-0.13 0.198,-0.117 0.22,-0.109C0.242,-0.1 0.267,-0.096 0.296,-0.096C0.34,-0.096 0.376,-0.105 0.407,-0.123C0.434,-0.139 0.455,-0.147 0.472,-0.147C0.506,-0.147 0.522,-0.131 0.522,-0.098C0.522,-0.061 0.495,-0.03 0.441,-0.007C0.395,0.013 0.347,0.022 0.296,0.022ZM0.283,-0.392C0.252,-0.392 0.227,-0.382 0.205,-0.362C0.184,-0.342 0.166,-0.311 0.153,-0.271C0.19,-0.287 0.227,-0.303 0.263,-0.318C0.307,-0.338 0.342,-0.357 0.368,-0.374C0.346,-0.386 0.318,-0.392 0.283,-0.392Z" style="fill:rgb(197,195,255);fill-rule:nonzero;"/>
        </g>
        <g transform="matrix(36,0,0,36,1228.44,58.4566)">
            <path d="M0.502,-0.291C0.489,-0.215 0.481,-0.134 0.478,-0.049C0.475,0.056 0.457,0.133 0.425,0.18C0.383,0.244 0.307,0.275 0.199,0.275C0.072,0.275 0.009,0.25 0.009,0.2C0.009,0.182 0.014,0.168 0.026,0.157C0.037,0.146 0.052,0.14 0.071,0.14C0.085,0.14 0.106,0.143 0.134,0.148C0.161,0.154 0.185,0.157 0.207,0.157C0.255,0.157 0.291,0.142 0.314,0.112C0.336,0.083 0.349,0.037 0.353,-0.026C0.336,-0.009 0.318,0.004 0.297,0.012C0.276,0.021 0.253,0.025 0.229,0.025C0.164,0.025 0.111,0.004 0.071,-0.038C0.03,-0.08 0.01,-0.134 0.01,-0.2C0.01,-0.289 0.037,-0.36 0.091,-0.415C0.147,-0.472 0.222,-0.5 0.318,-0.5C0.348,-0.5 0.375,-0.496 0.397,-0.489C0.419,-0.481 0.437,-0.47 0.451,-0.455C0.492,-0.45 0.513,-0.425 0.513,-0.381C0.513,-0.36 0.509,-0.329 0.502,-0.291ZM0.313,-0.389C0.258,-0.389 0.215,-0.371 0.185,-0.334C0.157,-0.302 0.144,-0.259 0.144,-0.207C0.144,-0.168 0.151,-0.139 0.166,-0.119C0.18,-0.1 0.202,-0.09 0.231,-0.09C0.258,-0.09 0.285,-0.105 0.312,-0.136C0.337,-0.166 0.352,-0.194 0.355,-0.223C0.362,-0.254 0.369,-0.303 0.377,-0.369C0.366,-0.376 0.355,-0.381 0.344,-0.384C0.333,-0.387 0.323,-0.389 0.313,-0.389Z" style="fill:rgb(197,195,255);fill-rule:nonzero;"/>
        </g>
        <g transform="matrix(36,0,0,36,1247.55,58.4566)">
            <path d="M0.251,0.029C0.191,0.029 0.139,0.008 0.096,-0.033C0.048,-0.078 0.023,-0.139 0.021,-0.214C0.019,-0.286 0.038,-0.35 0.08,-0.407C0.13,-0.473 0.198,-0.506 0.287,-0.506C0.352,-0.506 0.403,-0.48 0.442,-0.428C0.476,-0.381 0.494,-0.323 0.494,-0.254C0.494,-0.178 0.473,-0.114 0.433,-0.061C0.388,-0.001 0.327,0.029 0.251,0.029ZM0.28,-0.377C0.24,-0.378 0.209,-0.36 0.186,-0.323C0.166,-0.292 0.156,-0.256 0.156,-0.214C0.156,-0.175 0.167,-0.145 0.189,-0.125C0.207,-0.108 0.228,-0.1 0.251,-0.1C0.279,-0.1 0.304,-0.109 0.325,-0.128C0.348,-0.151 0.361,-0.181 0.363,-0.22C0.367,-0.325 0.34,-0.377 0.28,-0.377Z" style="fill:rgb(197,195,255);fill-rule:nonzero;"/>
        </g>
        <g transform="matrix(36,0,0,36,1266.48,58.4566)">
            <path d="M0.395,-0.393L0.346,-0.395C0.333,-0.395 0.317,-0.393 0.3,-0.391C0.306,-0.259 0.309,-0.173 0.309,-0.133C0.309,-0.129 0.309,-0.121 0.309,-0.109C0.309,-0.098 0.31,-0.088 0.31,-0.081C0.31,-0.006 0.286,0.031 0.239,0.031C0.221,0.031 0.205,0.026 0.192,0.015C0.178,0.003 0.171,-0.012 0.171,-0.029C0.171,-0.041 0.171,-0.059 0.172,-0.082C0.173,-0.105 0.174,-0.123 0.174,-0.135C0.174,-0.174 0.171,-0.258 0.165,-0.388C0.145,-0.389 0.114,-0.391 0.073,-0.396C0.033,-0.4 0.012,-0.421 0.012,-0.459C0.012,-0.477 0.018,-0.493 0.031,-0.505C0.043,-0.518 0.059,-0.524 0.079,-0.524C0.091,-0.524 0.118,-0.522 0.162,-0.519C0.161,-0.529 0.16,-0.546 0.159,-0.57C0.158,-0.591 0.157,-0.607 0.157,-0.619C0.157,-0.637 0.164,-0.652 0.177,-0.664C0.191,-0.676 0.207,-0.682 0.226,-0.682C0.274,-0.682 0.298,-0.642 0.298,-0.561L0.297,-0.521C0.317,-0.523 0.333,-0.525 0.346,-0.525C0.384,-0.525 0.409,-0.522 0.423,-0.518C0.449,-0.508 0.462,-0.489 0.462,-0.458C0.462,-0.439 0.456,-0.424 0.443,-0.412C0.43,-0.399 0.414,-0.393 0.395,-0.393Z" style="fill:rgb(197,195,255);fill-rule:nonzero;"/>
        </g>
        <g transform="matrix(36,0,0,36,1299.05,58.4566)">
            <path d="M0.471,0.027C0.456,0.027 0.432,0.012 0.4,-0.017C0.37,-0.002 0.344,0.009 0.321,0.016C0.298,0.023 0.279,0.027 0.263,0.027C0.184,0.027 0.125,0.006 0.086,-0.036C0.047,-0.078 0.027,-0.141 0.027,-0.225C0.027,-0.303 0.056,-0.37 0.114,-0.426C0.172,-0.482 0.242,-0.51 0.322,-0.51C0.353,-0.51 0.389,-0.501 0.43,-0.484C0.479,-0.463 0.503,-0.438 0.503,-0.411C0.503,-0.399 0.5,-0.389 0.492,-0.38C0.489,-0.367 0.486,-0.351 0.485,-0.332C0.483,-0.312 0.482,-0.289 0.482,-0.263C0.482,-0.202 0.486,-0.157 0.495,-0.13C0.496,-0.127 0.504,-0.111 0.518,-0.08C0.53,-0.052 0.537,-0.036 0.537,-0.033C0.537,-0.016 0.53,-0.001 0.517,0.01C0.504,0.021 0.488,0.027 0.471,0.027ZM0.35,-0.303C0.35,-0.313 0.351,-0.325 0.352,-0.339C0.354,-0.352 0.356,-0.367 0.359,-0.384C0.352,-0.387 0.347,-0.389 0.342,-0.391C0.337,-0.392 0.332,-0.393 0.329,-0.393C0.284,-0.393 0.246,-0.376 0.212,-0.341C0.179,-0.306 0.163,-0.266 0.163,-0.221C0.163,-0.177 0.17,-0.144 0.186,-0.122C0.202,-0.1 0.225,-0.089 0.256,-0.089C0.277,-0.089 0.296,-0.093 0.314,-0.099C0.332,-0.106 0.349,-0.116 0.365,-0.129C0.355,-0.206 0.35,-0.264 0.35,-0.303Z" style="fill:rgb(197,195,255);fill-rule:nonzero;"/>
        </g>
        <g transform="matrix(36,0,0,36,1334.66,58.4566)">
            <path d="M0.2,-0.072C0.2,-0.01 0.178,0.021 0.133,0.021C0.113,0.021 0.097,0.015 0.084,0.002C0.072,-0.01 0.065,-0.026 0.065,-0.045L0.065,-0.721C0.065,-0.74 0.072,-0.755 0.086,-0.767C0.099,-0.778 0.115,-0.784 0.134,-0.784C0.153,-0.784 0.169,-0.778 0.182,-0.766C0.194,-0.755 0.2,-0.74 0.2,-0.721L0.2,-0.072Z" style="fill:rgb(197,195,255);fill-rule:nonzero;"/>
        </g>
        <g transform="matrix(36,0,0,36,1344.53,58.4566)">
            <path d="M0.251,0.029C0.191,0.029 0.139,0.008 0.096,-0.033C0.048,-0.078 0.023,-0.139 0.021,-0.214C0.019,-0.286 0.038,-0.35 0.08,-0.407C0.13,-0.473 0.198,-0.506 0.287,-0.506C0.352,-0.506 0.403,-0.48 0.442,-0.428C0.476,-0.381 0.494,-0.323 0.494,-0.254C0.494,-0.178 0.473,-0.114 0.433,-0.061C0.388,-0.001 0.327,0.029 0.251,0.029ZM0.28,-0.377C0.24,-0.378 0.209,-0.36 0.186,-0.323C0.166,-0.292 0.156,-0.256 0.156,-0.214C0.156,-0.175 0.167,-0.145 0.189,-0.125C0.207,-0.108 0.228,-0.1 0.251,-0.1C0.279,-0.1 0.304,-0.109 0.325,-0.128C0.348,-0.151 0.361,-0.181 0.363,-0.22C0.367,-0.325 0.34,-0.377 0.28,-0.377Z" style="fill:rgb(197,195,255);fill-rule:nonzero;"/>
        </g>
        <g transform="matrix(36,0,0,36,1363.46,58.4566)">
            <path d="M0.395,-0.393L0.346,-0.395C0.333,-0.395 0.317,-0.393 0.3,-0.391C0.306,-0.259 0.309,-0.173 0.309,-0.133C0.309,-0.129 0.309,-0.121 0.309,-0.109C0.309,-0.098 0.31,-0.088 0.31,-0.081C0.31,-0.006 0.286,0.031 0.239,0.031C0.221,0.031 0.205,0.026 0.192,0.015C0.178,0.003 0.171,-0.012 0.171,-0.029C0.171,-0.041 0.171,-0.059 0.172,-0.082C0.173,-0.105 0.174,-0.123 0.174,-0.135C0.174,-0.174 0.171,-0.258 0.165,-0.388C0.145,-0.389 0.114,-0.391 0.073,-0.396C0.033,-0.4 0.012,-0.421 0.012,-0.459C0.012,-0.477 0.018,-0.493 0.031,-0.505C0.043,-0.518 0.059,-0.524 0.079,-0.524C0.091,-0.524 0.118,-0.522 0.162,-0.519C0.161,-0.529 0.16,-0.546 0.159,-0.57C0.158,-0.591 0.157,-0.607 0.157,-0.619C0.157,-0.637 0.164,-0.652 0.177,-0.664C0.191,-0.676 0.207,-0.682 0.226,-0.682C0.274,-0.682 0.298,-0.642 0.298,-0.561L0.297,-0.521C0.317,-0.523 0.333,-0.525 0.346,-0.525C0.384,-0.525 0.409,-0.522 0.423,-0.518C0.449,-0.508 0.462,-0.489 0.462,-0.458C0.462,-0.439 0.456,-0.424 0.443,-0.412C0.43,-0.399 0.414,-0.393 0.395,-0.393Z" style="fill:rgb(197,195,255);fill-rule:nonzero;"/>
        </g>
        <g transform="matrix(36,0,0,36,1396.03,58.4566)">
            <path d="M0.395,-0.393L0.346,-0.395C0.333,-0.395 0.317,-0.393 0.3,-0.391C0.306,-0.259 0.309,-0.173 0.309,-0.133C0.309,-0.129 0.309,-0.121 0.309,-0.109C0.309,-0.098 0.31,-0.088 0.31,-0.081C0.31,-0.006 0.286,0.031 0.239,0.031C0.221,0.031 0.205,0.026 0.192,0.015C0.178,0.003 0.171,-0.012 0.171,-0.029C0.171,-0.041 0.171,-0.059 0.172,-0.082C0.173,-0.105 0.174,-0.123 0.174,-0.135C0.174,-0.174 0.171,-0.258 0.165,-0.388C0.145,-0.389 0.114,-0.391 0.073,-0.396C0.033,-0.4 0.012,-0.421 0.012,-0.459C0.012,-0.477 0.018,-0.493 0.031,-0.505C0.043,-0.518 0.059,-0.524 0.079,-0.524C0.091,-0.524 0.118,-0.522 0.162,-0.519C0.161,-0.529 0.16,-0.546 0.159,-0.57C0.158,-0.591 0.157,-0.607 0.157,-0.619C0.157,-0.637 0.164,-0.652 0.177,-0.664C0.191,-0.676 0.207,-0.682 0.226,-0.682C0.274,-0.682 0.298,-0.642 0.298,-0.561L0.297,-0.521C0.317,-0.523 0.333,-0.525 0.346,-0.525C0.384,-0.525 0.409,-0.522 0.423,-0.518C0.449,-0.508 0.462,-0.489 0.462,-0.458C0.462,-0.439 0.456,-0.424 0.443,-0.412C0.43,-0.399 0.414,-0.393 0.395,-0.393Z" style="fill:rgb(197,195,255);fill-rule:nonzero;"/>
        </g>
        <g transform="matrix(36,0,0,36,1412.99,58.4566)">
            <path d="M0.251,0.029C0.191,0.029 0.139,0.008 0.096,-0.033C0.048,-0.078 0.023,-0.139 0.021,-0.214C0.019,-0.286 0.038,-0.35 0.08,-0.407C0.13,-0.473 0.198,-0.506 0.287,-0.506C0.352,-0.506 0.403,-0.48 0.442,-0.428C0.476,-0.381 0.494,-0.323 0.494,-0.254C0.494,-0.178 0.473,-0.114 0.433,-0.061C0.388,-0.001 0.327,0.029 0.251,0.029ZM0.28,-0.377C0.24,-0.378 0.209,-0.36 0.186,-0.323C0.166,-0.292 0.156,-0.256 0.156,-0.214C0.156,-0.175 0.167,-0.145 0.189,-0.125C0.207,-0.108 0.228,-0.1 0.251,-0.1C0.279,-0.1 0.304,-0.109 0.325,-0.128C0.348,-0.151 0.361,-0.181 0.363,-0.22C0.367,-0.325 0.34,-0.377 0.28,-0.377Z" style="fill:rgb(197,195,255);fill-rule:nonzero;"/>
        </g>
        <g transform="matrix(36,0,0,36,1447.53,58.4566)">
            <path d="M0.394,-0.357C0.361,-0.357 0.342,-0.371 0.335,-0.398C0.322,-0.4 0.309,-0.401 0.295,-0.401C0.217,-0.401 0.178,-0.391 0.178,-0.369C0.178,-0.356 0.201,-0.339 0.249,-0.318C0.313,-0.288 0.357,-0.265 0.379,-0.249C0.427,-0.214 0.45,-0.176 0.45,-0.133C0.45,-0.077 0.424,-0.034 0.372,-0.005C0.33,0.018 0.278,0.029 0.217,0.029C0.174,0.029 0.134,0.023 0.099,0.009C0.05,-0.009 0.025,-0.036 0.025,-0.071C0.025,-0.104 0.045,-0.12 0.083,-0.12C0.098,-0.12 0.12,-0.115 0.148,-0.106C0.177,-0.097 0.199,-0.092 0.214,-0.092C0.28,-0.092 0.313,-0.105 0.313,-0.132C0.313,-0.148 0.291,-0.167 0.245,-0.187C0.178,-0.217 0.135,-0.238 0.116,-0.251C0.07,-0.283 0.047,-0.322 0.047,-0.369C0.047,-0.434 0.082,-0.478 0.151,-0.501C0.192,-0.514 0.253,-0.521 0.336,-0.521C0.369,-0.521 0.393,-0.517 0.409,-0.508C0.43,-0.497 0.441,-0.476 0.441,-0.445C0.441,-0.387 0.425,-0.357 0.394,-0.357Z" style="fill:rgb(197,195,255);fill-rule:nonzero;"/>
        </g>
        <g transform="matrix(36,0,0,36,1465.06,58.4566)">
            <path d="M0.471,0.027C0.456,0.027 0.432,0.012 0.4,-0.017C0.37,-0.002 0.344,0.009 0.321,0.016C0.298,0.023 0.279,0.027 0.263,0.027C0.184,0.027 0.125,0.006 0.086,-0.036C0.047,-0.078 0.027,-0.141 0.027,-0.225C0.027,-0.303 0.056,-0.37 0.114,-0.426C0.172,-0.482 0.242,-0.51 0.322,-0.51C0.353,-0.51 0.389,-0.501 0.43,-0.484C0.479,-0.463 0.503,-0.438 0.503,-0.411C0.503,-0.399 0.5,-0.389 0.492,-0.38C0.489,-0.367 0.486,-0.351 0.485,-0.332C0.483,-0.312 0.482,-0.289 0.482,-0.263C0.482,-0.202 0.486,-0.157 0.495,-0.13C0.496,-0.127 0.504,-0.111 0.518,-0.08C0.53,-0.052 0.537,-0.036 0.537,-0.033C0.537,-0.016 0.53,-0.001 0.517,0.01C0.504,0.021 0.488,0.027 0.471,0.027ZM0.35,-0.303C0.35,-0.313 0.351,-0.325 0.352,-0.339C0.354,-0.352 0.356,-0.367 0.359,-0.384C0.352,-0.387 0.347,-0.389 0.342,-0.391C0.337,-0.392 0.332,-0.393 0.329,-0.393C0.284,-0.393 0.246,-0.376 0.212,-0.341C0.179,-0.306 0.163,-0.266 0.163,-0.221C0.163,-0.177 0.17,-0.144 0.186,-0.122C0.202,-0.1 0.225,-0.089 0.256,-0.089C0.277,-0.089 0.296,-0.093 0.314,-0.099C0.332,-0.106 0.349,-0.116 0.365,-0.129C0.355,-0.206 0.35,-0.264 0.35,-0.303Z" style="fill:rgb(197,195,255);fill-rule:nonzero;"/>
        </g>
        <g transform="matrix(36,0,0,36,1485.06,58.4566)">
            <path d="M0.535,-0.413C0.5,-0.339 0.444,-0.223 0.367,-0.064C0.325,0.021 0.293,0.091 0.271,0.147C0.265,0.167 0.254,0.197 0.239,0.237C0.228,0.267 0.207,0.283 0.177,0.283C0.158,0.283 0.142,0.277 0.128,0.265C0.114,0.253 0.107,0.237 0.107,0.219C0.107,0.189 0.141,0.099 0.21,-0.05C0.175,-0.12 0.118,-0.224 0.04,-0.362C0.032,-0.374 0.024,-0.387 0.016,-0.399C0.007,-0.414 0.003,-0.428 0.003,-0.44C0.003,-0.458 0.01,-0.473 0.024,-0.487C0.038,-0.5 0.054,-0.507 0.072,-0.507C0.094,-0.507 0.111,-0.499 0.123,-0.483C0.169,-0.421 0.223,-0.329 0.284,-0.205C0.319,-0.282 0.34,-0.329 0.348,-0.345C0.371,-0.393 0.393,-0.436 0.416,-0.473C0.43,-0.496 0.449,-0.508 0.473,-0.508C0.491,-0.508 0.508,-0.502 0.522,-0.489C0.536,-0.477 0.543,-0.462 0.543,-0.444C0.543,-0.434 0.541,-0.424 0.535,-0.413Z" style="fill:rgb(197,195,255);fill-rule:nonzero;"/>
        </g>
        <g transform="matrix(36,0,0,36,1504.96,58.4566)">
            <path d="M0.259,0.061C0.243,0.092 0.23,0.118 0.221,0.136C0.21,0.157 0.192,0.168 0.167,0.168C0.15,0.168 0.136,0.163 0.124,0.152C0.111,0.141 0.105,0.128 0.105,0.114C0.105,0.105 0.116,0.08 0.137,0.038C0.155,0.001 0.169,-0.025 0.179,-0.041C0.191,-0.06 0.208,-0.069 0.229,-0.069C0.247,-0.069 0.261,-0.064 0.273,-0.053C0.285,-0.042 0.292,-0.029 0.292,-0.015C0.292,-0.008 0.281,0.017 0.259,0.061Z" style="fill:rgb(197,195,255);fill-rule:nonzero;"/>
        </g>
        <g transform="matrix(36,0,0,36,515.769,94.4566)">
            <path d="M0.176,-0.432C0.225,-0.489 0.272,-0.518 0.316,-0.518C0.366,-0.518 0.403,-0.499 0.426,-0.46C0.446,-0.478 0.468,-0.491 0.492,-0.5C0.516,-0.509 0.542,-0.513 0.57,-0.513C0.634,-0.513 0.677,-0.481 0.7,-0.418C0.705,-0.405 0.712,-0.361 0.721,-0.286C0.73,-0.233 0.742,-0.145 0.756,-0.022C0.758,-0.003 0.751,0.012 0.737,0.024C0.723,0.036 0.707,0.042 0.688,0.042C0.651,0.042 0.629,0.023 0.622,-0.014C0.616,-0.047 0.61,-0.095 0.604,-0.156C0.597,-0.223 0.592,-0.27 0.588,-0.298C0.579,-0.357 0.568,-0.386 0.554,-0.386C0.547,-0.386 0.53,-0.378 0.503,-0.363C0.476,-0.348 0.457,-0.335 0.444,-0.325C0.444,-0.288 0.449,-0.234 0.458,-0.165C0.467,-0.093 0.471,-0.04 0.471,-0.004C0.471,0.014 0.465,0.03 0.452,0.042C0.439,0.054 0.423,0.061 0.404,0.061C0.384,0.061 0.368,0.054 0.355,0.042C0.343,0.03 0.336,0.014 0.336,-0.004C0.336,-0.042 0.332,-0.096 0.324,-0.168C0.316,-0.24 0.313,-0.295 0.313,-0.332C0.313,-0.353 0.311,-0.369 0.307,-0.382C0.269,-0.36 0.231,-0.324 0.193,-0.273C0.192,-0.271 0.189,-0.267 0.185,-0.263C0.184,-0.197 0.183,-0.145 0.183,-0.108C0.183,-0.099 0.183,-0.087 0.182,-0.071C0.181,-0.056 0.181,-0.044 0.181,-0.037C0.181,-0.019 0.174,-0.005 0.16,0.005C0.147,0.014 0.131,0.019 0.111,0.019C0.084,0.019 0.065,0.007 0.055,-0.017C0.048,-0.033 0.045,-0.059 0.045,-0.095L0.045,-0.276C0.045,-0.293 0.044,-0.316 0.043,-0.348C0.042,-0.379 0.041,-0.403 0.041,-0.419C0.041,-0.448 0.046,-0.475 0.057,-0.498C0.069,-0.527 0.087,-0.542 0.11,-0.542C0.129,-0.542 0.145,-0.535 0.159,-0.521C0.174,-0.507 0.181,-0.491 0.181,-0.474C0.181,-0.481 0.179,-0.467 0.176,-0.432Z" style="fill:rgb(197,195,255);fill-rule:nonzero;"/>
        </g>
        <g transform="matrix(36,0,0,36,543.736,94.4566)">
            <path d="M0.161,-0.587C0.14,-0.587 0.122,-0.594 0.107,-0.608C0.092,-0.622 0.084,-0.639 0.084,-0.659C0.084,-0.679 0.092,-0.696 0.107,-0.71C0.122,-0.724 0.14,-0.731 0.161,-0.731C0.182,-0.731 0.2,-0.724 0.215,-0.71C0.23,-0.696 0.238,-0.679 0.238,-0.659C0.238,-0.639 0.23,-0.622 0.215,-0.608C0.2,-0.594 0.182,-0.587 0.161,-0.587ZM0.203,-0.229C0.203,-0.21 0.203,-0.181 0.204,-0.14C0.205,-0.099 0.206,-0.069 0.206,-0.05C0.206,-0.031 0.2,-0.016 0.187,-0.004C0.174,0.009 0.158,0.015 0.139,0.015C0.119,0.015 0.103,0.009 0.09,-0.004C0.078,-0.016 0.071,-0.031 0.071,-0.05C0.071,-0.069 0.071,-0.099 0.07,-0.14C0.068,-0.181 0.068,-0.21 0.068,-0.229C0.068,-0.258 0.069,-0.294 0.073,-0.338C0.076,-0.382 0.078,-0.418 0.078,-0.447C0.078,-0.466 0.084,-0.481 0.097,-0.493C0.109,-0.506 0.125,-0.512 0.145,-0.512C0.165,-0.512 0.181,-0.506 0.193,-0.493C0.206,-0.481 0.212,-0.466 0.212,-0.447C0.212,-0.418 0.211,-0.382 0.208,-0.338C0.204,-0.294 0.203,-0.258 0.203,-0.229Z" style="fill:rgb(197,195,255);fill-rule:nonzero;"/>
        </g>
        <g transform="matrix(36,0,0,36,553.826,94.4566)">
            <path d="M0.502,-0.291C0.489,-0.215 0.481,-0.134 0.478,-0.049C0.475,0.056 0.457,0.133 0.425,0.18C0.383,0.244 0.307,0.275 0.199,0.275C0.072,0.275 0.009,0.25 0.009,0.2C0.009,0.182 0.014,0.168 0.026,0.157C0.037,0.146 0.052,0.14 0.071,0.14C0.085,0.14 0.106,0.143 0.134,0.148C0.161,0.154 0.185,0.157 0.207,0.157C0.255,0.157 0.291,0.142 0.314,0.112C0.336,0.083 0.349,0.037 0.353,-0.026C0.336,-0.009 0.318,0.004 0.297,0.012C0.276,0.021 0.253,0.025 0.229,0.025C0.164,0.025 0.111,0.004 0.071,-0.038C0.03,-0.08 0.01,-0.134 0.01,-0.2C0.01,-0.289 0.037,-0.36 0.091,-0.415C0.147,-0.472 0.222,-0.5 0.318,-0.5C0.348,-0.5 0.375,-0.496 0.397,-0.489C0.419,-0.481 0.437,-0.47 0.451,-0.455C0.492,-0.45 0.513,-0.425 0.513,-0.381C0.513,-0.36 0.509,-0.329 0.502,-0.291ZM0.313,-0.389C0.258,-0.389 0.215,-0.371 0.185,-0.334C0.157,-0.302 0.144,-0.259 0.144,-0.207C0.144,-0.168 0.151,-0.139 0.166,-0.119C0.18,-0.1 0.202,-0.09 0.231,-0.09C0.258,-0.09 0.285,-0.105 0.312,-0.136C0.337,-0.166 0.352,-0.194 0.355,-0.223C0.362,-0.254 0.369,-0.303 0.377,-0.369C0.366,-0.376 0.355,-0.381 0.344,-0.384C0.333,-0.387 0.323,-0.389 0.313,-0.389Z" style="fill:rgb(197,195,255);fill-rule:nonzero;"/>
        </g>
        <g transform="matrix(36,0,0,36,572.933,94.4566)">
            <path d="M0.195,-0.447C0.219,-0.47 0.244,-0.488 0.271,-0.499C0.298,-0.511 0.327,-0.517 0.358,-0.517C0.414,-0.517 0.454,-0.501 0.479,-0.47C0.497,-0.446 0.508,-0.41 0.512,-0.362C0.513,-0.322 0.515,-0.282 0.517,-0.241C0.522,-0.189 0.526,-0.157 0.527,-0.146C0.531,-0.109 0.537,-0.078 0.543,-0.051C0.545,-0.044 0.546,-0.038 0.546,-0.033C0.546,-0.014 0.539,0.001 0.525,0.012C0.511,0.024 0.495,0.03 0.477,0.03C0.444,0.03 0.422,0.014 0.413,-0.019C0.405,-0.045 0.398,-0.082 0.391,-0.13C0.385,-0.176 0.382,-0.214 0.382,-0.243C0.382,-0.251 0.383,-0.264 0.384,-0.28C0.384,-0.296 0.385,-0.309 0.385,-0.317C0.385,-0.341 0.384,-0.355 0.384,-0.359C0.381,-0.377 0.372,-0.386 0.358,-0.386C0.322,-0.386 0.29,-0.369 0.26,-0.336C0.245,-0.319 0.225,-0.288 0.199,-0.241C0.199,-0.123 0.193,-0.052 0.182,-0.028C0.169,-0.002 0.149,0.012 0.121,0.012C0.103,0.012 0.087,0.006 0.073,-0.007C0.058,-0.019 0.051,-0.034 0.051,-0.052C0.051,-0.058 0.053,-0.067 0.057,-0.078C0.059,-0.085 0.061,-0.129 0.063,-0.209C0.061,-0.275 0.061,-0.384 0.063,-0.536L0.064,-0.552C0.066,-0.591 0.067,-0.616 0.067,-0.629C0.067,-0.639 0.066,-0.654 0.063,-0.674C0.06,-0.694 0.058,-0.709 0.058,-0.719C0.058,-0.737 0.065,-0.753 0.078,-0.764C0.091,-0.776 0.108,-0.782 0.126,-0.782C0.159,-0.782 0.18,-0.765 0.191,-0.73C0.198,-0.711 0.201,-0.681 0.201,-0.641C0.201,-0.608 0.2,-0.575 0.198,-0.542C0.196,-0.51 0.195,-0.478 0.195,-0.447Z" style="fill:rgb(197,195,255);fill-rule:nonzero;"/>
        </g>
        <g transform="matrix(36,0,0,36,593.728,94.4566)">
            <path d="M0.395,-0.393L0.346,-0.395C0.333,-0.395 0.317,-0.393 0.3,-0.391C0.306,-0.259 0.309,-0.173 0.309,-0.133C0.309,-0.129 0.309,-0.121 0.309,-0.109C0.309,-0.098 0.31,-0.088 0.31,-0.081C0.31,-0.006 0.286,0.031 0.239,0.031C0.221,0.031 0.205,0.026 0.192,0.015C0.178,0.003 0.171,-0.012 0.171,-0.029C0.171,-0.041 0.171,-0.059 0.172,-0.082C0.173,-0.105 0.174,-0.123 0.174,-0.135C0.174,-0.174 0.171,-0.258 0.165,-0.388C0.145,-0.389 0.114,-0.391 0.073,-0.396C0.033,-0.4 0.012,-0.421 0.012,-0.459C0.012,-0.477 0.018,-0.493 0.031,-0.505C0.043,-0.518 0.059,-0.524 0.079,-0.524C0.091,-0.524 0.118,-0.522 0.162,-0.519C0.161,-0.529 0.16,-0.546 0.159,-0.57C0.158,-0.591 0.157,-0.607 0.157,-0.619C0.157,-0.637 0.164,-0.652 0.177,-0.664C0.191,-0.676 0.207,-0.682 0.226,-0.682C0.274,-0.682 0.298,-0.642 0.298,-0.561L0.297,-0.521C0.317,-0.523 0.333,-0.525 0.346,-0.525C0.384,-0.525 0.409,-0.522 0.423,-0.518C0.449,-0.508 0.462,-0.489 0.462,-0.458C0.462,-0.439 0.456,-0.424 0.443,-0.412C0.43,-0.399 0.414,-0.393 0.395,-0.393Z" style="fill:rgb(197,195,255);fill-rule:nonzero;"/>
        </g>
        <g transform="matrix(36,0,0,36,626.3,94.4566)">
            <path d="M0.471,0.027C0.456,0.027 0.432,0.012 0.4,-0.017C0.37,-0.002 0.344,0.009 0.321,0.016C0.298,0.023 0.279,0.027 0.263,0.027C0.184,0.027 0.125,0.006 0.086,-0.036C0.047,-0.078 0.027,-0.141 0.027,-0.225C0.027,-0.303 0.056,-0.37 0.114,-0.426C0.172,-0.482 0.242,-0.51 0.322,-0.51C0.353,-0.51 0.389,-0.501 0.43,-0.484C0.479,-0.463 0.503,-0.438 0.503,-0.411C0.503,-0.399 0.5,-0.389 0.492,-0.38C0.489,-0.367 0.486,-0.351 0.485,-0.332C0.483,-0.312 0.482,-0.289 0.482,-0.263C0.482,-0.202 0.486,-0.157 0.495,-0.13C0.496,-0.127 0.504,-0.111 0.518,-0.08C0.53,-0.052 0.537,-0.036 0.537,-0.033C0.537,-0.016 0.53,-0.001 0.517,0.01C0.504,0.021 0.488,0.027 0.471,0.027ZM0.35,-0.303C0.35,-0.313 0.351,-0.325 0.352,-0.339C0.354,-0.352 0.356,-0.367 0.359,-0.384C0.352,-0.387 0.347,-0.389 0.342,-0.391C0.337,-0.392 0.332,-0.393 0.329,-0.393C0.284,-0.393 0.246,-0.376 0.212,-0.341C0.179,-0.306 0.163,-0.266 0.163,-0.221C0.163,-0.177 0.17,-0.144 0.186,-0.122C0.202,-0.1 0.225,-0.089 0.256,-0.089C0.277,-0.089 0.296,-0.093 0.314,-0.099C0.332,-0.106 0.349,-0.116 0.365,-0.129C0.355,-0.206 0.35,-0.264 0.35,-0.303Z" style="fill:rgb(197,195,255);fill-rule:nonzero;"/>
        </g>
        <g transform="matrix(36,0,0,36,646.304,94.4566)">
            <path d="M0.394,-0.357C0.361,-0.357 0.342,-0.371 0.335,-0.398C0.322,-0.4 0.309,-0.401 0.295,-0.401C0.217,-0.401 0.178,-0.391 0.178,-0.369C0.178,-0.356 0.201,-0.339 0.249,-0.318C0.313,-0.288 0.357,-0.265 0.379,-0.249C0.427,-0.214 0.45,-0.176 0.45,-0.133C0.45,-0.077 0.424,-0.034 0.372,-0.005C0.33,0.018 0.278,0.029 0.217,0.029C0.174,0.029 0.134,0.023 0.099,0.009C0.05,-0.009 0.025,-0.036 0.025,-0.071C0.025,-0.104 0.045,-0.12 0.083,-0.12C0.098,-0.12 0.12,-0.115 0.148,-0.106C0.177,-0.097 0.199,-0.092 0.214,-0.092C0.28,-0.092 0.313,-0.105 0.313,-0.132C0.313,-0.148 0.291,-0.167 0.245,-0.187C0.178,-0.217 0.135,-0.238 0.116,-0.251C0.07,-0.283 0.047,-0.322 0.047,-0.369C0.047,-0.434 0.082,-0.478 0.151,-0.501C0.192,-0.514 0.253,-0.521 0.336,-0.521C0.369,-0.521 0.393,-0.517 0.409,-0.508C0.43,-0.497 0.441,-0.476 0.441,-0.445C0.441,-0.387 0.425,-0.357 0.394,-0.357Z" style="fill:rgb(197,195,255);fill-rule:nonzero;"/>
        </g>
        <g transform="matrix(36,0,0,36,679.439,94.4566)">
            <path d="M0.674,-0.43C0.64,-0.303 0.606,-0.187 0.571,-0.083C0.562,-0.053 0.546,-0.023 0.523,0.008C0.508,0.029 0.487,0.04 0.461,0.04C0.42,0.039 0.388,-0.001 0.364,-0.079C0.355,-0.109 0.345,-0.165 0.333,-0.247C0.326,-0.232 0.322,-0.223 0.32,-0.218C0.303,-0.177 0.279,-0.115 0.246,-0.03C0.241,-0.016 0.234,-0.005 0.224,0.003C0.21,0.025 0.19,0.036 0.163,0.037C0.148,0.038 0.132,0.024 0.115,-0.004C0.097,-0.032 0.082,-0.069 0.071,-0.113C0.061,-0.154 0.046,-0.242 0.024,-0.377C0.02,-0.406 0.018,-0.429 0.018,-0.446C0.018,-0.464 0.024,-0.479 0.038,-0.49C0.051,-0.502 0.068,-0.508 0.086,-0.508C0.122,-0.508 0.143,-0.491 0.151,-0.456C0.156,-0.438 0.159,-0.415 0.162,-0.389C0.166,-0.35 0.168,-0.328 0.169,-0.321C0.174,-0.295 0.18,-0.254 0.189,-0.196C0.213,-0.262 0.241,-0.345 0.272,-0.443C0.285,-0.485 0.31,-0.506 0.347,-0.506C0.383,-0.506 0.407,-0.483 0.418,-0.436C0.427,-0.402 0.435,-0.359 0.444,-0.306C0.458,-0.229 0.466,-0.183 0.469,-0.168C0.472,-0.179 0.497,-0.278 0.545,-0.465C0.553,-0.493 0.573,-0.507 0.606,-0.507C0.625,-0.507 0.641,-0.501 0.656,-0.489C0.67,-0.477 0.677,-0.462 0.677,-0.444C0.677,-0.441 0.676,-0.436 0.674,-0.43Z" style="fill:rgb(197,195,255);fill-rule:nonzero;"/>
        </g>
        <g transform="matrix(36,0,0,36,704.066,94.4566)">
            <path d="M0.296,0.022C0.218,0.022 0.154,0.004 0.105,-0.033C0.05,-0.074 0.023,-0.132 0.023,-0.207C0.023,-0.289 0.045,-0.359 0.088,-0.416C0.136,-0.479 0.201,-0.51 0.283,-0.51C0.339,-0.51 0.386,-0.501 0.424,-0.483C0.473,-0.459 0.498,-0.421 0.498,-0.371C0.498,-0.335 0.478,-0.303 0.438,-0.275C0.419,-0.263 0.383,-0.244 0.328,-0.22L0.163,-0.147C0.179,-0.13 0.198,-0.117 0.22,-0.109C0.242,-0.1 0.267,-0.096 0.296,-0.096C0.34,-0.096 0.376,-0.105 0.407,-0.123C0.434,-0.139 0.455,-0.147 0.472,-0.147C0.506,-0.147 0.522,-0.131 0.522,-0.098C0.522,-0.061 0.495,-0.03 0.441,-0.007C0.395,0.013 0.347,0.022 0.296,0.022ZM0.283,-0.392C0.252,-0.392 0.227,-0.382 0.205,-0.362C0.184,-0.342 0.166,-0.311 0.153,-0.271C0.19,-0.287 0.227,-0.303 0.263,-0.318C0.307,-0.338 0.342,-0.357 0.368,-0.374C0.346,-0.386 0.318,-0.392 0.283,-0.392Z" style="fill:rgb(197,195,255);fill-rule:nonzero;"/>
        </g>
        <g transform="matrix(36,0,0,36,724.193,94.4566)">
            <path d="M0.2,-0.072C0.2,-0.01 0.178,0.021 0.133,0.021C0.113,0.021 0.097,0.015 0.084,0.002C0.072,-0.01 0.065,-0.026 0.065,-0.045L0.065,-0.721C0.065,-0.74 0.072,-0.755 0.086,-0.767C0.099,-0.778 0.115,-0.784 0.134,-0.784C0.153,-0.784 0.169,-0.778 0.182,-0.766C0.194,-0.755 0.2,-0.74 0.2,-0.721L0.2,-0.072Z" style="fill:rgb(197,195,255);fill-rule:nonzero;"/>
        </g>
        <g transform="matrix(36,0,0,36,734.054,94.4566)">
            <path d="M0.2,-0.072C0.2,-0.01 0.178,0.021 0.133,0.021C0.113,0.021 0.097,0.015 0.084,0.002C0.072,-0.01 0.065,-0.026 0.065,-0.045L0.065,-0.721C0.065,-0.74 0.072,-0.755 0.086,-0.767C0.099,-0.778 0.115,-0.784 0.134,-0.784C0.153,-0.784 0.169,-0.778 0.182,-0.766C0.194,-0.755 0.2,-0.74 0.2,-0.721L0.2,-0.072Z" style="fill:rgb(197,195,255);fill-rule:nonzero;"/>
        </g>
        <g transform="matrix(36,0,0,36,759.525,94.4566)">
            <path d="M0.275,0.029C0.247,0.029 0.218,0.026 0.187,0.019L0.187,0.218C0.187,0.237 0.18,0.253 0.167,0.265C0.155,0.278 0.139,0.284 0.119,0.284C0.1,0.284 0.083,0.278 0.071,0.265C0.058,0.253 0.052,0.237 0.052,0.218C0.052,0.203 0.052,0.142 0.053,0.036C0.053,-0.043 0.053,-0.107 0.053,-0.157C0.052,-0.227 0.049,-0.288 0.046,-0.338C0.041,-0.408 0.039,-0.44 0.039,-0.435C0.039,-0.462 0.045,-0.485 0.057,-0.504C0.071,-0.526 0.09,-0.537 0.113,-0.537C0.132,-0.537 0.147,-0.53 0.159,-0.518C0.172,-0.506 0.178,-0.491 0.178,-0.474L0.177,-0.469C0.199,-0.481 0.221,-0.49 0.243,-0.496C0.265,-0.502 0.287,-0.505 0.309,-0.505C0.384,-0.505 0.439,-0.474 0.473,-0.41C0.499,-0.362 0.512,-0.3 0.512,-0.224C0.512,-0.153 0.491,-0.094 0.451,-0.047C0.407,0.004 0.349,0.029 0.275,0.029ZM0.309,-0.375C0.289,-0.375 0.268,-0.37 0.247,-0.361C0.225,-0.351 0.204,-0.337 0.183,-0.317C0.187,-0.25 0.188,-0.183 0.188,-0.116C0.217,-0.106 0.246,-0.102 0.275,-0.102C0.309,-0.102 0.335,-0.113 0.353,-0.137C0.369,-0.159 0.377,-0.188 0.377,-0.224C0.377,-0.268 0.375,-0.299 0.371,-0.315C0.362,-0.355 0.341,-0.375 0.309,-0.375Z" style="fill:rgb(197,195,255);fill-rule:nonzero;"/>
        </g>
        <g transform="matrix(36,0,0,36,778.773,94.4566)">
            <path d="M0.478,-0.282C0.478,-0.26 0.478,-0.228 0.478,-0.184C0.478,-0.14 0.479,-0.107 0.479,-0.085C0.479,-0.078 0.479,-0.068 0.48,-0.054C0.481,-0.041 0.482,-0.031 0.482,-0.024C0.482,-0.006 0.475,0.009 0.462,0.021C0.449,0.033 0.433,0.039 0.414,0.039C0.387,0.039 0.367,0.027 0.354,0.002C0.313,0.018 0.27,0.025 0.225,0.025C0.179,0.025 0.14,0.016 0.108,-0.004C0.073,-0.026 0.052,-0.059 0.045,-0.101C0.032,-0.182 0.026,-0.255 0.026,-0.318C0.026,-0.361 0.031,-0.409 0.041,-0.463C0.047,-0.499 0.069,-0.518 0.106,-0.518C0.125,-0.518 0.141,-0.512 0.155,-0.5C0.168,-0.488 0.175,-0.473 0.175,-0.455C0.175,-0.441 0.172,-0.419 0.168,-0.388C0.163,-0.358 0.161,-0.335 0.161,-0.319C0.161,-0.273 0.162,-0.233 0.165,-0.199C0.168,-0.165 0.173,-0.137 0.179,-0.115C0.187,-0.111 0.195,-0.108 0.203,-0.106C0.211,-0.104 0.218,-0.104 0.225,-0.104C0.261,-0.104 0.301,-0.109 0.344,-0.119C0.344,-0.144 0.344,-0.173 0.344,-0.205C0.343,-0.243 0.343,-0.27 0.343,-0.287C0.343,-0.353 0.346,-0.411 0.352,-0.459C0.357,-0.498 0.379,-0.518 0.418,-0.518C0.438,-0.518 0.454,-0.512 0.468,-0.5C0.481,-0.487 0.488,-0.472 0.487,-0.454C0.481,-0.33 0.478,-0.273 0.478,-0.282Z" style="fill:rgb(197,195,255);fill-rule:nonzero;"/>
        </g>
        <g transform="matrix(36,0,0,36,797.494,94.4566)">
            <path d="M0.395,-0.393L0.346,-0.395C0.333,-0.395 0.317,-0.393 0.3,-0.391C0.306,-0.259 0.309,-0.173 0.309,-0.133C0.309,-0.129 0.309,-0.121 0.309,-0.109C0.309,-0.098 0.31,-0.088 0.31,-0.081C0.31,-0.006 0.286,0.031 0.239,0.031C0.221,0.031 0.205,0.026 0.192,0.015C0.178,0.003 0.171,-0.012 0.171,-0.029C0.171,-0.041 0.171,-0.059 0.172,-0.082C0.173,-0.105 0.174,-0.123 0.174,-0.135C0.174,-0.174 0.171,-0.258 0.165,-0.388C0.145,-0.389 0.114,-0.391 0.073,-0.396C0.033,-0.4 0.012,-0.421 0.012,-0.459C0.012,-0.477 0.018,-0.493 0.031,-0.505C0.043,-0.518 0.059,-0.524 0.079,-0.524C0.091,-0.524 0.118,-0.522 0.162,-0.519C0.161,-0.529 0.16,-0.546 0.159,-0.57C0.158,-0.591 0.157,-0.607 0.157,-0.619C0.157,-0.637 0.164,-0.652 0.177,-0.664C0.191,-0.676 0.207,-0.682 0.226,-0.682C0.274,-0.682 0.298,-0.642 0.298,-0.561L0.297,-0.521C0.317,-0.523 0.333,-0.525 0.346,-0.525C0.384,-0.525 0.409,-0.522 0.423,-0.518C0.449,-0.508 0.462,-0.489 0.462,-0.458C0.462,-0.439 0.456,-0.424 0.443,-0.412C0.43,-0.399 0.414,-0.393 0.395,-0.393Z" style="fill:rgb(197,195,255);fill-rule:nonzero;"/>
        </g>
        <g transform="matrix(36,0,0,36,830.066,94.4566)">
            <path d="M0.161,-0.587C0.14,-0.587 0.122,-0.594 0.107,-0.608C0.092,-0.622 0.084,-0.639 0.084,-0.659C0.084,-0.679 0.092,-0.696 0.107,-0.71C0.122,-0.724 0.14,-0.731 0.161,-0.731C0.182,-0.731 0.2,-0.724 0.215,-0.71C0.23,-0.696 0.238,-0.679 0.238,-0.659C0.238,-0.639 0.23,-0.622 0.215,-0.608C0.2,-0.594 0.182,-0.587 0.161,-0.587ZM0.203,-0.229C0.203,-0.21 0.203,-0.181 0.204,-0.14C0.205,-0.099 0.206,-0.069 0.206,-0.05C0.206,-0.031 0.2,-0.016 0.187,-0.004C0.174,0.009 0.158,0.015 0.139,0.015C0.119,0.015 0.103,0.009 0.09,-0.004C0.078,-0.016 0.071,-0.031 0.071,-0.05C0.071,-0.069 0.071,-0.099 0.07,-0.14C0.068,-0.181 0.068,-0.21 0.068,-0.229C0.068,-0.258 0.069,-0.294 0.073,-0.338C0.076,-0.382 0.078,-0.418 0.078,-0.447C0.078,-0.466 0.084,-0.481 0.097,-0.493C0.109,-0.506 0.125,-0.512 0.145,-0.512C0.165,-0.512 0.181,-0.506 0.193,-0.493C0.206,-0.481 0.212,-0.466 0.212,-0.447C0.212,-0.418 0.211,-0.382 0.208,-0.338C0.204,-0.294 0.203,-0.258 0.203,-0.229Z" style="fill:rgb(197,195,255);fill-rule:nonzero;"/>
        </g>
        <g transform="matrix(36,0,0,36,840.156,94.4566)">
            <path d="M0.395,-0.393L0.346,-0.395C0.333,-0.395 0.317,-0.393 0.3,-0.391C0.306,-0.259 0.309,-0.173 0.309,-0.133C0.309,-0.129 0.309,-0.121 0.309,-0.109C0.309,-0.098 0.31,-0.088 0.31,-0.081C0.31,-0.006 0.286,0.031 0.239,0.031C0.221,0.031 0.205,0.026 0.192,0.015C0.178,0.003 0.171,-0.012 0.171,-0.029C0.171,-0.041 0.171,-0.059 0.172,-0.082C0.173,-0.105 0.174,-0.123 0.174,-0.135C0.174,-0.174 0.171,-0.258 0.165,-0.388C0.145,-0.389 0.114,-0.391 0.073,-0.396C0.033,-0.4 0.012,-0.421 0.012,-0.459C0.012,-0.477 0.018,-0.493 0.031,-0.505C0.043,-0.518 0.059,-0.524 0.079,-0.524C0.091,-0.524 0.118,-0.522 0.162,-0.519C0.161,-0.529 0.16,-0.546 0.159,-0.57C0.158,-0.591 0.157,-0.607 0.157,-0.619C0.157,-0.637 0.164,-0.652 0.177,-0.664C0.191,-0.676 0.207,-0.682 0.226,-0.682C0.274,-0.682 0.298,-0.642 0.298,-0.561L0.297,-0.521C0.317,-0.523 0.333,-0.525 0.346,-0.525C0.384,-0.525 0.409,-0.522 0.423,-0.518C0.449,-0.508 0.462,-0.489 0.462,-0.458C0.462,-0.439 0.456,-0.424 0.443,-0.412C0.43,-0.399 0.414,-0.393 0.395,-0.393Z" style="fill:rgb(197,195,255);fill-rule:nonzero;"/>
        </g>
        <g transform="matrix(36,0,0,36,872.728,94.4566)">
            <path d="M0.471,0.027C0.456,0.027 0.432,0.012 0.4,-0.017C0.37,-0.002 0.344,0.009 0.321,0.016C0.298,0.023 0.279,0.027 0.263,0.027C0.184,0.027 0.125,0.006 0.086,-0.036C0.047,-0.078 0.027,-0.141 0.027,-0.225C0.027,-0.303 0.056,-0.37 0.114,-0.426C0.172,-0.482 0.242,-0.51 0.322,-0.51C0.353,-0.51 0.389,-0.501 0.43,-0.484C0.479,-0.463 0.503,-0.438 0.503,-0.411C0.503,-0.399 0.5,-0.389 0.492,-0.38C0.489,-0.367 0.486,-0.351 0.485,-0.332C0.483,-0.312 0.482,-0.289 0.482,-0.263C0.482,-0.202 0.486,-0.157 0.495,-0.13C0.496,-0.127 0.504,-0.111 0.518,-0.08C0.53,-0.052 0.537,-0.036 0.537,-0.033C0.537,-0.016 0.53,-0.001 0.517,0.01C0.504,0.021 0.488,0.027 0.471,0.027ZM0.35,-0.303C0.35,-0.313 0.351,-0.325 0.352,-0.339C0.354,-0.352 0.356,-0.367 0.359,-0.384C0.352,-0.387 0.347,-0.389 0.342,-0.391C0.337,-0.392 0.332,-0.393 0.329,-0.393C0.284,-0.393 0.246,-0.376 0.212,-0.341C0.179,-0.306 0.163,-0.266 0.163,-0.221C0.163,-0.177 0.17,-0.144 0.186,-0.122C0.202,-0.1 0.225,-0.089 0.256,-0.089C0.277,-0.089 0.296,-0.093 0.314,-0.099C0.332,-0.106 0.349,-0.116 0.365,-0.129C0.355,-0.206 0.35,-0.264 0.35,-0.303Z" style="fill:rgb(197,195,255);fill-rule:nonzero;"/>
        </g>
        <g transform="matrix(36,0,0,36,892.732,94.4566)">
            <path d="M0.2,-0.072C0.2,-0.01 0.178,0.021 0.133,0.021C0.113,0.021 0.097,0.015 0.084,0.002C0.072,-0.01 0.065,-0.026 0.065,-0.045L0.065,-0.721C0.065,-0.74 0.072,-0.755 0.086,-0.767C0.099,-0.778 0.115,-0.784 0.134,-0.784C0.153,-0.784 0.169,-0.778 0.182,-0.766C0.194,-0.755 0.2,-0.74 0.2,-0.721L0.2,-0.072Z" style="fill:rgb(197,195,255);fill-rule:nonzero;"/>
        </g>
        <g transform="matrix(36,0,0,36,902.593,94.4566)">
            <path d="M0.2,-0.072C0.2,-0.01 0.178,0.021 0.133,0.021C0.113,0.021 0.097,0.015 0.084,0.002C0.072,-0.01 0.065,-0.026 0.065,-0.045L0.065,-0.721C0.065,-0.74 0.072,-0.755 0.086,-0.767C0.099,-0.778 0.115,-0.784 0.134,-0.784C0.153,-0.784 0.169,-0.778 0.182,-0.766C0.194,-0.755 0.2,-0.74 0.2,-0.721L0.2,-0.072Z" style="fill:rgb(197,195,255);fill-rule:nonzero;"/>
        </g>
        <g transform="matrix(36,0,0,36,928.064,94.4566)">
            <path d="M0.471,0.027C0.456,0.027 0.432,0.012 0.4,-0.017C0.37,-0.002 0.344,0.009 0.321,0.016C0.298,0.023 0.279,0.027 0.263,0.027C0.184,0.027 0.125,0.006 0.086,-0.036C0.047,-0.078 0.027,-0.141 0.027,-0.225C0.027,-0.303 0.056,-0.37 0.114,-0.426C0.172,-0.482 0.242,-0.51 0.322,-0.51C0.353,-0.51 0.389,-0.501 0.43,-0.484C0.479,-0.463 0.503,-0.438 0.503,-0.411C0.503,-0.399 0.5,-0.389 0.492,-0.38C0.489,-0.367 0.486,-0.351 0.485,-0.332C0.483,-0.312 0.482,-0.289 0.482,-0.263C0.482,-0.202 0.486,-0.157 0.495,-0.13C0.496,-0.127 0.504,-0.111 0.518,-0.08C0.53,-0.052 0.537,-0.036 0.537,-0.033C0.537,-0.016 0.53,-0.001 0.517,0.01C0.504,0.021 0.488,0.027 0.471,0.027ZM0.35,-0.303C0.35,-0.313 0.351,-0.325 0.352,-0.339C0.354,-0.352 0.356,-0.367 0.359,-0.384C0.352,-0.387 0.347,-0.389 0.342,-0.391C0.337,-0.392 0.332,-0.393 0.329,-0.393C0.284,-0.393 0.246,-0.376 0.212,-0.341C0.179,-0.306 0.163,-0.266 0.163,-0.221C0.163,-0.177 0.17,-0.144 0.186,-0.122C0.202,-0.1 0.225,-0.089 0.256,-0.089C0.277,-0.089 0.296,-0.093 0.314,-0.099C0.332,-0.106 0.349,-0.116 0.365,-0.129C0.355,-0.206 0.35,-0.264 0.35,-0.303Z" style="fill:rgb(197,195,255);fill-rule:nonzero;"/>
        </g>
        <g transform="matrix(36,0,0,36,948.068,94.4566)">
            <path d="M0.395,-0.393L0.346,-0.395C0.333,-0.395 0.317,-0.393 0.3,-0.391C0.306,-0.259 0.309,-0.173 0.309,-0.133C0.309,-0.129 0.309,-0.121 0.309,-0.109C0.309,-0.098 0.31,-0.088 0.31,-0.081C0.31,-0.006 0.286,0.031 0.239,0.031C0.221,0.031 0.205,0.026 0.192,0.015C0.178,0.003 0.171,-0.012 0.171,-0.029C0.171,-0.041 0.171,-0.059 0.172,-0.082C0.173,-0.105 0.174,-0.123 0.174,-0.135C0.174,-0.174 0.171,-0.258 0.165,-0.388C0.145,-0.389 0.114,-0.391 0.073,-0.396C0.033,-0.4 0.012,-0.421 0.012,-0.459C0.012,-0.477 0.018,-0.493 0.031,-0.505C0.043,-0.518 0.059,-0.524 0.079,-0.524C0.091,-0.524 0.118,-0.522 0.162,-0.519C0.161,-0.529 0.16,-0.546 0.159,-0.57C0.158,-0.591 0.157,-0.607 0.157,-0.619C0.157,-0.637 0.164,-0.652 0.177,-0.664C0.191,-0.676 0.207,-0.682 0.226,-0.682C0.274,-0.682 0.298,-0.642 0.298,-0.561L0.297,-0.521C0.317,-0.523 0.333,-0.525 0.346,-0.525C0.384,-0.525 0.409,-0.522 0.423,-0.518C0.449,-0.508 0.462,-0.489 0.462,-0.458C0.462,-0.439 0.456,-0.424 0.443,-0.412C0.43,-0.399 0.414,-0.393 0.395,-0.393Z" style="fill:rgb(197,195,255);fill-rule:nonzero;"/>
        </g>
        <g transform="matrix(36,0,0,36,980.64,94.4566)">
            <path d="M0.395,-0.393L0.346,-0.395C0.333,-0.395 0.317,-0.393 0.3,-0.391C0.306,-0.259 0.309,-0.173 0.309,-0.133C0.309,-0.129 0.309,-0.121 0.309,-0.109C0.309,-0.098 0.31,-0.088 0.31,-0.081C0.31,-0.006 0.286,0.031 0.239,0.031C0.221,0.031 0.205,0.026 0.192,0.015C0.178,0.003 0.171,-0.012 0.171,-0.029C0.171,-0.041 0.171,-0.059 0.172,-0.082C0.173,-0.105 0.174,-0.123 0.174,-0.135C0.174,-0.174 0.171,-0.258 0.165,-0.388C0.145,-0.389 0.114,-0.391 0.073,-0.396C0.033,-0.4 0.012,-0.421 0.012,-0.459C0.012,-0.477 0.018,-0.493 0.031,-0.505C0.043,-0.518 0.059,-0.524 0.079,-0.524C0.091,-0.524 0.118,-0.522 0.162,-0.519C0.161,-0.529 0.16,-0.546 0.159,-0.57C0.158,-0.591 0.157,-0.607 0.157,-0.619C0.157,-0.637 0.164,-0.652 0.177,-0.664C0.191,-0.676 0.207,-0.682 0.226,-0.682C0.274,-0.682 0.298,-0.642 0.298,-0.561L0.297,-0.521C0.317,-0.523 0.333,-0.525 0.346,-0.525C0.384,-0.525 0.409,-0.522 0.423,-0.518C0.449,-0.508 0.462,-0.489 0.462,-0.458C0.462,-0.439 0.456,-0.424 0.443,-0.412C0.43,-0.399 0.414,-0.393 0.395,-0.393Z" style="fill:rgb(197,195,255);fill-rule:nonzero;"/>
        </g>
        <g transform="matrix(36,0,0,36,997.603,94.4566)">
            <path d="M0.195,-0.447C0.219,-0.47 0.244,-0.488 0.271,-0.499C0.298,-0.511 0.327,-0.517 0.358,-0.517C0.414,-0.517 0.454,-0.501 0.479,-0.47C0.497,-0.446 0.508,-0.41 0.512,-0.362C0.513,-0.322 0.515,-0.282 0.517,-0.241C0.522,-0.189 0.526,-0.157 0.527,-0.146C0.531,-0.109 0.537,-0.078 0.543,-0.051C0.545,-0.044 0.546,-0.038 0.546,-0.033C0.546,-0.014 0.539,0.001 0.525,0.012C0.511,0.024 0.495,0.03 0.477,0.03C0.444,0.03 0.422,0.014 0.413,-0.019C0.405,-0.045 0.398,-0.082 0.391,-0.13C0.385,-0.176 0.382,-0.214 0.382,-0.243C0.382,-0.251 0.383,-0.264 0.384,-0.28C0.384,-0.296 0.385,-0.309 0.385,-0.317C0.385,-0.341 0.384,-0.355 0.384,-0.359C0.381,-0.377 0.372,-0.386 0.358,-0.386C0.322,-0.386 0.29,-0.369 0.26,-0.336C0.245,-0.319 0.225,-0.288 0.199,-0.241C0.199,-0.123 0.193,-0.052 0.182,-0.028C0.169,-0.002 0.149,0.012 0.121,0.012C0.103,0.012 0.087,0.006 0.073,-0.007C0.058,-0.019 0.051,-0.034 0.051,-0.052C0.051,-0.058 0.053,-0.067 0.057,-0.078C0.059,-0.085 0.061,-0.129 0.063,-0.209C0.061,-0.275 0.061,-0.384 0.063,-0.536L0.064,-0.552C0.066,-0.591 0.067,-0.616 0.067,-0.629C0.067,-0.639 0.066,-0.654 0.063,-0.674C0.06,-0.694 0.058,-0.709 0.058,-0.719C0.058,-0.737 0.065,-0.753 0.078,-0.764C0.091,-0.776 0.108,-0.782 0.126,-0.782C0.159,-0.782 0.18,-0.765 0.191,-0.73C0.198,-0.711 0.201,-0.681 0.201,-0.641C0.201,-0.608 0.2,-0.575 0.198,-0.542C0.196,-0.51 0.195,-0.478 0.195,-0.447Z" style="fill:rgb(197,195,255);fill-rule:nonzero;"/>
        </g>
        <g transform="matrix(36,0,0,36,1018.4,94.4566)">
            <path d="M0.296,0.022C0.218,0.022 0.154,0.004 0.105,-0.033C0.05,-0.074 0.023,-0.132 0.023,-0.207C0.023,-0.289 0.045,-0.359 0.088,-0.416C0.136,-0.479 0.201,-0.51 0.283,-0.51C0.339,-0.51 0.386,-0.501 0.424,-0.483C0.473,-0.459 0.498,-0.421 0.498,-0.371C0.498,-0.335 0.478,-0.303 0.438,-0.275C0.419,-0.263 0.383,-0.244 0.328,-0.22L0.163,-0.147C0.179,-0.13 0.198,-0.117 0.22,-0.109C0.242,-0.1 0.267,-0.096 0.296,-0.096C0.34,-0.096 0.376,-0.105 0.407,-0.123C0.434,-0.139 0.455,-0.147 0.472,-0.147C0.506,-0.147 0.522,-0.131 0.522,-0.098C0.522,-0.061 0.495,-0.03 0.441,-0.007C0.395,0.013 0.347,0.022 0.296,0.022ZM0.283,-0.392C0.252,-0.392 0.227,-0.382 0.205,-0.362C0.184,-0.342 0.166,-0.311 0.153,-0.271C0.19,-0.287 0.227,-0.303 0.263,-0.318C0.307,-0.338 0.342,-0.357 0.368,-0.374C0.346,-0.386 0.318,-0.392 0.283,-0.392Z" style="fill:rgb(197,195,255);fill-rule:nonzero;"/>
        </g>
        <g transform="matrix(36,0,0,36,1054.13,94.4566)">
            <path d="M0.395,-0.393L0.346,-0.395C0.333,-0.395 0.317,-0.393 0.3,-0.391C0.306,-0.259 0.309,-0.173 0.309,-0.133C0.309,-0.129 0.309,-0.121 0.309,-0.109C0.309,-0.098 0.31,-0.088 0.31,-0.081C0.31,-0.006 0.286,0.031 0.239,0.031C0.221,0.031 0.205,0.026 0.192,0.015C0.178,0.003 0.171,-0.012 0.171,-0.029C0.171,-0.041 0.171,-0.059 0.172,-0.082C0.173,-0.105 0.174,-0.123 0.174,-0.135C0.174,-0.174 0.171,-0.258 0.165,-0.388C0.145,-0.389 0.114,-0.391 0.073,-0.396C0.033,-0.4 0.012,-0.421 0.012,-0.459C0.012,-0.477 0.018,-0.493 0.031,-0.505C0.043,-0.518 0.059,-0.524 0.079,-0.524C0.091,-0.524 0.118,-0.522 0.162,-0.519C0.161,-0.529 0.16,-0.546 0.159,-0.57C0.158,-0.591 0.157,-0.607 0.157,-0.619C0.157,-0.637 0.164,-0.652 0.177,-0.664C0.191,-0.676 0.207,-0.682 0.226,-0.682C0.274,-0.682 0.298,-0.642 0.298,-0.561L0.297,-0.521C0.317,-0.523 0.333,-0.525 0.346,-0.525C0.384,-0.525 0.409,-0.522 0.423,-0.518C0.449,-0.508 0.462,-0.489 0.462,-0.458C0.462,-0.439 0.456,-0.424 0.443,-0.412C0.43,-0.399 0.414,-0.393 0.395,-0.393Z" style="fill:rgb(197,195,255);fill-rule:nonzero;"/>
        </g>
        <g transform="matrix(36,0,0,36,1071.1,94.4566)">
            <path d="M0.251,0.029C0.191,0.029 0.139,0.008 0.096,-0.033C0.048,-0.078 0.023,-0.139 0.021,-0.214C0.019,-0.286 0.038,-0.35 0.08,-0.407C0.13,-0.473 0.198,-0.506 0.287,-0.506C0.352,-0.506 0.403,-0.48 0.442,-0.428C0.476,-0.381 0.494,-0.323 0.494,-0.254C0.494,-0.178 0.473,-0.114 0.433,-0.061C0.388,-0.001 0.327,0.029 0.251,0.029ZM0.28,-0.377C0.24,-0.378 0.209,-0.36 0.186,-0.323C0.166,-0.292 0.156,-0.256 0.156,-0.214C0.156,-0.175 0.167,-0.145 0.189,-0.125C0.207,-0.108 0.228,-0.1 0.251,-0.1C0.279,-0.1 0.304,-0.109 0.325,-0.128C0.348,-0.151 0.361,-0.181 0.363,-0.22C0.367,-0.325 0.34,-0.377 0.28,-0.377Z" style="fill:rgb(197,195,255);fill-rule:nonzero;"/>
        </g>
        <g transform="matrix(36,0,0,36,1090.03,94.4566)">
            <path d="M0.275,0.029C0.247,0.029 0.218,0.026 0.187,0.019L0.187,0.218C0.187,0.237 0.18,0.253 0.167,0.265C0.155,0.278 0.139,0.284 0.119,0.284C0.1,0.284 0.083,0.278 0.071,0.265C0.058,0.253 0.052,0.237 0.052,0.218C0.052,0.203 0.052,0.142 0.053,0.036C0.053,-0.043 0.053,-0.107 0.053,-0.157C0.052,-0.227 0.049,-0.288 0.046,-0.338C0.041,-0.408 0.039,-0.44 0.039,-0.435C0.039,-0.462 0.045,-0.485 0.057,-0.504C0.071,-0.526 0.09,-0.537 0.113,-0.537C0.132,-0.537 0.147,-0.53 0.159,-0.518C0.172,-0.506 0.178,-0.491 0.178,-0.474L0.177,-0.469C0.199,-0.481 0.221,-0.49 0.243,-0.496C0.265,-0.502 0.287,-0.505 0.309,-0.505C0.384,-0.505 0.439,-0.474 0.473,-0.41C0.499,-0.362 0.512,-0.3 0.512,-0.224C0.512,-0.153 0.491,-0.094 0.451,-0.047C0.407,0.004 0.349,0.029 0.275,0.029ZM0.309,-0.375C0.289,-0.375 0.268,-0.37 0.247,-0.361C0.225,-0.351 0.204,-0.337 0.183,-0.317C0.187,-0.25 0.188,-0.183 0.188,-0.116C0.217,-0.106 0.246,-0.102 0.275,-0.102C0.309,-0.102 0.335,-0.113 0.353,-0.137C0.369,-0.159 0.377,-0.188 0.377,-0.224C0.377,-0.268 0.375,-0.299 0.371,-0.315C0.362,-0.355 0.341,-0.375 0.309,-0.375Z" style="fill:rgb(197,195,255);fill-rule:nonzero;"/>
        </g>
        <g transform="matrix(36,0,0,36,1124.89,94.4566)">
            <path d="M0.251,0.029C0.191,0.029 0.139,0.008 0.096,-0.033C0.048,-0.078 0.023,-0.139 0.021,-0.214C0.019,-0.286 0.038,-0.35 0.08,-0.407C0.13,-0.473 0.198,-0.506 0.287,-0.506C0.352,-0.506 0.403,-0.48 0.442,-0.428C0.476,-0.381 0.494,-0.323 0.494,-0.254C0.494,-0.178 0.473,-0.114 0.433,-0.061C0.388,-0.001 0.327,0.029 0.251,0.029ZM0.28,-0.377C0.24,-0.378 0.209,-0.36 0.186,-0.323C0.166,-0.292 0.156,-0.256 0.156,-0.214C0.156,-0.175 0.167,-0.145 0.189,-0.125C0.207,-0.108 0.228,-0.1 0.251,-0.1C0.279,-0.1 0.304,-0.109 0.325,-0.128C0.348,-0.151 0.361,-0.181 0.363,-0.22C0.367,-0.325 0.34,-0.377 0.28,-0.377Z" style="fill:rgb(197,195,255);fill-rule:nonzero;"/>
        </g>
        <g transform="matrix(36,0,0,36,1143.82,94.4566)">
            <path d="M0.282,-0.501C0.325,-0.505 0.357,-0.507 0.375,-0.507C0.436,-0.507 0.467,-0.486 0.467,-0.445C0.467,-0.402 0.434,-0.381 0.37,-0.383C0.349,-0.384 0.318,-0.382 0.276,-0.379C0.275,-0.344 0.275,-0.3 0.275,-0.247C0.277,-0.17 0.277,-0.126 0.277,-0.116C0.277,-0.056 0.274,-0.009 0.266,0.026C0.259,0.061 0.237,0.078 0.202,0.078C0.183,0.078 0.168,0.072 0.154,0.061C0.141,0.049 0.134,0.034 0.134,0.016C0.134,0.012 0.134,0.008 0.135,0.004C0.143,-0.043 0.146,-0.086 0.146,-0.127L0.146,-0.372C0.141,-0.371 0.13,-0.37 0.114,-0.368C0.102,-0.366 0.092,-0.365 0.086,-0.365C0.066,-0.365 0.05,-0.371 0.037,-0.383C0.024,-0.394 0.017,-0.41 0.017,-0.429C0.017,-0.459 0.033,-0.479 0.065,-0.489C0.079,-0.493 0.108,-0.496 0.15,-0.497C0.151,-0.503 0.153,-0.521 0.157,-0.552C0.166,-0.625 0.186,-0.679 0.216,-0.714C0.254,-0.759 0.312,-0.781 0.39,-0.781C0.449,-0.781 0.479,-0.759 0.479,-0.717C0.479,-0.674 0.451,-0.653 0.396,-0.653C0.357,-0.653 0.328,-0.639 0.31,-0.612C0.297,-0.591 0.288,-0.559 0.283,-0.516L0.282,-0.501Z" style="fill:rgb(197,195,255);fill-rule:nonzero;"/>
        </g>
        <g transform="matrix(36,0,0,36,1177.73,94.4566)">
            <path d="M0.395,-0.393L0.346,-0.395C0.333,-0.395 0.317,-0.393 0.3,-0.391C0.306,-0.259 0.309,-0.173 0.309,-0.133C0.309,-0.129 0.309,-0.121 0.309,-0.109C0.309,-0.098 0.31,-0.088 0.31,-0.081C0.31,-0.006 0.286,0.031 0.239,0.031C0.221,0.031 0.205,0.026 0.192,0.015C0.178,0.003 0.171,-0.012 0.171,-0.029C0.171,-0.041 0.171,-0.059 0.172,-0.082C0.173,-0.105 0.174,-0.123 0.174,-0.135C0.174,-0.174 0.171,-0.258 0.165,-0.388C0.145,-0.389 0.114,-0.391 0.073,-0.396C0.033,-0.4 0.012,-0.421 0.012,-0.459C0.012,-0.477 0.018,-0.493 0.031,-0.505C0.043,-0.518 0.059,-0.524 0.079,-0.524C0.091,-0.524 0.118,-0.522 0.162,-0.519C0.161,-0.529 0.16,-0.546 0.159,-0.57C0.158,-0.591 0.157,-0.607 0.157,-0.619C0.157,-0.637 0.164,-0.652 0.177,-0.664C0.191,-0.676 0.207,-0.682 0.226,-0.682C0.274,-0.682 0.298,-0.642 0.298,-0.561L0.297,-0.521C0.317,-0.523 0.333,-0.525 0.346,-0.525C0.384,-0.525 0.409,-0.522 0.423,-0.518C0.449,-0.508 0.462,-0.489 0.462,-0.458C0.462,-0.439 0.456,-0.424 0.443,-0.412C0.43,-0.399 0.414,-0.393 0.395,-0.393Z" style="fill:rgb(197,195,255);fill-rule:nonzero;"/>
        </g>
        <g transform="matrix(36,0,0,36,1194.69,94.4566)">
            <path d="M0.195,-0.447C0.219,-0.47 0.244,-0.488 0.271,-0.499C0.298,-0.511 0.327,-0.517 0.358,-0.517C0.414,-0.517 0.454,-0.501 0.479,-0.47C0.497,-0.446 0.508,-0.41 0.512,-0.362C0.513,-0.322 0.515,-0.282 0.517,-0.241C0.522,-0.189 0.526,-0.157 0.527,-0.146C0.531,-0.109 0.537,-0.078 0.543,-0.051C0.545,-0.044 0.546,-0.038 0.546,-0.033C0.546,-0.014 0.539,0.001 0.525,0.012C0.511,0.024 0.495,0.03 0.477,0.03C0.444,0.03 0.422,0.014 0.413,-0.019C0.405,-0.045 0.398,-0.082 0.391,-0.13C0.385,-0.176 0.382,-0.214 0.382,-0.243C0.382,-0.251 0.383,-0.264 0.384,-0.28C0.384,-0.296 0.385,-0.309 0.385,-0.317C0.385,-0.341 0.384,-0.355 0.384,-0.359C0.381,-0.377 0.372,-0.386 0.358,-0.386C0.322,-0.386 0.29,-0.369 0.26,-0.336C0.245,-0.319 0.225,-0.288 0.199,-0.241C0.199,-0.123 0.193,-0.052 0.182,-0.028C0.169,-0.002 0.149,0.012 0.121,0.012C0.103,0.012 0.087,0.006 0.073,-0.007C0.058,-0.019 0.051,-0.034 0.051,-0.052C0.051,-0.058 0.053,-0.067 0.057,-0.078C0.059,-0.085 0.061,-0.129 0.063,-0.209C0.061,-0.275 0.061,-0.384 0.063,-0.536L0.064,-0.552C0.066,-0.591 0.067,-0.616 0.067,-0.629C0.067,-0.639 0.066,-0.654 0.063,-0.674C0.06,-0.694 0.058,-0.709 0.058,-0.719C0.058,-0.737 0.065,-0.753 0.078,-0.764C0.091,-0.776 0.108,-0.782 0.126,-0.782C0.159,-0.782 0.18,-0.765 0.191,-0.73C0.198,-0.711 0.201,-0.681 0.201,-0.641C0.201,-0.608 0.2,-0.575 0.198,-0.542C0.196,-0.51 0.195,-0.478 0.195,-0.447Z" style="fill:rgb(197,195,255);fill-rule:nonzero;"/>
        </g>
        <g transform="matrix(36,0,0,36,1215.48,94.4566)">
            <path d="M0.296,0.022C0.218,0.022 0.154,0.004 0.105,-0.033C0.05,-0.074 0.023,-0.132 0.023,-0.207C0.023,-0.289 0.045,-0.359 0.088,-0.416C0.136,-0.479 0.201,-0.51 0.283,-0.51C0.339,-0.51 0.386,-0.501 0.424,-0.483C0.473,-0.459 0.498,-0.421 0.498,-0.371C0.498,-0.335 0.478,-0.303 0.438,-0.275C0.419,-0.263 0.383,-0.244 0.328,-0.22L0.163,-0.147C0.179,-0.13 0.198,-0.117 0.22,-0.109C0.242,-0.1 0.267,-0.096 0.296,-0.096C0.34,-0.096 0.376,-0.105 0.407,-0.123C0.434,-0.139 0.455,-0.147 0.472,-0.147C0.506,-0.147 0.522,-0.131 0.522,-0.098C0.522,-0.061 0.495,-0.03 0.441,-0.007C0.395,0.013 0.347,0.022 0.296,0.022ZM0.283,-0.392C0.252,-0.392 0.227,-0.382 0.205,-0.362C0.184,-0.342 0.166,-0.311 0.153,-0.271C0.19,-0.287 0.227,-0.303 0.263,-0.318C0.307,-0.338 0.342,-0.357 0.368,-0.374C0.346,-0.386 0.318,-0.392 0.283,-0.392Z" style="fill:rgb(197,195,255);fill-rule:nonzero;"/>
        </g>
        <g transform="matrix(36,0,0,36,1251.22,94.4566)">
            <path d="M0.407,-0.491C0.411,-0.602 0.417,-0.678 0.422,-0.721C0.428,-0.759 0.449,-0.778 0.486,-0.778C0.505,-0.778 0.521,-0.772 0.532,-0.76C0.544,-0.747 0.55,-0.732 0.55,-0.714C0.55,-0.666 0.546,-0.595 0.539,-0.501C0.531,-0.406 0.528,-0.335 0.528,-0.288C0.528,-0.171 0.532,-0.093 0.539,-0.054C0.54,-0.049 0.541,-0.044 0.541,-0.04C0.541,-0.022 0.534,-0.007 0.521,0.005C0.508,0.017 0.493,0.022 0.476,0.022C0.451,0.022 0.434,0.012 0.422,-0.01C0.4,0.004 0.377,0.012 0.353,0.016C0.329,0.02 0.305,0.022 0.279,0.022C0.206,0.022 0.146,-0.001 0.098,-0.047C0.049,-0.095 0.024,-0.155 0.024,-0.229C0.024,-0.317 0.049,-0.387 0.098,-0.441C0.148,-0.495 0.212,-0.522 0.292,-0.522C0.316,-0.522 0.338,-0.519 0.357,-0.514C0.377,-0.509 0.393,-0.501 0.407,-0.491ZM0.397,-0.337C0.387,-0.357 0.373,-0.373 0.355,-0.383C0.338,-0.393 0.318,-0.398 0.294,-0.398C0.246,-0.398 0.21,-0.384 0.186,-0.356C0.161,-0.328 0.149,-0.287 0.149,-0.231C0.149,-0.196 0.162,-0.166 0.188,-0.141C0.215,-0.116 0.245,-0.103 0.279,-0.103C0.304,-0.103 0.323,-0.106 0.336,-0.112C0.345,-0.116 0.36,-0.126 0.381,-0.143C0.387,-0.148 0.392,-0.153 0.397,-0.158C0.397,-0.174 0.397,-0.233 0.397,-0.337Z" style="fill:rgb(197,195,255);fill-rule:nonzero;"/>
        </g>
        <g transform="matrix(36,0,0,36,1272.37,94.4566)">
            <path d="M0.471,0.027C0.456,0.027 0.432,0.012 0.4,-0.017C0.37,-0.002 0.344,0.009 0.321,0.016C0.298,0.023 0.279,0.027 0.263,0.027C0.184,0.027 0.125,0.006 0.086,-0.036C0.047,-0.078 0.027,-0.141 0.027,-0.225C0.027,-0.303 0.056,-0.37 0.114,-0.426C0.172,-0.482 0.242,-0.51 0.322,-0.51C0.353,-0.51 0.389,-0.501 0.43,-0.484C0.479,-0.463 0.503,-0.438 0.503,-0.411C0.503,-0.399 0.5,-0.389 0.492,-0.38C0.489,-0.367 0.486,-0.351 0.485,-0.332C0.483,-0.312 0.482,-0.289 0.482,-0.263C0.482,-0.202 0.486,-0.157 0.495,-0.13C0.496,-0.127 0.504,-0.111 0.518,-0.08C0.53,-0.052 0.537,-0.036 0.537,-0.033C0.537,-0.016 0.53,-0.001 0.517,0.01C0.504,0.021 0.488,0.027 0.471,0.027ZM0.35,-0.303C0.35,-0.313 0.351,-0.325 0.352,-0.339C0.354,-0.352 0.356,-0.367 0.359,-0.384C0.352,-0.387 0.347,-0.389 0.342,-0.391C0.337,-0.392 0.332,-0.393 0.329,-0.393C0.284,-0.393 0.246,-0.376 0.212,-0.341C0.179,-0.306 0.163,-0.266 0.163,-0.221C0.163,-0.177 0.17,-0.144 0.186,-0.122C0.202,-0.1 0.225,-0.089 0.256,-0.089C0.277,-0.089 0.296,-0.093 0.314,-0.099C0.332,-0.106 0.349,-0.116 0.365,-0.129C0.355,-0.206 0.35,-0.264 0.35,-0.303Z" style="fill:rgb(197,195,255);fill-rule:nonzero;"/>
        </g>
        <g transform="matrix(36,0,0,36,1292.37,94.4566)">
            <path d="M0.435,0.035C0.395,0.035 0.372,0.015 0.368,-0.024C0.363,-0.058 0.359,-0.092 0.354,-0.125C0.349,-0.161 0.347,-0.195 0.347,-0.227C0.347,-0.235 0.347,-0.25 0.348,-0.27C0.35,-0.291 0.35,-0.305 0.35,-0.313C0.35,-0.316 0.35,-0.322 0.351,-0.331C0.352,-0.34 0.352,-0.348 0.352,-0.354C0.352,-0.381 0.346,-0.394 0.333,-0.394C0.305,-0.394 0.277,-0.376 0.25,-0.34C0.224,-0.304 0.203,-0.259 0.187,-0.204C0.187,-0.193 0.186,-0.178 0.183,-0.16C0.182,-0.145 0.181,-0.13 0.181,-0.116C0.181,-0.107 0.18,-0.092 0.177,-0.074C0.175,-0.055 0.174,-0.041 0.174,-0.031C0.174,-0.012 0.168,0.003 0.155,0.016C0.142,0.028 0.126,0.035 0.106,0.035C0.087,0.035 0.071,0.028 0.058,0.016C0.045,0.004 0.039,-0.012 0.039,-0.031C0.039,-0.04 0.038,-0.054 0.036,-0.073C0.034,-0.092 0.033,-0.106 0.033,-0.115C0.033,-0.147 0.035,-0.191 0.04,-0.248C0.045,-0.304 0.047,-0.349 0.047,-0.381C0.047,-0.39 0.046,-0.405 0.045,-0.425C0.044,-0.445 0.043,-0.459 0.043,-0.469C0.043,-0.488 0.05,-0.503 0.063,-0.515C0.076,-0.527 0.093,-0.533 0.112,-0.533C0.154,-0.533 0.177,-0.508 0.18,-0.457L0.181,-0.451C0.228,-0.499 0.278,-0.523 0.331,-0.523C0.393,-0.523 0.435,-0.497 0.458,-0.446C0.474,-0.411 0.482,-0.36 0.482,-0.291L0.482,-0.256C0.482,-0.241 0.481,-0.231 0.481,-0.225C0.481,-0.199 0.485,-0.167 0.492,-0.126C0.499,-0.086 0.502,-0.054 0.502,-0.029C0.502,-0.011 0.496,0.005 0.483,0.017C0.47,0.029 0.454,0.035 0.435,0.035Z" style="fill:rgb(197,195,255);fill-rule:nonzero;"/>
        </g>
        <g transform="matrix(36,0,0,36,1311.21,94.4566)">
            <path d="M0.502,-0.291C0.489,-0.215 0.481,-0.134 0.478,-0.049C0.475,0.056 0.457,0.133 0.425,0.18C0.383,0.244 0.307,0.275 0.199,0.275C0.072,0.275 0.009,0.25 0.009,0.2C0.009,0.182 0.014,0.168 0.026,0.157C0.037,0.146 0.052,0.14 0.071,0.14C0.085,0.14 0.106,0.143 0.134,0.148C0.161,0.154 0.185,0.157 0.207,0.157C0.255,0.157 0.291,0.142 0.314,0.112C0.336,0.083 0.349,0.037 0.353,-0.026C0.336,-0.009 0.318,0.004 0.297,0.012C0.276,0.021 0.253,0.025 0.229,0.025C0.164,0.025 0.111,0.004 0.071,-0.038C0.03,-0.08 0.01,-0.134 0.01,-0.2C0.01,-0.289 0.037,-0.36 0.091,-0.415C0.147,-0.472 0.222,-0.5 0.318,-0.5C0.348,-0.5 0.375,-0.496 0.397,-0.489C0.419,-0.481 0.437,-0.47 0.451,-0.455C0.492,-0.45 0.513,-0.425 0.513,-0.381C0.513,-0.36 0.509,-0.329 0.502,-0.291ZM0.313,-0.389C0.258,-0.389 0.215,-0.371 0.185,-0.334C0.157,-0.302 0.144,-0.259 0.144,-0.207C0.144,-0.168 0.151,-0.139 0.166,-0.119C0.18,-0.1 0.202,-0.09 0.231,-0.09C0.258,-0.09 0.285,-0.105 0.312,-0.136C0.337,-0.166 0.352,-0.194 0.355,-0.223C0.362,-0.254 0.369,-0.303 0.377,-0.369C0.366,-0.376 0.355,-0.381 0.344,-0.384C0.333,-0.387 0.323,-0.389 0.313,-0.389Z" style="fill:rgb(197,195,255);fill-rule:nonzero;"/>
        </g>
        <g transform="matrix(36,0,0,36,1345.93,94.4566)">
            <path d="M0.394,-0.357C0.361,-0.357 0.342,-0.371 0.335,-0.398C0.322,-0.4 0.309,-0.401 0.295,-0.401C0.217,-0.401 0.178,-0.391 0.178,-0.369C0.178,-0.356 0.201,-0.339 0.249,-0.318C0.313,-0.288 0.357,-0.265 0.379,-0.249C0.427,-0.214 0.45,-0.176 0.45,-0.133C0.45,-0.077 0.424,-0.034 0.372,-0.005C0.33,0.018 0.278,0.029 0.217,0.029C0.174,0.029 0.134,0.023 0.099,0.009C0.05,-0.009 0.025,-0.036 0.025,-0.071C0.025,-0.104 0.045,-0.12 0.083,-0.12C0.098,-0.12 0.12,-0.115 0.148,-0.106C0.177,-0.097 0.199,-0.092 0.214,-0.092C0.28,-0.092 0.313,-0.105 0.313,-0.132C0.313,-0.148 0.291,-0.167 0.245,-0.187C0.178,-0.217 0.135,-0.238 0.116,-0.251C0.07,-0.283 0.047,-0.322 0.047,-0.369C0.047,-0.434 0.082,-0.478 0.151,-0.501C0.192,-0.514 0.253,-0.521 0.336,-0.521C0.369,-0.521 0.393,-0.517 0.409,-0.508C0.43,-0.497 0.441,-0.476 0.441,-0.445C0.441,-0.387 0.425,-0.357 0.394,-0.357Z" style="fill:rgb(197,195,255);fill-rule:nonzero;"/>
        </g>
        <g transform="matrix(36,0,0,36,1363.46,94.4566)">
            <path d="M0.2,-0.072C0.2,-0.01 0.178,0.021 0.133,0.021C0.113,0.021 0.097,0.015 0.084,0.002C0.072,-0.01 0.065,-0.026 0.065,-0.045L0.065,-0.721C0.065,-0.74 0.072,-0.755 0.086,-0.767C0.099,-0.778 0.115,-0.784 0.134,-0.784C0.153,-0.784 0.169,-0.778 0.182,-0.766C0.194,-0.755 0.2,-0.74 0.2,-0.721L0.2,-0.072Z" style="fill:rgb(197,195,255);fill-rule:nonzero;"/>
        </g>
        <g transform="matrix(36,0,0,36,1373.32,94.4566)">
            <path d="M0.161,-0.587C0.14,-0.587 0.122,-0.594 0.107,-0.608C0.092,-0.622 0.084,-0.639 0.084,-0.659C0.084,-0.679 0.092,-0.696 0.107,-0.71C0.122,-0.724 0.14,-0.731 0.161,-0.731C0.182,-0.731 0.2,-0.724 0.215,-0.71C0.23,-0.696 0.238,-0.679 0.238,-0.659C0.238,-0.639 0.23,-0.622 0.215,-0.608C0.2,-0.594 0.182,-0.587 0.161,-0.587ZM0.203,-0.229C0.203,-0.21 0.203,-0.181 0.204,-0.14C0.205,-0.099 0.206,-0.069 0.206,-0.05C0.206,-0.031 0.2,-0.016 0.187,-0.004C0.174,0.009 0.158,0.015 0.139,0.015C0.119,0.015 0.103,0.009 0.09,-0.004C0.078,-0.016 0.071,-0.031 0.071,-0.05C0.071,-0.069 0.071,-0.099 0.07,-0.14C0.068,-0.181 0.068,-0.21 0.068,-0.229C0.068,-0.258 0.069,-0.294 0.073,-0.338C0.076,-0.382 0.078,-0.418 0.078,-0.447C0.078,-0.466 0.084,-0.481 0.097,-0.493C0.109,-0.506 0.125,-0.512 0.145,-0.512C0.165,-0.512 0.181,-0.506 0.193,-0.493C0.206,-0.481 0.212,-0.466 0.212,-0.447C0.212,-0.418 0.211,-0.382 0.208,-0.338C0.204,-0.294 0.203,-0.258 0.203,-0.229Z" style="fill:rgb(197,195,255);fill-rule:nonzero;"/>
        </g>
        <g transform="matrix(36,0,0,36,1383.41,94.4566)">
            <path d="M0.407,-0.491C0.411,-0.602 0.417,-0.678 0.422,-0.721C0.428,-0.759 0.449,-0.778 0.486,-0.778C0.505,-0.778 0.521,-0.772 0.532,-0.76C0.544,-0.747 0.55,-0.732 0.55,-0.714C0.55,-0.666 0.546,-0.595 0.539,-0.501C0.531,-0.406 0.528,-0.335 0.528,-0.288C0.528,-0.171 0.532,-0.093 0.539,-0.054C0.54,-0.049 0.541,-0.044 0.541,-0.04C0.541,-0.022 0.534,-0.007 0.521,0.005C0.508,0.017 0.493,0.022 0.476,0.022C0.451,0.022 0.434,0.012 0.422,-0.01C0.4,0.004 0.377,0.012 0.353,0.016C0.329,0.02 0.305,0.022 0.279,0.022C0.206,0.022 0.146,-0.001 0.098,-0.047C0.049,-0.095 0.024,-0.155 0.024,-0.229C0.024,-0.317 0.049,-0.387 0.098,-0.441C0.148,-0.495 0.212,-0.522 0.292,-0.522C0.316,-0.522 0.338,-0.519 0.357,-0.514C0.377,-0.509 0.393,-0.501 0.407,-0.491ZM0.397,-0.337C0.387,-0.357 0.373,-0.373 0.355,-0.383C0.338,-0.393 0.318,-0.398 0.294,-0.398C0.246,-0.398 0.21,-0.384 0.186,-0.356C0.161,-0.328 0.149,-0.287 0.149,-0.231C0.149,-0.196 0.162,-0.166 0.188,-0.141C0.215,-0.116 0.245,-0.103 0.279,-0.103C0.304,-0.103 0.323,-0.106 0.336,-0.112C0.345,-0.116 0.36,-0.126 0.381,-0.143C0.387,-0.148 0.392,-0.153 0.397,-0.158C0.397,-0.174 0.397,-0.233 0.397,-0.337Z" style="fill:rgb(197,195,255);fill-rule:nonzero;"/>
        </g>
        <g transform="matrix(36,0,0,36,1404.55,94.4566)">
            <path d="M0.296,0.022C0.218,0.022 0.154,0.004 0.105,-0.033C0.05,-0.074 0.023,-0.132 0.023,-0.207C0.023,-0.289 0.045,-0.359 0.088,-0.416C0.136,-0.479 0.201,-0.51 0.283,-0.51C0.339,-0.51 0.386,-0.501 0.424,-0.483C0.473,-0.459 0.498,-0.421 0.498,-0.371C0.498,-0.335 0.478,-0.303 0.438,-0.275C0.419,-0.263 0.383,-0.244 0.328,-0.22L0.163,-0.147C0.179,-0.13 0.198,-0.117 0.22,-0.109C0.242,-0.1 0.267,-0.096 0.296,-0.096C0.34,-0.096 0.376,-0.105 0.407,-0.123C0.434,-0.139 0.455,-0.147 0.472,-0.147C0.506,-0.147 0.522,-0.131 0.522,-0.098C0.522,-0.061 0.495,-0.03 0.441,-0.007C0.395,0.013 0.347,0.022 0.296,0.022ZM0.283,-0.392C0.252,-0.392 0.227,-0.382 0.205,-0.362C0.184,-0.342 0.166,-0.311 0.153,-0.271C0.19,-0.287 0.227,-0.303 0.263,-0.318C0.307,-0.338 0.342,-0.357 0.368,-0.374C0.346,-0.386 0.318,-0.392 0.283,-0.392Z" style="fill:rgb(197,195,255);fill-rule:nonzero;"/>
        </g>
    </g>
</svg>
