<?xml version="1.0" encoding="UTF-8" standalone="no"?>
<!DOCTYPE svg PUBLIC "-//W3C//DTD SVG 1.1//EN" "http://www.w3.org/Graphics/SVG/1.1/DTD/svg11.dtd">
<svg width="100%" height="100%" viewBox="0 0 1920 1080" version="1.1" xmlns="http://www.w3.org/2000/svg" xmlns:xlink="http://www.w3.org/1999/xlink" xml:space="preserve" xmlns:serif="http://www.serif.com/" style="fill-rule:evenodd;clip-rule:evenodd;stroke-linejoin:round;stroke-miterlimit:2;">
    <g transform="matrix(1,0,0,1,-9.38155,57.6206)">
        <g transform="matrix(98,0,0,98,96.3361,58.4566)">
            <path d="M0.633,-0.585C0.607,-0.585 0.568,-0.587 0.514,-0.591C0.462,-0.594 0.423,-0.596 0.396,-0.596C0.397,-0.559 0.401,-0.493 0.409,-0.397C0.416,-0.313 0.419,-0.247 0.419,-0.198C0.419,-0.187 0.42,-0.171 0.422,-0.149C0.425,-0.127 0.426,-0.111 0.426,-0.1C0.426,-0.075 0.421,-0.053 0.41,-0.034C0.397,-0.009 0.378,0.004 0.353,0.004C0.335,0.004 0.319,-0.002 0.306,-0.013C0.29,-0.026 0.283,-0.042 0.283,-0.061C0.283,-0.066 0.284,-0.073 0.285,-0.082C0.287,-0.091 0.288,-0.098 0.288,-0.103C0.288,-0.118 0.287,-0.141 0.284,-0.171C0.282,-0.201 0.281,-0.224 0.281,-0.239C0.281,-0.283 0.278,-0.342 0.271,-0.417C0.263,-0.502 0.259,-0.561 0.257,-0.594L0.232,-0.594C0.159,-0.594 0.102,-0.599 0.059,-0.609C0.023,-0.618 0.005,-0.639 0.005,-0.673C0.005,-0.69 0.011,-0.705 0.022,-0.718C0.036,-0.734 0.054,-0.741 0.076,-0.74C0.088,-0.739 0.113,-0.736 0.154,-0.731C0.186,-0.728 0.212,-0.726 0.232,-0.726C0.252,-0.726 0.281,-0.726 0.321,-0.727C0.361,-0.728 0.39,-0.728 0.41,-0.728C0.435,-0.728 0.472,-0.726 0.521,-0.723C0.571,-0.719 0.608,-0.718 0.633,-0.718C0.652,-0.718 0.669,-0.711 0.682,-0.699C0.695,-0.686 0.702,-0.67 0.702,-0.652C0.702,-0.633 0.695,-0.618 0.682,-0.605C0.669,-0.592 0.652,-0.585 0.633,-0.585Z" style="fill-rule:nonzero;"/>
        </g>
        <g transform="matrix(98,0,0,98,164.525,58.4566)">
            <path d="M0.161,-0.587C0.14,-0.587 0.122,-0.594 0.107,-0.608C0.092,-0.622 0.084,-0.639 0.084,-0.659C0.084,-0.679 0.092,-0.696 0.107,-0.71C0.122,-0.724 0.14,-0.731 0.161,-0.731C0.182,-0.731 0.2,-0.724 0.215,-0.71C0.23,-0.696 0.238,-0.679 0.238,-0.659C0.238,-0.639 0.23,-0.622 0.215,-0.608C0.2,-0.594 0.182,-0.587 0.161,-0.587ZM0.203,-0.229C0.203,-0.21 0.203,-0.181 0.204,-0.14C0.205,-0.099 0.206,-0.069 0.206,-0.05C0.206,-0.031 0.2,-0.016 0.187,-0.004C0.174,0.009 0.158,0.015 0.139,0.015C0.119,0.015 0.103,0.009 0.09,-0.004C0.078,-0.016 0.071,-0.031 0.071,-0.05C0.071,-0.069 0.071,-0.099 0.07,-0.14C0.068,-0.181 0.068,-0.21 0.068,-0.229C0.068,-0.258 0.069,-0.294 0.073,-0.338C0.076,-0.382 0.078,-0.418 0.078,-0.447C0.078,-0.466 0.084,-0.481 0.097,-0.493C0.109,-0.506 0.125,-0.512 0.145,-0.512C0.165,-0.512 0.181,-0.506 0.193,-0.493C0.206,-0.481 0.212,-0.466 0.212,-0.447C0.212,-0.418 0.211,-0.382 0.208,-0.338C0.204,-0.294 0.203,-0.258 0.203,-0.229Z" style="fill-rule:nonzero;"/>
        </g>
        <g transform="matrix(98,0,0,98,191.991,58.4566)">
            <path d="M0.395,-0.393L0.346,-0.395C0.333,-0.395 0.317,-0.393 0.3,-0.391C0.306,-0.259 0.309,-0.173 0.309,-0.133C0.309,-0.129 0.309,-0.121 0.309,-0.109C0.309,-0.098 0.31,-0.088 0.31,-0.081C0.31,-0.006 0.286,0.031 0.239,0.031C0.221,0.031 0.205,0.026 0.192,0.015C0.178,0.003 0.171,-0.012 0.171,-0.029C0.171,-0.041 0.171,-0.059 0.172,-0.082C0.173,-0.105 0.174,-0.123 0.174,-0.135C0.174,-0.174 0.171,-0.258 0.165,-0.388C0.145,-0.389 0.114,-0.391 0.073,-0.396C0.033,-0.4 0.012,-0.421 0.012,-0.459C0.012,-0.477 0.018,-0.493 0.031,-0.505C0.043,-0.518 0.059,-0.524 0.079,-0.524C0.091,-0.524 0.118,-0.522 0.162,-0.519C0.161,-0.529 0.16,-0.546 0.159,-0.57C0.158,-0.591 0.157,-0.607 0.157,-0.619C0.157,-0.637 0.164,-0.652 0.177,-0.664C0.191,-0.676 0.207,-0.682 0.226,-0.682C0.274,-0.682 0.298,-0.642 0.298,-0.561L0.297,-0.521C0.317,-0.523 0.333,-0.525 0.346,-0.525C0.384,-0.525 0.409,-0.522 0.423,-0.518C0.449,-0.508 0.462,-0.489 0.462,-0.458C0.462,-0.439 0.456,-0.424 0.443,-0.412C0.43,-0.399 0.414,-0.393 0.395,-0.393Z" style="fill-rule:nonzero;"/>
        </g>
        <g transform="matrix(98,0,0,98,238.168,58.4566)">
            <path d="M0.2,-0.072C0.2,-0.01 0.178,0.021 0.133,0.021C0.113,0.021 0.097,0.015 0.084,0.002C0.072,-0.01 0.065,-0.026 0.065,-0.045L0.065,-0.721C0.065,-0.74 0.072,-0.755 0.086,-0.767C0.099,-0.778 0.115,-0.784 0.134,-0.784C0.153,-0.784 0.169,-0.778 0.182,-0.766C0.194,-0.755 0.2,-0.74 0.2,-0.721L0.2,-0.072Z" style="fill-rule:nonzero;"/>
        </g>
        <g transform="matrix(98,0,0,98,265.013,58.4566)">
            <path d="M0.296,0.022C0.218,0.022 0.154,0.004 0.105,-0.033C0.05,-0.074 0.023,-0.132 0.023,-0.207C0.023,-0.289 0.045,-0.359 0.088,-0.416C0.136,-0.479 0.201,-0.51 0.283,-0.51C0.339,-0.51 0.386,-0.501 0.424,-0.483C0.473,-0.459 0.498,-0.421 0.498,-0.371C0.498,-0.335 0.478,-0.303 0.438,-0.275C0.419,-0.263 0.383,-0.244 0.328,-0.22L0.163,-0.147C0.179,-0.13 0.198,-0.117 0.22,-0.109C0.242,-0.1 0.267,-0.096 0.296,-0.096C0.34,-0.096 0.376,-0.105 0.407,-0.123C0.434,-0.139 0.455,-0.147 0.472,-0.147C0.506,-0.147 0.522,-0.131 0.522,-0.098C0.522,-0.061 0.495,-0.03 0.441,-0.007C0.395,0.013 0.347,0.022 0.296,0.022ZM0.283,-0.392C0.252,-0.392 0.227,-0.382 0.205,-0.362C0.184,-0.342 0.166,-0.311 0.153,-0.271C0.19,-0.287 0.227,-0.303 0.263,-0.318C0.307,-0.338 0.342,-0.357 0.368,-0.374C0.346,-0.386 0.318,-0.392 0.283,-0.392Z" style="fill-rule:nonzero;"/>
        </g>
        <g transform="matrix(98,0,0,98,362.295,58.4566)">
            <path d="M0.325,-0.66C0.313,-0.649 0.299,-0.634 0.281,-0.617C0.247,-0.58 0.22,-0.526 0.2,-0.456C0.183,-0.394 0.174,-0.333 0.174,-0.273C0.174,-0.205 0.182,-0.142 0.198,-0.085C0.22,-0.009 0.253,0.045 0.299,0.076C0.34,0.105 0.36,0.13 0.36,0.152C0.36,0.169 0.354,0.182 0.341,0.194C0.328,0.205 0.314,0.211 0.297,0.211C0.284,0.211 0.269,0.207 0.252,0.198C0.107,0.12 0.035,-0.041 0.035,-0.284C0.035,-0.371 0.053,-0.459 0.089,-0.548C0.131,-0.649 0.185,-0.722 0.253,-0.768C0.27,-0.779 0.284,-0.784 0.296,-0.784C0.314,-0.784 0.329,-0.778 0.342,-0.765C0.354,-0.752 0.36,-0.737 0.36,-0.721C0.36,-0.704 0.348,-0.684 0.325,-0.66Z" style="fill-rule:nonzero;"/>
        </g>
        <g transform="matrix(98,0,0,98,398.184,58.4566)">
            <path d="M0.394,-0.357C0.361,-0.357 0.342,-0.371 0.335,-0.398C0.322,-0.4 0.309,-0.401 0.295,-0.401C0.217,-0.401 0.178,-0.391 0.178,-0.369C0.178,-0.356 0.201,-0.339 0.249,-0.318C0.313,-0.288 0.357,-0.265 0.379,-0.249C0.427,-0.214 0.45,-0.176 0.45,-0.133C0.45,-0.077 0.424,-0.034 0.372,-0.005C0.33,0.018 0.278,0.029 0.217,0.029C0.174,0.029 0.134,0.023 0.099,0.009C0.05,-0.009 0.025,-0.036 0.025,-0.071C0.025,-0.104 0.045,-0.12 0.083,-0.12C0.098,-0.12 0.12,-0.115 0.148,-0.106C0.177,-0.097 0.199,-0.092 0.214,-0.092C0.28,-0.092 0.313,-0.105 0.313,-0.132C0.313,-0.148 0.291,-0.167 0.245,-0.187C0.178,-0.217 0.135,-0.238 0.116,-0.251C0.07,-0.283 0.047,-0.322 0.047,-0.369C0.047,-0.434 0.082,-0.478 0.151,-0.501C0.192,-0.514 0.253,-0.521 0.336,-0.521C0.369,-0.521 0.393,-0.517 0.409,-0.508C0.43,-0.497 0.441,-0.476 0.441,-0.445C0.441,-0.387 0.425,-0.357 0.394,-0.357Z" style="fill-rule:nonzero;"/>
        </g>
        <g transform="matrix(98,0,0,98,445.892,58.4566)">
            <path d="M0.195,-0.447C0.219,-0.47 0.244,-0.488 0.271,-0.499C0.298,-0.511 0.327,-0.517 0.358,-0.517C0.414,-0.517 0.454,-0.501 0.479,-0.47C0.497,-0.446 0.508,-0.41 0.512,-0.362C0.513,-0.322 0.515,-0.282 0.517,-0.241C0.522,-0.189 0.526,-0.157 0.527,-0.146C0.531,-0.109 0.537,-0.078 0.543,-0.051C0.545,-0.044 0.546,-0.038 0.546,-0.033C0.546,-0.014 0.539,0.001 0.525,0.012C0.511,0.024 0.495,0.03 0.477,0.03C0.444,0.03 0.422,0.014 0.413,-0.019C0.405,-0.045 0.398,-0.082 0.391,-0.13C0.385,-0.176 0.382,-0.214 0.382,-0.243C0.382,-0.251 0.383,-0.264 0.384,-0.28C0.384,-0.296 0.385,-0.309 0.385,-0.317C0.385,-0.341 0.384,-0.355 0.384,-0.359C0.381,-0.377 0.372,-0.386 0.358,-0.386C0.322,-0.386 0.29,-0.369 0.26,-0.336C0.245,-0.319 0.225,-0.288 0.199,-0.241C0.199,-0.123 0.193,-0.052 0.182,-0.028C0.169,-0.002 0.149,0.012 0.121,0.012C0.103,0.012 0.087,0.006 0.073,-0.007C0.058,-0.019 0.051,-0.034 0.051,-0.052C0.051,-0.058 0.053,-0.067 0.057,-0.078C0.059,-0.085 0.061,-0.129 0.063,-0.209C0.061,-0.275 0.061,-0.384 0.063,-0.536L0.064,-0.552C0.066,-0.591 0.067,-0.616 0.067,-0.629C0.067,-0.639 0.066,-0.654 0.063,-0.674C0.06,-0.694 0.058,-0.709 0.058,-0.719C0.058,-0.737 0.065,-0.753 0.078,-0.764C0.091,-0.776 0.108,-0.782 0.126,-0.782C0.159,-0.782 0.18,-0.765 0.191,-0.73C0.198,-0.711 0.201,-0.681 0.201,-0.641C0.201,-0.608 0.2,-0.575 0.198,-0.542C0.196,-0.51 0.195,-0.478 0.195,-0.447Z" style="fill-rule:nonzero;"/>
        </g>
        <g transform="matrix(98,0,0,98,502.5,58.4566)">
            <path d="M0.251,0.029C0.191,0.029 0.139,0.008 0.096,-0.033C0.048,-0.078 0.023,-0.139 0.021,-0.214C0.019,-0.286 0.038,-0.35 0.08,-0.407C0.13,-0.473 0.198,-0.506 0.287,-0.506C0.352,-0.506 0.403,-0.48 0.442,-0.428C0.476,-0.381 0.494,-0.323 0.494,-0.254C0.494,-0.178 0.473,-0.114 0.433,-0.061C0.388,-0.001 0.327,0.029 0.251,0.029ZM0.28,-0.377C0.24,-0.378 0.209,-0.36 0.186,-0.323C0.166,-0.292 0.156,-0.256 0.156,-0.214C0.156,-0.175 0.167,-0.145 0.189,-0.125C0.207,-0.108 0.228,-0.1 0.251,-0.1C0.279,-0.1 0.304,-0.109 0.325,-0.128C0.348,-0.151 0.361,-0.181 0.363,-0.22C0.367,-0.325 0.34,-0.377 0.28,-0.377Z" style="fill-rule:nonzero;"/>
        </g>
        <g transform="matrix(98,0,0,98,554.036,58.4566)">
            <path d="M0.459,-0.352C0.456,-0.302 0.433,-0.277 0.391,-0.277C0.35,-0.277 0.33,-0.299 0.33,-0.341L0.327,-0.39C0.254,-0.378 0.201,-0.341 0.17,-0.277L0.17,-0.032C0.17,-0.013 0.164,0.002 0.151,0.014C0.139,0.027 0.123,0.033 0.103,0.033C0.083,0.033 0.067,0.026 0.056,0.013C0.046,0.001 0.041,-0.014 0.041,-0.032L0.041,-0.352C0.041,-0.362 0.041,-0.377 0.042,-0.397C0.042,-0.417 0.042,-0.432 0.042,-0.442C0.042,-0.46 0.048,-0.475 0.059,-0.488C0.07,-0.5 0.085,-0.506 0.105,-0.506C0.142,-0.506 0.163,-0.487 0.17,-0.45C0.228,-0.493 0.292,-0.515 0.362,-0.515C0.427,-0.515 0.459,-0.471 0.459,-0.385C0.459,-0.368 0.459,-0.357 0.459,-0.352Z" style="fill-rule:nonzero;"/>
        </g>
        <g transform="matrix(98,0,0,98,601.122,58.4566)">
            <path d="M0.395,-0.393L0.346,-0.395C0.333,-0.395 0.317,-0.393 0.3,-0.391C0.306,-0.259 0.309,-0.173 0.309,-0.133C0.309,-0.129 0.309,-0.121 0.309,-0.109C0.309,-0.098 0.31,-0.088 0.31,-0.081C0.31,-0.006 0.286,0.031 0.239,0.031C0.221,0.031 0.205,0.026 0.192,0.015C0.178,0.003 0.171,-0.012 0.171,-0.029C0.171,-0.041 0.171,-0.059 0.172,-0.082C0.173,-0.105 0.174,-0.123 0.174,-0.135C0.174,-0.174 0.171,-0.258 0.165,-0.388C0.145,-0.389 0.114,-0.391 0.073,-0.396C0.033,-0.4 0.012,-0.421 0.012,-0.459C0.012,-0.477 0.018,-0.493 0.031,-0.505C0.043,-0.518 0.059,-0.524 0.079,-0.524C0.091,-0.524 0.118,-0.522 0.162,-0.519C0.161,-0.529 0.16,-0.546 0.159,-0.57C0.158,-0.591 0.157,-0.607 0.157,-0.619C0.157,-0.637 0.164,-0.652 0.177,-0.664C0.191,-0.676 0.207,-0.682 0.226,-0.682C0.274,-0.682 0.298,-0.642 0.298,-0.561L0.297,-0.521C0.317,-0.523 0.333,-0.525 0.346,-0.525C0.384,-0.525 0.409,-0.522 0.423,-0.518C0.449,-0.508 0.462,-0.489 0.462,-0.458C0.462,-0.439 0.456,-0.424 0.443,-0.412C0.43,-0.399 0.414,-0.393 0.395,-0.393Z" style="fill-rule:nonzero;"/>
        </g>
        <g transform="matrix(98,0,0,98,647.299,58.4566)">
            <path d="M0.259,0.061C0.243,0.092 0.23,0.118 0.221,0.136C0.21,0.157 0.192,0.168 0.167,0.168C0.15,0.168 0.136,0.163 0.124,0.152C0.111,0.141 0.105,0.128 0.105,0.114C0.105,0.105 0.116,0.08 0.137,0.038C0.155,0.001 0.169,-0.025 0.179,-0.041C0.191,-0.06 0.208,-0.069 0.229,-0.069C0.247,-0.069 0.261,-0.064 0.273,-0.053C0.285,-0.042 0.292,-0.029 0.292,-0.015C0.292,-0.008 0.281,0.017 0.259,0.061Z" style="fill-rule:nonzero;"/>
        </g>
        <g transform="matrix(98,0,0,98,732.283,58.4566)">
            <path d="M0.275,0.029C0.247,0.029 0.218,0.026 0.187,0.019L0.187,0.218C0.187,0.237 0.18,0.253 0.167,0.265C0.155,0.278 0.139,0.284 0.119,0.284C0.1,0.284 0.083,0.278 0.071,0.265C0.058,0.253 0.052,0.237 0.052,0.218C0.052,0.203 0.052,0.142 0.053,0.036C0.053,-0.043 0.053,-0.107 0.053,-0.157C0.052,-0.227 0.049,-0.288 0.046,-0.338C0.041,-0.408 0.039,-0.44 0.039,-0.435C0.039,-0.462 0.045,-0.485 0.057,-0.504C0.071,-0.526 0.09,-0.537 0.113,-0.537C0.132,-0.537 0.147,-0.53 0.159,-0.518C0.172,-0.506 0.178,-0.491 0.178,-0.474L0.177,-0.469C0.199,-0.481 0.221,-0.49 0.243,-0.496C0.265,-0.502 0.287,-0.505 0.309,-0.505C0.384,-0.505 0.439,-0.474 0.473,-0.41C0.499,-0.362 0.512,-0.3 0.512,-0.224C0.512,-0.153 0.491,-0.094 0.451,-0.047C0.407,0.004 0.349,0.029 0.275,0.029ZM0.309,-0.375C0.289,-0.375 0.268,-0.37 0.247,-0.361C0.225,-0.351 0.204,-0.337 0.183,-0.317C0.187,-0.25 0.188,-0.183 0.188,-0.116C0.217,-0.106 0.246,-0.102 0.275,-0.102C0.309,-0.102 0.335,-0.113 0.353,-0.137C0.369,-0.159 0.377,-0.188 0.377,-0.224C0.377,-0.268 0.375,-0.299 0.371,-0.315C0.362,-0.355 0.341,-0.375 0.309,-0.375Z" style="fill-rule:nonzero;"/>
        </g>
        <g transform="matrix(98,0,0,98,784.681,58.4566)">
            <path d="M0.459,-0.352C0.456,-0.302 0.433,-0.277 0.391,-0.277C0.35,-0.277 0.33,-0.299 0.33,-0.341L0.327,-0.39C0.254,-0.378 0.201,-0.341 0.17,-0.277L0.17,-0.032C0.17,-0.013 0.164,0.002 0.151,0.014C0.139,0.027 0.123,0.033 0.103,0.033C0.083,0.033 0.067,0.026 0.056,0.013C0.046,0.001 0.041,-0.014 0.041,-0.032L0.041,-0.352C0.041,-0.362 0.041,-0.377 0.042,-0.397C0.042,-0.417 0.042,-0.432 0.042,-0.442C0.042,-0.46 0.048,-0.475 0.059,-0.488C0.07,-0.5 0.085,-0.506 0.105,-0.506C0.142,-0.506 0.163,-0.487 0.17,-0.45C0.228,-0.493 0.292,-0.515 0.362,-0.515C0.427,-0.515 0.459,-0.471 0.459,-0.385C0.459,-0.368 0.459,-0.357 0.459,-0.352Z" style="fill-rule:nonzero;"/>
        </g>
        <g transform="matrix(98,0,0,98,831.767,58.4566)">
            <path d="M0.296,0.022C0.218,0.022 0.154,0.004 0.105,-0.033C0.05,-0.074 0.023,-0.132 0.023,-0.207C0.023,-0.289 0.045,-0.359 0.088,-0.416C0.136,-0.479 0.201,-0.51 0.283,-0.51C0.339,-0.51 0.386,-0.501 0.424,-0.483C0.473,-0.459 0.498,-0.421 0.498,-0.371C0.498,-0.335 0.478,-0.303 0.438,-0.275C0.419,-0.263 0.383,-0.244 0.328,-0.22L0.163,-0.147C0.179,-0.13 0.198,-0.117 0.22,-0.109C0.242,-0.1 0.267,-0.096 0.296,-0.096C0.34,-0.096 0.376,-0.105 0.407,-0.123C0.434,-0.139 0.455,-0.147 0.472,-0.147C0.506,-0.147 0.522,-0.131 0.522,-0.098C0.522,-0.061 0.495,-0.03 0.441,-0.007C0.395,0.013 0.347,0.022 0.296,0.022ZM0.283,-0.392C0.252,-0.392 0.227,-0.382 0.205,-0.362C0.184,-0.342 0.166,-0.311 0.153,-0.271C0.19,-0.287 0.227,-0.303 0.263,-0.318C0.307,-0.338 0.342,-0.357 0.368,-0.374C0.346,-0.386 0.318,-0.392 0.283,-0.392Z" style="fill-rule:nonzero;"/>
        </g>
        <g transform="matrix(98,0,0,98,886.557,58.4566)">
            <path d="M0.282,-0.501C0.325,-0.505 0.357,-0.507 0.375,-0.507C0.436,-0.507 0.467,-0.486 0.467,-0.445C0.467,-0.402 0.434,-0.381 0.37,-0.383C0.349,-0.384 0.318,-0.382 0.276,-0.379C0.275,-0.344 0.275,-0.3 0.275,-0.247C0.277,-0.17 0.277,-0.126 0.277,-0.116C0.277,-0.056 0.274,-0.009 0.266,0.026C0.259,0.061 0.237,0.078 0.202,0.078C0.183,0.078 0.168,0.072 0.154,0.061C0.141,0.049 0.134,0.034 0.134,0.016C0.134,0.012 0.134,0.008 0.135,0.004C0.143,-0.043 0.146,-0.086 0.146,-0.127L0.146,-0.372C0.141,-0.371 0.13,-0.37 0.114,-0.368C0.102,-0.366 0.092,-0.365 0.086,-0.365C0.066,-0.365 0.05,-0.371 0.037,-0.383C0.024,-0.394 0.017,-0.41 0.017,-0.429C0.017,-0.459 0.033,-0.479 0.065,-0.489C0.079,-0.493 0.108,-0.496 0.15,-0.497C0.151,-0.503 0.153,-0.521 0.157,-0.552C0.166,-0.625 0.186,-0.679 0.216,-0.714C0.254,-0.759 0.312,-0.781 0.39,-0.781C0.449,-0.781 0.479,-0.759 0.479,-0.717C0.479,-0.674 0.451,-0.653 0.396,-0.653C0.357,-0.653 0.328,-0.639 0.31,-0.612C0.297,-0.591 0.288,-0.559 0.283,-0.516L0.282,-0.501Z" style="fill-rule:nonzero;"/>
        </g>
        <g transform="matrix(98,0,0,98,936.37,58.4566)">
            <path d="M0.296,0.022C0.218,0.022 0.154,0.004 0.105,-0.033C0.05,-0.074 0.023,-0.132 0.023,-0.207C0.023,-0.289 0.045,-0.359 0.088,-0.416C0.136,-0.479 0.201,-0.51 0.283,-0.51C0.339,-0.51 0.386,-0.501 0.424,-0.483C0.473,-0.459 0.498,-0.421 0.498,-0.371C0.498,-0.335 0.478,-0.303 0.438,-0.275C0.419,-0.263 0.383,-0.244 0.328,-0.22L0.163,-0.147C0.179,-0.13 0.198,-0.117 0.22,-0.109C0.242,-0.1 0.267,-0.096 0.296,-0.096C0.34,-0.096 0.376,-0.105 0.407,-0.123C0.434,-0.139 0.455,-0.147 0.472,-0.147C0.506,-0.147 0.522,-0.131 0.522,-0.098C0.522,-0.061 0.495,-0.03 0.441,-0.007C0.395,0.013 0.347,0.022 0.296,0.022ZM0.283,-0.392C0.252,-0.392 0.227,-0.382 0.205,-0.362C0.184,-0.342 0.166,-0.311 0.153,-0.271C0.19,-0.287 0.227,-0.303 0.263,-0.318C0.307,-0.338 0.342,-0.357 0.368,-0.374C0.346,-0.386 0.318,-0.392 0.283,-0.392Z" style="fill-rule:nonzero;"/>
        </g>
        <g transform="matrix(98,0,0,98,991.16,58.4566)">
            <path d="M0.459,-0.352C0.456,-0.302 0.433,-0.277 0.391,-0.277C0.35,-0.277 0.33,-0.299 0.33,-0.341L0.327,-0.39C0.254,-0.378 0.201,-0.341 0.17,-0.277L0.17,-0.032C0.17,-0.013 0.164,0.002 0.151,0.014C0.139,0.027 0.123,0.033 0.103,0.033C0.083,0.033 0.067,0.026 0.056,0.013C0.046,0.001 0.041,-0.014 0.041,-0.032L0.041,-0.352C0.041,-0.362 0.041,-0.377 0.042,-0.397C0.042,-0.417 0.042,-0.432 0.042,-0.442C0.042,-0.46 0.048,-0.475 0.059,-0.488C0.07,-0.5 0.085,-0.506 0.105,-0.506C0.142,-0.506 0.163,-0.487 0.17,-0.45C0.228,-0.493 0.292,-0.515 0.362,-0.515C0.427,-0.515 0.459,-0.471 0.459,-0.385C0.459,-0.368 0.459,-0.357 0.459,-0.352Z" style="fill-rule:nonzero;"/>
        </g>
        <g transform="matrix(98,0,0,98,1038.25,58.4566)">
            <path d="M0.471,0.027C0.456,0.027 0.432,0.012 0.4,-0.017C0.37,-0.002 0.344,0.009 0.321,0.016C0.298,0.023 0.279,0.027 0.263,0.027C0.184,0.027 0.125,0.006 0.086,-0.036C0.047,-0.078 0.027,-0.141 0.027,-0.225C0.027,-0.303 0.056,-0.37 0.114,-0.426C0.172,-0.482 0.242,-0.51 0.322,-0.51C0.353,-0.51 0.389,-0.501 0.43,-0.484C0.479,-0.463 0.503,-0.438 0.503,-0.411C0.503,-0.399 0.5,-0.389 0.492,-0.38C0.489,-0.367 0.486,-0.351 0.485,-0.332C0.483,-0.312 0.482,-0.289 0.482,-0.263C0.482,-0.202 0.486,-0.157 0.495,-0.13C0.496,-0.127 0.504,-0.111 0.518,-0.08C0.53,-0.052 0.537,-0.036 0.537,-0.033C0.537,-0.016 0.53,-0.001 0.517,0.01C0.504,0.021 0.488,0.027 0.471,0.027ZM0.35,-0.303C0.35,-0.313 0.351,-0.325 0.352,-0.339C0.354,-0.352 0.356,-0.367 0.359,-0.384C0.352,-0.387 0.347,-0.389 0.342,-0.391C0.337,-0.392 0.332,-0.393 0.329,-0.393C0.284,-0.393 0.246,-0.376 0.212,-0.341C0.179,-0.306 0.163,-0.266 0.163,-0.221C0.163,-0.177 0.17,-0.144 0.186,-0.122C0.202,-0.1 0.225,-0.089 0.256,-0.089C0.277,-0.089 0.296,-0.093 0.314,-0.099C0.332,-0.106 0.349,-0.116 0.365,-0.129C0.355,-0.206 0.35,-0.264 0.35,-0.303Z" style="fill-rule:nonzero;"/>
        </g>
        <g transform="matrix(98,0,0,98,1092.7,58.4566)">
            <path d="M0.282,0.021C0.236,0.021 0.193,0.013 0.152,-0.003C0.14,0.009 0.125,0.015 0.108,0.015C0.09,0.015 0.075,0.009 0.063,-0.003C0.05,-0.015 0.044,-0.029 0.044,-0.047C0.044,-0.055 0.044,-0.067 0.045,-0.083C0.046,-0.099 0.047,-0.111 0.047,-0.119L0.047,-0.672C0.047,-0.695 0.052,-0.716 0.063,-0.734C0.076,-0.757 0.094,-0.769 0.118,-0.769C0.153,-0.769 0.17,-0.75 0.17,-0.712C0.17,-0.708 0.17,-0.701 0.169,-0.692C0.168,-0.683 0.167,-0.676 0.167,-0.672L0.167,-0.485C0.191,-0.498 0.214,-0.508 0.236,-0.515C0.258,-0.522 0.28,-0.525 0.3,-0.525C0.377,-0.525 0.439,-0.497 0.486,-0.441C0.53,-0.389 0.552,-0.326 0.552,-0.252C0.552,-0.176 0.526,-0.112 0.475,-0.06C0.423,-0.006 0.359,0.021 0.282,0.021ZM0.3,-0.4C0.283,-0.4 0.264,-0.395 0.242,-0.385C0.22,-0.375 0.195,-0.361 0.167,-0.341C0.167,-0.31 0.167,-0.241 0.167,-0.134C0.212,-0.115 0.25,-0.105 0.282,-0.105C0.323,-0.105 0.357,-0.119 0.384,-0.147C0.41,-0.175 0.424,-0.21 0.424,-0.252C0.424,-0.294 0.413,-0.329 0.391,-0.357C0.368,-0.386 0.338,-0.4 0.3,-0.4Z" style="fill-rule:nonzero;"/>
        </g>
        <g transform="matrix(98,0,0,98,1150.84,58.4566)">
            <path d="M0.2,-0.072C0.2,-0.01 0.178,0.021 0.133,0.021C0.113,0.021 0.097,0.015 0.084,0.002C0.072,-0.01 0.065,-0.026 0.065,-0.045L0.065,-0.721C0.065,-0.74 0.072,-0.755 0.086,-0.767C0.099,-0.778 0.115,-0.784 0.134,-0.784C0.153,-0.784 0.169,-0.778 0.182,-0.766C0.194,-0.755 0.2,-0.74 0.2,-0.721L0.2,-0.072Z" style="fill-rule:nonzero;"/>
        </g>
        <g transform="matrix(98,0,0,98,1177.69,58.4566)">
            <path d="M0.535,-0.413C0.5,-0.339 0.444,-0.223 0.367,-0.064C0.325,0.021 0.293,0.091 0.271,0.147C0.265,0.167 0.254,0.197 0.239,0.237C0.228,0.267 0.207,0.283 0.177,0.283C0.158,0.283 0.142,0.277 0.128,0.265C0.114,0.253 0.107,0.237 0.107,0.219C0.107,0.189 0.141,0.099 0.21,-0.05C0.175,-0.12 0.118,-0.224 0.04,-0.362C0.032,-0.374 0.024,-0.387 0.016,-0.399C0.007,-0.414 0.003,-0.428 0.003,-0.44C0.003,-0.458 0.01,-0.473 0.024,-0.487C0.038,-0.5 0.054,-0.507 0.072,-0.507C0.094,-0.507 0.111,-0.499 0.123,-0.483C0.169,-0.421 0.223,-0.329 0.284,-0.205C0.319,-0.282 0.34,-0.329 0.348,-0.345C0.371,-0.393 0.393,-0.436 0.416,-0.473C0.43,-0.496 0.449,-0.508 0.473,-0.508C0.491,-0.508 0.508,-0.502 0.522,-0.489C0.536,-0.477 0.543,-0.462 0.543,-0.444C0.543,-0.434 0.541,-0.424 0.535,-0.413Z" style="fill-rule:nonzero;"/>
        </g>
        <g transform="matrix(98,0,0,98,1274.35,58.4566)">
            <path d="M0.161,-0.587C0.14,-0.587 0.122,-0.594 0.107,-0.608C0.092,-0.622 0.084,-0.639 0.084,-0.659C0.084,-0.679 0.092,-0.696 0.107,-0.71C0.122,-0.724 0.14,-0.731 0.161,-0.731C0.182,-0.731 0.2,-0.724 0.215,-0.71C0.23,-0.696 0.238,-0.679 0.238,-0.659C0.238,-0.639 0.23,-0.622 0.215,-0.608C0.2,-0.594 0.182,-0.587 0.161,-0.587ZM0.203,-0.229C0.203,-0.21 0.203,-0.181 0.204,-0.14C0.205,-0.099 0.206,-0.069 0.206,-0.05C0.206,-0.031 0.2,-0.016 0.187,-0.004C0.174,0.009 0.158,0.015 0.139,0.015C0.119,0.015 0.103,0.009 0.09,-0.004C0.078,-0.016 0.071,-0.031 0.071,-0.05C0.071,-0.069 0.071,-0.099 0.07,-0.14C0.068,-0.181 0.068,-0.21 0.068,-0.229C0.068,-0.258 0.069,-0.294 0.073,-0.338C0.076,-0.382 0.078,-0.418 0.078,-0.447C0.078,-0.466 0.084,-0.481 0.097,-0.493C0.109,-0.506 0.125,-0.512 0.145,-0.512C0.165,-0.512 0.181,-0.506 0.193,-0.493C0.206,-0.481 0.212,-0.466 0.212,-0.447C0.212,-0.418 0.211,-0.382 0.208,-0.338C0.204,-0.294 0.203,-0.258 0.203,-0.229Z" style="fill-rule:nonzero;"/>
        </g>
        <g transform="matrix(98,0,0,98,1301.81,58.4566)">
            <path d="M0.435,0.035C0.395,0.035 0.372,0.015 0.368,-0.024C0.363,-0.058 0.359,-0.092 0.354,-0.125C0.349,-0.161 0.347,-0.195 0.347,-0.227C0.347,-0.235 0.347,-0.25 0.348,-0.27C0.35,-0.291 0.35,-0.305 0.35,-0.313C0.35,-0.316 0.35,-0.322 0.351,-0.331C0.352,-0.34 0.352,-0.348 0.352,-0.354C0.352,-0.381 0.346,-0.394 0.333,-0.394C0.305,-0.394 0.277,-0.376 0.25,-0.34C0.224,-0.304 0.203,-0.259 0.187,-0.204C0.187,-0.193 0.186,-0.178 0.183,-0.16C0.182,-0.145 0.181,-0.13 0.181,-0.116C0.181,-0.107 0.18,-0.092 0.177,-0.074C0.175,-0.055 0.174,-0.041 0.174,-0.031C0.174,-0.012 0.168,0.003 0.155,0.016C0.142,0.028 0.126,0.035 0.106,0.035C0.087,0.035 0.071,0.028 0.058,0.016C0.045,0.004 0.039,-0.012 0.039,-0.031C0.039,-0.04 0.038,-0.054 0.036,-0.073C0.034,-0.092 0.033,-0.106 0.033,-0.115C0.033,-0.147 0.035,-0.191 0.04,-0.248C0.045,-0.304 0.047,-0.349 0.047,-0.381C0.047,-0.39 0.046,-0.405 0.045,-0.425C0.044,-0.445 0.043,-0.459 0.043,-0.469C0.043,-0.488 0.05,-0.503 0.063,-0.515C0.076,-0.527 0.093,-0.533 0.112,-0.533C0.154,-0.533 0.177,-0.508 0.18,-0.457L0.181,-0.451C0.228,-0.499 0.278,-0.523 0.331,-0.523C0.393,-0.523 0.435,-0.497 0.458,-0.446C0.474,-0.411 0.482,-0.36 0.482,-0.291L0.482,-0.256C0.482,-0.241 0.481,-0.231 0.481,-0.225C0.481,-0.199 0.485,-0.167 0.492,-0.126C0.499,-0.086 0.502,-0.054 0.502,-0.029C0.502,-0.011 0.496,0.005 0.483,0.017C0.47,0.029 0.454,0.035 0.435,0.035Z" style="fill-rule:nonzero;"/>
        </g>
        <g transform="matrix(98,0,0,98,1353.11,58.4566)">
            <path d="M0.282,-0.501C0.325,-0.505 0.357,-0.507 0.375,-0.507C0.436,-0.507 0.467,-0.486 0.467,-0.445C0.467,-0.402 0.434,-0.381 0.37,-0.383C0.349,-0.384 0.318,-0.382 0.276,-0.379C0.275,-0.344 0.275,-0.3 0.275,-0.247C0.277,-0.17 0.277,-0.126 0.277,-0.116C0.277,-0.056 0.274,-0.009 0.266,0.026C0.259,0.061 0.237,0.078 0.202,0.078C0.183,0.078 0.168,0.072 0.154,0.061C0.141,0.049 0.134,0.034 0.134,0.016C0.134,0.012 0.134,0.008 0.135,0.004C0.143,-0.043 0.146,-0.086 0.146,-0.127L0.146,-0.372C0.141,-0.371 0.13,-0.37 0.114,-0.368C0.102,-0.366 0.092,-0.365 0.086,-0.365C0.066,-0.365 0.05,-0.371 0.037,-0.383C0.024,-0.394 0.017,-0.41 0.017,-0.429C0.017,-0.459 0.033,-0.479 0.065,-0.489C0.079,-0.493 0.108,-0.496 0.15,-0.497C0.151,-0.503 0.153,-0.521 0.157,-0.552C0.166,-0.625 0.186,-0.679 0.216,-0.714C0.254,-0.759 0.312,-0.781 0.39,-0.781C0.449,-0.781 0.479,-0.759 0.479,-0.717C0.479,-0.674 0.451,-0.653 0.396,-0.653C0.357,-0.653 0.328,-0.639 0.31,-0.612C0.297,-0.591 0.288,-0.559 0.283,-0.516L0.282,-0.501Z" style="fill-rule:nonzero;"/>
        </g>
        <g transform="matrix(98,0,0,98,1402.92,58.4566)">
            <path d="M0.251,0.029C0.191,0.029 0.139,0.008 0.096,-0.033C0.048,-0.078 0.023,-0.139 0.021,-0.214C0.019,-0.286 0.038,-0.35 0.08,-0.407C0.13,-0.473 0.198,-0.506 0.287,-0.506C0.352,-0.506 0.403,-0.48 0.442,-0.428C0.476,-0.381 0.494,-0.323 0.494,-0.254C0.494,-0.178 0.473,-0.114 0.433,-0.061C0.388,-0.001 0.327,0.029 0.251,0.029ZM0.28,-0.377C0.24,-0.378 0.209,-0.36 0.186,-0.323C0.166,-0.292 0.156,-0.256 0.156,-0.214C0.156,-0.175 0.167,-0.145 0.189,-0.125C0.207,-0.108 0.228,-0.1 0.251,-0.1C0.279,-0.1 0.304,-0.109 0.325,-0.128C0.348,-0.151 0.361,-0.181 0.363,-0.22C0.367,-0.325 0.34,-0.377 0.28,-0.377Z" style="fill-rule:nonzero;"/>
        </g>
        <g transform="matrix(98,0,0,98,1454.46,58.4566)">
            <path d="M0.459,-0.352C0.456,-0.302 0.433,-0.277 0.391,-0.277C0.35,-0.277 0.33,-0.299 0.33,-0.341L0.327,-0.39C0.254,-0.378 0.201,-0.341 0.17,-0.277L0.17,-0.032C0.17,-0.013 0.164,0.002 0.151,0.014C0.139,0.027 0.123,0.033 0.103,0.033C0.083,0.033 0.067,0.026 0.056,0.013C0.046,0.001 0.041,-0.014 0.041,-0.032L0.041,-0.352C0.041,-0.362 0.041,-0.377 0.042,-0.397C0.042,-0.417 0.042,-0.432 0.042,-0.442C0.042,-0.46 0.048,-0.475 0.059,-0.488C0.07,-0.5 0.085,-0.506 0.105,-0.506C0.142,-0.506 0.163,-0.487 0.17,-0.45C0.228,-0.493 0.292,-0.515 0.362,-0.515C0.427,-0.515 0.459,-0.471 0.459,-0.385C0.459,-0.368 0.459,-0.357 0.459,-0.352Z" style="fill-rule:nonzero;"/>
        </g>
        <g transform="matrix(98,0,0,98,1501.55,58.4566)">
            <path d="M0.176,-0.432C0.225,-0.489 0.272,-0.518 0.316,-0.518C0.366,-0.518 0.403,-0.499 0.426,-0.46C0.446,-0.478 0.468,-0.491 0.492,-0.5C0.516,-0.509 0.542,-0.513 0.57,-0.513C0.634,-0.513 0.677,-0.481 0.7,-0.418C0.705,-0.405 0.712,-0.361 0.721,-0.286C0.73,-0.233 0.742,-0.145 0.756,-0.022C0.758,-0.003 0.751,0.012 0.737,0.024C0.723,0.036 0.707,0.042 0.688,0.042C0.651,0.042 0.629,0.023 0.622,-0.014C0.616,-0.047 0.61,-0.095 0.604,-0.156C0.597,-0.223 0.592,-0.27 0.588,-0.298C0.579,-0.357 0.568,-0.386 0.554,-0.386C0.547,-0.386 0.53,-0.378 0.503,-0.363C0.476,-0.348 0.457,-0.335 0.444,-0.325C0.444,-0.288 0.449,-0.234 0.458,-0.165C0.467,-0.093 0.471,-0.04 0.471,-0.004C0.471,0.014 0.465,0.03 0.452,0.042C0.439,0.054 0.423,0.061 0.404,0.061C0.384,0.061 0.368,0.054 0.355,0.042C0.343,0.03 0.336,0.014 0.336,-0.004C0.336,-0.042 0.332,-0.096 0.324,-0.168C0.316,-0.24 0.313,-0.295 0.313,-0.332C0.313,-0.353 0.311,-0.369 0.307,-0.382C0.269,-0.36 0.231,-0.324 0.193,-0.273C0.192,-0.271 0.189,-0.267 0.185,-0.263C0.184,-0.197 0.183,-0.145 0.183,-0.108C0.183,-0.099 0.183,-0.087 0.182,-0.071C0.181,-0.056 0.181,-0.044 0.181,-0.037C0.181,-0.019 0.174,-0.005 0.16,0.005C0.147,0.014 0.131,0.019 0.111,0.019C0.084,0.019 0.065,0.007 0.055,-0.017C0.048,-0.033 0.045,-0.059 0.045,-0.095L0.045,-0.276C0.045,-0.293 0.044,-0.316 0.043,-0.348C0.042,-0.379 0.041,-0.403 0.041,-0.419C0.041,-0.448 0.046,-0.475 0.057,-0.498C0.069,-0.527 0.087,-0.542 0.11,-0.542C0.129,-0.542 0.145,-0.535 0.159,-0.521C0.174,-0.507 0.181,-0.491 0.181,-0.474C0.181,-0.481 0.179,-0.467 0.176,-0.432Z" style="fill-rule:nonzero;"/>
        </g>
        <g transform="matrix(98,0,0,98,1577.68,58.4566)">
            <path d="M0.471,0.027C0.456,0.027 0.432,0.012 0.4,-0.017C0.37,-0.002 0.344,0.009 0.321,0.016C0.298,0.023 0.279,0.027 0.263,0.027C0.184,0.027 0.125,0.006 0.086,-0.036C0.047,-0.078 0.027,-0.141 0.027,-0.225C0.027,-0.303 0.056,-0.37 0.114,-0.426C0.172,-0.482 0.242,-0.51 0.322,-0.51C0.353,-0.51 0.389,-0.501 0.43,-0.484C0.479,-0.463 0.503,-0.438 0.503,-0.411C0.503,-0.399 0.5,-0.389 0.492,-0.38C0.489,-0.367 0.486,-0.351 0.485,-0.332C0.483,-0.312 0.482,-0.289 0.482,-0.263C0.482,-0.202 0.486,-0.157 0.495,-0.13C0.496,-0.127 0.504,-0.111 0.518,-0.08C0.53,-0.052 0.537,-0.036 0.537,-0.033C0.537,-0.016 0.53,-0.001 0.517,0.01C0.504,0.021 0.488,0.027 0.471,0.027ZM0.35,-0.303C0.35,-0.313 0.351,-0.325 0.352,-0.339C0.354,-0.352 0.356,-0.367 0.359,-0.384C0.352,-0.387 0.347,-0.389 0.342,-0.391C0.337,-0.392 0.332,-0.393 0.329,-0.393C0.284,-0.393 0.246,-0.376 0.212,-0.341C0.179,-0.306 0.163,-0.266 0.163,-0.221C0.163,-0.177 0.17,-0.144 0.186,-0.122C0.202,-0.1 0.225,-0.089 0.256,-0.089C0.277,-0.089 0.296,-0.093 0.314,-0.099C0.332,-0.106 0.349,-0.116 0.365,-0.129C0.355,-0.206 0.35,-0.264 0.35,-0.303Z" style="fill-rule:nonzero;"/>
        </g>
        <g transform="matrix(98,0,0,98,1632.13,58.4566)">
            <path d="M0.395,-0.393L0.346,-0.395C0.333,-0.395 0.317,-0.393 0.3,-0.391C0.306,-0.259 0.309,-0.173 0.309,-0.133C0.309,-0.129 0.309,-0.121 0.309,-0.109C0.309,-0.098 0.31,-0.088 0.31,-0.081C0.31,-0.006 0.286,0.031 0.239,0.031C0.221,0.031 0.205,0.026 0.192,0.015C0.178,0.003 0.171,-0.012 0.171,-0.029C0.171,-0.041 0.171,-0.059 0.172,-0.082C0.173,-0.105 0.174,-0.123 0.174,-0.135C0.174,-0.174 0.171,-0.258 0.165,-0.388C0.145,-0.389 0.114,-0.391 0.073,-0.396C0.033,-0.4 0.012,-0.421 0.012,-0.459C0.012,-0.477 0.018,-0.493 0.031,-0.505C0.043,-0.518 0.059,-0.524 0.079,-0.524C0.091,-0.524 0.118,-0.522 0.162,-0.519C0.161,-0.529 0.16,-0.546 0.159,-0.57C0.158,-0.591 0.157,-0.607 0.157,-0.619C0.157,-0.637 0.164,-0.652 0.177,-0.664C0.191,-0.676 0.207,-0.682 0.226,-0.682C0.274,-0.682 0.298,-0.642 0.298,-0.561L0.297,-0.521C0.317,-0.523 0.333,-0.525 0.346,-0.525C0.384,-0.525 0.409,-0.522 0.423,-0.518C0.449,-0.508 0.462,-0.489 0.462,-0.458C0.462,-0.439 0.456,-0.424 0.443,-0.412C0.43,-0.399 0.414,-0.393 0.395,-0.393Z" style="fill-rule:nonzero;"/>
        </g>
        <g transform="matrix(98,0,0,98,1678.31,58.4566)">
            <path d="M0.161,-0.587C0.14,-0.587 0.122,-0.594 0.107,-0.608C0.092,-0.622 0.084,-0.639 0.084,-0.659C0.084,-0.679 0.092,-0.696 0.107,-0.71C0.122,-0.724 0.14,-0.731 0.161,-0.731C0.182,-0.731 0.2,-0.724 0.215,-0.71C0.23,-0.696 0.238,-0.679 0.238,-0.659C0.238,-0.639 0.23,-0.622 0.215,-0.608C0.2,-0.594 0.182,-0.587 0.161,-0.587ZM0.203,-0.229C0.203,-0.21 0.203,-0.181 0.204,-0.14C0.205,-0.099 0.206,-0.069 0.206,-0.05C0.206,-0.031 0.2,-0.016 0.187,-0.004C0.174,0.009 0.158,0.015 0.139,0.015C0.119,0.015 0.103,0.009 0.09,-0.004C0.078,-0.016 0.071,-0.031 0.071,-0.05C0.071,-0.069 0.071,-0.099 0.07,-0.14C0.068,-0.181 0.068,-0.21 0.068,-0.229C0.068,-0.258 0.069,-0.294 0.073,-0.338C0.076,-0.382 0.078,-0.418 0.078,-0.447C0.078,-0.466 0.084,-0.481 0.097,-0.493C0.109,-0.506 0.125,-0.512 0.145,-0.512C0.165,-0.512 0.181,-0.506 0.193,-0.493C0.206,-0.481 0.212,-0.466 0.212,-0.447C0.212,-0.418 0.211,-0.382 0.208,-0.338C0.204,-0.294 0.203,-0.258 0.203,-0.229Z" style="fill-rule:nonzero;"/>
        </g>
        <g transform="matrix(98,0,0,98,1705.78,58.4566)">
            <path d="M0.312,-0.036C0.31,-0.02 0.304,-0.007 0.292,0.004C0.28,0.014 0.266,0.02 0.249,0.02C0.216,0.02 0.192,0.003 0.179,-0.031C0.144,-0.119 0.09,-0.25 0.017,-0.425C0.013,-0.435 0.011,-0.444 0.011,-0.453C0.011,-0.47 0.018,-0.485 0.032,-0.497C0.046,-0.51 0.062,-0.516 0.081,-0.516C0.109,-0.516 0.129,-0.503 0.141,-0.477C0.159,-0.438 0.195,-0.346 0.249,-0.201C0.266,-0.237 0.29,-0.293 0.32,-0.369C0.329,-0.394 0.344,-0.429 0.363,-0.474C0.376,-0.5 0.396,-0.513 0.423,-0.513C0.442,-0.513 0.458,-0.507 0.472,-0.495C0.486,-0.483 0.493,-0.468 0.493,-0.45C0.493,-0.438 0.467,-0.374 0.414,-0.256C0.371,-0.161 0.337,-0.087 0.312,-0.036Z" style="fill-rule:nonzero;"/>
        </g>
        <g transform="matrix(98,0,0,98,1753.44,58.4566)">
            <path d="M0.296,0.022C0.218,0.022 0.154,0.004 0.105,-0.033C0.05,-0.074 0.023,-0.132 0.023,-0.207C0.023,-0.289 0.045,-0.359 0.088,-0.416C0.136,-0.479 0.201,-0.51 0.283,-0.51C0.339,-0.51 0.386,-0.501 0.424,-0.483C0.473,-0.459 0.498,-0.421 0.498,-0.371C0.498,-0.335 0.478,-0.303 0.438,-0.275C0.419,-0.263 0.383,-0.244 0.328,-0.22L0.163,-0.147C0.179,-0.13 0.198,-0.117 0.22,-0.109C0.242,-0.1 0.267,-0.096 0.296,-0.096C0.34,-0.096 0.376,-0.105 0.407,-0.123C0.434,-0.139 0.455,-0.147 0.472,-0.147C0.506,-0.147 0.522,-0.131 0.522,-0.098C0.522,-0.061 0.495,-0.03 0.441,-0.007C0.395,0.013 0.347,0.022 0.296,0.022ZM0.283,-0.392C0.252,-0.392 0.227,-0.382 0.205,-0.362C0.184,-0.342 0.166,-0.311 0.153,-0.271C0.19,-0.287 0.227,-0.303 0.263,-0.318C0.307,-0.338 0.342,-0.357 0.368,-0.374C0.346,-0.386 0.318,-0.392 0.283,-0.392Z" style="fill-rule:nonzero;"/>
        </g>
        <g transform="matrix(98,0,0,98,1808.23,58.4566)">
            <path d="M0.143,0.198C0.126,0.207 0.111,0.211 0.098,0.211C0.082,0.211 0.067,0.205 0.054,0.194C0.042,0.182 0.035,0.169 0.035,0.152C0.035,0.133 0.045,0.115 0.064,0.1C0.081,0.087 0.098,0.075 0.115,0.062C0.186,-0.008 0.222,-0.12 0.222,-0.273C0.222,-0.333 0.213,-0.394 0.195,-0.456C0.176,-0.526 0.149,-0.58 0.115,-0.617C0.099,-0.633 0.083,-0.649 0.066,-0.665C0.046,-0.687 0.035,-0.706 0.035,-0.721C0.035,-0.737 0.041,-0.752 0.054,-0.765C0.067,-0.778 0.082,-0.784 0.1,-0.784C0.112,-0.784 0.126,-0.779 0.142,-0.768C0.21,-0.722 0.265,-0.649 0.306,-0.548C0.342,-0.459 0.36,-0.371 0.36,-0.284C0.36,-0.041 0.288,0.12 0.143,0.198Z" style="fill-rule:nonzero;"/>
        </g>
    </g>
</svg>
