<?xml version="1.0" encoding="UTF-8" standalone="no"?>
<!DOCTYPE svg PUBLIC "-//W3C//DTD SVG 1.1//EN" "http://www.w3.org/Graphics/SVG/1.1/DTD/svg11.dtd">
<svg width="100%" height="100%" viewBox="0 0 623 600" version="1.1" xmlns="http://www.w3.org/2000/svg" xmlns:xlink="http://www.w3.org/1999/xlink" xml:space="preserve" xmlns:serif="http://www.serif.com/" style="fill-rule:evenodd;clip-rule:evenodd;stroke-linecap:round;stroke-linejoin:round;stroke-miterlimit:1.5;">
    <g id="Artboard1" transform="matrix(1,0,0,1,-78.5653,0)">
        <rect x="78.565" y="0" width="622.201" height="600" style="fill:none;"/>
        <g id="do-I-know" serif:id="do I know">
            <g transform="matrix(1.2603,0,0,1.0087,-144.667,137.943)">
                <rect x="370.267" y="33.545" width="127.319" height="74.714" style="fill:none;stroke:black;stroke-width:1.75px;"/>
            </g>
            <g transform="matrix(1,0,0,1,1.86849,15.0115)">
                <g transform="matrix(24,0,0,24,343.761,190.022)">
                    <path d="M0.294,-0.697C0.37,-0.697 0.436,-0.683 0.492,-0.655C0.547,-0.626 0.59,-0.586 0.62,-0.533C0.649,-0.48 0.664,-0.418 0.664,-0.347C0.664,-0.276 0.649,-0.214 0.62,-0.162C0.59,-0.109 0.547,-0.069 0.492,-0.042C0.436,-0.014 0.37,-0 0.294,-0L0.077,-0L0.077,-0.697L0.294,-0.697ZM0.294,-0.075C0.384,-0.075 0.453,-0.099 0.5,-0.147C0.547,-0.194 0.571,-0.261 0.571,-0.347C0.571,-0.434 0.547,-0.501 0.5,-0.55C0.452,-0.599 0.383,-0.623 0.294,-0.623L0.168,-0.623L0.168,-0.075L0.294,-0.075Z" style="fill-rule:nonzero;"/>
                </g>
                <g transform="matrix(24,0,0,24,360.729,190.022)">
                    <path d="M0.316,0.009C0.265,0.009 0.218,-0.003 0.177,-0.026C0.135,-0.049 0.102,-0.083 0.079,-0.126C0.055,-0.169 0.043,-0.218 0.043,-0.275C0.043,-0.331 0.055,-0.381 0.08,-0.424C0.104,-0.467 0.137,-0.5 0.179,-0.523C0.221,-0.546 0.268,-0.557 0.32,-0.557C0.372,-0.557 0.419,-0.546 0.461,-0.523C0.503,-0.5 0.536,-0.467 0.561,-0.424C0.585,-0.381 0.597,-0.332 0.597,-0.275C0.597,-0.218 0.585,-0.169 0.56,-0.126C0.535,-0.083 0.501,-0.049 0.458,-0.026C0.415,-0.003 0.368,0.009 0.316,0.009ZM0.316,-0.071C0.349,-0.071 0.379,-0.079 0.408,-0.094C0.437,-0.109 0.46,-0.132 0.477,-0.163C0.495,-0.194 0.504,-0.231 0.504,-0.275C0.504,-0.319 0.495,-0.356 0.478,-0.387C0.461,-0.418 0.438,-0.441 0.41,-0.456C0.382,-0.47 0.352,-0.478 0.319,-0.478C0.286,-0.478 0.255,-0.47 0.228,-0.456C0.2,-0.441 0.178,-0.418 0.161,-0.387C0.144,-0.356 0.136,-0.319 0.136,-0.275C0.136,-0.23 0.144,-0.193 0.161,-0.162C0.177,-0.131 0.199,-0.109 0.226,-0.094C0.253,-0.079 0.283,-0.071 0.316,-0.071Z" style="fill-rule:nonzero;"/>
                </g>
                <g transform="matrix(24,0,0,24,382.497,190.022)">
                    <rect x="0.077" y="-0.697" width="0.091" height="0.697" style="fill-rule:nonzero;"/>
                </g>
                <g transform="matrix(24,0,0,24,394.809,190.022)">
                    <path d="M0.383,-0L0.168,-0.242L0.168,-0L0.077,-0L0.077,-0.74L0.168,-0.74L0.168,-0.305L0.379,-0.548L0.506,-0.548L0.248,-0.275L0.507,-0L0.383,-0Z" style="fill-rule:nonzero;"/>
                </g>
                <g transform="matrix(24,0,0,24,407.169,190.022)">
                    <path d="M0.344,-0.558C0.411,-0.558 0.465,-0.538 0.506,-0.498C0.547,-0.457 0.568,-0.399 0.568,-0.323L0.568,-0L0.478,-0L0.478,-0.31C0.478,-0.365 0.464,-0.406 0.437,-0.436C0.41,-0.465 0.372,-0.479 0.325,-0.479C0.277,-0.479 0.239,-0.464 0.211,-0.434C0.182,-0.404 0.168,-0.36 0.168,-0.303L0.168,-0L0.077,-0L0.077,-0.548L0.168,-0.548L0.168,-0.47C0.186,-0.498 0.211,-0.52 0.242,-0.535C0.273,-0.55 0.307,-0.558 0.344,-0.558Z" style="fill-rule:nonzero;"/>
                </g>
                <g transform="matrix(24,0,0,24,422.529,190.022)">
                    <path d="M0.316,0.009C0.265,0.009 0.218,-0.003 0.177,-0.026C0.135,-0.049 0.102,-0.083 0.079,-0.126C0.055,-0.169 0.043,-0.218 0.043,-0.275C0.043,-0.331 0.055,-0.381 0.08,-0.424C0.104,-0.467 0.137,-0.5 0.179,-0.523C0.221,-0.546 0.268,-0.557 0.32,-0.557C0.372,-0.557 0.419,-0.546 0.461,-0.523C0.503,-0.5 0.536,-0.467 0.561,-0.424C0.585,-0.381 0.597,-0.332 0.597,-0.275C0.597,-0.218 0.585,-0.169 0.56,-0.126C0.535,-0.083 0.501,-0.049 0.458,-0.026C0.415,-0.003 0.368,0.009 0.316,0.009ZM0.316,-0.071C0.349,-0.071 0.379,-0.079 0.408,-0.094C0.437,-0.109 0.46,-0.132 0.477,-0.163C0.495,-0.194 0.504,-0.231 0.504,-0.275C0.504,-0.319 0.495,-0.356 0.478,-0.387C0.461,-0.418 0.438,-0.441 0.41,-0.456C0.382,-0.47 0.352,-0.478 0.319,-0.478C0.286,-0.478 0.255,-0.47 0.228,-0.456C0.2,-0.441 0.178,-0.418 0.161,-0.387C0.144,-0.356 0.136,-0.319 0.136,-0.275C0.136,-0.23 0.144,-0.193 0.161,-0.162C0.177,-0.131 0.199,-0.109 0.226,-0.094C0.253,-0.079 0.283,-0.071 0.316,-0.071Z" style="fill-rule:nonzero;"/>
                </g>
                <g transform="matrix(24,0,0,24,437.889,190.022)">
                    <path d="M0.807,-0.548L0.636,-0L0.542,-0L0.41,-0.435L0.278,-0L0.184,-0L0.012,-0.548L0.105,-0.548L0.231,-0.088L0.367,-0.548L0.46,-0.548L0.593,-0.087L0.717,-0.548L0.807,-0.548Z" style="fill-rule:nonzero;"/>
                </g>
                <g transform="matrix(24,0,0,24,327.873,216.422)">
                    <path d="M0.188,-0.473L0.188,-0.15C0.188,-0.123 0.194,-0.105 0.205,-0.094C0.216,-0.083 0.236,-0.077 0.264,-0.077L0.331,-0.077L0.331,-0L0.249,-0C0.198,-0 0.16,-0.012 0.135,-0.035C0.11,-0.058 0.097,-0.097 0.097,-0.15L0.097,-0.473L0.026,-0.473L0.026,-0.548L0.097,-0.548L0.097,-0.686L0.188,-0.686L0.188,-0.548L0.331,-0.548L0.331,-0.473L0.188,-0.473Z" style="fill-rule:nonzero;"/>
                </g>
                <g transform="matrix(24,0,0,24,336.609,216.422)">
                    <path d="M0.349,-0.558C0.39,-0.558 0.428,-0.549 0.461,-0.532C0.494,-0.514 0.521,-0.487 0.54,-0.452C0.559,-0.417 0.568,-0.374 0.568,-0.323L0.568,-0L0.478,-0L0.478,-0.31C0.478,-0.365 0.464,-0.406 0.437,-0.436C0.41,-0.465 0.372,-0.479 0.325,-0.479C0.277,-0.479 0.239,-0.464 0.211,-0.434C0.182,-0.404 0.168,-0.36 0.168,-0.303L0.168,-0L0.077,-0L0.077,-0.74L0.168,-0.74L0.168,-0.47C0.186,-0.498 0.211,-0.52 0.243,-0.535C0.274,-0.55 0.31,-0.558 0.349,-0.558Z" style="fill-rule:nonzero;"/>
                </g>
                <g transform="matrix(24,0,0,24,351.969,216.422)">
                    <path d="M0.577,-0.295C0.577,-0.278 0.576,-0.259 0.574,-0.24L0.136,-0.24C0.139,-0.186 0.158,-0.144 0.192,-0.114C0.225,-0.083 0.266,-0.068 0.314,-0.068C0.353,-0.068 0.386,-0.077 0.412,-0.096C0.439,-0.114 0.457,-0.138 0.468,-0.169L0.566,-0.169C0.551,-0.116 0.522,-0.074 0.478,-0.041C0.434,-0.008 0.379,0.009 0.314,0.009C0.262,0.009 0.216,-0.003 0.174,-0.026C0.134,-0.049 0.101,-0.083 0.078,-0.126C0.055,-0.169 0.043,-0.218 0.043,-0.275C0.043,-0.332 0.054,-0.381 0.077,-0.424C0.1,-0.467 0.132,-0.5 0.172,-0.523C0.214,-0.546 0.261,-0.557 0.314,-0.557C0.366,-0.557 0.412,-0.546 0.452,-0.523C0.492,-0.5 0.523,-0.469 0.545,-0.43C0.566,-0.39 0.577,-0.345 0.577,-0.295ZM0.483,-0.314C0.483,-0.349 0.475,-0.379 0.46,-0.404C0.445,-0.429 0.424,-0.448 0.398,-0.461C0.371,-0.473 0.342,-0.48 0.31,-0.48C0.264,-0.48 0.225,-0.465 0.193,-0.436C0.16,-0.407 0.142,-0.366 0.137,-0.314L0.483,-0.314Z" style="fill-rule:nonzero;"/>
                </g>
                <g transform="matrix(24,0,0,24,373.257,216.422)">
                    <path d="M0.043,-0.276C0.043,-0.332 0.054,-0.381 0.077,-0.424C0.1,-0.466 0.131,-0.499 0.171,-0.522C0.21,-0.545 0.254,-0.557 0.303,-0.557C0.351,-0.557 0.393,-0.547 0.428,-0.526C0.463,-0.505 0.49,-0.479 0.507,-0.448L0.507,-0.548L0.599,-0.548L0.599,-0L0.507,-0L0.507,-0.102C0.489,-0.07 0.462,-0.043 0.427,-0.023C0.391,-0.002 0.349,0.009 0.302,0.009C0.253,0.009 0.209,-0.003 0.17,-0.027C0.131,-0.051 0.1,-0.085 0.077,-0.128C0.054,-0.171 0.043,-0.221 0.043,-0.276ZM0.507,-0.275C0.507,-0.316 0.499,-0.352 0.482,-0.383C0.465,-0.414 0.443,-0.437 0.414,-0.454C0.386,-0.47 0.355,-0.478 0.321,-0.478C0.287,-0.478 0.256,-0.47 0.228,-0.454C0.2,-0.438 0.178,-0.415 0.161,-0.384C0.144,-0.353 0.136,-0.317 0.136,-0.276C0.136,-0.234 0.144,-0.198 0.161,-0.167C0.178,-0.136 0.2,-0.112 0.228,-0.096C0.256,-0.079 0.287,-0.071 0.321,-0.071C0.355,-0.071 0.386,-0.079 0.414,-0.096C0.443,-0.112 0.465,-0.136 0.482,-0.167C0.499,-0.198 0.507,-0.234 0.507,-0.275Z" style="fill-rule:nonzero;"/>
                </g>
                <g transform="matrix(24,0,0,24,389.481,216.422)">
                    <path d="M0.344,-0.558C0.411,-0.558 0.465,-0.538 0.506,-0.498C0.547,-0.457 0.568,-0.399 0.568,-0.323L0.568,-0L0.478,-0L0.478,-0.31C0.478,-0.365 0.464,-0.406 0.437,-0.436C0.41,-0.465 0.372,-0.479 0.325,-0.479C0.277,-0.479 0.239,-0.464 0.211,-0.434C0.182,-0.404 0.168,-0.36 0.168,-0.303L0.168,-0L0.077,-0L0.077,-0.548L0.168,-0.548L0.168,-0.47C0.186,-0.498 0.211,-0.52 0.242,-0.535C0.273,-0.55 0.307,-0.558 0.344,-0.558Z" style="fill-rule:nonzero;"/>
                </g>
                <g transform="matrix(24,0,0,24,404.841,216.422)">
                    <path d="M0.271,0.009C0.229,0.009 0.191,0.002 0.158,-0.013C0.125,-0.027 0.098,-0.047 0.079,-0.073C0.06,-0.098 0.049,-0.128 0.047,-0.161L0.141,-0.161C0.144,-0.134 0.157,-0.111 0.18,-0.094C0.203,-0.077 0.233,-0.068 0.27,-0.068C0.305,-0.068 0.332,-0.076 0.352,-0.091C0.372,-0.106 0.382,-0.126 0.382,-0.149C0.382,-0.173 0.371,-0.191 0.35,-0.203C0.329,-0.214 0.296,-0.226 0.251,-0.237C0.21,-0.248 0.177,-0.259 0.152,-0.27C0.126,-0.281 0.104,-0.297 0.086,-0.319C0.067,-0.34 0.058,-0.369 0.058,-0.404C0.058,-0.432 0.066,-0.458 0.083,-0.481C0.1,-0.504 0.123,-0.523 0.154,-0.537C0.185,-0.55 0.22,-0.557 0.259,-0.557C0.32,-0.557 0.369,-0.542 0.406,-0.511C0.443,-0.48 0.463,-0.438 0.466,-0.385L0.375,-0.385C0.373,-0.414 0.362,-0.437 0.341,-0.454C0.32,-0.471 0.291,-0.48 0.256,-0.48C0.223,-0.48 0.197,-0.473 0.178,-0.459C0.159,-0.445 0.149,-0.427 0.149,-0.404C0.149,-0.386 0.155,-0.371 0.167,-0.36C0.178,-0.348 0.193,-0.339 0.211,-0.332C0.228,-0.325 0.253,-0.317 0.284,-0.308C0.323,-0.297 0.355,-0.287 0.38,-0.277C0.405,-0.266 0.426,-0.251 0.444,-0.23C0.461,-0.209 0.47,-0.182 0.471,-0.149C0.471,-0.119 0.463,-0.092 0.446,-0.068C0.429,-0.044 0.406,-0.025 0.376,-0.012C0.345,0.002 0.31,0.009 0.271,0.009Z" style="fill-rule:nonzero;"/>
                </g>
                <g transform="matrix(24,0,0,24,417.369,216.422)">
                    <path d="M0.807,-0.548L0.636,-0L0.542,-0L0.41,-0.435L0.278,-0L0.184,-0L0.012,-0.548L0.105,-0.548L0.231,-0.088L0.367,-0.548L0.46,-0.548L0.593,-0.087L0.717,-0.548L0.807,-0.548Z" style="fill-rule:nonzero;"/>
                </g>
                <g transform="matrix(24,0,0,24,437.049,216.422)">
                    <path d="M0.577,-0.295C0.577,-0.278 0.576,-0.259 0.574,-0.24L0.136,-0.24C0.139,-0.186 0.158,-0.144 0.192,-0.114C0.225,-0.083 0.266,-0.068 0.314,-0.068C0.353,-0.068 0.386,-0.077 0.412,-0.096C0.439,-0.114 0.457,-0.138 0.468,-0.169L0.566,-0.169C0.551,-0.116 0.522,-0.074 0.478,-0.041C0.434,-0.008 0.379,0.009 0.314,0.009C0.262,0.009 0.216,-0.003 0.174,-0.026C0.134,-0.049 0.101,-0.083 0.078,-0.126C0.055,-0.169 0.043,-0.218 0.043,-0.275C0.043,-0.332 0.054,-0.381 0.077,-0.424C0.1,-0.467 0.132,-0.5 0.172,-0.523C0.214,-0.546 0.261,-0.557 0.314,-0.557C0.366,-0.557 0.412,-0.546 0.452,-0.523C0.492,-0.5 0.523,-0.469 0.545,-0.43C0.566,-0.39 0.577,-0.345 0.577,-0.295ZM0.483,-0.314C0.483,-0.349 0.475,-0.379 0.46,-0.404C0.445,-0.429 0.424,-0.448 0.398,-0.461C0.371,-0.473 0.342,-0.48 0.31,-0.48C0.264,-0.48 0.225,-0.465 0.193,-0.436C0.16,-0.407 0.142,-0.366 0.137,-0.314L0.483,-0.314Z" style="fill-rule:nonzero;"/>
                </g>
                <g transform="matrix(24,0,0,24,451.929,216.422)">
                    <path d="M0.168,-0.459C0.184,-0.49 0.207,-0.515 0.236,-0.532C0.266,-0.549 0.302,-0.558 0.345,-0.558L0.345,-0.464L0.321,-0.464C0.219,-0.464 0.168,-0.409 0.168,-0.298L0.168,-0L0.077,-0L0.077,-0.548L0.168,-0.548L0.168,-0.459Z" style="fill-rule:nonzero;"/>
                </g>
                <g transform="matrix(24,0,0,24,460.881,216.422)">
                    <path d="M0.255,-0.706C0.321,-0.706 0.374,-0.687 0.415,-0.65C0.456,-0.613 0.476,-0.563 0.476,-0.5C0.476,-0.43 0.454,-0.378 0.411,-0.344C0.368,-0.311 0.309,-0.294 0.235,-0.294L0.232,-0.199L0.153,-0.199L0.149,-0.357L0.178,-0.357C0.244,-0.357 0.296,-0.367 0.333,-0.387C0.37,-0.407 0.389,-0.445 0.389,-0.5C0.389,-0.54 0.377,-0.572 0.353,-0.595C0.329,-0.618 0.297,-0.63 0.256,-0.63C0.215,-0.63 0.182,-0.619 0.159,-0.597C0.135,-0.574 0.123,-0.544 0.123,-0.505L0.037,-0.505C0.037,-0.545 0.046,-0.58 0.064,-0.611C0.082,-0.641 0.108,-0.664 0.141,-0.681C0.173,-0.698 0.212,-0.706 0.255,-0.706ZM0.192,0.006C0.175,0.006 0.16,-0 0.148,-0.012C0.136,-0.024 0.13,-0.039 0.13,-0.056C0.13,-0.073 0.136,-0.088 0.148,-0.1C0.16,-0.112 0.175,-0.118 0.192,-0.118C0.209,-0.118 0.223,-0.112 0.234,-0.1C0.246,-0.088 0.252,-0.073 0.252,-0.056C0.252,-0.039 0.246,-0.024 0.234,-0.012C0.223,-0 0.209,0.006 0.192,0.006Z" style="fill-rule:nonzero;"/>
                </g>
            </g>
        </g>
        <g id="feel">
            <g transform="matrix(1.41954,0,0,1.30093,-426.453,247.936)">
                <rect x="370.267" y="33.545" width="127.319" height="74.714" style="fill:none;stroke:black;stroke-width:1.47px;"/>
            </g>
            <g transform="matrix(1,0,0,1,2.20954,-3.74595)">
                <g transform="matrix(24,0,0,24,135.737,322.656)">
                    <path d="M0.614,-0.697L0.614,-0L0.523,-0L0.523,-0.316L0.168,-0.316L0.168,-0L0.077,-0L0.077,-0.697L0.168,-0.697L0.168,-0.391L0.523,-0.391L0.523,-0.697L0.614,-0.697Z" style="fill-rule:nonzero;"/>
                </g>
                <g transform="matrix(24,0,0,24,152.345,322.656)">
                    <path d="M0.316,0.009C0.265,0.009 0.218,-0.003 0.177,-0.026C0.135,-0.049 0.102,-0.083 0.079,-0.126C0.055,-0.169 0.043,-0.218 0.043,-0.275C0.043,-0.331 0.055,-0.381 0.08,-0.424C0.104,-0.467 0.137,-0.5 0.179,-0.523C0.221,-0.546 0.268,-0.557 0.32,-0.557C0.372,-0.557 0.419,-0.546 0.461,-0.523C0.503,-0.5 0.536,-0.467 0.561,-0.424C0.585,-0.381 0.597,-0.332 0.597,-0.275C0.597,-0.218 0.585,-0.169 0.56,-0.126C0.535,-0.083 0.501,-0.049 0.458,-0.026C0.415,-0.003 0.368,0.009 0.316,0.009ZM0.316,-0.071C0.349,-0.071 0.379,-0.079 0.408,-0.094C0.437,-0.109 0.46,-0.132 0.477,-0.163C0.495,-0.194 0.504,-0.231 0.504,-0.275C0.504,-0.319 0.495,-0.356 0.478,-0.387C0.461,-0.418 0.438,-0.441 0.41,-0.456C0.382,-0.47 0.352,-0.478 0.319,-0.478C0.286,-0.478 0.255,-0.47 0.228,-0.456C0.2,-0.441 0.178,-0.418 0.161,-0.387C0.144,-0.356 0.136,-0.319 0.136,-0.275C0.136,-0.23 0.144,-0.193 0.161,-0.162C0.177,-0.131 0.199,-0.109 0.226,-0.094C0.253,-0.079 0.283,-0.071 0.316,-0.071Z" style="fill-rule:nonzero;"/>
                </g>
                <g transform="matrix(24,0,0,24,167.705,322.656)">
                    <path d="M0.807,-0.548L0.636,-0L0.542,-0L0.41,-0.435L0.278,-0L0.184,-0L0.012,-0.548L0.105,-0.548L0.231,-0.088L0.367,-0.548L0.46,-0.548L0.593,-0.087L0.717,-0.548L0.807,-0.548Z" style="fill-rule:nonzero;"/>
                </g>
                <g transform="matrix(24,0,0,24,193.793,322.656)">
                    <path d="M0.043,-0.276C0.043,-0.332 0.054,-0.381 0.077,-0.424C0.1,-0.466 0.131,-0.499 0.171,-0.522C0.21,-0.545 0.255,-0.557 0.304,-0.557C0.347,-0.557 0.386,-0.547 0.423,-0.528C0.46,-0.508 0.488,-0.482 0.507,-0.45L0.507,-0.74L0.599,-0.74L0.599,-0L0.507,-0L0.507,-0.103C0.489,-0.07 0.462,-0.043 0.427,-0.023C0.392,-0.002 0.35,0.009 0.303,0.009C0.254,0.009 0.21,-0.003 0.171,-0.027C0.131,-0.051 0.1,-0.085 0.077,-0.128C0.054,-0.171 0.043,-0.221 0.043,-0.276ZM0.507,-0.275C0.507,-0.316 0.499,-0.352 0.482,-0.383C0.465,-0.414 0.443,-0.437 0.414,-0.454C0.386,-0.47 0.355,-0.478 0.321,-0.478C0.287,-0.478 0.256,-0.47 0.228,-0.454C0.2,-0.438 0.178,-0.415 0.161,-0.384C0.144,-0.353 0.136,-0.317 0.136,-0.276C0.136,-0.234 0.144,-0.198 0.161,-0.167C0.178,-0.136 0.2,-0.112 0.228,-0.096C0.256,-0.079 0.287,-0.071 0.321,-0.071C0.355,-0.071 0.386,-0.079 0.414,-0.096C0.443,-0.112 0.465,-0.136 0.482,-0.167C0.499,-0.198 0.507,-0.234 0.507,-0.275Z" style="fill-rule:nonzero;"/>
                </g>
                <g transform="matrix(24,0,0,24,210.017,322.656)">
                    <path d="M0.316,0.009C0.265,0.009 0.218,-0.003 0.177,-0.026C0.135,-0.049 0.102,-0.083 0.079,-0.126C0.055,-0.169 0.043,-0.218 0.043,-0.275C0.043,-0.331 0.055,-0.381 0.08,-0.424C0.104,-0.467 0.137,-0.5 0.179,-0.523C0.221,-0.546 0.268,-0.557 0.32,-0.557C0.372,-0.557 0.419,-0.546 0.461,-0.523C0.503,-0.5 0.536,-0.467 0.561,-0.424C0.585,-0.381 0.597,-0.332 0.597,-0.275C0.597,-0.218 0.585,-0.169 0.56,-0.126C0.535,-0.083 0.501,-0.049 0.458,-0.026C0.415,-0.003 0.368,0.009 0.316,0.009ZM0.316,-0.071C0.349,-0.071 0.379,-0.079 0.408,-0.094C0.437,-0.109 0.46,-0.132 0.477,-0.163C0.495,-0.194 0.504,-0.231 0.504,-0.275C0.504,-0.319 0.495,-0.356 0.478,-0.387C0.461,-0.418 0.438,-0.441 0.41,-0.456C0.382,-0.47 0.352,-0.478 0.319,-0.478C0.286,-0.478 0.255,-0.47 0.228,-0.456C0.2,-0.441 0.178,-0.418 0.161,-0.387C0.144,-0.356 0.136,-0.319 0.136,-0.275C0.136,-0.23 0.144,-0.193 0.161,-0.162C0.177,-0.131 0.199,-0.109 0.226,-0.094C0.253,-0.079 0.283,-0.071 0.316,-0.071Z" style="fill-rule:nonzero;"/>
                </g>
                <g transform="matrix(24,0,0,24,231.785,322.656)">
                    <rect x="0.077" y="-0.697" width="0.091" height="0.697" style="fill-rule:nonzero;"/>
                </g>
                <g transform="matrix(24,0,0,24,125.777,349.056)">
                    <path d="M0.3,-0.473L0.185,-0.473L0.185,-0L0.094,-0L0.094,-0.473L0.023,-0.473L0.023,-0.548L0.094,-0.548L0.094,-0.587C0.094,-0.648 0.11,-0.693 0.141,-0.722C0.173,-0.75 0.224,-0.764 0.294,-0.764L0.294,-0.688C0.254,-0.688 0.226,-0.68 0.21,-0.665C0.193,-0.649 0.185,-0.623 0.185,-0.587L0.185,-0.548L0.3,-0.548L0.3,-0.473Z" style="fill-rule:nonzero;"/>
                </g>
                <g transform="matrix(24,0,0,24,133.673,349.056)">
                    <path d="M0.577,-0.295C0.577,-0.278 0.576,-0.259 0.574,-0.24L0.136,-0.24C0.139,-0.186 0.158,-0.144 0.192,-0.114C0.225,-0.083 0.266,-0.068 0.314,-0.068C0.353,-0.068 0.386,-0.077 0.412,-0.096C0.439,-0.114 0.457,-0.138 0.468,-0.169L0.566,-0.169C0.551,-0.116 0.522,-0.074 0.478,-0.041C0.434,-0.008 0.379,0.009 0.314,0.009C0.262,0.009 0.216,-0.003 0.174,-0.026C0.134,-0.049 0.101,-0.083 0.078,-0.126C0.055,-0.169 0.043,-0.218 0.043,-0.275C0.043,-0.332 0.054,-0.381 0.077,-0.424C0.1,-0.467 0.132,-0.5 0.172,-0.523C0.214,-0.546 0.261,-0.557 0.314,-0.557C0.366,-0.557 0.412,-0.546 0.452,-0.523C0.492,-0.5 0.523,-0.469 0.545,-0.43C0.566,-0.39 0.577,-0.345 0.577,-0.295ZM0.483,-0.314C0.483,-0.349 0.475,-0.379 0.46,-0.404C0.445,-0.429 0.424,-0.448 0.398,-0.461C0.371,-0.473 0.342,-0.48 0.31,-0.48C0.264,-0.48 0.225,-0.465 0.193,-0.436C0.16,-0.407 0.142,-0.366 0.137,-0.314L0.483,-0.314Z" style="fill-rule:nonzero;"/>
                </g>
                <g transform="matrix(24,0,0,24,148.553,349.056)">
                    <path d="M0.577,-0.295C0.577,-0.278 0.576,-0.259 0.574,-0.24L0.136,-0.24C0.139,-0.186 0.158,-0.144 0.192,-0.114C0.225,-0.083 0.266,-0.068 0.314,-0.068C0.353,-0.068 0.386,-0.077 0.412,-0.096C0.439,-0.114 0.457,-0.138 0.468,-0.169L0.566,-0.169C0.551,-0.116 0.522,-0.074 0.478,-0.041C0.434,-0.008 0.379,0.009 0.314,0.009C0.262,0.009 0.216,-0.003 0.174,-0.026C0.134,-0.049 0.101,-0.083 0.078,-0.126C0.055,-0.169 0.043,-0.218 0.043,-0.275C0.043,-0.332 0.054,-0.381 0.077,-0.424C0.1,-0.467 0.132,-0.5 0.172,-0.523C0.214,-0.546 0.261,-0.557 0.314,-0.557C0.366,-0.557 0.412,-0.546 0.452,-0.523C0.492,-0.5 0.523,-0.469 0.545,-0.43C0.566,-0.39 0.577,-0.345 0.577,-0.295ZM0.483,-0.314C0.483,-0.349 0.475,-0.379 0.46,-0.404C0.445,-0.429 0.424,-0.448 0.398,-0.461C0.371,-0.473 0.342,-0.48 0.31,-0.48C0.264,-0.48 0.225,-0.465 0.193,-0.436C0.16,-0.407 0.142,-0.366 0.137,-0.314L0.483,-0.314Z" style="fill-rule:nonzero;"/>
                </g>
                <g transform="matrix(24,0,0,24,163.433,349.056)">
                    <rect x="0.077" y="-0.74" width="0.091" height="0.74" style="fill-rule:nonzero;"/>
                </g>
                <g transform="matrix(24,0,0,24,175.745,349.056)">
                    <path d="M0.043,-0.276C0.043,-0.332 0.054,-0.381 0.077,-0.424C0.1,-0.466 0.131,-0.499 0.171,-0.522C0.21,-0.545 0.254,-0.557 0.303,-0.557C0.351,-0.557 0.393,-0.547 0.428,-0.526C0.463,-0.505 0.49,-0.479 0.507,-0.448L0.507,-0.548L0.599,-0.548L0.599,-0L0.507,-0L0.507,-0.102C0.489,-0.07 0.462,-0.043 0.427,-0.023C0.391,-0.002 0.349,0.009 0.302,0.009C0.253,0.009 0.209,-0.003 0.17,-0.027C0.131,-0.051 0.1,-0.085 0.077,-0.128C0.054,-0.171 0.043,-0.221 0.043,-0.276ZM0.507,-0.275C0.507,-0.316 0.499,-0.352 0.482,-0.383C0.465,-0.414 0.443,-0.437 0.414,-0.454C0.386,-0.47 0.355,-0.478 0.321,-0.478C0.287,-0.478 0.256,-0.47 0.228,-0.454C0.2,-0.438 0.178,-0.415 0.161,-0.384C0.144,-0.353 0.136,-0.317 0.136,-0.276C0.136,-0.234 0.144,-0.198 0.161,-0.167C0.178,-0.136 0.2,-0.112 0.228,-0.096C0.256,-0.079 0.287,-0.071 0.321,-0.071C0.355,-0.071 0.386,-0.079 0.414,-0.096C0.443,-0.112 0.465,-0.136 0.482,-0.167C0.499,-0.198 0.507,-0.234 0.507,-0.275Z" style="fill-rule:nonzero;"/>
                </g>
                <g transform="matrix(24,0,0,24,191.969,349.056)">
                    <path d="M0.168,-0.446C0.187,-0.479 0.214,-0.505 0.25,-0.526C0.286,-0.547 0.327,-0.557 0.373,-0.557C0.422,-0.557 0.467,-0.545 0.506,-0.522C0.545,-0.499 0.576,-0.466 0.599,-0.424C0.622,-0.381 0.633,-0.332 0.633,-0.276C0.633,-0.221 0.622,-0.171 0.599,-0.128C0.576,-0.085 0.545,-0.051 0.505,-0.027C0.466,-0.003 0.422,0.009 0.373,0.009C0.326,0.009 0.284,-0.001 0.249,-0.022C0.213,-0.043 0.186,-0.069 0.168,-0.101L0.168,-0L0.077,-0L0.077,-0.74L0.168,-0.74L0.168,-0.446ZM0.54,-0.276C0.54,-0.317 0.532,-0.353 0.515,-0.384C0.498,-0.415 0.476,-0.438 0.448,-0.454C0.419,-0.47 0.388,-0.478 0.354,-0.478C0.321,-0.478 0.29,-0.47 0.262,-0.454C0.233,-0.437 0.211,-0.413 0.194,-0.383C0.177,-0.352 0.168,-0.316 0.168,-0.275C0.168,-0.234 0.177,-0.198 0.194,-0.167C0.211,-0.136 0.233,-0.112 0.262,-0.096C0.29,-0.079 0.321,-0.071 0.354,-0.071C0.388,-0.071 0.419,-0.079 0.448,-0.096C0.476,-0.112 0.498,-0.136 0.515,-0.167C0.532,-0.198 0.54,-0.234 0.54,-0.276Z" style="fill-rule:nonzero;"/>
                </g>
                <g transform="matrix(24,0,0,24,208.193,349.056)">
                    <path d="M0.316,0.009C0.265,0.009 0.218,-0.003 0.177,-0.026C0.135,-0.049 0.102,-0.083 0.079,-0.126C0.055,-0.169 0.043,-0.218 0.043,-0.275C0.043,-0.331 0.055,-0.381 0.08,-0.424C0.104,-0.467 0.137,-0.5 0.179,-0.523C0.221,-0.546 0.268,-0.557 0.32,-0.557C0.372,-0.557 0.419,-0.546 0.461,-0.523C0.503,-0.5 0.536,-0.467 0.561,-0.424C0.585,-0.381 0.597,-0.332 0.597,-0.275C0.597,-0.218 0.585,-0.169 0.56,-0.126C0.535,-0.083 0.501,-0.049 0.458,-0.026C0.415,-0.003 0.368,0.009 0.316,0.009ZM0.316,-0.071C0.349,-0.071 0.379,-0.079 0.408,-0.094C0.437,-0.109 0.46,-0.132 0.477,-0.163C0.495,-0.194 0.504,-0.231 0.504,-0.275C0.504,-0.319 0.495,-0.356 0.478,-0.387C0.461,-0.418 0.438,-0.441 0.41,-0.456C0.382,-0.47 0.352,-0.478 0.319,-0.478C0.286,-0.478 0.255,-0.47 0.228,-0.456C0.2,-0.441 0.178,-0.418 0.161,-0.387C0.144,-0.356 0.136,-0.319 0.136,-0.275C0.136,-0.23 0.144,-0.193 0.161,-0.162C0.177,-0.131 0.199,-0.109 0.226,-0.094C0.253,-0.079 0.283,-0.071 0.316,-0.071Z" style="fill-rule:nonzero;"/>
                </g>
                <g transform="matrix(24,0,0,24,223.553,349.056)">
                    <path d="M0.563,-0.548L0.563,-0L0.472,-0L0.472,-0.081C0.455,-0.053 0.431,-0.031 0.4,-0.016C0.369,0 0.334,0.008 0.297,0.008C0.254,0.008 0.216,-0.001 0.182,-0.019C0.148,-0.036 0.121,-0.063 0.102,-0.098C0.082,-0.133 0.072,-0.176 0.072,-0.227L0.072,-0.548L0.162,-0.548L0.162,-0.239C0.162,-0.185 0.176,-0.143 0.203,-0.115C0.23,-0.086 0.268,-0.071 0.315,-0.071C0.364,-0.071 0.402,-0.086 0.43,-0.116C0.458,-0.146 0.472,-0.19 0.472,-0.247L0.472,-0.548L0.563,-0.548Z" style="fill-rule:nonzero;"/>
                </g>
                <g transform="matrix(24,0,0,24,238.913,349.056)">
                    <path d="M0.188,-0.473L0.188,-0.15C0.188,-0.123 0.194,-0.105 0.205,-0.094C0.216,-0.083 0.236,-0.077 0.264,-0.077L0.331,-0.077L0.331,-0L0.249,-0C0.198,-0 0.16,-0.012 0.135,-0.035C0.11,-0.058 0.097,-0.097 0.097,-0.15L0.097,-0.473L0.026,-0.473L0.026,-0.548L0.097,-0.548L0.097,-0.686L0.188,-0.686L0.188,-0.548L0.331,-0.548L0.331,-0.473L0.188,-0.473Z" style="fill-rule:nonzero;"/>
                </g>
                <g transform="matrix(24,0,0,24,107.369,375.456)">
                    <path d="M0.344,-0.558C0.411,-0.558 0.465,-0.538 0.506,-0.498C0.547,-0.457 0.568,-0.399 0.568,-0.323L0.568,-0L0.478,-0L0.478,-0.31C0.478,-0.365 0.464,-0.406 0.437,-0.436C0.41,-0.465 0.372,-0.479 0.325,-0.479C0.277,-0.479 0.239,-0.464 0.211,-0.434C0.182,-0.404 0.168,-0.36 0.168,-0.303L0.168,-0L0.077,-0L0.077,-0.548L0.168,-0.548L0.168,-0.47C0.186,-0.498 0.211,-0.52 0.242,-0.535C0.273,-0.55 0.307,-0.558 0.344,-0.558Z" style="fill-rule:nonzero;"/>
                </g>
                <g transform="matrix(24,0,0,24,122.729,375.456)">
                    <path d="M0.316,0.009C0.265,0.009 0.218,-0.003 0.177,-0.026C0.135,-0.049 0.102,-0.083 0.079,-0.126C0.055,-0.169 0.043,-0.218 0.043,-0.275C0.043,-0.331 0.055,-0.381 0.08,-0.424C0.104,-0.467 0.137,-0.5 0.179,-0.523C0.221,-0.546 0.268,-0.557 0.32,-0.557C0.372,-0.557 0.419,-0.546 0.461,-0.523C0.503,-0.5 0.536,-0.467 0.561,-0.424C0.585,-0.381 0.597,-0.332 0.597,-0.275C0.597,-0.218 0.585,-0.169 0.56,-0.126C0.535,-0.083 0.501,-0.049 0.458,-0.026C0.415,-0.003 0.368,0.009 0.316,0.009ZM0.316,-0.071C0.349,-0.071 0.379,-0.079 0.408,-0.094C0.437,-0.109 0.46,-0.132 0.477,-0.163C0.495,-0.194 0.504,-0.231 0.504,-0.275C0.504,-0.319 0.495,-0.356 0.478,-0.387C0.461,-0.418 0.438,-0.441 0.41,-0.456C0.382,-0.47 0.352,-0.478 0.319,-0.478C0.286,-0.478 0.255,-0.47 0.228,-0.456C0.2,-0.441 0.178,-0.418 0.161,-0.387C0.144,-0.356 0.136,-0.319 0.136,-0.275C0.136,-0.23 0.144,-0.193 0.161,-0.162C0.177,-0.131 0.199,-0.109 0.226,-0.094C0.253,-0.079 0.283,-0.071 0.316,-0.071Z" style="fill-rule:nonzero;"/>
                </g>
                <g transform="matrix(24,0,0,24,138.089,375.456)">
                    <path d="M0.188,-0.473L0.188,-0.15C0.188,-0.123 0.194,-0.105 0.205,-0.094C0.216,-0.083 0.236,-0.077 0.264,-0.077L0.331,-0.077L0.331,-0L0.249,-0C0.198,-0 0.16,-0.012 0.135,-0.035C0.11,-0.058 0.097,-0.097 0.097,-0.15L0.097,-0.473L0.026,-0.473L0.026,-0.548L0.097,-0.548L0.097,-0.686L0.188,-0.686L0.188,-0.548L0.331,-0.548L0.331,-0.473L0.188,-0.473Z" style="fill-rule:nonzero;"/>
                </g>
                <g transform="matrix(24,0,0,24,153.233,375.456)">
                    <path d="M0.383,-0L0.168,-0.242L0.168,-0L0.077,-0L0.077,-0.74L0.168,-0.74L0.168,-0.305L0.379,-0.548L0.506,-0.548L0.248,-0.275L0.507,-0L0.383,-0Z" style="fill-rule:nonzero;"/>
                </g>
                <g transform="matrix(24,0,0,24,165.593,375.456)">
                    <path d="M0.344,-0.558C0.411,-0.558 0.465,-0.538 0.506,-0.498C0.547,-0.457 0.568,-0.399 0.568,-0.323L0.568,-0L0.478,-0L0.478,-0.31C0.478,-0.365 0.464,-0.406 0.437,-0.436C0.41,-0.465 0.372,-0.479 0.325,-0.479C0.277,-0.479 0.239,-0.464 0.211,-0.434C0.182,-0.404 0.168,-0.36 0.168,-0.303L0.168,-0L0.077,-0L0.077,-0.548L0.168,-0.548L0.168,-0.47C0.186,-0.498 0.211,-0.52 0.242,-0.535C0.273,-0.55 0.307,-0.558 0.344,-0.558Z" style="fill-rule:nonzero;"/>
                </g>
                <g transform="matrix(24,0,0,24,180.953,375.456)">
                    <path d="M0.316,0.009C0.265,0.009 0.218,-0.003 0.177,-0.026C0.135,-0.049 0.102,-0.083 0.079,-0.126C0.055,-0.169 0.043,-0.218 0.043,-0.275C0.043,-0.331 0.055,-0.381 0.08,-0.424C0.104,-0.467 0.137,-0.5 0.179,-0.523C0.221,-0.546 0.268,-0.557 0.32,-0.557C0.372,-0.557 0.419,-0.546 0.461,-0.523C0.503,-0.5 0.536,-0.467 0.561,-0.424C0.585,-0.381 0.597,-0.332 0.597,-0.275C0.597,-0.218 0.585,-0.169 0.56,-0.126C0.535,-0.083 0.501,-0.049 0.458,-0.026C0.415,-0.003 0.368,0.009 0.316,0.009ZM0.316,-0.071C0.349,-0.071 0.379,-0.079 0.408,-0.094C0.437,-0.109 0.46,-0.132 0.477,-0.163C0.495,-0.194 0.504,-0.231 0.504,-0.275C0.504,-0.319 0.495,-0.356 0.478,-0.387C0.461,-0.418 0.438,-0.441 0.41,-0.456C0.382,-0.47 0.352,-0.478 0.319,-0.478C0.286,-0.478 0.255,-0.47 0.228,-0.456C0.2,-0.441 0.178,-0.418 0.161,-0.387C0.144,-0.356 0.136,-0.319 0.136,-0.275C0.136,-0.23 0.144,-0.193 0.161,-0.162C0.177,-0.131 0.199,-0.109 0.226,-0.094C0.253,-0.079 0.283,-0.071 0.316,-0.071Z" style="fill-rule:nonzero;"/>
                </g>
                <g transform="matrix(24,0,0,24,196.313,375.456)">
                    <path d="M0.807,-0.548L0.636,-0L0.542,-0L0.41,-0.435L0.278,-0L0.184,-0L0.012,-0.548L0.105,-0.548L0.231,-0.088L0.367,-0.548L0.46,-0.548L0.593,-0.087L0.717,-0.548L0.807,-0.548Z" style="fill-rule:nonzero;"/>
                </g>
                <g transform="matrix(24,0,0,24,215.993,375.456)">
                    <path d="M0.124,-0.637C0.107,-0.637 0.092,-0.643 0.08,-0.655C0.068,-0.667 0.062,-0.682 0.062,-0.699C0.062,-0.716 0.068,-0.731 0.08,-0.743C0.092,-0.755 0.107,-0.761 0.124,-0.761C0.141,-0.761 0.155,-0.755 0.167,-0.743C0.178,-0.731 0.184,-0.716 0.184,-0.699C0.184,-0.682 0.178,-0.667 0.167,-0.655C0.155,-0.643 0.141,-0.637 0.124,-0.637ZM0.168,-0.548L0.168,-0L0.077,-0L0.077,-0.548L0.168,-0.548Z" style="fill-rule:nonzero;"/>
                </g>
                <g transform="matrix(24,0,0,24,221.897,375.456)">
                    <path d="M0.344,-0.558C0.411,-0.558 0.465,-0.538 0.506,-0.498C0.547,-0.457 0.568,-0.399 0.568,-0.323L0.568,-0L0.478,-0L0.478,-0.31C0.478,-0.365 0.464,-0.406 0.437,-0.436C0.41,-0.465 0.372,-0.479 0.325,-0.479C0.277,-0.479 0.239,-0.464 0.211,-0.434C0.182,-0.404 0.168,-0.36 0.168,-0.303L0.168,-0L0.077,-0L0.077,-0.548L0.168,-0.548L0.168,-0.47C0.186,-0.498 0.211,-0.52 0.242,-0.535C0.273,-0.55 0.307,-0.558 0.344,-0.558Z" style="fill-rule:nonzero;"/>
                </g>
                <g transform="matrix(24,0,0,24,237.257,375.456)">
                    <path d="M0.303,-0.557C0.35,-0.557 0.392,-0.547 0.428,-0.526C0.463,-0.505 0.49,-0.479 0.507,-0.448L0.507,-0.548L0.599,-0.548L0.599,0.012C0.599,0.062 0.588,0.106 0.567,0.145C0.546,0.184 0.515,0.215 0.475,0.237C0.436,0.259 0.39,0.27 0.337,0.27C0.265,0.27 0.205,0.253 0.157,0.219C0.109,0.185 0.081,0.139 0.072,0.08L0.162,0.08C0.172,0.113 0.193,0.14 0.224,0.16C0.255,0.181 0.293,0.191 0.337,0.191C0.387,0.191 0.428,0.175 0.46,0.144C0.491,0.113 0.507,0.069 0.507,0.012L0.507,-0.103C0.489,-0.071 0.462,-0.044 0.427,-0.023C0.392,-0.002 0.35,0.009 0.303,0.009C0.254,0.009 0.21,-0.003 0.171,-0.027C0.131,-0.051 0.1,-0.085 0.077,-0.128C0.054,-0.171 0.043,-0.221 0.043,-0.276C0.043,-0.332 0.054,-0.381 0.077,-0.424C0.1,-0.466 0.131,-0.499 0.171,-0.522C0.21,-0.545 0.254,-0.557 0.303,-0.557ZM0.507,-0.275C0.507,-0.316 0.499,-0.352 0.482,-0.383C0.465,-0.414 0.443,-0.437 0.414,-0.454C0.386,-0.47 0.355,-0.478 0.321,-0.478C0.287,-0.478 0.256,-0.47 0.228,-0.454C0.2,-0.438 0.178,-0.415 0.161,-0.384C0.144,-0.353 0.136,-0.317 0.136,-0.276C0.136,-0.234 0.144,-0.198 0.161,-0.167C0.178,-0.136 0.2,-0.112 0.228,-0.096C0.256,-0.079 0.287,-0.071 0.321,-0.071C0.355,-0.071 0.386,-0.079 0.414,-0.096C0.443,-0.112 0.465,-0.136 0.482,-0.167C0.499,-0.198 0.507,-0.234 0.507,-0.275Z" style="fill-rule:nonzero;"/>
                </g>
                <g transform="matrix(24,0,0,24,253.481,375.456)">
                    <path d="M0.255,-0.706C0.321,-0.706 0.374,-0.687 0.415,-0.65C0.456,-0.613 0.476,-0.563 0.476,-0.5C0.476,-0.43 0.454,-0.378 0.411,-0.344C0.368,-0.311 0.309,-0.294 0.235,-0.294L0.232,-0.199L0.153,-0.199L0.149,-0.357L0.178,-0.357C0.244,-0.357 0.296,-0.367 0.333,-0.387C0.37,-0.407 0.389,-0.445 0.389,-0.5C0.389,-0.54 0.377,-0.572 0.353,-0.595C0.329,-0.618 0.297,-0.63 0.256,-0.63C0.215,-0.63 0.182,-0.619 0.159,-0.597C0.135,-0.574 0.123,-0.544 0.123,-0.505L0.037,-0.505C0.037,-0.545 0.046,-0.58 0.064,-0.611C0.082,-0.641 0.108,-0.664 0.141,-0.681C0.173,-0.698 0.212,-0.706 0.255,-0.706ZM0.192,0.006C0.175,0.006 0.16,-0 0.148,-0.012C0.136,-0.024 0.13,-0.039 0.13,-0.056C0.13,-0.073 0.136,-0.088 0.148,-0.1C0.16,-0.112 0.175,-0.118 0.192,-0.118C0.209,-0.118 0.223,-0.112 0.234,-0.1C0.246,-0.088 0.252,-0.073 0.252,-0.056C0.252,-0.039 0.246,-0.024 0.234,-0.012C0.223,-0 0.209,0.006 0.192,0.006Z" style="fill-rule:nonzero;"/>
                </g>
            </g>
        </g>
        <g id="answer">
            <g transform="matrix(0.994896,0,0,0.570349,185.131,272.443)">
                <rect x="370.267" y="33.545" width="127.319" height="74.714" style="fill:none;stroke:black;stroke-width:2.47px;"/>
            </g>
            <g transform="matrix(1,0,0,1,215.984,130.844)">
                <g transform="matrix(24,0,0,24,346.353,190.022)">
                    <path d="M0.489,-0.155L0.185,-0.155L0.129,-0L0.033,-0L0.285,-0.693L0.39,-0.693L0.641,-0L0.545,-0L0.489,-0.155ZM0.463,-0.229L0.337,-0.581L0.211,-0.229L0.463,-0.229Z" style="fill-rule:nonzero;"/>
                </g>
                <g transform="matrix(24,0,0,24,362.529,190.022)">
                    <path d="M0.344,-0.558C0.411,-0.558 0.465,-0.538 0.506,-0.498C0.547,-0.457 0.568,-0.399 0.568,-0.323L0.568,-0L0.478,-0L0.478,-0.31C0.478,-0.365 0.464,-0.406 0.437,-0.436C0.41,-0.465 0.372,-0.479 0.325,-0.479C0.277,-0.479 0.239,-0.464 0.211,-0.434C0.182,-0.404 0.168,-0.36 0.168,-0.303L0.168,-0L0.077,-0L0.077,-0.548L0.168,-0.548L0.168,-0.47C0.186,-0.498 0.211,-0.52 0.242,-0.535C0.273,-0.55 0.307,-0.558 0.344,-0.558Z" style="fill-rule:nonzero;"/>
                </g>
                <g transform="matrix(24,0,0,24,377.889,190.022)">
                    <path d="M0.271,0.009C0.229,0.009 0.191,0.002 0.158,-0.013C0.125,-0.027 0.098,-0.047 0.079,-0.073C0.06,-0.098 0.049,-0.128 0.047,-0.161L0.141,-0.161C0.144,-0.134 0.157,-0.111 0.18,-0.094C0.203,-0.077 0.233,-0.068 0.27,-0.068C0.305,-0.068 0.332,-0.076 0.352,-0.091C0.372,-0.106 0.382,-0.126 0.382,-0.149C0.382,-0.173 0.371,-0.191 0.35,-0.203C0.329,-0.214 0.296,-0.226 0.251,-0.237C0.21,-0.248 0.177,-0.259 0.152,-0.27C0.126,-0.281 0.104,-0.297 0.086,-0.319C0.067,-0.34 0.058,-0.369 0.058,-0.404C0.058,-0.432 0.066,-0.458 0.083,-0.481C0.1,-0.504 0.123,-0.523 0.154,-0.537C0.185,-0.55 0.22,-0.557 0.259,-0.557C0.32,-0.557 0.369,-0.542 0.406,-0.511C0.443,-0.48 0.463,-0.438 0.466,-0.385L0.375,-0.385C0.373,-0.414 0.362,-0.437 0.341,-0.454C0.32,-0.471 0.291,-0.48 0.256,-0.48C0.223,-0.48 0.197,-0.473 0.178,-0.459C0.159,-0.445 0.149,-0.427 0.149,-0.404C0.149,-0.386 0.155,-0.371 0.167,-0.36C0.178,-0.348 0.193,-0.339 0.211,-0.332C0.228,-0.325 0.253,-0.317 0.284,-0.308C0.323,-0.297 0.355,-0.287 0.38,-0.277C0.405,-0.266 0.426,-0.251 0.444,-0.23C0.461,-0.209 0.47,-0.182 0.471,-0.149C0.471,-0.119 0.463,-0.092 0.446,-0.068C0.429,-0.044 0.406,-0.025 0.376,-0.012C0.345,0.002 0.31,0.009 0.271,0.009Z" style="fill-rule:nonzero;"/>
                </g>
                <g transform="matrix(24,0,0,24,390.417,190.022)">
                    <path d="M0.807,-0.548L0.636,-0L0.542,-0L0.41,-0.435L0.278,-0L0.184,-0L0.012,-0.548L0.105,-0.548L0.231,-0.088L0.367,-0.548L0.46,-0.548L0.593,-0.087L0.717,-0.548L0.807,-0.548Z" style="fill-rule:nonzero;"/>
                </g>
                <g transform="matrix(24,0,0,24,410.097,190.022)">
                    <path d="M0.577,-0.295C0.577,-0.278 0.576,-0.259 0.574,-0.24L0.136,-0.24C0.139,-0.186 0.158,-0.144 0.192,-0.114C0.225,-0.083 0.266,-0.068 0.314,-0.068C0.353,-0.068 0.386,-0.077 0.412,-0.096C0.439,-0.114 0.457,-0.138 0.468,-0.169L0.566,-0.169C0.551,-0.116 0.522,-0.074 0.478,-0.041C0.434,-0.008 0.379,0.009 0.314,0.009C0.262,0.009 0.216,-0.003 0.174,-0.026C0.134,-0.049 0.101,-0.083 0.078,-0.126C0.055,-0.169 0.043,-0.218 0.043,-0.275C0.043,-0.332 0.054,-0.381 0.077,-0.424C0.1,-0.467 0.132,-0.5 0.172,-0.523C0.214,-0.546 0.261,-0.557 0.314,-0.557C0.366,-0.557 0.412,-0.546 0.452,-0.523C0.492,-0.5 0.523,-0.469 0.545,-0.43C0.566,-0.39 0.577,-0.345 0.577,-0.295ZM0.483,-0.314C0.483,-0.349 0.475,-0.379 0.46,-0.404C0.445,-0.429 0.424,-0.448 0.398,-0.461C0.371,-0.473 0.342,-0.48 0.31,-0.48C0.264,-0.48 0.225,-0.465 0.193,-0.436C0.16,-0.407 0.142,-0.366 0.137,-0.314L0.483,-0.314Z" style="fill-rule:nonzero;"/>
                </g>
                <g transform="matrix(24,0,0,24,424.977,190.022)">
                    <path d="M0.168,-0.459C0.184,-0.49 0.207,-0.515 0.236,-0.532C0.266,-0.549 0.302,-0.558 0.345,-0.558L0.345,-0.464L0.321,-0.464C0.219,-0.464 0.168,-0.409 0.168,-0.298L0.168,-0L0.077,-0L0.077,-0.548L0.168,-0.548L0.168,-0.459Z" style="fill-rule:nonzero;"/>
                </g>
                <g transform="matrix(24,0,0,24,440.337,190.022)">
                    <path d="M0.124,-0.637C0.107,-0.637 0.092,-0.643 0.08,-0.655C0.068,-0.667 0.062,-0.682 0.062,-0.699C0.062,-0.716 0.068,-0.731 0.08,-0.743C0.092,-0.755 0.107,-0.761 0.124,-0.761C0.141,-0.761 0.155,-0.755 0.167,-0.743C0.178,-0.731 0.184,-0.716 0.184,-0.699C0.184,-0.682 0.178,-0.667 0.167,-0.655C0.155,-0.643 0.141,-0.637 0.124,-0.637ZM0.168,-0.548L0.168,-0L0.077,-0L0.077,-0.548L0.168,-0.548Z" style="fill-rule:nonzero;"/>
                </g>
                <g transform="matrix(24,0,0,24,446.241,190.022)">
                    <path d="M0.188,-0.473L0.188,-0.15C0.188,-0.123 0.194,-0.105 0.205,-0.094C0.216,-0.083 0.236,-0.077 0.264,-0.077L0.331,-0.077L0.331,-0L0.249,-0C0.198,-0 0.16,-0.012 0.135,-0.035C0.11,-0.058 0.097,-0.097 0.097,-0.15L0.097,-0.473L0.026,-0.473L0.026,-0.548L0.097,-0.548L0.097,-0.686L0.188,-0.686L0.188,-0.548L0.331,-0.548L0.331,-0.473L0.188,-0.473Z" style="fill-rule:nonzero;"/>
                </g>
            </g>
        </g>
        <g id="idk" transform="matrix(1,0,0,1,2.20954,-3.74595)">
            <g transform="matrix(1.41954,0,0,1.27032,-428.12,447.654)">
                <rect x="370.267" y="33.545" width="127.319" height="74.714" style="fill:none;stroke:black;stroke-width:1.48px;"/>
            </g>
            <g transform="matrix(1,0,0,1,0,195.307)">
                <g transform="matrix(24,0,0,24,110.345,322.656)">
                    <path d="M0.121,-0.796L0.11,-0.597L0.047,-0.597L0.035,-0.796L0.121,-0.796ZM0.256,-0.796L0.245,-0.597L0.182,-0.597L0.17,-0.796L0.256,-0.796Z" style="fill-rule:nonzero;"/>
                </g>
                <g transform="matrix(24,0,0,24,117.353,322.656)">
                    <rect x="0.077" y="-0.697" width="0.091" height="0.697" style="fill-rule:nonzero;"/>
                </g>
                <g transform="matrix(24,0,0,24,129.665,322.656)">
                    <path d="M0.043,-0.276C0.043,-0.332 0.054,-0.381 0.077,-0.424C0.1,-0.466 0.131,-0.499 0.171,-0.522C0.21,-0.545 0.255,-0.557 0.304,-0.557C0.347,-0.557 0.386,-0.547 0.423,-0.528C0.46,-0.508 0.488,-0.482 0.507,-0.45L0.507,-0.74L0.599,-0.74L0.599,-0L0.507,-0L0.507,-0.103C0.489,-0.07 0.462,-0.043 0.427,-0.023C0.392,-0.002 0.35,0.009 0.303,0.009C0.254,0.009 0.21,-0.003 0.171,-0.027C0.131,-0.051 0.1,-0.085 0.077,-0.128C0.054,-0.171 0.043,-0.221 0.043,-0.276ZM0.507,-0.275C0.507,-0.316 0.499,-0.352 0.482,-0.383C0.465,-0.414 0.443,-0.437 0.414,-0.454C0.386,-0.47 0.355,-0.478 0.321,-0.478C0.287,-0.478 0.256,-0.47 0.228,-0.454C0.2,-0.438 0.178,-0.415 0.161,-0.384C0.144,-0.353 0.136,-0.317 0.136,-0.276C0.136,-0.234 0.144,-0.198 0.161,-0.167C0.178,-0.136 0.2,-0.112 0.228,-0.096C0.256,-0.079 0.287,-0.071 0.321,-0.071C0.355,-0.071 0.386,-0.079 0.414,-0.096C0.443,-0.112 0.465,-0.136 0.482,-0.167C0.499,-0.198 0.507,-0.234 0.507,-0.275Z" style="fill-rule:nonzero;"/>
                </g>
                <g transform="matrix(24,0,0,24,145.889,322.656)">
                    <path d="M0.316,0.009C0.265,0.009 0.218,-0.003 0.177,-0.026C0.135,-0.049 0.102,-0.083 0.079,-0.126C0.055,-0.169 0.043,-0.218 0.043,-0.275C0.043,-0.331 0.055,-0.381 0.08,-0.424C0.104,-0.467 0.137,-0.5 0.179,-0.523C0.221,-0.546 0.268,-0.557 0.32,-0.557C0.372,-0.557 0.419,-0.546 0.461,-0.523C0.503,-0.5 0.536,-0.467 0.561,-0.424C0.585,-0.381 0.597,-0.332 0.597,-0.275C0.597,-0.218 0.585,-0.169 0.56,-0.126C0.535,-0.083 0.501,-0.049 0.458,-0.026C0.415,-0.003 0.368,0.009 0.316,0.009ZM0.316,-0.071C0.349,-0.071 0.379,-0.079 0.408,-0.094C0.437,-0.109 0.46,-0.132 0.477,-0.163C0.495,-0.194 0.504,-0.231 0.504,-0.275C0.504,-0.319 0.495,-0.356 0.478,-0.387C0.461,-0.418 0.438,-0.441 0.41,-0.456C0.382,-0.47 0.352,-0.478 0.319,-0.478C0.286,-0.478 0.255,-0.47 0.228,-0.456C0.2,-0.441 0.178,-0.418 0.161,-0.387C0.144,-0.356 0.136,-0.319 0.136,-0.275C0.136,-0.23 0.144,-0.193 0.161,-0.162C0.177,-0.131 0.199,-0.109 0.226,-0.094C0.253,-0.079 0.283,-0.071 0.316,-0.071Z" style="fill-rule:nonzero;"/>
                </g>
                <g transform="matrix(24,0,0,24,161.249,322.656)">
                    <path d="M0.344,-0.558C0.411,-0.558 0.465,-0.538 0.506,-0.498C0.547,-0.457 0.568,-0.399 0.568,-0.323L0.568,-0L0.478,-0L0.478,-0.31C0.478,-0.365 0.464,-0.406 0.437,-0.436C0.41,-0.465 0.372,-0.479 0.325,-0.479C0.277,-0.479 0.239,-0.464 0.211,-0.434C0.182,-0.404 0.168,-0.36 0.168,-0.303L0.168,-0L0.077,-0L0.077,-0.548L0.168,-0.548L0.168,-0.47C0.186,-0.498 0.211,-0.52 0.242,-0.535C0.273,-0.55 0.307,-0.558 0.344,-0.558Z" style="fill-rule:nonzero;"/>
                </g>
                <g transform="matrix(24,0,0,24,176.609,322.656)">
                    <path d="M0.123,-0.796L0.111,-0.597L0.048,-0.597L0.035,-0.796L0.123,-0.796Z" style="fill-rule:nonzero;"/>
                </g>
                <g transform="matrix(24,0,0,24,180.425,322.656)">
                    <path d="M0.188,-0.473L0.188,-0.15C0.188,-0.123 0.194,-0.105 0.205,-0.094C0.216,-0.083 0.236,-0.077 0.264,-0.077L0.331,-0.077L0.331,-0L0.249,-0C0.198,-0 0.16,-0.012 0.135,-0.035C0.11,-0.058 0.097,-0.097 0.097,-0.15L0.097,-0.473L0.026,-0.473L0.026,-0.548L0.097,-0.548L0.097,-0.686L0.188,-0.686L0.188,-0.548L0.331,-0.548L0.331,-0.473L0.188,-0.473Z" style="fill-rule:nonzero;"/>
                </g>
                <g transform="matrix(24,0,0,24,195.569,322.656)">
                    <path d="M0.383,-0L0.168,-0.242L0.168,-0L0.077,-0L0.077,-0.74L0.168,-0.74L0.168,-0.305L0.379,-0.548L0.506,-0.548L0.248,-0.275L0.507,-0L0.383,-0Z" style="fill-rule:nonzero;"/>
                </g>
                <g transform="matrix(24,0,0,24,207.929,322.656)">
                    <path d="M0.344,-0.558C0.411,-0.558 0.465,-0.538 0.506,-0.498C0.547,-0.457 0.568,-0.399 0.568,-0.323L0.568,-0L0.478,-0L0.478,-0.31C0.478,-0.365 0.464,-0.406 0.437,-0.436C0.41,-0.465 0.372,-0.479 0.325,-0.479C0.277,-0.479 0.239,-0.464 0.211,-0.434C0.182,-0.404 0.168,-0.36 0.168,-0.303L0.168,-0L0.077,-0L0.077,-0.548L0.168,-0.548L0.168,-0.47C0.186,-0.498 0.211,-0.52 0.242,-0.535C0.273,-0.55 0.307,-0.558 0.344,-0.558Z" style="fill-rule:nonzero;"/>
                </g>
                <g transform="matrix(24,0,0,24,223.289,322.656)">
                    <path d="M0.316,0.009C0.265,0.009 0.218,-0.003 0.177,-0.026C0.135,-0.049 0.102,-0.083 0.079,-0.126C0.055,-0.169 0.043,-0.218 0.043,-0.275C0.043,-0.331 0.055,-0.381 0.08,-0.424C0.104,-0.467 0.137,-0.5 0.179,-0.523C0.221,-0.546 0.268,-0.557 0.32,-0.557C0.372,-0.557 0.419,-0.546 0.461,-0.523C0.503,-0.5 0.536,-0.467 0.561,-0.424C0.585,-0.381 0.597,-0.332 0.597,-0.275C0.597,-0.218 0.585,-0.169 0.56,-0.126C0.535,-0.083 0.501,-0.049 0.458,-0.026C0.415,-0.003 0.368,0.009 0.316,0.009ZM0.316,-0.071C0.349,-0.071 0.379,-0.079 0.408,-0.094C0.437,-0.109 0.46,-0.132 0.477,-0.163C0.495,-0.194 0.504,-0.231 0.504,-0.275C0.504,-0.319 0.495,-0.356 0.478,-0.387C0.461,-0.418 0.438,-0.441 0.41,-0.456C0.382,-0.47 0.352,-0.478 0.319,-0.478C0.286,-0.478 0.255,-0.47 0.228,-0.456C0.2,-0.441 0.178,-0.418 0.161,-0.387C0.144,-0.356 0.136,-0.319 0.136,-0.275C0.136,-0.23 0.144,-0.193 0.161,-0.162C0.177,-0.131 0.199,-0.109 0.226,-0.094C0.253,-0.079 0.283,-0.071 0.316,-0.071Z" style="fill-rule:nonzero;"/>
                </g>
                <g transform="matrix(24,0,0,24,238.649,322.656)">
                    <path d="M0.807,-0.548L0.636,-0L0.542,-0L0.41,-0.435L0.278,-0L0.184,-0L0.012,-0.548L0.105,-0.548L0.231,-0.088L0.367,-0.548L0.46,-0.548L0.593,-0.087L0.717,-0.548L0.807,-0.548Z" style="fill-rule:nonzero;"/>
                </g>
                <g transform="matrix(24,0,0,24,258.329,322.656)">
                    <path d="M0.171,-0.126L0.059,0.143L-0.002,0.143L0.071,-0.126L0.171,-0.126Z" style="fill-rule:nonzero;"/>
                </g>
                <g transform="matrix(24,0,0,24,111.965,349.056)">
                    <path d="M0.168,-0.446C0.187,-0.479 0.214,-0.505 0.25,-0.526C0.286,-0.547 0.327,-0.557 0.373,-0.557C0.422,-0.557 0.467,-0.545 0.506,-0.522C0.545,-0.499 0.576,-0.466 0.599,-0.424C0.622,-0.381 0.633,-0.332 0.633,-0.276C0.633,-0.221 0.622,-0.171 0.599,-0.128C0.576,-0.085 0.545,-0.051 0.505,-0.027C0.466,-0.003 0.422,0.009 0.373,0.009C0.326,0.009 0.284,-0.001 0.249,-0.022C0.213,-0.043 0.186,-0.069 0.168,-0.101L0.168,-0L0.077,-0L0.077,-0.74L0.168,-0.74L0.168,-0.446ZM0.54,-0.276C0.54,-0.317 0.532,-0.353 0.515,-0.384C0.498,-0.415 0.476,-0.438 0.448,-0.454C0.419,-0.47 0.388,-0.478 0.354,-0.478C0.321,-0.478 0.29,-0.47 0.262,-0.454C0.233,-0.437 0.211,-0.413 0.194,-0.383C0.177,-0.352 0.168,-0.316 0.168,-0.275C0.168,-0.234 0.177,-0.198 0.194,-0.167C0.211,-0.136 0.233,-0.112 0.262,-0.096C0.29,-0.079 0.321,-0.071 0.354,-0.071C0.388,-0.071 0.419,-0.079 0.448,-0.096C0.476,-0.112 0.498,-0.136 0.515,-0.167C0.532,-0.198 0.54,-0.234 0.54,-0.276Z" style="fill-rule:nonzero;"/>
                </g>
                <g transform="matrix(24,0,0,24,128.189,349.056)">
                    <path d="M0.563,-0.548L0.563,-0L0.472,-0L0.472,-0.081C0.455,-0.053 0.431,-0.031 0.4,-0.016C0.369,0 0.334,0.008 0.297,0.008C0.254,0.008 0.216,-0.001 0.182,-0.019C0.148,-0.036 0.121,-0.063 0.102,-0.098C0.082,-0.133 0.072,-0.176 0.072,-0.227L0.072,-0.548L0.162,-0.548L0.162,-0.239C0.162,-0.185 0.176,-0.143 0.203,-0.115C0.23,-0.086 0.268,-0.071 0.315,-0.071C0.364,-0.071 0.402,-0.086 0.43,-0.116C0.458,-0.146 0.472,-0.19 0.472,-0.247L0.472,-0.548L0.563,-0.548Z" style="fill-rule:nonzero;"/>
                </g>
                <g transform="matrix(24,0,0,24,143.549,349.056)">
                    <path d="M0.188,-0.473L0.188,-0.15C0.188,-0.123 0.194,-0.105 0.205,-0.094C0.216,-0.083 0.236,-0.077 0.264,-0.077L0.331,-0.077L0.331,-0L0.249,-0C0.198,-0 0.16,-0.012 0.135,-0.035C0.11,-0.058 0.097,-0.097 0.097,-0.15L0.097,-0.473L0.026,-0.473L0.026,-0.548L0.097,-0.548L0.097,-0.686L0.188,-0.686L0.188,-0.548L0.331,-0.548L0.331,-0.473L0.188,-0.473Z" style="fill-rule:nonzero;"/>
                </g>
                <g transform="matrix(24,0,0,24,158.693,349.056)">
                    <rect x="0.077" y="-0.697" width="0.091" height="0.697" style="fill-rule:nonzero;"/>
                </g>
                <g transform="matrix(24,0,0,24,171.005,349.056)">
                    <path d="M0.807,-0.548L0.636,-0L0.542,-0L0.41,-0.435L0.278,-0L0.184,-0L0.012,-0.548L0.105,-0.548L0.231,-0.088L0.367,-0.548L0.46,-0.548L0.593,-0.087L0.717,-0.548L0.807,-0.548Z" style="fill-rule:nonzero;"/>
                </g>
                <g transform="matrix(24,0,0,24,190.685,349.056)">
                    <path d="M0.316,0.009C0.265,0.009 0.218,-0.003 0.177,-0.026C0.135,-0.049 0.102,-0.083 0.079,-0.126C0.055,-0.169 0.043,-0.218 0.043,-0.275C0.043,-0.331 0.055,-0.381 0.08,-0.424C0.104,-0.467 0.137,-0.5 0.179,-0.523C0.221,-0.546 0.268,-0.557 0.32,-0.557C0.372,-0.557 0.419,-0.546 0.461,-0.523C0.503,-0.5 0.536,-0.467 0.561,-0.424C0.585,-0.381 0.597,-0.332 0.597,-0.275C0.597,-0.218 0.585,-0.169 0.56,-0.126C0.535,-0.083 0.501,-0.049 0.458,-0.026C0.415,-0.003 0.368,0.009 0.316,0.009ZM0.316,-0.071C0.349,-0.071 0.379,-0.079 0.408,-0.094C0.437,-0.109 0.46,-0.132 0.477,-0.163C0.495,-0.194 0.504,-0.231 0.504,-0.275C0.504,-0.319 0.495,-0.356 0.478,-0.387C0.461,-0.418 0.438,-0.441 0.41,-0.456C0.382,-0.47 0.352,-0.478 0.319,-0.478C0.286,-0.478 0.255,-0.47 0.228,-0.456C0.2,-0.441 0.178,-0.418 0.161,-0.387C0.144,-0.356 0.136,-0.319 0.136,-0.275C0.136,-0.23 0.144,-0.193 0.161,-0.162C0.177,-0.131 0.199,-0.109 0.226,-0.094C0.253,-0.079 0.283,-0.071 0.316,-0.071Z" style="fill-rule:nonzero;"/>
                </g>
                <g transform="matrix(24,0,0,24,206.045,349.056)">
                    <path d="M0.344,-0.558C0.411,-0.558 0.465,-0.538 0.506,-0.498C0.547,-0.457 0.568,-0.399 0.568,-0.323L0.568,-0L0.478,-0L0.478,-0.31C0.478,-0.365 0.464,-0.406 0.437,-0.436C0.41,-0.465 0.372,-0.479 0.325,-0.479C0.277,-0.479 0.239,-0.464 0.211,-0.434C0.182,-0.404 0.168,-0.36 0.168,-0.303L0.168,-0L0.077,-0L0.077,-0.548L0.168,-0.548L0.168,-0.47C0.186,-0.498 0.211,-0.52 0.242,-0.535C0.273,-0.55 0.307,-0.558 0.344,-0.558Z" style="fill-rule:nonzero;"/>
                </g>
                <g transform="matrix(24,0,0,24,221.405,349.056)">
                    <path d="M0.043,-0.276C0.043,-0.332 0.054,-0.381 0.077,-0.424C0.1,-0.466 0.131,-0.499 0.171,-0.522C0.21,-0.545 0.255,-0.557 0.304,-0.557C0.347,-0.557 0.386,-0.547 0.423,-0.528C0.46,-0.508 0.488,-0.482 0.507,-0.45L0.507,-0.74L0.599,-0.74L0.599,-0L0.507,-0L0.507,-0.103C0.489,-0.07 0.462,-0.043 0.427,-0.023C0.392,-0.002 0.35,0.009 0.303,0.009C0.254,0.009 0.21,-0.003 0.171,-0.027C0.131,-0.051 0.1,-0.085 0.077,-0.128C0.054,-0.171 0.043,-0.221 0.043,-0.276ZM0.507,-0.275C0.507,-0.316 0.499,-0.352 0.482,-0.383C0.465,-0.414 0.443,-0.437 0.414,-0.454C0.386,-0.47 0.355,-0.478 0.321,-0.478C0.287,-0.478 0.256,-0.47 0.228,-0.454C0.2,-0.438 0.178,-0.415 0.161,-0.384C0.144,-0.353 0.136,-0.317 0.136,-0.276C0.136,-0.234 0.144,-0.198 0.161,-0.167C0.178,-0.136 0.2,-0.112 0.228,-0.096C0.256,-0.079 0.287,-0.071 0.321,-0.071C0.355,-0.071 0.386,-0.079 0.414,-0.096C0.443,-0.112 0.465,-0.136 0.482,-0.167C0.499,-0.198 0.507,-0.234 0.507,-0.275Z" style="fill-rule:nonzero;"/>
                </g>
                <g transform="matrix(24,0,0,24,237.629,349.056)">
                    <path d="M0.577,-0.295C0.577,-0.278 0.576,-0.259 0.574,-0.24L0.136,-0.24C0.139,-0.186 0.158,-0.144 0.192,-0.114C0.225,-0.083 0.266,-0.068 0.314,-0.068C0.353,-0.068 0.386,-0.077 0.412,-0.096C0.439,-0.114 0.457,-0.138 0.468,-0.169L0.566,-0.169C0.551,-0.116 0.522,-0.074 0.478,-0.041C0.434,-0.008 0.379,0.009 0.314,0.009C0.262,0.009 0.216,-0.003 0.174,-0.026C0.134,-0.049 0.101,-0.083 0.078,-0.126C0.055,-0.169 0.043,-0.218 0.043,-0.275C0.043,-0.332 0.054,-0.381 0.077,-0.424C0.1,-0.467 0.132,-0.5 0.172,-0.523C0.214,-0.546 0.261,-0.557 0.314,-0.557C0.366,-0.557 0.412,-0.546 0.452,-0.523C0.492,-0.5 0.523,-0.469 0.545,-0.43C0.566,-0.39 0.577,-0.345 0.577,-0.295ZM0.483,-0.314C0.483,-0.349 0.475,-0.379 0.46,-0.404C0.445,-0.429 0.424,-0.448 0.398,-0.461C0.371,-0.473 0.342,-0.48 0.31,-0.48C0.264,-0.48 0.225,-0.465 0.193,-0.436C0.16,-0.407 0.142,-0.366 0.137,-0.314L0.483,-0.314Z" style="fill-rule:nonzero;"/>
                </g>
                <g transform="matrix(24,0,0,24,252.509,349.056)">
                    <path d="M0.168,-0.459C0.184,-0.49 0.207,-0.515 0.236,-0.532C0.266,-0.549 0.302,-0.558 0.345,-0.558L0.345,-0.464L0.321,-0.464C0.219,-0.464 0.168,-0.409 0.168,-0.298L0.168,-0L0.077,-0L0.077,-0.548L0.168,-0.548L0.168,-0.459Z" style="fill-rule:nonzero;"/>
                </g>
                <g transform="matrix(24,0,0,24,168.749,375.456)">
                    <path d="M0.124,-0.637C0.107,-0.637 0.092,-0.643 0.08,-0.655C0.068,-0.667 0.062,-0.682 0.062,-0.699C0.062,-0.716 0.068,-0.731 0.08,-0.743C0.092,-0.755 0.107,-0.761 0.124,-0.761C0.141,-0.761 0.155,-0.755 0.167,-0.743C0.178,-0.731 0.184,-0.716 0.184,-0.699C0.184,-0.682 0.178,-0.667 0.167,-0.655C0.155,-0.643 0.141,-0.637 0.124,-0.637ZM0.168,-0.548L0.168,-0L0.077,-0L0.077,-0.548L0.168,-0.548Z" style="fill-rule:nonzero;"/>
                </g>
                <g transform="matrix(24,0,0,24,174.653,375.456)">
                    <path d="M0.3,-0.473L0.185,-0.473L0.185,-0L0.094,-0L0.094,-0.473L0.023,-0.473L0.023,-0.548L0.094,-0.548L0.094,-0.587C0.094,-0.648 0.11,-0.693 0.141,-0.722C0.173,-0.75 0.224,-0.764 0.294,-0.764L0.294,-0.688C0.254,-0.688 0.226,-0.68 0.21,-0.665C0.193,-0.649 0.185,-0.623 0.185,-0.587L0.185,-0.548L0.3,-0.548L0.3,-0.473Z" style="fill-rule:nonzero;"/>
                </g>
                <g transform="matrix(24,0,0,24,182.549,375.456)">
                    <path d="M0.106,0.006C0.089,0.006 0.074,-0 0.062,-0.012C0.05,-0.024 0.044,-0.039 0.044,-0.056C0.044,-0.073 0.05,-0.088 0.062,-0.1C0.074,-0.112 0.089,-0.118 0.106,-0.118C0.123,-0.118 0.137,-0.112 0.149,-0.1C0.16,-0.088 0.166,-0.073 0.166,-0.056C0.166,-0.039 0.16,-0.024 0.149,-0.012C0.137,-0 0.123,0.006 0.106,0.006Z" style="fill-rule:nonzero;"/>
                </g>
                <g transform="matrix(24,0,0,24,187.589,375.456)">
                    <path d="M0.106,0.006C0.089,0.006 0.074,-0 0.062,-0.012C0.05,-0.024 0.044,-0.039 0.044,-0.056C0.044,-0.073 0.05,-0.088 0.062,-0.1C0.074,-0.112 0.089,-0.118 0.106,-0.118C0.123,-0.118 0.137,-0.112 0.149,-0.1C0.16,-0.088 0.166,-0.073 0.166,-0.056C0.166,-0.039 0.16,-0.024 0.149,-0.012C0.137,-0 0.123,0.006 0.106,0.006Z" style="fill-rule:nonzero;"/>
                </g>
                <g transform="matrix(24,0,0,24,192.629,375.456)">
                    <path d="M0.106,0.006C0.089,0.006 0.074,-0 0.062,-0.012C0.05,-0.024 0.044,-0.039 0.044,-0.056C0.044,-0.073 0.05,-0.088 0.062,-0.1C0.074,-0.112 0.089,-0.118 0.106,-0.118C0.123,-0.118 0.137,-0.112 0.149,-0.1C0.16,-0.088 0.166,-0.073 0.166,-0.056C0.166,-0.039 0.16,-0.024 0.149,-0.012C0.137,-0 0.123,0.006 0.106,0.006Z" style="fill-rule:nonzero;"/>
                </g>
                <g transform="matrix(24,0,0,24,197.669,375.456)">
                    <path d="M0.121,-0.796L0.11,-0.597L0.047,-0.597L0.035,-0.796L0.121,-0.796ZM0.256,-0.796L0.245,-0.597L0.182,-0.597L0.17,-0.796L0.256,-0.796Z" style="fill-rule:nonzero;"/>
                </g>
            </g>
        </g>
        <g>
            <g transform="matrix(1,0,0,1,4.08232,3.48513)">
                <g transform="matrix(24,0,0,24,342.699,34.3075)">
                    <path d="M0.562,0.12L0.472,-0.001C0.445,0.004 0.419,0.007 0.394,0.007C0.328,0.007 0.268,-0.008 0.213,-0.039C0.158,-0.07 0.114,-0.113 0.082,-0.168C0.049,-0.223 0.033,-0.284 0.033,-0.353C0.033,-0.422 0.049,-0.483 0.082,-0.538C0.114,-0.593 0.158,-0.635 0.213,-0.666C0.268,-0.697 0.328,-0.712 0.394,-0.712C0.46,-0.712 0.521,-0.697 0.576,-0.666C0.63,-0.635 0.674,-0.593 0.706,-0.538C0.737,-0.483 0.753,-0.422 0.753,-0.353C0.753,-0.293 0.741,-0.238 0.717,-0.189C0.692,-0.139 0.658,-0.098 0.615,-0.065L0.769,0.12L0.562,0.12ZM0.208,-0.353C0.208,-0.291 0.225,-0.242 0.259,-0.204C0.292,-0.168 0.337,-0.149 0.394,-0.149C0.45,-0.149 0.495,-0.168 0.529,-0.205C0.562,-0.242 0.579,-0.292 0.579,-0.353C0.579,-0.415 0.562,-0.465 0.529,-0.501C0.495,-0.539 0.45,-0.557 0.394,-0.557C0.337,-0.557 0.292,-0.539 0.259,-0.502C0.225,-0.465 0.208,-0.416 0.208,-0.353Z" style="fill-rule:nonzero;"/>
                </g>
                <g transform="matrix(24,0,0,24,361.611,34.3075)">
                    <path d="M0.613,-0.558L0.613,-0L0.442,-0L0.442,-0.076C0.425,-0.051 0.401,-0.032 0.372,-0.017C0.342,-0.002 0.309,0.006 0.273,0.006C0.23,0.006 0.193,-0.004 0.16,-0.023C0.127,-0.042 0.102,-0.069 0.084,-0.105C0.066,-0.141 0.057,-0.183 0.057,-0.232L0.057,-0.558L0.227,-0.558L0.227,-0.255C0.227,-0.218 0.237,-0.189 0.256,-0.168C0.275,-0.147 0.301,-0.137 0.334,-0.137C0.367,-0.137 0.394,-0.147 0.413,-0.168C0.432,-0.189 0.442,-0.218 0.442,-0.255L0.442,-0.558L0.613,-0.558Z" style="fill-rule:nonzero;"/>
                </g>
                <g transform="matrix(24,0,0,24,377.787,34.3075)">
                    <path d="M0.588,-0.288C0.588,-0.272 0.587,-0.255 0.585,-0.238L0.198,-0.238C0.201,-0.203 0.212,-0.177 0.232,-0.159C0.251,-0.14 0.275,-0.131 0.304,-0.131C0.347,-0.131 0.376,-0.149 0.393,-0.185L0.575,-0.185C0.566,-0.148 0.549,-0.115 0.525,-0.086C0.5,-0.057 0.47,-0.034 0.433,-0.017C0.396,-0 0.355,0.008 0.31,0.008C0.255,0.008 0.207,-0.004 0.164,-0.027C0.121,-0.05 0.088,-0.084 0.064,-0.127C0.04,-0.17 0.028,-0.221 0.028,-0.279C0.028,-0.337 0.04,-0.388 0.064,-0.431C0.087,-0.474 0.12,-0.508 0.163,-0.531C0.206,-0.554 0.255,-0.566 0.31,-0.566C0.364,-0.566 0.412,-0.555 0.454,-0.532C0.496,-0.509 0.529,-0.477 0.553,-0.435C0.576,-0.393 0.588,-0.344 0.588,-0.288ZM0.413,-0.333C0.413,-0.362 0.403,-0.386 0.383,-0.403C0.363,-0.42 0.338,-0.429 0.308,-0.429C0.279,-0.429 0.255,-0.421 0.235,-0.404C0.216,-0.387 0.204,-0.364 0.199,-0.333L0.413,-0.333Z" style="fill-rule:nonzero;"/>
                </g>
                <g transform="matrix(24,0,0,24,392.571,34.3075)">
                    <path d="M0.289,0.008C0.24,0.008 0.197,-0 0.159,-0.017C0.121,-0.034 0.091,-0.057 0.069,-0.086C0.047,-0.115 0.035,-0.147 0.032,-0.183L0.201,-0.183C0.203,-0.164 0.212,-0.148 0.228,-0.136C0.244,-0.124 0.264,-0.118 0.287,-0.118C0.308,-0.118 0.325,-0.122 0.337,-0.131C0.348,-0.139 0.354,-0.15 0.354,-0.163C0.354,-0.179 0.346,-0.191 0.329,-0.199C0.312,-0.206 0.285,-0.215 0.248,-0.224C0.208,-0.233 0.175,-0.243 0.148,-0.254C0.121,-0.264 0.098,-0.28 0.079,-0.303C0.06,-0.325 0.05,-0.355 0.05,-0.393C0.05,-0.425 0.059,-0.454 0.077,-0.481C0.094,-0.507 0.12,-0.528 0.155,-0.543C0.189,-0.558 0.23,-0.566 0.277,-0.566C0.347,-0.566 0.402,-0.549 0.443,-0.514C0.483,-0.479 0.506,-0.433 0.512,-0.376L0.354,-0.376C0.351,-0.395 0.343,-0.411 0.329,-0.422C0.314,-0.433 0.295,-0.439 0.272,-0.439C0.252,-0.439 0.237,-0.435 0.226,-0.428C0.215,-0.42 0.21,-0.409 0.21,-0.396C0.21,-0.38 0.219,-0.368 0.235,-0.36C0.253,-0.352 0.279,-0.344 0.315,-0.336C0.356,-0.325 0.39,-0.315 0.416,-0.305C0.442,-0.294 0.465,-0.278 0.485,-0.255C0.504,-0.232 0.514,-0.201 0.515,-0.162C0.515,-0.129 0.506,-0.1 0.488,-0.075C0.469,-0.049 0.443,-0.029 0.408,-0.014C0.374,0.001 0.334,0.008 0.289,0.008Z" style="fill-rule:nonzero;"/>
                </g>
                <g transform="matrix(24,0,0,24,405.963,34.3075)">
                    <path d="M0.373,-0.145L0.373,-0L0.286,-0C0.224,-0 0.176,-0.015 0.141,-0.046C0.106,-0.076 0.089,-0.125 0.089,-0.194L0.089,-0.416L0.021,-0.416L0.021,-0.558L0.089,-0.558L0.089,-0.694L0.26,-0.694L0.26,-0.558L0.372,-0.558L0.372,-0.416L0.26,-0.416L0.26,-0.192C0.26,-0.175 0.264,-0.163 0.272,-0.156C0.28,-0.149 0.293,-0.145 0.312,-0.145L0.373,-0.145Z" style="fill-rule:nonzero;"/>
                </g>
                <g transform="matrix(24,0,0,24,415.707,34.3075)">
                    <path d="M0.148,-0.616C0.118,-0.616 0.094,-0.625 0.075,-0.643C0.056,-0.66 0.046,-0.682 0.046,-0.708C0.046,-0.735 0.056,-0.757 0.075,-0.775C0.094,-0.792 0.118,-0.801 0.148,-0.801C0.177,-0.801 0.202,-0.792 0.221,-0.775C0.239,-0.757 0.249,-0.735 0.249,-0.708C0.249,-0.682 0.239,-0.66 0.221,-0.643C0.202,-0.625 0.177,-0.616 0.148,-0.616ZM0.233,-0.558L0.233,-0L0.062,-0L0.062,-0.558L0.233,-0.558Z" style="fill-rule:nonzero;"/>
                </g>
                <g transform="matrix(24,0,0,24,422.787,34.3075)">
                    <path d="M0.316,0.008C0.261,0.008 0.212,-0.004 0.169,-0.027C0.125,-0.05 0.091,-0.084 0.066,-0.127C0.041,-0.17 0.028,-0.221 0.028,-0.279C0.028,-0.336 0.041,-0.387 0.066,-0.431C0.091,-0.474 0.126,-0.508 0.17,-0.531C0.214,-0.554 0.263,-0.566 0.318,-0.566C0.373,-0.566 0.422,-0.554 0.466,-0.531C0.51,-0.508 0.545,-0.474 0.57,-0.431C0.595,-0.387 0.608,-0.336 0.608,-0.279C0.608,-0.222 0.595,-0.171 0.57,-0.128C0.544,-0.084 0.509,-0.05 0.465,-0.027C0.42,-0.004 0.371,0.008 0.316,0.008ZM0.316,-0.14C0.349,-0.14 0.377,-0.152 0.4,-0.176C0.423,-0.2 0.434,-0.234 0.434,-0.279C0.434,-0.324 0.423,-0.358 0.401,-0.382C0.378,-0.406 0.351,-0.418 0.318,-0.418C0.285,-0.418 0.257,-0.406 0.235,-0.383C0.213,-0.359 0.202,-0.324 0.202,-0.279C0.202,-0.234 0.213,-0.2 0.234,-0.176C0.256,-0.152 0.283,-0.14 0.316,-0.14Z" style="fill-rule:nonzero;"/>
                </g>
                <g transform="matrix(24,0,0,24,438.075,34.3075)">
                    <path d="M0.402,-0.564C0.467,-0.564 0.52,-0.543 0.559,-0.5C0.598,-0.458 0.617,-0.4 0.617,-0.326L0.617,-0L0.447,-0L0.447,-0.303C0.447,-0.34 0.437,-0.369 0.418,-0.39C0.399,-0.411 0.373,-0.421 0.34,-0.421C0.307,-0.421 0.281,-0.411 0.262,-0.39C0.243,-0.369 0.233,-0.34 0.233,-0.303L0.233,-0L0.062,-0L0.062,-0.558L0.233,-0.558L0.233,-0.484C0.25,-0.509 0.274,-0.528 0.303,-0.543C0.332,-0.557 0.365,-0.564 0.402,-0.564Z" style="fill-rule:nonzero;"/>
                </g>
            </g>
            <g transform="matrix(3.89649,0,0,3.89649,-1156.38,-161.706)">
                <g transform="matrix(0.256642,-0,-0,0.256642,316.939,41.5003)">
                    <path d="M329.644,155.268L323.644,161.268L317.644,155.268" style="fill:none;stroke:black;stroke-width:2px;stroke-linejoin:miter;stroke-miterlimit:10;"/>
                    <path d="M323.644,50.789L323.644,161.268" style="fill:none;stroke:black;stroke-width:2px;"/>
                </g>
            </g>
            <g transform="matrix(1,0,0,0.939118,2.20954,-1.07187)">
                <rect x="312.947" y="72.266" width="174.106" height="74.714" style="fill:white;"/>
            </g>
            <g transform="matrix(1,0,0,1,-21.1839,-19.2038)">
                <g transform="matrix(20,0,0,20,368.843,105.524)">
                    <path d="M0.444,-0L0.278,-0.285L0.168,-0.285L0.168,-0L0.077,-0L0.077,-0.697L0.302,-0.697C0.355,-0.697 0.399,-0.688 0.436,-0.67C0.472,-0.652 0.499,-0.628 0.517,-0.597C0.535,-0.566 0.544,-0.531 0.544,-0.492C0.544,-0.444 0.53,-0.402 0.502,-0.365C0.475,-0.328 0.433,-0.304 0.378,-0.292L0.553,-0L0.444,-0ZM0.168,-0.358L0.302,-0.358C0.351,-0.358 0.388,-0.37 0.413,-0.395C0.438,-0.419 0.45,-0.451 0.45,-0.492C0.45,-0.533 0.438,-0.565 0.413,-0.588C0.389,-0.611 0.352,-0.622 0.302,-0.622L0.168,-0.622L0.168,-0.358Z" style="fill-rule:nonzero;"/>
                </g>
                <g transform="matrix(20,0,0,20,381.003,105.524)">
                    <path d="M0.577,-0.295C0.577,-0.278 0.576,-0.259 0.574,-0.24L0.136,-0.24C0.139,-0.186 0.158,-0.144 0.192,-0.114C0.225,-0.083 0.266,-0.068 0.314,-0.068C0.353,-0.068 0.386,-0.077 0.412,-0.096C0.439,-0.114 0.457,-0.138 0.468,-0.169L0.566,-0.169C0.551,-0.116 0.522,-0.074 0.478,-0.041C0.434,-0.008 0.379,0.009 0.314,0.009C0.262,0.009 0.216,-0.003 0.174,-0.026C0.134,-0.049 0.101,-0.083 0.078,-0.126C0.055,-0.169 0.043,-0.218 0.043,-0.275C0.043,-0.332 0.054,-0.381 0.077,-0.424C0.1,-0.467 0.132,-0.5 0.172,-0.523C0.214,-0.546 0.261,-0.557 0.314,-0.557C0.366,-0.557 0.412,-0.546 0.452,-0.523C0.492,-0.5 0.523,-0.469 0.545,-0.43C0.566,-0.39 0.577,-0.345 0.577,-0.295ZM0.483,-0.314C0.483,-0.349 0.475,-0.379 0.46,-0.404C0.445,-0.429 0.424,-0.448 0.398,-0.461C0.371,-0.473 0.342,-0.48 0.31,-0.48C0.264,-0.48 0.225,-0.465 0.193,-0.436C0.16,-0.407 0.142,-0.366 0.137,-0.314L0.483,-0.314Z" style="fill-rule:nonzero;"/>
                </g>
                <g transform="matrix(20,0,0,20,393.403,105.524)">
                    <path d="M0.168,-0.447C0.186,-0.478 0.213,-0.504 0.249,-0.526C0.284,-0.547 0.326,-0.557 0.373,-0.557C0.422,-0.557 0.466,-0.545 0.505,-0.522C0.545,-0.499 0.576,-0.466 0.599,-0.424C0.622,-0.381 0.633,-0.332 0.633,-0.276C0.633,-0.221 0.622,-0.171 0.599,-0.128C0.576,-0.085 0.545,-0.051 0.505,-0.027C0.466,-0.003 0.422,0.009 0.373,0.009C0.326,0.009 0.285,-0.002 0.25,-0.023C0.214,-0.043 0.187,-0.07 0.168,-0.101L0.168,0.26L0.077,0.26L0.077,-0.548L0.168,-0.548L0.168,-0.447ZM0.54,-0.276C0.54,-0.317 0.532,-0.353 0.515,-0.384C0.498,-0.415 0.476,-0.438 0.448,-0.454C0.419,-0.47 0.388,-0.478 0.354,-0.478C0.321,-0.478 0.29,-0.47 0.262,-0.454C0.233,-0.437 0.211,-0.413 0.194,-0.383C0.177,-0.352 0.168,-0.316 0.168,-0.275C0.168,-0.234 0.177,-0.198 0.194,-0.167C0.211,-0.136 0.233,-0.112 0.262,-0.096C0.29,-0.079 0.321,-0.071 0.354,-0.071C0.388,-0.071 0.419,-0.079 0.448,-0.096C0.476,-0.112 0.498,-0.136 0.515,-0.167C0.532,-0.198 0.54,-0.234 0.54,-0.276Z" style="fill-rule:nonzero;"/>
                </g>
                <g transform="matrix(20,0,0,20,406.923,105.524)">
                    <path d="M0.577,-0.295C0.577,-0.278 0.576,-0.259 0.574,-0.24L0.136,-0.24C0.139,-0.186 0.158,-0.144 0.192,-0.114C0.225,-0.083 0.266,-0.068 0.314,-0.068C0.353,-0.068 0.386,-0.077 0.412,-0.096C0.439,-0.114 0.457,-0.138 0.468,-0.169L0.566,-0.169C0.551,-0.116 0.522,-0.074 0.478,-0.041C0.434,-0.008 0.379,0.009 0.314,0.009C0.262,0.009 0.216,-0.003 0.174,-0.026C0.134,-0.049 0.101,-0.083 0.078,-0.126C0.055,-0.169 0.043,-0.218 0.043,-0.275C0.043,-0.332 0.054,-0.381 0.077,-0.424C0.1,-0.467 0.132,-0.5 0.172,-0.523C0.214,-0.546 0.261,-0.557 0.314,-0.557C0.366,-0.557 0.412,-0.546 0.452,-0.523C0.492,-0.5 0.523,-0.469 0.545,-0.43C0.566,-0.39 0.577,-0.345 0.577,-0.295ZM0.483,-0.314C0.483,-0.349 0.475,-0.379 0.46,-0.404C0.445,-0.429 0.424,-0.448 0.398,-0.461C0.371,-0.473 0.342,-0.48 0.31,-0.48C0.264,-0.48 0.225,-0.465 0.193,-0.436C0.16,-0.407 0.142,-0.366 0.137,-0.314L0.483,-0.314Z" style="fill-rule:nonzero;"/>
                </g>
                <g transform="matrix(20,0,0,20,419.323,105.524)">
                    <path d="M0.043,-0.276C0.043,-0.332 0.054,-0.381 0.077,-0.424C0.1,-0.466 0.131,-0.499 0.171,-0.522C0.21,-0.545 0.254,-0.557 0.303,-0.557C0.351,-0.557 0.393,-0.547 0.428,-0.526C0.463,-0.505 0.49,-0.479 0.507,-0.448L0.507,-0.548L0.599,-0.548L0.599,-0L0.507,-0L0.507,-0.102C0.489,-0.07 0.462,-0.043 0.427,-0.023C0.391,-0.002 0.349,0.009 0.302,0.009C0.253,0.009 0.209,-0.003 0.17,-0.027C0.131,-0.051 0.1,-0.085 0.077,-0.128C0.054,-0.171 0.043,-0.221 0.043,-0.276ZM0.507,-0.275C0.507,-0.316 0.499,-0.352 0.482,-0.383C0.465,-0.414 0.443,-0.437 0.414,-0.454C0.386,-0.47 0.355,-0.478 0.321,-0.478C0.287,-0.478 0.256,-0.47 0.228,-0.454C0.2,-0.438 0.178,-0.415 0.161,-0.384C0.144,-0.353 0.136,-0.317 0.136,-0.276C0.136,-0.234 0.144,-0.198 0.161,-0.167C0.178,-0.136 0.2,-0.112 0.228,-0.096C0.256,-0.079 0.287,-0.071 0.321,-0.071C0.355,-0.071 0.386,-0.079 0.414,-0.096C0.443,-0.112 0.465,-0.136 0.482,-0.167C0.499,-0.198 0.507,-0.234 0.507,-0.275Z" style="fill-rule:nonzero;"/>
                </g>
                <g transform="matrix(20,0,0,20,432.843,105.524)">
                    <path d="M0.188,-0.473L0.188,-0.15C0.188,-0.123 0.194,-0.105 0.205,-0.094C0.216,-0.083 0.236,-0.077 0.264,-0.077L0.331,-0.077L0.331,-0L0.249,-0C0.198,-0 0.16,-0.012 0.135,-0.035C0.11,-0.058 0.097,-0.097 0.097,-0.15L0.097,-0.473L0.026,-0.473L0.026,-0.548L0.097,-0.548L0.097,-0.686L0.188,-0.686L0.188,-0.548L0.331,-0.548L0.331,-0.473L0.188,-0.473Z" style="fill-rule:nonzero;"/>
                </g>
                <g transform="matrix(20,0,0,20,445.463,105.524)">
                    <path d="M0.188,-0.473L0.188,-0.15C0.188,-0.123 0.194,-0.105 0.205,-0.094C0.216,-0.083 0.236,-0.077 0.264,-0.077L0.331,-0.077L0.331,-0L0.249,-0C0.198,-0 0.16,-0.012 0.135,-0.035C0.11,-0.058 0.097,-0.097 0.097,-0.15L0.097,-0.473L0.026,-0.473L0.026,-0.548L0.097,-0.548L0.097,-0.686L0.188,-0.686L0.188,-0.548L0.331,-0.548L0.331,-0.473L0.188,-0.473Z" style="fill-rule:nonzero;"/>
                </g>
                <g transform="matrix(20,0,0,20,452.743,105.524)">
                    <path d="M0.349,-0.558C0.39,-0.558 0.428,-0.549 0.461,-0.532C0.494,-0.514 0.521,-0.487 0.54,-0.452C0.559,-0.417 0.568,-0.374 0.568,-0.323L0.568,-0L0.478,-0L0.478,-0.31C0.478,-0.365 0.464,-0.406 0.437,-0.436C0.41,-0.465 0.372,-0.479 0.325,-0.479C0.277,-0.479 0.239,-0.464 0.211,-0.434C0.182,-0.404 0.168,-0.36 0.168,-0.303L0.168,-0L0.077,-0L0.077,-0.74L0.168,-0.74L0.168,-0.47C0.186,-0.498 0.211,-0.52 0.243,-0.535C0.274,-0.55 0.31,-0.558 0.349,-0.558Z" style="fill-rule:nonzero;"/>
                </g>
                <g transform="matrix(20,0,0,20,465.543,105.524)">
                    <path d="M0.577,-0.295C0.577,-0.278 0.576,-0.259 0.574,-0.24L0.136,-0.24C0.139,-0.186 0.158,-0.144 0.192,-0.114C0.225,-0.083 0.266,-0.068 0.314,-0.068C0.353,-0.068 0.386,-0.077 0.412,-0.096C0.439,-0.114 0.457,-0.138 0.468,-0.169L0.566,-0.169C0.551,-0.116 0.522,-0.074 0.478,-0.041C0.434,-0.008 0.379,0.009 0.314,0.009C0.262,0.009 0.216,-0.003 0.174,-0.026C0.134,-0.049 0.101,-0.083 0.078,-0.126C0.055,-0.169 0.043,-0.218 0.043,-0.275C0.043,-0.332 0.054,-0.381 0.077,-0.424C0.1,-0.467 0.132,-0.5 0.172,-0.523C0.214,-0.546 0.261,-0.557 0.314,-0.557C0.366,-0.557 0.412,-0.546 0.452,-0.523C0.492,-0.5 0.523,-0.469 0.545,-0.43C0.566,-0.39 0.577,-0.345 0.577,-0.295ZM0.483,-0.314C0.483,-0.349 0.475,-0.379 0.46,-0.404C0.445,-0.429 0.424,-0.448 0.398,-0.461C0.371,-0.473 0.342,-0.48 0.31,-0.48C0.264,-0.48 0.225,-0.465 0.193,-0.436C0.16,-0.407 0.142,-0.366 0.137,-0.314L0.483,-0.314Z" style="fill-rule:nonzero;"/>
                </g>
                <g transform="matrix(20,0,0,20,352.623,127.524)">
                    <path d="M0.043,-0.276C0.043,-0.332 0.054,-0.381 0.077,-0.424C0.1,-0.466 0.131,-0.499 0.171,-0.522C0.21,-0.545 0.255,-0.557 0.304,-0.557C0.351,-0.557 0.393,-0.547 0.429,-0.526C0.464,-0.504 0.49,-0.479 0.507,-0.448L0.507,-0.548L0.599,-0.548L0.599,0.26L0.507,0.26L0.507,-0.101C0.49,-0.07 0.463,-0.044 0.427,-0.023C0.391,-0.002 0.349,0.009 0.301,0.009C0.253,0.009 0.209,-0.003 0.17,-0.027C0.131,-0.051 0.1,-0.085 0.077,-0.128C0.054,-0.171 0.043,-0.221 0.043,-0.276ZM0.507,-0.275C0.507,-0.316 0.499,-0.352 0.482,-0.383C0.465,-0.414 0.443,-0.437 0.414,-0.454C0.386,-0.47 0.355,-0.478 0.321,-0.478C0.287,-0.478 0.256,-0.47 0.228,-0.454C0.2,-0.438 0.178,-0.415 0.161,-0.384C0.144,-0.353 0.136,-0.317 0.136,-0.276C0.136,-0.234 0.144,-0.198 0.161,-0.167C0.178,-0.136 0.2,-0.112 0.228,-0.096C0.256,-0.079 0.287,-0.071 0.321,-0.071C0.355,-0.071 0.386,-0.079 0.414,-0.096C0.443,-0.112 0.465,-0.136 0.482,-0.167C0.499,-0.198 0.507,-0.234 0.507,-0.275Z" style="fill-rule:nonzero;"/>
                </g>
                <g transform="matrix(20,0,0,20,366.143,127.524)">
                    <path d="M0.563,-0.548L0.563,-0L0.472,-0L0.472,-0.081C0.455,-0.053 0.431,-0.031 0.4,-0.016C0.369,0 0.334,0.008 0.297,0.008C0.254,0.008 0.216,-0.001 0.182,-0.019C0.148,-0.036 0.121,-0.063 0.102,-0.098C0.082,-0.133 0.072,-0.176 0.072,-0.227L0.072,-0.548L0.162,-0.548L0.162,-0.239C0.162,-0.185 0.176,-0.143 0.203,-0.115C0.23,-0.086 0.268,-0.071 0.315,-0.071C0.364,-0.071 0.402,-0.086 0.43,-0.116C0.458,-0.146 0.472,-0.19 0.472,-0.247L0.472,-0.548L0.563,-0.548Z" style="fill-rule:nonzero;"/>
                </g>
                <g transform="matrix(20,0,0,20,378.943,127.524)">
                    <path d="M0.577,-0.295C0.577,-0.278 0.576,-0.259 0.574,-0.24L0.136,-0.24C0.139,-0.186 0.158,-0.144 0.192,-0.114C0.225,-0.083 0.266,-0.068 0.314,-0.068C0.353,-0.068 0.386,-0.077 0.412,-0.096C0.439,-0.114 0.457,-0.138 0.468,-0.169L0.566,-0.169C0.551,-0.116 0.522,-0.074 0.478,-0.041C0.434,-0.008 0.379,0.009 0.314,0.009C0.262,0.009 0.216,-0.003 0.174,-0.026C0.134,-0.049 0.101,-0.083 0.078,-0.126C0.055,-0.169 0.043,-0.218 0.043,-0.275C0.043,-0.332 0.054,-0.381 0.077,-0.424C0.1,-0.467 0.132,-0.5 0.172,-0.523C0.214,-0.546 0.261,-0.557 0.314,-0.557C0.366,-0.557 0.412,-0.546 0.452,-0.523C0.492,-0.5 0.523,-0.469 0.545,-0.43C0.566,-0.39 0.577,-0.345 0.577,-0.295ZM0.483,-0.314C0.483,-0.349 0.475,-0.379 0.46,-0.404C0.445,-0.429 0.424,-0.448 0.398,-0.461C0.371,-0.473 0.342,-0.48 0.31,-0.48C0.264,-0.48 0.225,-0.465 0.193,-0.436C0.16,-0.407 0.142,-0.366 0.137,-0.314L0.483,-0.314Z" style="fill-rule:nonzero;"/>
                </g>
                <g transform="matrix(20,0,0,20,391.343,127.524)">
                    <path d="M0.271,0.009C0.229,0.009 0.191,0.002 0.158,-0.013C0.125,-0.027 0.098,-0.047 0.079,-0.073C0.06,-0.098 0.049,-0.128 0.047,-0.161L0.141,-0.161C0.144,-0.134 0.157,-0.111 0.18,-0.094C0.203,-0.077 0.233,-0.068 0.27,-0.068C0.305,-0.068 0.332,-0.076 0.352,-0.091C0.372,-0.106 0.382,-0.126 0.382,-0.149C0.382,-0.173 0.371,-0.191 0.35,-0.203C0.329,-0.214 0.296,-0.226 0.251,-0.237C0.21,-0.248 0.177,-0.259 0.152,-0.27C0.126,-0.281 0.104,-0.297 0.086,-0.319C0.067,-0.34 0.058,-0.369 0.058,-0.404C0.058,-0.432 0.066,-0.458 0.083,-0.481C0.1,-0.504 0.123,-0.523 0.154,-0.537C0.185,-0.55 0.22,-0.557 0.259,-0.557C0.32,-0.557 0.369,-0.542 0.406,-0.511C0.443,-0.48 0.463,-0.438 0.466,-0.385L0.375,-0.385C0.373,-0.414 0.362,-0.437 0.341,-0.454C0.32,-0.471 0.291,-0.48 0.256,-0.48C0.223,-0.48 0.197,-0.473 0.178,-0.459C0.159,-0.445 0.149,-0.427 0.149,-0.404C0.149,-0.386 0.155,-0.371 0.167,-0.36C0.178,-0.348 0.193,-0.339 0.211,-0.332C0.228,-0.325 0.253,-0.317 0.284,-0.308C0.323,-0.297 0.355,-0.287 0.38,-0.277C0.405,-0.266 0.426,-0.251 0.444,-0.23C0.461,-0.209 0.47,-0.182 0.471,-0.149C0.471,-0.119 0.463,-0.092 0.446,-0.068C0.429,-0.044 0.406,-0.025 0.376,-0.012C0.345,0.002 0.31,0.009 0.271,0.009Z" style="fill-rule:nonzero;"/>
                </g>
                <g transform="matrix(20,0,0,20,401.783,127.524)">
                    <path d="M0.188,-0.473L0.188,-0.15C0.188,-0.123 0.194,-0.105 0.205,-0.094C0.216,-0.083 0.236,-0.077 0.264,-0.077L0.331,-0.077L0.331,-0L0.249,-0C0.198,-0 0.16,-0.012 0.135,-0.035C0.11,-0.058 0.097,-0.097 0.097,-0.15L0.097,-0.473L0.026,-0.473L0.026,-0.548L0.097,-0.548L0.097,-0.686L0.188,-0.686L0.188,-0.548L0.331,-0.548L0.331,-0.473L0.188,-0.473Z" style="fill-rule:nonzero;"/>
                </g>
                <g transform="matrix(20,0,0,20,409.063,127.524)">
                    <path d="M0.124,-0.637C0.107,-0.637 0.092,-0.643 0.08,-0.655C0.068,-0.667 0.062,-0.682 0.062,-0.699C0.062,-0.716 0.068,-0.731 0.08,-0.743C0.092,-0.755 0.107,-0.761 0.124,-0.761C0.141,-0.761 0.155,-0.755 0.167,-0.743C0.178,-0.731 0.184,-0.716 0.184,-0.699C0.184,-0.682 0.178,-0.667 0.167,-0.655C0.155,-0.643 0.141,-0.637 0.124,-0.637ZM0.168,-0.548L0.168,-0L0.077,-0L0.077,-0.548L0.168,-0.548Z" style="fill-rule:nonzero;"/>
                </g>
                <g transform="matrix(20,0,0,20,413.983,127.524)">
                    <path d="M0.316,0.009C0.265,0.009 0.218,-0.003 0.177,-0.026C0.135,-0.049 0.102,-0.083 0.079,-0.126C0.055,-0.169 0.043,-0.218 0.043,-0.275C0.043,-0.331 0.055,-0.381 0.08,-0.424C0.104,-0.467 0.137,-0.5 0.179,-0.523C0.221,-0.546 0.268,-0.557 0.32,-0.557C0.372,-0.557 0.419,-0.546 0.461,-0.523C0.503,-0.5 0.536,-0.467 0.561,-0.424C0.585,-0.381 0.597,-0.332 0.597,-0.275C0.597,-0.218 0.585,-0.169 0.56,-0.126C0.535,-0.083 0.501,-0.049 0.458,-0.026C0.415,-0.003 0.368,0.009 0.316,0.009ZM0.316,-0.071C0.349,-0.071 0.379,-0.079 0.408,-0.094C0.437,-0.109 0.46,-0.132 0.477,-0.163C0.495,-0.194 0.504,-0.231 0.504,-0.275C0.504,-0.319 0.495,-0.356 0.478,-0.387C0.461,-0.418 0.438,-0.441 0.41,-0.456C0.382,-0.47 0.352,-0.478 0.319,-0.478C0.286,-0.478 0.255,-0.47 0.228,-0.456C0.2,-0.441 0.178,-0.418 0.161,-0.387C0.144,-0.356 0.136,-0.319 0.136,-0.275C0.136,-0.23 0.144,-0.193 0.161,-0.162C0.177,-0.131 0.199,-0.109 0.226,-0.094C0.253,-0.079 0.283,-0.071 0.316,-0.071Z" style="fill-rule:nonzero;"/>
                </g>
                <g transform="matrix(20,0,0,20,426.783,127.524)">
                    <path d="M0.344,-0.558C0.411,-0.558 0.465,-0.538 0.506,-0.498C0.547,-0.457 0.568,-0.399 0.568,-0.323L0.568,-0L0.478,-0L0.478,-0.31C0.478,-0.365 0.464,-0.406 0.437,-0.436C0.41,-0.465 0.372,-0.479 0.325,-0.479C0.277,-0.479 0.239,-0.464 0.211,-0.434C0.182,-0.404 0.168,-0.36 0.168,-0.303L0.168,-0L0.077,-0L0.077,-0.548L0.168,-0.548L0.168,-0.47C0.186,-0.498 0.211,-0.52 0.242,-0.535C0.273,-0.55 0.307,-0.558 0.344,-0.558Z" style="fill-rule:nonzero;"/>
                </g>
                <g transform="matrix(20,0,0,20,439.583,127.524)">
                    <path d="M0.171,-0.126L0.059,0.143L-0.002,0.143L0.071,-0.126L0.171,-0.126Z" style="fill-rule:nonzero;"/>
                </g>
                <g transform="matrix(20,0,0,20,448.883,127.524)">
                    <path d="M0.188,-0.473L0.188,-0.15C0.188,-0.123 0.194,-0.105 0.205,-0.094C0.216,-0.083 0.236,-0.077 0.264,-0.077L0.331,-0.077L0.331,-0L0.249,-0C0.198,-0 0.16,-0.012 0.135,-0.035C0.11,-0.058 0.097,-0.097 0.097,-0.15L0.097,-0.473L0.026,-0.473L0.026,-0.548L0.097,-0.548L0.097,-0.686L0.188,-0.686L0.188,-0.548L0.331,-0.548L0.331,-0.473L0.188,-0.473Z" style="fill-rule:nonzero;"/>
                </g>
                <g transform="matrix(20,0,0,20,456.163,127.524)">
                    <path d="M0.349,-0.558C0.39,-0.558 0.428,-0.549 0.461,-0.532C0.494,-0.514 0.521,-0.487 0.54,-0.452C0.559,-0.417 0.568,-0.374 0.568,-0.323L0.568,-0L0.478,-0L0.478,-0.31C0.478,-0.365 0.464,-0.406 0.437,-0.436C0.41,-0.465 0.372,-0.479 0.325,-0.479C0.277,-0.479 0.239,-0.464 0.211,-0.434C0.182,-0.404 0.168,-0.36 0.168,-0.303L0.168,-0L0.077,-0L0.077,-0.74L0.168,-0.74L0.168,-0.47C0.186,-0.498 0.211,-0.52 0.243,-0.535C0.274,-0.55 0.31,-0.558 0.349,-0.558Z" style="fill-rule:nonzero;"/>
                </g>
                <g transform="matrix(20,0,0,20,468.963,127.524)">
                    <path d="M0.577,-0.295C0.577,-0.278 0.576,-0.259 0.574,-0.24L0.136,-0.24C0.139,-0.186 0.158,-0.144 0.192,-0.114C0.225,-0.083 0.266,-0.068 0.314,-0.068C0.353,-0.068 0.386,-0.077 0.412,-0.096C0.439,-0.114 0.457,-0.138 0.468,-0.169L0.566,-0.169C0.551,-0.116 0.522,-0.074 0.478,-0.041C0.434,-0.008 0.379,0.009 0.314,0.009C0.262,0.009 0.216,-0.003 0.174,-0.026C0.134,-0.049 0.101,-0.083 0.078,-0.126C0.055,-0.169 0.043,-0.218 0.043,-0.275C0.043,-0.332 0.054,-0.381 0.077,-0.424C0.1,-0.467 0.132,-0.5 0.172,-0.523C0.214,-0.546 0.261,-0.557 0.314,-0.557C0.366,-0.557 0.412,-0.546 0.452,-0.523C0.492,-0.5 0.523,-0.469 0.545,-0.43C0.566,-0.39 0.577,-0.345 0.577,-0.295ZM0.483,-0.314C0.483,-0.349 0.475,-0.379 0.46,-0.404C0.445,-0.429 0.424,-0.448 0.398,-0.461C0.371,-0.473 0.342,-0.48 0.31,-0.48C0.264,-0.48 0.225,-0.465 0.193,-0.436C0.16,-0.407 0.142,-0.366 0.137,-0.314L0.483,-0.314Z" style="fill-rule:nonzero;"/>
                </g>
                <g transform="matrix(20,0,0,20,481.363,127.524)">
                    <path d="M0.344,-0.558C0.411,-0.558 0.465,-0.538 0.506,-0.498C0.547,-0.457 0.568,-0.399 0.568,-0.323L0.568,-0L0.478,-0L0.478,-0.31C0.478,-0.365 0.464,-0.406 0.437,-0.436C0.41,-0.465 0.372,-0.479 0.325,-0.479C0.277,-0.479 0.239,-0.464 0.211,-0.434C0.182,-0.404 0.168,-0.36 0.168,-0.303L0.168,-0L0.077,-0L0.077,-0.548L0.168,-0.548L0.168,-0.47C0.186,-0.498 0.211,-0.52 0.242,-0.535C0.273,-0.55 0.307,-0.558 0.344,-0.558Z" style="fill-rule:nonzero;"/>
                </g>
                <g transform="matrix(20,0,0,20,368.183,149.524)">
                    <path d="M0.188,-0.473L0.188,-0.15C0.188,-0.123 0.194,-0.105 0.205,-0.094C0.216,-0.083 0.236,-0.077 0.264,-0.077L0.331,-0.077L0.331,-0L0.249,-0C0.198,-0 0.16,-0.012 0.135,-0.035C0.11,-0.058 0.097,-0.097 0.097,-0.15L0.097,-0.473L0.026,-0.473L0.026,-0.548L0.097,-0.548L0.097,-0.686L0.188,-0.686L0.188,-0.548L0.331,-0.548L0.331,-0.473L0.188,-0.473Z" style="fill-rule:nonzero;"/>
                </g>
                <g transform="matrix(20,0,0,20,375.463,149.524)">
                    <path d="M0.349,-0.558C0.39,-0.558 0.428,-0.549 0.461,-0.532C0.494,-0.514 0.521,-0.487 0.54,-0.452C0.559,-0.417 0.568,-0.374 0.568,-0.323L0.568,-0L0.478,-0L0.478,-0.31C0.478,-0.365 0.464,-0.406 0.437,-0.436C0.41,-0.465 0.372,-0.479 0.325,-0.479C0.277,-0.479 0.239,-0.464 0.211,-0.434C0.182,-0.404 0.168,-0.36 0.168,-0.303L0.168,-0L0.077,-0L0.077,-0.74L0.168,-0.74L0.168,-0.47C0.186,-0.498 0.211,-0.52 0.243,-0.535C0.274,-0.55 0.31,-0.558 0.349,-0.558Z" style="fill-rule:nonzero;"/>
                </g>
                <g transform="matrix(20,0,0,20,388.263,149.524)">
                    <path d="M0.124,-0.637C0.107,-0.637 0.092,-0.643 0.08,-0.655C0.068,-0.667 0.062,-0.682 0.062,-0.699C0.062,-0.716 0.068,-0.731 0.08,-0.743C0.092,-0.755 0.107,-0.761 0.124,-0.761C0.141,-0.761 0.155,-0.755 0.167,-0.743C0.178,-0.731 0.184,-0.716 0.184,-0.699C0.184,-0.682 0.178,-0.667 0.167,-0.655C0.155,-0.643 0.141,-0.637 0.124,-0.637ZM0.168,-0.548L0.168,-0L0.077,-0L0.077,-0.548L0.168,-0.548Z" style="fill-rule:nonzero;"/>
                </g>
                <g transform="matrix(20,0,0,20,393.183,149.524)">
                    <path d="M0.344,-0.558C0.411,-0.558 0.465,-0.538 0.506,-0.498C0.547,-0.457 0.568,-0.399 0.568,-0.323L0.568,-0L0.478,-0L0.478,-0.31C0.478,-0.365 0.464,-0.406 0.437,-0.436C0.41,-0.465 0.372,-0.479 0.325,-0.479C0.277,-0.479 0.239,-0.464 0.211,-0.434C0.182,-0.404 0.168,-0.36 0.168,-0.303L0.168,-0L0.077,-0L0.077,-0.548L0.168,-0.548L0.168,-0.47C0.186,-0.498 0.211,-0.52 0.242,-0.535C0.273,-0.55 0.307,-0.558 0.344,-0.558Z" style="fill-rule:nonzero;"/>
                </g>
                <g transform="matrix(20,0,0,20,405.983,149.524)">
                    <path d="M0.383,-0L0.168,-0.242L0.168,-0L0.077,-0L0.077,-0.74L0.168,-0.74L0.168,-0.305L0.379,-0.548L0.506,-0.548L0.248,-0.275L0.507,-0L0.383,-0Z" style="fill-rule:nonzero;"/>
                </g>
                <g transform="matrix(20,0,0,20,416.283,149.524)">
                    <path d="M0.106,0.006C0.089,0.006 0.074,-0 0.062,-0.012C0.05,-0.024 0.044,-0.039 0.044,-0.056C0.044,-0.073 0.05,-0.088 0.062,-0.1C0.074,-0.112 0.089,-0.118 0.106,-0.118C0.123,-0.118 0.137,-0.112 0.149,-0.1C0.16,-0.088 0.166,-0.073 0.166,-0.056C0.166,-0.039 0.16,-0.024 0.149,-0.012C0.137,-0 0.123,0.006 0.106,0.006Z" style="fill-rule:nonzero;"/>
                </g>
                <g transform="matrix(20,0,0,20,425.823,149.524)">
                    <path d="M0.506,-0.697L0.506,-0.623L0.316,-0.623L0.316,-0L0.225,-0L0.225,-0.623L0.034,-0.623L0.034,-0.697L0.506,-0.697Z" style="fill-rule:nonzero;"/>
                </g>
                <g transform="matrix(20,0,0,20,436.643,149.524)">
                    <path d="M0.349,-0.558C0.39,-0.558 0.428,-0.549 0.461,-0.532C0.494,-0.514 0.521,-0.487 0.54,-0.452C0.559,-0.417 0.568,-0.374 0.568,-0.323L0.568,-0L0.478,-0L0.478,-0.31C0.478,-0.365 0.464,-0.406 0.437,-0.436C0.41,-0.465 0.372,-0.479 0.325,-0.479C0.277,-0.479 0.239,-0.464 0.211,-0.434C0.182,-0.404 0.168,-0.36 0.168,-0.303L0.168,-0L0.077,-0L0.077,-0.74L0.168,-0.74L0.168,-0.47C0.186,-0.498 0.211,-0.52 0.243,-0.535C0.274,-0.55 0.31,-0.558 0.349,-0.558Z" style="fill-rule:nonzero;"/>
                </g>
                <g transform="matrix(20,0,0,20,449.443,149.524)">
                    <path d="M0.577,-0.295C0.577,-0.278 0.576,-0.259 0.574,-0.24L0.136,-0.24C0.139,-0.186 0.158,-0.144 0.192,-0.114C0.225,-0.083 0.266,-0.068 0.314,-0.068C0.353,-0.068 0.386,-0.077 0.412,-0.096C0.439,-0.114 0.457,-0.138 0.468,-0.169L0.566,-0.169C0.551,-0.116 0.522,-0.074 0.478,-0.041C0.434,-0.008 0.379,0.009 0.314,0.009C0.262,0.009 0.216,-0.003 0.174,-0.026C0.134,-0.049 0.101,-0.083 0.078,-0.126C0.055,-0.169 0.043,-0.218 0.043,-0.275C0.043,-0.332 0.054,-0.381 0.077,-0.424C0.1,-0.467 0.132,-0.5 0.172,-0.523C0.214,-0.546 0.261,-0.557 0.314,-0.557C0.366,-0.557 0.412,-0.546 0.452,-0.523C0.492,-0.5 0.523,-0.469 0.545,-0.43C0.566,-0.39 0.577,-0.345 0.577,-0.295ZM0.483,-0.314C0.483,-0.349 0.475,-0.379 0.46,-0.404C0.445,-0.429 0.424,-0.448 0.398,-0.461C0.371,-0.473 0.342,-0.48 0.31,-0.48C0.264,-0.48 0.225,-0.465 0.193,-0.436C0.16,-0.407 0.142,-0.366 0.137,-0.314L0.483,-0.314Z" style="fill-rule:nonzero;"/>
                </g>
                <g transform="matrix(20,0,0,20,461.843,149.524)">
                    <path d="M0.344,-0.558C0.411,-0.558 0.465,-0.538 0.506,-0.498C0.547,-0.457 0.568,-0.399 0.568,-0.323L0.568,-0L0.478,-0L0.478,-0.31C0.478,-0.365 0.464,-0.406 0.437,-0.436C0.41,-0.465 0.372,-0.479 0.325,-0.479C0.277,-0.479 0.239,-0.464 0.211,-0.434C0.182,-0.404 0.168,-0.36 0.168,-0.303L0.168,-0L0.077,-0L0.077,-0.548L0.168,-0.548L0.168,-0.47C0.186,-0.498 0.211,-0.52 0.242,-0.535C0.273,-0.55 0.307,-0.558 0.344,-0.558Z" style="fill-rule:nonzero;"/>
                </g>
                <g transform="matrix(20,0,0,20,474.643,149.524)">
                    <path d="M0.171,-0.126L0.059,0.143L-0.002,0.143L0.071,-0.126L0.171,-0.126Z" style="fill-rule:nonzero;"/>
                </g>
            </g>
        </g>
        <g id="yes">
            <g transform="matrix(1,0,0,0.493661,2.20954,104.209)">
                <g transform="matrix(1,-0,-0,2.02568,76.3557,-211.095)">
                    <path d="M543.775,276.53L537.775,282.53L531.775,276.53" style="fill:none;stroke:black;stroke-width:2px;stroke-linejoin:miter;stroke-miterlimit:10;"/>
                    <path d="M410.697,209.462L537.775,209.462L537.775,282.53" style="fill:none;stroke:black;stroke-width:2px;"/>
                </g>
            </g>
            <g transform="matrix(0.322584,0,0,0.560927,485.504,149.204)">
                <rect x="312.947" y="72.266" width="174.106" height="74.714" style="fill:white;"/>
            </g>
            <g transform="matrix(1,0,0,1,3.55303,7.87607)">
                <g transform="matrix(24,0,0,24,590.169,209.842)">
                    <path d="M0.565,-0.697L0.338,-0.263L0.338,-0L0.247,-0L0.247,-0.263L0.019,-0.697L0.12,-0.697L0.292,-0.344L0.464,-0.697L0.565,-0.697Z" style="fill-rule:nonzero;"/>
                </g>
                <g transform="matrix(24,0,0,24,604.185,209.842)">
                    <path d="M0.577,-0.295C0.577,-0.278 0.576,-0.259 0.574,-0.24L0.136,-0.24C0.139,-0.186 0.158,-0.144 0.192,-0.114C0.225,-0.083 0.266,-0.068 0.314,-0.068C0.353,-0.068 0.386,-0.077 0.412,-0.096C0.439,-0.114 0.457,-0.138 0.468,-0.169L0.566,-0.169C0.551,-0.116 0.522,-0.074 0.478,-0.041C0.434,-0.008 0.379,0.009 0.314,0.009C0.262,0.009 0.216,-0.003 0.174,-0.026C0.134,-0.049 0.101,-0.083 0.078,-0.126C0.055,-0.169 0.043,-0.218 0.043,-0.275C0.043,-0.332 0.054,-0.381 0.077,-0.424C0.1,-0.467 0.132,-0.5 0.172,-0.523C0.214,-0.546 0.261,-0.557 0.314,-0.557C0.366,-0.557 0.412,-0.546 0.452,-0.523C0.492,-0.5 0.523,-0.469 0.545,-0.43C0.566,-0.39 0.577,-0.345 0.577,-0.295ZM0.483,-0.314C0.483,-0.349 0.475,-0.379 0.46,-0.404C0.445,-0.429 0.424,-0.448 0.398,-0.461C0.371,-0.473 0.342,-0.48 0.31,-0.48C0.264,-0.48 0.225,-0.465 0.193,-0.436C0.16,-0.407 0.142,-0.366 0.137,-0.314L0.483,-0.314Z" style="fill-rule:nonzero;"/>
                </g>
                <g transform="matrix(24,0,0,24,619.065,209.842)">
                    <path d="M0.271,0.009C0.229,0.009 0.191,0.002 0.158,-0.013C0.125,-0.027 0.098,-0.047 0.079,-0.073C0.06,-0.098 0.049,-0.128 0.047,-0.161L0.141,-0.161C0.144,-0.134 0.157,-0.111 0.18,-0.094C0.203,-0.077 0.233,-0.068 0.27,-0.068C0.305,-0.068 0.332,-0.076 0.352,-0.091C0.372,-0.106 0.382,-0.126 0.382,-0.149C0.382,-0.173 0.371,-0.191 0.35,-0.203C0.329,-0.214 0.296,-0.226 0.251,-0.237C0.21,-0.248 0.177,-0.259 0.152,-0.27C0.126,-0.281 0.104,-0.297 0.086,-0.319C0.067,-0.34 0.058,-0.369 0.058,-0.404C0.058,-0.432 0.066,-0.458 0.083,-0.481C0.1,-0.504 0.123,-0.523 0.154,-0.537C0.185,-0.55 0.22,-0.557 0.259,-0.557C0.32,-0.557 0.369,-0.542 0.406,-0.511C0.443,-0.48 0.463,-0.438 0.466,-0.385L0.375,-0.385C0.373,-0.414 0.362,-0.437 0.341,-0.454C0.32,-0.471 0.291,-0.48 0.256,-0.48C0.223,-0.48 0.197,-0.473 0.178,-0.459C0.159,-0.445 0.149,-0.427 0.149,-0.404C0.149,-0.386 0.155,-0.371 0.167,-0.36C0.178,-0.348 0.193,-0.339 0.211,-0.332C0.228,-0.325 0.253,-0.317 0.284,-0.308C0.323,-0.297 0.355,-0.287 0.38,-0.277C0.405,-0.266 0.426,-0.251 0.444,-0.23C0.461,-0.209 0.47,-0.182 0.471,-0.149C0.471,-0.119 0.463,-0.092 0.446,-0.068C0.429,-0.044 0.406,-0.025 0.376,-0.012C0.345,0.002 0.31,0.009 0.271,0.009Z" style="fill-rule:nonzero;"/>
                </g>
            </g>
        </g>
        <g id="no">
            <g transform="matrix(-1,0,0,0.493661,802.657,104.209)">
                <g transform="matrix(-1,0,0,2.02568,724.092,-211.095)">
                    <path d="M115.961,276.53L109.961,282.53L103.961,276.53" style="fill:none;stroke:black;stroke-width:2px;stroke-linejoin:miter;stroke-miterlimit:10;"/>
                    <path d="M237.039,209.462L109.961,209.462L109.961,282.53" style="fill:none;stroke:black;stroke-width:2px;"/>
                </g>
            </g>
            <g transform="matrix(0.322584,0,0,0.560927,60.1834,149.204)">
                <rect x="312.947" y="72.266" width="174.106" height="74.714" style="fill:white;"/>
            </g>
            <g transform="matrix(1,0,0,1,-421.768,7.87607)">
                <g transform="matrix(24,0,0,24,594.765,209.842)">
                    <path d="M0.625,-0L0.534,-0L0.168,-0.555L0.168,-0L0.077,-0L0.077,-0.698L0.168,-0.698L0.534,-0.144L0.534,-0.698L0.625,-0.698L0.625,-0Z" style="fill-rule:nonzero;"/>
                </g>
                <g transform="matrix(24,0,0,24,611.637,209.842)">
                    <path d="M0.316,0.009C0.265,0.009 0.218,-0.003 0.177,-0.026C0.135,-0.049 0.102,-0.083 0.079,-0.126C0.055,-0.169 0.043,-0.218 0.043,-0.275C0.043,-0.331 0.055,-0.381 0.08,-0.424C0.104,-0.467 0.137,-0.5 0.179,-0.523C0.221,-0.546 0.268,-0.557 0.32,-0.557C0.372,-0.557 0.419,-0.546 0.461,-0.523C0.503,-0.5 0.536,-0.467 0.561,-0.424C0.585,-0.381 0.597,-0.332 0.597,-0.275C0.597,-0.218 0.585,-0.169 0.56,-0.126C0.535,-0.083 0.501,-0.049 0.458,-0.026C0.415,-0.003 0.368,0.009 0.316,0.009ZM0.316,-0.071C0.349,-0.071 0.379,-0.079 0.408,-0.094C0.437,-0.109 0.46,-0.132 0.477,-0.163C0.495,-0.194 0.504,-0.231 0.504,-0.275C0.504,-0.319 0.495,-0.356 0.478,-0.387C0.461,-0.418 0.438,-0.441 0.41,-0.456C0.382,-0.47 0.352,-0.478 0.319,-0.478C0.286,-0.478 0.255,-0.47 0.228,-0.456C0.2,-0.441 0.178,-0.418 0.161,-0.387C0.144,-0.356 0.136,-0.319 0.136,-0.275C0.136,-0.23 0.144,-0.193 0.161,-0.162C0.177,-0.131 0.199,-0.109 0.226,-0.094C0.253,-0.079 0.283,-0.071 0.316,-0.071Z" style="fill-rule:nonzero;"/>
                </g>
            </g>
        </g>
        <g id="fine">
            <g transform="matrix(1,0,0,1,2.20954,-3.74595)">
                <g transform="matrix(1,-0,-0,1,76.3557,3.74595)">
                    <path d="M116.652,468.492L110.652,474.492L104.652,468.492" style="fill:none;stroke:black;stroke-width:2px;stroke-linejoin:miter;stroke-miterlimit:10;"/>
                    <path d="M110.652,395.848L110.652,474.492" style="fill:none;stroke:black;stroke-width:2px;"/>
                </g>
            </g>
            <g transform="matrix(0.322584,0,0,0.560927,60.1834,373.782)">
                <rect x="312.947" y="72.266" width="174.106" height="74.714" style="fill:white;"/>
            </g>
            <g transform="matrix(1,0,0,1,-421.768,232.453)">
                <g transform="matrix(24,0,0,24,586.761,209.842)">
                    <path d="M0.471,-0.697L0.471,-0.623L0.168,-0.623L0.168,-0.388L0.414,-0.388L0.414,-0.314L0.168,-0.314L0.168,-0L0.077,-0L0.077,-0.697L0.471,-0.697Z" style="fill-rule:nonzero;"/>
                </g>
                <g transform="matrix(24,0,0,24,598.857,209.842)">
                    <path d="M0.124,-0.637C0.107,-0.637 0.092,-0.643 0.08,-0.655C0.068,-0.667 0.062,-0.682 0.062,-0.699C0.062,-0.716 0.068,-0.731 0.08,-0.743C0.092,-0.755 0.107,-0.761 0.124,-0.761C0.141,-0.761 0.155,-0.755 0.167,-0.743C0.178,-0.731 0.184,-0.716 0.184,-0.699C0.184,-0.682 0.178,-0.667 0.167,-0.655C0.155,-0.643 0.141,-0.637 0.124,-0.637ZM0.168,-0.548L0.168,-0L0.077,-0L0.077,-0.548L0.168,-0.548Z" style="fill-rule:nonzero;"/>
                </g>
                <g transform="matrix(24,0,0,24,604.761,209.842)">
                    <path d="M0.344,-0.558C0.411,-0.558 0.465,-0.538 0.506,-0.498C0.547,-0.457 0.568,-0.399 0.568,-0.323L0.568,-0L0.478,-0L0.478,-0.31C0.478,-0.365 0.464,-0.406 0.437,-0.436C0.41,-0.465 0.372,-0.479 0.325,-0.479C0.277,-0.479 0.239,-0.464 0.211,-0.434C0.182,-0.404 0.168,-0.36 0.168,-0.303L0.168,-0L0.077,-0L0.077,-0.548L0.168,-0.548L0.168,-0.47C0.186,-0.498 0.211,-0.52 0.242,-0.535C0.273,-0.55 0.307,-0.558 0.344,-0.558Z" style="fill-rule:nonzero;"/>
                </g>
                <g transform="matrix(24,0,0,24,620.121,209.842)">
                    <path d="M0.577,-0.295C0.577,-0.278 0.576,-0.259 0.574,-0.24L0.136,-0.24C0.139,-0.186 0.158,-0.144 0.192,-0.114C0.225,-0.083 0.266,-0.068 0.314,-0.068C0.353,-0.068 0.386,-0.077 0.412,-0.096C0.439,-0.114 0.457,-0.138 0.468,-0.169L0.566,-0.169C0.551,-0.116 0.522,-0.074 0.478,-0.041C0.434,-0.008 0.379,0.009 0.314,0.009C0.262,0.009 0.216,-0.003 0.174,-0.026C0.134,-0.049 0.101,-0.083 0.078,-0.126C0.055,-0.169 0.043,-0.218 0.043,-0.275C0.043,-0.332 0.054,-0.381 0.077,-0.424C0.1,-0.467 0.132,-0.5 0.172,-0.523C0.214,-0.546 0.261,-0.557 0.314,-0.557C0.366,-0.557 0.412,-0.546 0.452,-0.523C0.492,-0.5 0.523,-0.469 0.545,-0.43C0.566,-0.39 0.577,-0.345 0.577,-0.295ZM0.483,-0.314C0.483,-0.349 0.475,-0.379 0.46,-0.404C0.445,-0.429 0.424,-0.448 0.398,-0.461C0.371,-0.473 0.342,-0.48 0.31,-0.48C0.264,-0.48 0.225,-0.465 0.193,-0.436C0.16,-0.407 0.142,-0.366 0.137,-0.314L0.483,-0.314Z" style="fill-rule:nonzero;"/>
                </g>
            </g>
        </g>
    </g>
</svg>
