<?xml version="1.0" encoding="UTF-8" standalone="no"?>
<!DOCTYPE svg PUBLIC "-//W3C//DTD SVG 1.1//EN" "http://www.w3.org/Graphics/SVG/1.1/DTD/svg11.dtd">
<svg width="100%" height="100%" viewBox="0 0 1920 1080" version="1.1" xmlns="http://www.w3.org/2000/svg" xmlns:xlink="http://www.w3.org/1999/xlink" xml:space="preserve" xmlns:serif="http://www.serif.com/" style="fill-rule:evenodd;clip-rule:evenodd;stroke-linejoin:round;stroke-miterlimit:2;">
    <g id="Page-1" transform="matrix(16.3636,0,0,16.3636,567.273,0)">
        <g id="Consumer-Apps-Slides-Large-VD-R8">
            <g id="Hero">
                <g id="Personal">
                    <g id="Slides-icon">
                        <g id="Group">
                            <g id="Clipped">
                                <path id="Path" d="M29.583,0L4.438,0C1.997,0 0,1.997 0,4.438L0,60.646C0,63.086 1.997,65.083 4.438,65.083L42.896,65.083C45.336,65.083 47.333,63.086 47.333,60.646L47.333,17.75L36.979,10.354L29.583,0Z" style="fill:rgb(244,180,0);fill-rule:nonzero;"/>
                            </g>
                            <g id="Clipped1" serif:id="Clipped">
                                <path id="Shape" d="M33.281,29.583L14.052,29.583C12.832,29.583 11.833,30.582 11.833,31.802L11.833,51.031C11.833,52.252 12.832,53.25 14.052,53.25L33.281,53.25C34.502,53.25 35.5,52.252 35.5,51.031L35.5,31.802C35.5,30.582 34.502,29.583 33.281,29.583ZM32.542,46.594L14.792,46.594L14.792,36.24L32.542,36.24L32.542,46.594Z" style="fill:rgb(241,241,241);fill-rule:nonzero;"/>
                            </g>
                            <g id="Clipped2" serif:id="Clipped">
                                <path id="Path1" serif:id="Path" d="M30.881,16.452L47.333,32.9L47.333,17.75L30.881,16.452Z" style="fill:url(#_Linear1);fill-rule:nonzero;"/>
                            </g>
                            <g transform="matrix(1,0,0,1,26.625,-2.95833)">
                                <g id="Clipped3" serif:id="Clipped">
                                    <g id="Group1" serif:id="Group">
                                        <g>
                                            <path id="Path2" serif:id="Path" d="M2.958,2.958L2.958,16.271C2.958,18.723 4.944,20.708 7.396,20.708L20.708,20.708L2.958,2.958Z" style="fill:rgb(250,218,128);fill-rule:nonzero;"/>
                                        </g>
                                    </g>
                                </g>
                            </g>
                            <g id="Clipped4" serif:id="Clipped">
                                <path id="Path3" serif:id="Path" d="M29.583,0L29.583,0.37L46.964,17.75L47.333,17.75L29.583,0Z" style="fill:white;fill-opacity:0.1;fill-rule:nonzero;"/>
                            </g>
                            <g id="Clipped5" serif:id="Clipped">
                                <path id="Path4" serif:id="Path" d="M4.438,0C1.997,0 0,1.997 0,4.438L0,4.807C0,2.367 1.997,0.37 4.438,0.37L29.583,0.37L29.583,0L4.438,0Z" style="fill:white;fill-opacity:0.2;fill-rule:nonzero;"/>
                            </g>
                            <g id="Clipped6" serif:id="Clipped">
                                <path id="Path5" serif:id="Path" d="M42.896,64.714L4.438,64.714C1.997,64.714 0,62.717 0,60.276L0,60.646C0,63.086 1.997,65.083 4.438,65.083L42.896,65.083C45.336,65.083 47.333,63.086 47.333,60.646L47.333,60.276C47.333,62.717 45.336,64.714 42.896,64.714Z" style="fill:rgb(191,54,12);fill-opacity:0.2;fill-rule:nonzero;"/>
                            </g>
                            <g id="Clipped7" serif:id="Clipped">
                                <path id="Path6" serif:id="Path" d="M34.021,17.75C31.569,17.75 29.583,15.764 29.583,13.313L29.583,13.682C29.583,16.134 31.569,18.12 34.021,18.12L47.333,18.12L47.333,17.75L34.021,17.75Z" style="fill:rgb(191,54,12);fill-opacity:0.1;fill-rule:nonzero;"/>
                            </g>
                        </g>
                        <path id="Path7" serif:id="Path" d="M29.583,0L4.438,0C1.997,0 0,1.997 0,4.438L0,60.646C0,63.086 1.997,65.083 4.438,65.083L42.896,65.083C45.336,65.083 47.333,63.086 47.333,60.646L47.333,17.75L29.583,0Z" style="fill:url(#_Radial2);fill-rule:nonzero;"/>
                    </g>
                </g>
            </g>
        </g>
    </g>
    <defs>
        <linearGradient id="_Linear1" x1="0" y1="0" x2="1" y2="0" gradientUnits="userSpaceOnUse" gradientTransform="matrix(9.20834e-16,15.0384,-15.0384,9.20834e-16,39.1082,17.8643)"><stop offset="0" style="stop-color:rgb(191,54,12);stop-opacity:0.2"/><stop offset="1" style="stop-color:rgb(191,54,12);stop-opacity:0.02"/></linearGradient>
        <radialGradient id="_Radial2" cx="0" cy="0" r="1" gradientUnits="userSpaceOnUse" gradientTransform="matrix(104.946,0,0,104.946,2.99906,3.53718)"><stop offset="0" style="stop-color:white;stop-opacity:0.1"/><stop offset="1" style="stop-color:white;stop-opacity:0"/></radialGradient>
    </defs>
</svg>
