<?xml version="1.0" encoding="UTF-8" standalone="no"?>
<!DOCTYPE svg PUBLIC "-//W3C//DTD SVG 1.1//EN" "http://www.w3.org/Graphics/SVG/1.1/DTD/svg11.dtd">
<svg width="100%" height="100%" viewBox="0 0 833 384" version="1.1" xmlns="http://www.w3.org/2000/svg" xmlns:xlink="http://www.w3.org/1999/xlink" xml:space="preserve" xmlns:serif="http://www.serif.com/" style="fill-rule:evenodd;clip-rule:evenodd;stroke-linecap:round;stroke-linejoin:round;stroke-miterlimit:1.5;">
    <g id="Artboard1" transform="matrix(1,0,0,1,0,-384)">
        <rect x="0" y="384" width="832.918" height="384" style="fill:none;"/>
        <g transform="matrix(1,0,0,1,-137.853,9.60507)">
            <text x="147.025px" y="668.871px" style="font-family:'Poppins-Regular', 'Poppins';font-size:36px;">We need to know</text>
            <text x="163.981px" y="708.471px" style="font-family:'Poppins-Regular', 'Poppins';font-size:36px;">the structure of</text>
            <text x="253.369px" y="748.071px" style="font-family:'Poppins-Regular', 'Poppins';font-size:36px;">ENaC</text>
        </g>
        <g transform="matrix(1,0,0,1,108.468,-236.716)">
            <text x="157.375px" y="668.871px" style="font-family:'Poppins-Regular', 'Poppins';font-size:36px;">We&apos;ve learned a</text>
            <text x="186.049px" y="708.471px" style="font-family:'Poppins-Regular', 'Poppins';font-size:36px;">lot about the</text>
            <text x="265.465px" y="748.071px" style="font-family:'Poppins-Regular', 'Poppins';font-size:36px;">ECD</text>
        </g>
        <g transform="matrix(1,0,0,1,10,-10)">
            <g transform="matrix(1,-0,-0,1,-10,394)">
                <path d="M262.728,132.24L281.494,125.984L275.239,144.751L262.728,132.24Z"/>
                <path d="M163.648,243.831C163.648,243.831 243.02,164.458 271.486,135.993" style="fill:none;stroke:black;stroke-width:5.9px;"/>
            </g>
        </g>
        <g transform="matrix(-1,0,0,1,807.935,-10)">
            <g transform="matrix(-1,0,0,1,807.935,394)">
                <path d="M635.521,237.575L654.287,243.831L648.031,225.064L635.521,237.575Z"/>
                <path d="M644.278,233.822C615.813,205.357 536.441,125.984 536.441,125.984" style="fill:none;stroke:black;stroke-width:5.9px;"/>
            </g>
        </g>
        <g transform="matrix(1,0,0,1,352.786,9.60507)">
            <text x="137.251px" y="668.871px" style="font-family:'Poppins-Regular', 'Poppins';font-size:36px;">We still don&apos;t know</text>
            <text x="179.515px" y="708.471px" style="font-family:'Poppins-Regular', 'Poppins';font-size:36px;">what the TMD</text>
            <text x="221.095px" y="748.071px" style="font-family:'Poppins-Regular', 'Poppins';font-size:36px;">looks like</text>
        </g>
    </g>
</svg>
