<?xml version="1.0" encoding="UTF-8" standalone="no"?>
<!DOCTYPE svg PUBLIC "-//W3C//DTD SVG 1.1//EN" "http://www.w3.org/Graphics/SVG/1.1/DTD/svg11.dtd">
<svg width="100%" height="100%" viewBox="0 0 1194 1019" version="1.1" xmlns="http://www.w3.org/2000/svg" xmlns:xlink="http://www.w3.org/1999/xlink" xml:space="preserve" xmlns:serif="http://www.serif.com/" style="fill-rule:evenodd;clip-rule:evenodd;stroke-linecap:round;stroke-linejoin:round;stroke-miterlimit:1.5;">
    <g id="Artboard1" transform="matrix(1.43255,0,0,2.65319,0,-1018.83)">
        <rect x="0" y="384" width="832.918" height="384" style="fill:none;"/>
        <g transform="matrix(0.698056,0,0,0.376904,29.5185,482.158)">
            <g transform="matrix(1,0,0,1,147.025,668.871)">
                <text x="0px" y="0px" style="font-family:'Poppins-Regular', 'Poppins';font-size:36px;">We need to know</text>
            </g>
            <g transform="matrix(1,0,0,1,163.981,708.471)">
                <text x="0px" y="0px" style="font-family:'Poppins-Regular', 'Poppins';font-size:36px;">the structure of</text>
            </g>
            <g transform="matrix(1,0,0,1,253.369,748.071)">
                <text x="0px" y="0px" style="font-family:'Poppins-Regular', 'Poppins';font-size:36px;">ENaC</text>
            </g>
        </g>
        <g transform="matrix(0.698056,0,0,0.376904,201.464,389.318)">
            <g transform="matrix(1,0,0,1,157.375,668.871)">
                <text x="0px" y="0px" style="font-family:'Poppins-Regular', 'Poppins';font-size:36px;">We&apos;ve learned a</text>
            </g>
            <g transform="matrix(1,0,0,1,186.049,708.471)">
                <text x="0px" y="0px" style="font-family:'Poppins-Regular', 'Poppins';font-size:36px;">lot about the</text>
            </g>
            <g transform="matrix(1,0,0,1,265.465,748.071)">
                <text x="0px" y="0px" style="font-family:'Poppins-Regular', 'Poppins';font-size:36px;">ECD</text>
            </g>
        </g>
        <g transform="matrix(0.698056,0,0,0.376904,0.000330216,384)">
            <g>
                <path d="M442.867,767.066L461.634,760.811L455.378,779.577L442.867,767.066Z"/>
                <path d="M343.787,878.657C343.787,878.657 423.16,799.285 451.625,770.82" style="fill:none;stroke:black;stroke-width:5.9px;"/>
            </g>
        </g>
        <g transform="matrix(0.698056,0,0,0.376904,1.5856e-05,384)">
            <g>
                <path d="M815.66,872.402L834.426,878.657L828.171,859.891L815.66,872.402Z"/>
                <path d="M824.418,868.648C795.953,840.183 716.58,760.811 716.58,760.811" style="fill:none;stroke:black;stroke-width:5.9px;"/>
            </g>
        </g>
        <g transform="matrix(0.698056,0,0,0.376904,372.012,482.158)">
            <g transform="matrix(1,0,0,1,158.005,668.871)">
                <text x="0px" y="0px" style="font-family:'Poppins-Regular', 'Poppins';font-size:36px;">We&apos;ve got some</text>
            </g>
            <g transform="matrix(1,0,0,1,115.597,708.471)">
                <text x="0px" y="0px" style="font-family:'Poppins-Regular', 'Poppins';font-size:36px;">idea of what&apos;s wrong</text>
            </g>
            <g transform="matrix(1,0,0,1,186.733,748.071)">
                <text x="0px" y="0px" style="font-family:'Poppins-Regular', 'Poppins';font-size:36px;">with our TMD</text>
            </g>
        </g>
        <g transform="matrix(0.698056,0,0,0.376904,17.4885,484.765)">
            <g transform="matrix(1,0,0,1,408.365,213.778)">
                <text x="0px" y="0px" style="font-family:'Poppins-Regular', 'Poppins';font-size:36px;">Why don&apos;t we see</text>
            </g>
            <g transform="matrix(1,0,0,1,482.831,253.378)">
                <text x="0px" y="0px" style="font-family:'Poppins-Regular', 'Poppins';font-size:36px;">the TMD?</text>
            </g>
        </g>
        <g>
            <g transform="matrix(0.698056,0,0,0.376904,17.4885,334.094)">
                <g transform="matrix(1,0,0,1,396.917,213.778)">
                    <text x="0px" y="0px" style="font-family:'Poppins-Regular', 'Poppins';font-size:36px;">Is there something</text>
                </g>
                <g transform="matrix(1,0,0,1,431.477,253.378)">
                    <text x="0px" y="0px" style="font-family:'Poppins-Regular', 'Poppins';font-size:36px;">wrong with the</text>
                </g>
                <g transform="matrix(1,0,0,1,448.559,292.978)">
                    <text x="0px" y="0px" style="font-family:'Poppins-Regular', 'Poppins';font-size:36px;">microscopy?</text>
                </g>
            </g>
            <g transform="matrix(0.698055,2.21754e-07,-8.8056e-08,0.376904,-5.5912e-05,384)">
                <g>
                    <path d="M636.662,407.596L638.029,427.33L652.996,414.396L636.662,407.596Z"/>
                    <path d="M543.596,407.904L542.957,427.675L527.524,415.302L543.596,407.904Z"/>
                    <path d="M643.469,414.262C766.583,106.336 400.902,108.096 537.039,414.817" style="fill:none;stroke:black;stroke-width:5.9px;"/>
                </g>
            </g>
        </g>
        <g>
            <g transform="matrix(0.698056,0,0,0.376904,-247.734,388.932)">
                <g transform="matrix(1,0,0,1,396.917,213.778)">
                    <text x="0px" y="0px" style="font-family:'Poppins-Regular', 'Poppins';font-size:36px;">Is there something</text>
                </g>
                <g transform="matrix(1,0,0,1,465.515,253.378)">
                    <text x="0px" y="0px" style="font-family:'Poppins-Regular', 'Poppins';font-size:36px;">wrong with</text>
                </g>
                <g transform="matrix(1,0,0,1,452.933,292.978)">
                    <text x="0px" y="0px" style="font-family:'Poppins-Regular', 'Poppins';font-size:36px;">the sample?</text>
                </g>
            </g>
            <g transform="matrix(0.698056,0,0,0.376904,2.5692e-05,384)">
                <g>
                    <path d="M374.76,476.888L393.57,470.763L377.384,459.391L374.76,476.888Z"/>
                    <path d="M440.982,391.163L434.246,409.763L423.408,393.215L440.982,391.163Z"/>
                    <path d="M379.572,468.664C140.402,427.732 402.861,196.355 432.605,395.704" style="fill:none;stroke:black;stroke-width:5.9px;"/>
                </g>
            </g>
        </g>
        <g>
            <g transform="matrix(0.698056,0,0,0.376904,298.618,388.932)">
                <g transform="matrix(1,0,0,1,396.917,213.778)">
                    <text x="0px" y="0px" style="font-family:'Poppins-Regular', 'Poppins';font-size:36px;">Is there something</text>
                </g>
                <g transform="matrix(1,0,0,1,431.477,253.378)">
                    <text x="0px" y="0px" style="font-family:'Poppins-Regular', 'Poppins';font-size:36px;">wrong with the</text>
                </g>
                <g transform="matrix(1,0,0,1,464.867,292.978)">
                    <text x="0px" y="0px" style="font-family:'Poppins-Regular', 'Poppins';font-size:36px;">processing</text>
                </g>
            </g>
            <g transform="matrix(0.698056,0,0,0.376904,-0.00022656,384)">
                <g>
                    <path d="M820.506,459.391L804.321,470.763L823.13,476.888L820.506,459.391Z"/>
                    <path d="M774.482,393.215L763.644,409.763L756.908,391.163L774.482,393.215Z"/>
                    <path d="M818.319,468.664C1057.49,427.732 795.03,196.355 765.285,395.704" style="fill:none;stroke:black;stroke-width:5.9px;"/>
                </g>
            </g>
        </g>
        <g transform="matrix(0.698056,0,0,0.376904,-0.000109784,384)">
            <g>
                <path d="M587.752,620.889L596.598,638.581L605.445,620.889L587.752,620.889Z"/>
                <path d="M587.752,561.902L596.598,544.209L605.445,561.902L587.752,561.902Z"/>
                <path d="M596.598,624.427L596.598,558.363" style="fill:none;stroke:black;stroke-width:5.9px;"/>
            </g>
        </g>
    </g>
</svg>
