<?xml version="1.0" encoding="UTF-8" standalone="no"?>
<!DOCTYPE svg PUBLIC "-//W3C//DTD SVG 1.1//EN" "http://www.w3.org/Graphics/SVG/1.1/DTD/svg11.dtd">
<svg width="100%" height="100%" viewBox="0 0 1194 1019" version="1.1" xmlns="http://www.w3.org/2000/svg" xmlns:xlink="http://www.w3.org/1999/xlink" xml:space="preserve" xmlns:serif="http://www.serif.com/" style="fill-rule:evenodd;clip-rule:evenodd;stroke-linecap:round;stroke-linejoin:round;stroke-miterlimit:1.5;">
    <g id="Artboard1" transform="matrix(1.43255,0,0,2.65319,0,-1018.83)">
        <rect x="0" y="384" width="832.918" height="384" style="fill:none;"/>
        <g transform="matrix(0.698056,0,0,0.376904,29.5185,482.158)">
            <text x="147.025px" y="668.871px" style="font-family:'Poppins-Regular', 'Poppins';font-size:36px;">We need to know</text>
            <text x="163.981px" y="708.471px" style="font-family:'Poppins-Regular', 'Poppins';font-size:36px;">the structure of</text>
            <text x="253.369px" y="748.071px" style="font-family:'Poppins-Regular', 'Poppins';font-size:36px;">ENaC</text>
        </g>
        <g transform="matrix(0.698056,0,0,0.376904,201.464,389.318)">
            <text x="157.375px" y="668.871px" style="font-family:'Poppins-Regular', 'Poppins';font-size:36px;">We&apos;ve learned a</text>
            <text x="186.049px" y="708.471px" style="font-family:'Poppins-Regular', 'Poppins';font-size:36px;">lot about the</text>
            <text x="265.465px" y="748.071px" style="font-family:'Poppins-Regular', 'Poppins';font-size:36px;">ECD</text>
        </g>
        <g transform="matrix(0.698056,0,0,0.376904,132.728,474.769)">
            <g transform="matrix(1,-0,-0,1,-190.139,-240.827)">
                <path d="M442.867,767.066L461.634,760.811L455.378,779.577L442.867,767.066Z"/>
                <path d="M343.787,878.657C343.787,878.657 423.16,799.285 451.625,770.82" style="fill:none;stroke:black;stroke-width:5.9px;"/>
            </g>
        </g>
        <g transform="matrix(-0.698056,0,0,0.376904,689.731,474.769)">
            <g transform="matrix(-1,0,0,1,988.074,-240.827)">
                <path d="M815.66,872.402L834.426,878.657L828.171,859.891L815.66,872.402Z"/>
                <path d="M824.418,868.648C795.953,840.183 716.58,760.811 716.58,760.811" style="fill:none;stroke:black;stroke-width:5.9px;"/>
            </g>
        </g>
        <g transform="matrix(0.698056,0,0,0.376904,372.012,482.158)">
            <text x="158.005px" y="668.871px" style="font-family:'Poppins-Regular', 'Poppins';font-size:36px;">We&apos;ve got some</text>
            <text x="115.597px" y="708.471px" style="font-family:'Poppins-Regular', 'Poppins';font-size:36px;">idea of what&apos;s wrong</text>
            <text x="186.733px" y="748.071px" style="font-family:'Poppins-Regular', 'Poppins';font-size:36px;">with our TMD</text>
        </g>
        <g transform="matrix(0.698056,0,0,0.376904,17.4885,484.765)">
            <text x="408.365px" y="213.778px" style="font-family:'Poppins-Regular', 'Poppins';font-size:36px;">Why don&apos;t we see</text>
            <text x="482.831px" y="253.378px" style="font-family:'Poppins-Regular', 'Poppins';font-size:36px;">the TMD?</text>
        </g>
        <g transform="matrix(0.698056,0,0,0.376904,17.4885,334.094)">
            <text x="396.917px" y="213.778px" style="font-family:'Poppins-Regular', 'Poppins';font-size:36px;">Is there something</text>
            <text x="431.477px" y="253.378px" style="font-family:'Poppins-Regular', 'Poppins';font-size:36px;">wrong with the</text>
            <text x="448.559px" y="292.978px" style="font-family:'Poppins-Regular', 'Poppins';font-size:36px;">microscopy?</text>
        </g>
        <g transform="matrix(0.698056,0,0,0.376904,-247.734,388.932)">
            <text x="396.917px" y="213.778px" style="font-family:'Poppins-Regular', 'Poppins';font-size:36px;">Is there something</text>
            <text x="465.515px" y="253.378px" style="font-family:'Poppins-Regular', 'Poppins';font-size:36px;">wrong with</text>
            <text x="452.933px" y="292.978px" style="font-family:'Poppins-Regular', 'Poppins';font-size:36px;">the sample?</text>
        </g>
        <g transform="matrix(0.698056,0,0,0.376904,298.618,388.932)">
            <text x="396.917px" y="213.778px" style="font-family:'Poppins-Regular', 'Poppins';font-size:36px;">Is there something</text>
            <text x="431.477px" y="253.378px" style="font-family:'Poppins-Regular', 'Poppins';font-size:36px;">wrong with the</text>
            <text x="464.867px" y="292.978px" style="font-family:'Poppins-Regular', 'Poppins';font-size:36px;">processing</text>
        </g>
        <g transform="matrix(0.698056,0,0,0.376904,125.747,481.368)">
            <g transform="matrix(1,-0,-0,1,-180.139,-258.336)">
                <path d="M587.752,620.889L596.598,638.581L605.445,620.889L587.752,620.889Z"/>
                <path d="M587.752,561.902L596.598,544.209L605.445,561.902L587.752,561.902Z"/>
                <path d="M596.598,624.427L596.598,558.363" style="fill:none;stroke:black;stroke-width:5.9px;"/>
            </g>
        </g>
        <g transform="matrix(0.698056,0,0,0.376904,-8.28555,381.479)">
            <g transform="matrix(1,-0,-0,1,11.8695,6.68982)">
                <path d="M374.76,476.888L393.57,470.763L377.384,459.391L374.76,476.888Z"/>
                <path d="M440.982,391.163L434.246,409.763L423.408,393.215L440.982,391.163Z"/>
                <path d="M379.572,468.664C140.402,427.732 402.861,196.355 432.605,395.704" style="fill:none;stroke:black;stroke-width:5.9px;"/>
            </g>
        </g>
        <g transform="matrix(-0.698056,0,0,0.376904,844.48,381.479)">
            <g transform="matrix(-1,0,0,1,1209.76,6.68982)">
                <path d="M820.506,459.391L804.321,470.763L823.13,476.888L820.506,459.391Z"/>
                <path d="M774.482,393.215L763.644,409.763L756.908,391.163L774.482,393.215Z"/>
                <path d="M818.319,468.664C1057.49,427.732 795.03,196.355 765.285,395.704" style="fill:none;stroke:black;stroke-width:5.9px;"/>
            </g>
        </g>
        <g transform="matrix(-0.455196,0.285746,0.529224,0.245776,361.688,315.363)">
            <g transform="matrix(-0.652091,0.75814,0.75814,0.652091,475.936,-274.069)">
                <path d="M636.662,407.596L638.029,427.33L652.996,414.396L636.662,407.596Z"/>
                <path d="M543.596,407.904L542.957,427.675L527.524,415.302L543.596,407.904Z"/>
                <path d="M643.469,414.262C766.583,106.336 400.902,108.096 537.039,414.817" style="fill:none;stroke:black;stroke-width:5.9px;"/>
            </g>
        </g>
    </g>
</svg>
