<?xml version="1.0" encoding="UTF-8" standalone="no"?>
<!DOCTYPE svg PUBLIC "-//W3C//DTD SVG 1.1//EN" "http://www.w3.org/Graphics/SVG/1.1/DTD/svg11.dtd">
<svg width="100%" height="100%" viewBox="0 0 1920 1080" version="1.1" xmlns="http://www.w3.org/2000/svg" xmlns:xlink="http://www.w3.org/1999/xlink" xml:space="preserve" xmlns:serif="http://www.serif.com/" style="fill-rule:evenodd;clip-rule:evenodd;stroke-linejoin:round;stroke-miterlimit:2;">
    <g transform="matrix(0.604703,0,0,0.604703,379.5,0)">
        <path d="M1160.9,982.3L1026.95,0L1016.95,0C529.872,1.422 135.372,395.922 133.95,882.998L133.95,893L1160.9,982.3Z" style="fill:rgb(237,108,71);fill-rule:nonzero;"/>
    </g>
    <g transform="matrix(0.604703,0,0,0.604703,379.5,0)">
        <path d="M1036.95,0L1026.95,0L1026.95,893L1473.45,1071.6L1919.95,893L1919.95,882.998C1918.53,395.922 1524.03,1.422 1036.95,0Z" style="fill:rgb(255,143,107);fill-rule:nonzero;"/>
    </g>
    <g transform="matrix(0.604703,0,0,0.604703,379.5,0)">
        <path d="M1919.95,893L1919.95,902.823C1918.55,1390.01 1523.96,1784.6 1036.77,1786L1017.13,1786C529.942,1784.6 135.348,1390.01 133.95,902.823L133.95,893L1919.95,893Z" style="fill:rgb(211,82,48);fill-rule:nonzero;"/>
    </g>
    <g transform="matrix(0.604703,0,0,0.604703,379.5,0)">
        <path d="M1071.6,438.909L1071.6,1391.74C1071.38,1424.85 1051.31,1454.59 1020.7,1467.2C1010.95,1471.32 1000.48,1473.45 989.89,1473.45L344.698,1473.45C332.196,1459.16 320.141,1443.98 308.978,1428.8C195.223,1277.05 133.802,1092.48 133.95,902.822L133.95,883.176C133.689,712.114 183.683,544.743 277.723,401.849C287.546,386.668 297.815,371.487 308.978,357.199L989.89,357.199C1034.88,357.54 1071.26,393.924 1071.6,438.909Z" style="fill-opacity:0.1;fill-rule:nonzero;"/>
    </g>
    <g transform="matrix(0.604703,0,0,0.604703,379.5,0)">
        <path d="M1026.95,483.56L1026.95,1436.39C1026.95,1446.98 1024.82,1457.45 1020.7,1467.2C1008.09,1497.81 978.349,1517.88 945.24,1518.1L385.329,1518.1C371.202,1503.76 357.647,1488.86 344.697,1473.45C332.195,1459.16 320.14,1443.98 308.977,1428.8C195.222,1277.05 133.801,1092.48 133.949,902.823L133.949,883.177C133.688,712.115 183.682,544.744 277.722,401.85L945.24,401.85C990.226,402.19 1026.61,438.574 1026.95,483.56Z" style="fill-opacity:0.2;fill-rule:nonzero;"/>
    </g>
    <g transform="matrix(0.604703,0,0,0.604703,379.5,0)">
        <path d="M1026.95,483.56L1026.95,1347.09C1026.61,1392.08 990.226,1428.46 945.241,1428.8L308.978,1428.8C195.223,1277.05 133.802,1092.48 133.95,902.824L133.95,883.178C133.689,712.116 183.683,544.745 277.723,401.851L945.24,401.851C990.226,402.19 1026.61,438.574 1026.95,483.56Z" style="fill-opacity:0.2;fill-rule:nonzero;"/>
    </g>
    <g transform="matrix(0.604703,0,0,0.604703,379.5,0)">
        <path d="M982.3,483.56L982.3,1347.09C981.96,1392.08 945.576,1428.46 900.591,1428.8L308.978,1428.8C195.223,1277.05 133.802,1092.48 133.95,902.824L133.95,883.178C133.689,712.116 183.683,544.745 277.723,401.851L900.59,401.851C945.576,402.19 981.96,438.574 982.3,483.56Z" style="fill-opacity:0.2;fill-rule:nonzero;"/>
    </g>
    <g transform="matrix(0.604703,0,0,0.604703,379.5,0)">
        <path d="M81.843,401.85L900.456,401.85C945.657,401.85 982.299,438.493 982.299,483.693L982.299,1302.31C982.299,1347.51 945.656,1384.15 900.456,1384.15L81.843,1384.15C36.643,1384.15 0,1347.51 0,1302.31L0,483.693C0,438.493 36.643,401.85 81.843,401.85Z" style="fill:url(#_Linear1);fill-rule:nonzero;"/>
    </g>
    <g transform="matrix(0.604703,0,0,0.604703,379.5,0)">
        <path d="M500.08,620.144C553.369,616.548 606.199,632.027 649.122,663.812C684.922,695.773 704.051,742.411 701.005,790.305C701.59,823.599 692.718,856.376 675.421,884.829C657.909,912.793 632.679,935.092 602.775,949.036C568.588,964.936 531.211,972.787 493.516,971.986L389.973,971.986L389.973,1164.43L283.929,1164.43L283.929,620.144L500.08,620.144ZM389.884,888.848L481.149,888.848C510.082,890.973 538.79,882.41 561.832,864.782C580.89,846.5 590.879,820.719 589.113,794.369C589.113,734.389 554.256,704.399 484.543,704.399L389.885,704.399L389.885,888.848L389.884,888.848Z" style="fill:white;fill-rule:nonzero;"/>
    </g>
    <defs>
        <linearGradient id="_Linear1" x1="0" y1="0" x2="1" y2="0" gradientUnits="userSpaceOnUse" gradientTransform="matrix(641.009,1110.2,-1110.2,641.009,170.645,337.899)"><stop offset="0" style="stop-color:rgb(202,76,40);stop-opacity:1"/><stop offset="0.5" style="stop-color:rgb(197,64,30);stop-opacity:1"/><stop offset="1" style="stop-color:rgb(182,47,20);stop-opacity:1"/></linearGradient>
    </defs>
</svg>
