<?xml version="1.0" encoding="UTF-8" standalone="no"?>
<!DOCTYPE svg PUBLIC "-//W3C//DTD SVG 1.1//EN" "http://www.w3.org/Graphics/SVG/1.1/DTD/svg11.dtd">
<svg width="100%" height="100%" viewBox="0 0 1000 297" version="1.1" xmlns="http://www.w3.org/2000/svg" xmlns:xlink="http://www.w3.org/1999/xlink" xml:space="preserve" xmlns:serif="http://www.serif.com/" style="fill-rule:evenodd;clip-rule:evenodd;stroke-linejoin:round;stroke-miterlimit:2;">
    <g transform="matrix(5.29101,0,0,5.29101,0,0)">
        <path d="M59,42.585L59,14.138L12,3.737L12,52.315L59,42.585ZM60.406,45.357C61.334,45.165 62,44.347 62,43.399L62,13.336C62,12.398 61.348,11.586 60.432,11.383L11.432,0.538C10.184,0.262 9,1.212 9,2.491L9,53.544C9,54.811 10.164,55.759 11.406,55.502L60.406,45.357Z" style="fill:rgb(213,63,140);"/>
    </g>
    <g transform="matrix(5.29101,0,0,5.29101,0,0)">
        <path d="M0,12.601C0,11.653 0.666,10.835 1.595,10.643L50.594,0.498C51.836,0.241 53,1.189 53,2.456L53,53.509C53,54.788 51.816,55.738 50.568,55.462L1.568,44.617C0.652,44.415 0,43.603 0,42.664L0,12.601Z" style="fill:rgb(242,225,66);fill-rule:nonzero;"/>
    </g>
    <g transform="matrix(5.29101,0,0,5.29101,0,0)">
        <rect x="9" y="3.029" width="3" height="49.996" style="fill:rgb(213,63,140);fill-rule:nonzero;"/>
    </g>
    <g transform="matrix(5.29101,0,0,5.29101,0,0)">
        <path d="M77.148,37.903L80.132,37.903L80.132,25.609C80.132,22.978 82.207,21.056 85.04,21.056C85.837,21.056 86.659,21.208 86.861,21.258L86.861,18.223C86.519,18.197 85.735,18.172 85.293,18.172C82.966,18.172 80.942,19.488 80.234,21.41L80.031,21.41L80.031,18.476L77.148,18.476L77.148,37.903Z" style="fill-rule:nonzero;"/>
    </g>
    <g transform="matrix(5.29101,0,0,5.29101,0,0)">
        <path d="M96.241,38.307C100.187,38.307 103.07,36.334 103.981,33.4L101.097,32.591C100.338,34.614 98.58,35.626 96.241,35.626C92.737,35.626 90.322,33.362 90.182,29.201L104.284,29.201L104.284,27.936C104.284,20.702 99.984,18.223 95.937,18.223C90.676,18.223 87.185,22.371 87.185,28.341C87.185,34.311 90.625,38.307 96.241,38.307ZM90.182,26.621C90.385,23.598 92.522,20.904 95.937,20.904C99.175,20.904 101.249,23.332 101.249,26.621L90.182,26.621Z" style="fill-rule:nonzero;"/>
    </g>
    <g transform="matrix(5.29101,0,0,5.29101,0,0)">
        <path d="M122.998,18.476L119.76,18.476L114.398,33.957L114.195,33.957L108.833,18.476L105.595,18.476L112.779,37.903L115.814,37.903L122.998,18.476Z" style="fill-rule:nonzero;"/>
    </g>
    <g transform="matrix(5.29101,0,0,5.29101,0,0)">
        <path d="M132.675,38.307C136.621,38.307 139.504,36.334 140.415,33.4L137.531,32.591C136.772,34.614 135.014,35.626 132.675,35.626C129.171,35.626 126.756,33.362 126.617,29.201L140.719,29.201L140.719,27.936C140.719,20.702 136.418,18.223 132.371,18.223C127.11,18.223 123.619,22.371 123.619,28.341C123.619,34.311 127.059,38.307 132.675,38.307ZM126.617,26.621C126.819,23.598 128.956,20.904 132.371,20.904C135.609,20.904 137.683,23.332 137.683,26.621L126.617,26.621Z" style="fill-rule:nonzero;"/>
    </g>
    <g transform="matrix(5.29101,0,0,5.29101,0,0)">
        <path d="M149.263,38.358C152.653,38.358 154.424,36.537 155.031,35.272L155.182,35.272L155.182,37.903L158.167,37.903L158.167,25.103C158.167,18.931 153.462,18.223 150.983,18.223C148.049,18.223 144.71,19.235 143.193,22.776L146.026,23.788C146.683,22.371 148.239,20.853 151.085,20.853C153.829,20.853 155.182,22.308 155.182,24.799L155.182,24.901C155.182,26.343 153.715,26.216 150.174,26.671C146.569,27.139 142.636,27.936 142.636,32.388C142.636,36.183 145.57,38.358 149.263,38.358ZM149.719,35.677C147.341,35.677 145.621,34.614 145.621,32.54C145.621,30.263 147.695,29.555 150.022,29.252C151.287,29.1 154.677,28.746 155.182,28.139L155.182,30.871C155.182,33.299 153.26,35.677 149.719,35.677Z" style="fill-rule:nonzero;"/>
    </g>
    <g transform="matrix(5.29101,0,0,5.29101,0,0)">
        <rect x="161.903" y="12" width="2.985" height="25.903" style="fill-rule:nonzero;"/>
    </g>
    <g transform="matrix(5.29101,0,0,5.29101,0,0)">
        <path d="M175.271,24L175.271,32.583C175.271,33.396 174.948,33.854 174.22,33.854L173.998,33.854L173.998,35L174.241,35C175.736,35 176.463,34.063 176.463,32.583L176.463,24L175.271,24ZM175.857,22.667C176.321,22.667 176.705,22.292 176.705,21.833C176.705,21.375 176.321,21 175.857,21C175.392,21 175.008,21.375 175.008,21.833C175.008,22.292 175.392,22.667 175.857,22.667Z" style="fill-rule:nonzero;"/>
    </g>
    <g transform="matrix(5.29101,0,0,5.29101,0,0)">
        <path d="M183.857,25.792C183.483,24.656 182.644,23.896 181.109,23.896C179.473,23.896 178.261,24.854 178.261,26.208C178.261,27.313 178.897,28.052 180.321,28.396L181.614,28.708C182.397,28.896 182.766,29.281 182.766,29.833C182.766,30.521 182.059,31.083 180.947,31.083C179.973,31.083 179.362,30.651 179.149,29.792L178.018,30.083C178.296,31.443 179.382,32.167 180.968,32.167C182.771,32.167 183.998,31.151 183.998,29.771C183.998,28.656 183.321,27.953 181.937,27.604L180.786,27.313C179.867,27.078 179.452,26.76 179.452,26.146C179.452,25.458 180.16,24.958 181.109,24.958C182.149,24.958 182.579,25.552 182.786,26.104L183.857,25.792Z" style="fill-rule:nonzero;"/>
    </g>
    <g transform="matrix(5.29101,0,0,5.29101,0,0)">
        <path d="M186.998,19L170.998,19C170.446,19 169.998,19.448 169.998,20L169.998,36C169.998,36.552 170.446,37 170.998,37L186.998,37C187.55,37 187.998,36.552 187.998,36L187.998,20C187.998,19.448 187.55,19 186.998,19ZM170.998,18C169.894,18 168.998,18.895 168.998,20L168.998,36C168.998,37.105 169.894,38 170.998,38L186.998,38C188.102,38 188.998,37.105 188.998,36L188.998,20C188.998,18.895 188.102,18 186.998,18L170.998,18Z"/>
    </g>
</svg>
